<?xml version="1.0" encoding="utf-8"?>
<svg xmlns="http://www.w3.org/2000/svg" xmlns:xlink="http://www.w3.org/1999/xlink" width="600" height="400" viewBox="0 0 2400 1600">
<defs>
  <clipPath id="clip870">
    <rect x="0" y="0" width="2400" height="1600"/>
  </clipPath>
</defs>
<path clip-path="url(#clip870)" d="M0 1600 L2400 1600 L2400 0 L0 0  Z" fill="#ffffff" fill-rule="evenodd" fill-opacity="1"/>
<defs>
  <clipPath id="clip871">
    <rect x="480" y="0" width="1681" height="1600"/>
  </clipPath>
</defs>
<defs>
  <clipPath id="clip872">
    <rect x="287" y="123" width="2066" height="1301"/>
  </clipPath>
</defs>
<path clip-path="url(#clip870)" d="M287.366 1423.18 L2352.76 1423.18 L2352.76 123.472 L287.366 123.472  Z" fill="#ffffff" fill-rule="evenodd" fill-opacity="1"/>
<polyline clip-path="url(#clip872)" style="stroke:#000000; stroke-linecap:round; stroke-linejoin:round; stroke-width:2; stroke-opacity:0.1; fill:none" points="389.752,1423.18 389.752,123.472 "/>
<polyline clip-path="url(#clip872)" style="stroke:#000000; stroke-linecap:round; stroke-linejoin:round; stroke-width:2; stroke-opacity:0.1; fill:none" points="700.02,1423.18 700.02,123.472 "/>
<polyline clip-path="url(#clip872)" style="stroke:#000000; stroke-linecap:round; stroke-linejoin:round; stroke-width:2; stroke-opacity:0.1; fill:none" points="1010.29,1423.18 1010.29,123.472 "/>
<polyline clip-path="url(#clip872)" style="stroke:#000000; stroke-linecap:round; stroke-linejoin:round; stroke-width:2; stroke-opacity:0.1; fill:none" points="1320.56,1423.18 1320.56,123.472 "/>
<polyline clip-path="url(#clip872)" style="stroke:#000000; stroke-linecap:round; stroke-linejoin:round; stroke-width:2; stroke-opacity:0.1; fill:none" points="1630.82,1423.18 1630.82,123.472 "/>
<polyline clip-path="url(#clip872)" style="stroke:#000000; stroke-linecap:round; stroke-linejoin:round; stroke-width:2; stroke-opacity:0.1; fill:none" points="1941.09,1423.18 1941.09,123.472 "/>
<polyline clip-path="url(#clip872)" style="stroke:#000000; stroke-linecap:round; stroke-linejoin:round; stroke-width:2; stroke-opacity:0.1; fill:none" points="2251.36,1423.18 2251.36,123.472 "/>
<polyline clip-path="url(#clip870)" style="stroke:#000000; stroke-linecap:round; stroke-linejoin:round; stroke-width:4; stroke-opacity:1; fill:none" points="287.366,1423.18 2352.76,1423.18 "/>
<polyline clip-path="url(#clip870)" style="stroke:#000000; stroke-linecap:round; stroke-linejoin:round; stroke-width:4; stroke-opacity:1; fill:none" points="389.752,1423.18 389.752,1404.28 "/>
<polyline clip-path="url(#clip870)" style="stroke:#000000; stroke-linecap:round; stroke-linejoin:round; stroke-width:4; stroke-opacity:1; fill:none" points="700.02,1423.18 700.02,1404.28 "/>
<polyline clip-path="url(#clip870)" style="stroke:#000000; stroke-linecap:round; stroke-linejoin:round; stroke-width:4; stroke-opacity:1; fill:none" points="1010.29,1423.18 1010.29,1404.28 "/>
<polyline clip-path="url(#clip870)" style="stroke:#000000; stroke-linecap:round; stroke-linejoin:round; stroke-width:4; stroke-opacity:1; fill:none" points="1320.56,1423.18 1320.56,1404.28 "/>
<polyline clip-path="url(#clip870)" style="stroke:#000000; stroke-linecap:round; stroke-linejoin:round; stroke-width:4; stroke-opacity:1; fill:none" points="1630.82,1423.18 1630.82,1404.28 "/>
<polyline clip-path="url(#clip870)" style="stroke:#000000; stroke-linecap:round; stroke-linejoin:round; stroke-width:4; stroke-opacity:1; fill:none" points="1941.09,1423.18 1941.09,1404.28 "/>
<polyline clip-path="url(#clip870)" style="stroke:#000000; stroke-linecap:round; stroke-linejoin:round; stroke-width:4; stroke-opacity:1; fill:none" points="2251.36,1423.18 2251.36,1404.28 "/>
<path clip-path="url(#clip870)" d="M359.22 1468.75 L388.895 1468.75 L388.895 1472.69 L359.22 1472.69 L359.22 1468.75 Z" fill="#000000" fill-rule="evenodd" fill-opacity="1" /><path clip-path="url(#clip870)" d="M413.155 1466.95 Q416.511 1467.66 418.386 1469.93 Q420.284 1472.2 420.284 1475.53 Q420.284 1480.65 416.766 1483.45 Q413.247 1486.25 406.766 1486.25 Q404.59 1486.25 402.275 1485.81 Q399.983 1485.39 397.53 1484.54 L397.53 1480.02 Q399.474 1481.16 401.789 1481.74 Q404.104 1482.32 406.627 1482.32 Q411.025 1482.32 413.317 1480.58 Q415.631 1478.84 415.631 1475.53 Q415.631 1472.48 413.479 1470.77 Q411.349 1469.03 407.53 1469.03 L403.502 1469.03 L403.502 1465.19 L407.715 1465.19 Q411.164 1465.19 412.993 1463.82 Q414.821 1462.43 414.821 1459.84 Q414.821 1457.18 412.923 1455.77 Q411.048 1454.33 407.53 1454.33 Q405.608 1454.33 403.409 1454.75 Q401.21 1455.16 398.571 1456.04 L398.571 1451.88 Q401.233 1451.14 403.548 1450.77 Q405.886 1450.39 407.946 1450.39 Q413.27 1450.39 416.372 1452.83 Q419.474 1455.23 419.474 1459.35 Q419.474 1462.22 417.831 1464.21 Q416.187 1466.18 413.155 1466.95 Z" fill="#000000" fill-rule="evenodd" fill-opacity="1" /><path clip-path="url(#clip870)" d="M669.962 1468.75 L699.638 1468.75 L699.638 1472.69 L669.962 1472.69 L669.962 1468.75 Z" fill="#000000" fill-rule="evenodd" fill-opacity="1" /><path clip-path="url(#clip870)" d="M713.758 1481.64 L730.077 1481.64 L730.077 1485.58 L708.133 1485.58 L708.133 1481.64 Q710.795 1478.89 715.378 1474.26 Q719.985 1469.61 721.165 1468.27 Q723.411 1465.74 724.29 1464.01 Q725.193 1462.25 725.193 1460.56 Q725.193 1457.8 723.249 1456.07 Q721.327 1454.33 718.226 1454.33 Q716.027 1454.33 713.573 1455.09 Q711.142 1455.86 708.365 1457.41 L708.365 1452.69 Q711.189 1451.55 713.642 1450.97 Q716.096 1450.39 718.133 1450.39 Q723.503 1450.39 726.698 1453.08 Q729.892 1455.77 729.892 1460.26 Q729.892 1462.39 729.082 1464.31 Q728.295 1466.2 726.189 1468.8 Q725.61 1469.47 722.508 1472.69 Q719.406 1475.88 713.758 1481.64 Z" fill="#000000" fill-rule="evenodd" fill-opacity="1" /><path clip-path="url(#clip870)" d="M980.044 1468.75 L1009.72 1468.75 L1009.72 1472.69 L980.044 1472.69 L980.044 1468.75 Z" fill="#000000" fill-rule="evenodd" fill-opacity="1" /><path clip-path="url(#clip870)" d="M1020.62 1481.64 L1028.26 1481.64 L1028.26 1455.28 L1019.95 1456.95 L1019.95 1452.69 L1028.22 1451.02 L1032.89 1451.02 L1032.89 1481.64 L1040.53 1481.64 L1040.53 1485.58 L1020.62 1485.58 L1020.62 1481.64 Z" fill="#000000" fill-rule="evenodd" fill-opacity="1" /><path clip-path="url(#clip870)" d="M1320.56 1454.1 Q1316.94 1454.1 1315.12 1457.66 Q1313.31 1461.2 1313.31 1468.33 Q1313.31 1475.44 1315.12 1479.01 Q1316.94 1482.55 1320.56 1482.55 Q1324.19 1482.55 1325.99 1479.01 Q1327.82 1475.44 1327.82 1468.33 Q1327.82 1461.2 1325.99 1457.66 Q1324.19 1454.1 1320.56 1454.1 M1320.56 1450.39 Q1326.37 1450.39 1329.42 1455 Q1332.5 1459.58 1332.5 1468.33 Q1332.5 1477.06 1329.42 1481.67 Q1326.37 1486.25 1320.56 1486.25 Q1314.74 1486.25 1311.67 1481.67 Q1308.61 1477.06 1308.61 1468.33 Q1308.61 1459.58 1311.67 1455 Q1314.74 1450.39 1320.56 1450.39 Z" fill="#000000" fill-rule="evenodd" fill-opacity="1" /><path clip-path="url(#clip870)" d="M1621.2 1481.64 L1628.84 1481.64 L1628.84 1455.28 L1620.53 1456.95 L1620.53 1452.69 L1628.8 1451.02 L1633.47 1451.02 L1633.47 1481.64 L1641.11 1481.64 L1641.11 1485.58 L1621.2 1485.58 L1621.2 1481.64 Z" fill="#000000" fill-rule="evenodd" fill-opacity="1" /><path clip-path="url(#clip870)" d="M1935.74 1481.64 L1952.06 1481.64 L1952.06 1485.58 L1930.12 1485.58 L1930.12 1481.64 Q1932.78 1478.89 1937.36 1474.26 Q1941.97 1469.61 1943.15 1468.27 Q1945.4 1465.74 1946.28 1464.01 Q1947.18 1462.25 1947.18 1460.56 Q1947.18 1457.8 1945.23 1456.07 Q1943.31 1454.33 1940.21 1454.33 Q1938.01 1454.33 1935.56 1455.09 Q1933.13 1455.86 1930.35 1457.41 L1930.35 1452.69 Q1933.17 1451.55 1935.63 1450.97 Q1938.08 1450.39 1940.12 1450.39 Q1945.49 1450.39 1948.68 1453.08 Q1951.88 1455.77 1951.88 1460.26 Q1951.88 1462.39 1951.07 1464.31 Q1950.28 1466.2 1948.17 1468.8 Q1947.6 1469.47 1944.49 1472.69 Q1941.39 1475.88 1935.74 1481.64 Z" fill="#000000" fill-rule="evenodd" fill-opacity="1" /><path clip-path="url(#clip870)" d="M2255.61 1466.95 Q2258.96 1467.66 2260.84 1469.93 Q2262.74 1472.2 2262.74 1475.53 Q2262.74 1480.65 2259.22 1483.45 Q2255.7 1486.25 2249.22 1486.25 Q2247.04 1486.25 2244.73 1485.81 Q2242.43 1485.39 2239.98 1484.54 L2239.98 1480.02 Q2241.93 1481.16 2244.24 1481.74 Q2246.55 1482.32 2249.08 1482.32 Q2253.48 1482.32 2255.77 1480.58 Q2258.08 1478.84 2258.08 1475.53 Q2258.08 1472.48 2255.93 1470.77 Q2253.8 1469.03 2249.98 1469.03 L2245.95 1469.03 L2245.95 1465.19 L2250.17 1465.19 Q2253.62 1465.19 2255.44 1463.82 Q2257.27 1462.43 2257.27 1459.84 Q2257.27 1457.18 2255.37 1455.77 Q2253.5 1454.33 2249.98 1454.33 Q2248.06 1454.33 2245.86 1454.75 Q2243.66 1455.16 2241.02 1456.04 L2241.02 1451.88 Q2243.68 1451.14 2246 1450.77 Q2248.34 1450.39 2250.4 1450.39 Q2255.72 1450.39 2258.82 1452.83 Q2261.93 1455.23 2261.93 1459.35 Q2261.93 1462.22 2260.28 1464.21 Q2258.64 1466.18 2255.61 1466.95 Z" fill="#000000" fill-rule="evenodd" fill-opacity="1" /><path clip-path="url(#clip870)" d="M1332 1529.22 Q1332 1534.63 1330.26 1540.71 Q1328.55 1546.77 1325.84 1551.66 Q1323.14 1556.53 1319.6 1559.75 Q1316.05 1562.94 1312.67 1562.94 Q1310.51 1562.94 1308.9 1561.75 Q1307.33 1560.52 1306.46 1558.49 Q1305.59 1556.43 1305.17 1554.18 Q1304.75 1551.89 1304.75 1549.41 Q1304.75 1545.71 1305.55 1541.68 Q1306.36 1537.62 1307.71 1533.95 Q1309.07 1530.25 1310.97 1526.9 Q1312.87 1523.52 1314.96 1521.07 Q1317.08 1518.59 1319.47 1517.14 Q1321.85 1515.69 1324.07 1515.69 Q1325.68 1515.69 1326.97 1516.4 Q1328.29 1517.08 1329.13 1518.27 Q1329.97 1519.43 1330.55 1520.81 Q1331.16 1522.2 1331.45 1523.81 Q1331.74 1525.38 1331.87 1526.71 Q1332 1527.99 1332 1529.22 M1327.65 1525.13 Q1327.65 1523.48 1327.52 1522.26 Q1327.39 1521 1327.04 1519.75 Q1326.68 1518.49 1325.91 1517.82 Q1325.17 1517.14 1324.01 1517.14 Q1320.63 1517.14 1316.83 1524.06 Q1315.6 1526.22 1314.51 1529.15 Q1313.41 1532.08 1313.03 1533.47 Q1312.64 1534.85 1311.74 1538.27 L1325.52 1538.27 Q1327.65 1529.47 1327.65 1525.13 M1324.94 1540.36 L1311.22 1540.36 Q1309.1 1548.41 1309.1 1553.44 Q1309.1 1557.82 1310 1559.65 Q1310.93 1561.46 1312.67 1561.46 Q1314.67 1561.46 1316.54 1559.46 Q1318.4 1557.43 1320.31 1553.76 Q1322.82 1548.99 1324.94 1540.36 Z" fill="#000000" fill-rule="evenodd" fill-opacity="1" /><polyline clip-path="url(#clip872)" style="stroke:#000000; stroke-linecap:round; stroke-linejoin:round; stroke-width:2; stroke-opacity:0.1; fill:none" points="287.366,1275.8 2352.76,1275.8 "/>
<polyline clip-path="url(#clip872)" style="stroke:#000000; stroke-linecap:round; stroke-linejoin:round; stroke-width:2; stroke-opacity:0.1; fill:none" points="287.366,1077.15 2352.76,1077.15 "/>
<polyline clip-path="url(#clip872)" style="stroke:#000000; stroke-linecap:round; stroke-linejoin:round; stroke-width:2; stroke-opacity:0.1; fill:none" points="287.366,878.513 2352.76,878.513 "/>
<polyline clip-path="url(#clip872)" style="stroke:#000000; stroke-linecap:round; stroke-linejoin:round; stroke-width:2; stroke-opacity:0.1; fill:none" points="287.366,679.872 2352.76,679.872 "/>
<polyline clip-path="url(#clip872)" style="stroke:#000000; stroke-linecap:round; stroke-linejoin:round; stroke-width:2; stroke-opacity:0.1; fill:none" points="287.366,481.23 2352.76,481.23 "/>
<polyline clip-path="url(#clip872)" style="stroke:#000000; stroke-linecap:round; stroke-linejoin:round; stroke-width:2; stroke-opacity:0.1; fill:none" points="287.366,282.589 2352.76,282.589 "/>
<polyline clip-path="url(#clip870)" style="stroke:#000000; stroke-linecap:round; stroke-linejoin:round; stroke-width:4; stroke-opacity:1; fill:none" points="287.366,1423.18 287.366,123.472 "/>
<polyline clip-path="url(#clip870)" style="stroke:#000000; stroke-linecap:round; stroke-linejoin:round; stroke-width:4; stroke-opacity:1; fill:none" points="287.366,1275.8 306.264,1275.8 "/>
<polyline clip-path="url(#clip870)" style="stroke:#000000; stroke-linecap:round; stroke-linejoin:round; stroke-width:4; stroke-opacity:1; fill:none" points="287.366,1077.15 306.264,1077.15 "/>
<polyline clip-path="url(#clip870)" style="stroke:#000000; stroke-linecap:round; stroke-linejoin:round; stroke-width:4; stroke-opacity:1; fill:none" points="287.366,878.513 306.264,878.513 "/>
<polyline clip-path="url(#clip870)" style="stroke:#000000; stroke-linecap:round; stroke-linejoin:round; stroke-width:4; stroke-opacity:1; fill:none" points="287.366,679.872 306.264,679.872 "/>
<polyline clip-path="url(#clip870)" style="stroke:#000000; stroke-linecap:round; stroke-linejoin:round; stroke-width:4; stroke-opacity:1; fill:none" points="287.366,481.23 306.264,481.23 "/>
<polyline clip-path="url(#clip870)" style="stroke:#000000; stroke-linecap:round; stroke-linejoin:round; stroke-width:4; stroke-opacity:1; fill:none" points="287.366,282.589 306.264,282.589 "/>
<path clip-path="url(#clip870)" d="M114.26 1276.25 L143.936 1276.25 L143.936 1280.18 L114.26 1280.18 L114.26 1276.25 Z" fill="#000000" fill-rule="evenodd" fill-opacity="1" /><path clip-path="url(#clip870)" d="M164.028 1261.59 Q160.417 1261.59 158.589 1265.16 Q156.783 1268.7 156.783 1275.83 Q156.783 1282.94 158.589 1286.5 Q160.417 1290.04 164.028 1290.04 Q167.663 1290.04 169.468 1286.5 Q171.297 1282.94 171.297 1275.83 Q171.297 1268.7 169.468 1265.16 Q167.663 1261.59 164.028 1261.59 M164.028 1257.89 Q169.839 1257.89 172.894 1262.5 Q175.973 1267.08 175.973 1275.83 Q175.973 1284.56 172.894 1289.16 Q169.839 1293.75 164.028 1293.75 Q158.218 1293.75 155.14 1289.16 Q152.084 1284.56 152.084 1275.83 Q152.084 1267.08 155.14 1262.5 Q158.218 1257.89 164.028 1257.89 Z" fill="#000000" fill-rule="evenodd" fill-opacity="1" /><path clip-path="url(#clip870)" d="M184.19 1287.2 L189.075 1287.2 L189.075 1293.08 L184.19 1293.08 L184.19 1287.2 Z" fill="#000000" fill-rule="evenodd" fill-opacity="1" /><path clip-path="url(#clip870)" d="M199.306 1258.52 L217.662 1258.52 L217.662 1262.45 L203.588 1262.45 L203.588 1270.92 Q204.607 1270.58 205.625 1270.41 Q206.644 1270.23 207.662 1270.23 Q213.449 1270.23 216.829 1273.4 Q220.209 1276.57 220.209 1281.99 Q220.209 1287.57 216.736 1290.67 Q213.264 1293.75 206.945 1293.75 Q204.769 1293.75 202.5 1293.38 Q200.255 1293.01 197.848 1292.27 L197.848 1287.57 Q199.931 1288.7 202.153 1289.26 Q204.375 1289.81 206.852 1289.81 Q210.857 1289.81 213.195 1287.71 Q215.533 1285.6 215.533 1281.99 Q215.533 1278.38 213.195 1276.27 Q210.857 1274.16 206.852 1274.16 Q204.977 1274.16 203.102 1274.58 Q201.25 1275 199.306 1275.88 L199.306 1258.52 Z" fill="#000000" fill-rule="evenodd" fill-opacity="1" /><path clip-path="url(#clip870)" d="M239.422 1261.59 Q235.81 1261.59 233.982 1265.16 Q232.176 1268.7 232.176 1275.83 Q232.176 1282.94 233.982 1286.5 Q235.81 1290.04 239.422 1290.04 Q243.056 1290.04 244.861 1286.5 Q246.69 1282.94 246.69 1275.83 Q246.69 1268.7 244.861 1265.16 Q243.056 1261.59 239.422 1261.59 M239.422 1257.89 Q245.232 1257.89 248.287 1262.5 Q251.366 1267.08 251.366 1275.83 Q251.366 1284.56 248.287 1289.16 Q245.232 1293.75 239.422 1293.75 Q233.611 1293.75 230.533 1289.16 Q227.477 1284.56 227.477 1275.83 Q227.477 1267.08 230.533 1262.5 Q233.611 1257.89 239.422 1257.89 Z" fill="#000000" fill-rule="evenodd" fill-opacity="1" /><path clip-path="url(#clip870)" d="M115.256 1077.61 L144.931 1077.61 L144.931 1081.54 L115.256 1081.54 L115.256 1077.61 Z" fill="#000000" fill-rule="evenodd" fill-opacity="1" /><path clip-path="url(#clip870)" d="M165.024 1062.95 Q161.413 1062.95 159.584 1066.52 Q157.778 1070.06 157.778 1077.19 Q157.778 1084.3 159.584 1087.86 Q161.413 1091.4 165.024 1091.4 Q168.658 1091.4 170.464 1087.86 Q172.292 1084.3 172.292 1077.19 Q172.292 1070.06 170.464 1066.52 Q168.658 1062.95 165.024 1062.95 M165.024 1059.25 Q170.834 1059.25 173.889 1063.86 Q176.968 1068.44 176.968 1077.19 Q176.968 1085.92 173.889 1090.52 Q170.834 1095.11 165.024 1095.11 Q159.214 1095.11 156.135 1090.52 Q153.079 1085.92 153.079 1077.19 Q153.079 1068.44 156.135 1063.86 Q159.214 1059.25 165.024 1059.25 Z" fill="#000000" fill-rule="evenodd" fill-opacity="1" /><path clip-path="url(#clip870)" d="M185.186 1088.55 L190.07 1088.55 L190.07 1094.43 L185.186 1094.43 L185.186 1088.55 Z" fill="#000000" fill-rule="evenodd" fill-opacity="1" /><path clip-path="url(#clip870)" d="M204.283 1090.5 L220.602 1090.5 L220.602 1094.43 L198.658 1094.43 L198.658 1090.5 Q201.32 1087.74 205.903 1083.11 Q210.51 1078.46 211.69 1077.12 Q213.936 1074.6 214.815 1072.86 Q215.718 1071.1 215.718 1069.41 Q215.718 1066.66 213.774 1064.92 Q211.852 1063.18 208.75 1063.18 Q206.551 1063.18 204.098 1063.95 Q201.667 1064.71 198.889 1066.26 L198.889 1061.54 Q201.713 1060.41 204.167 1059.83 Q206.621 1059.25 208.658 1059.25 Q214.028 1059.25 217.223 1061.93 Q220.417 1064.62 220.417 1069.11 Q220.417 1071.24 219.607 1073.16 Q218.82 1075.06 216.713 1077.65 Q216.135 1078.32 213.033 1081.54 Q209.931 1084.74 204.283 1090.5 Z" fill="#000000" fill-rule="evenodd" fill-opacity="1" /><path clip-path="url(#clip870)" d="M230.463 1059.87 L248.82 1059.87 L248.82 1063.81 L234.746 1063.81 L234.746 1072.28 Q235.764 1071.93 236.783 1071.77 Q237.801 1071.59 238.82 1071.59 Q244.607 1071.59 247.986 1074.76 Q251.366 1077.93 251.366 1083.35 Q251.366 1088.93 247.894 1092.03 Q244.421 1095.11 238.102 1095.11 Q235.926 1095.11 233.658 1094.74 Q231.412 1094.36 229.005 1093.62 L229.005 1088.93 Q231.088 1090.06 233.31 1090.61 Q235.533 1091.17 238.009 1091.17 Q242.014 1091.17 244.352 1089.06 Q246.69 1086.96 246.69 1083.35 Q246.69 1079.74 244.352 1077.63 Q242.014 1075.52 238.009 1075.52 Q236.135 1075.52 234.26 1075.94 Q232.408 1076.36 230.463 1077.24 L230.463 1059.87 Z" fill="#000000" fill-rule="evenodd" fill-opacity="1" /><path clip-path="url(#clip870)" d="M164.028 864.312 Q160.417 864.312 158.589 867.876 Q156.783 871.418 156.783 878.548 Q156.783 885.654 158.589 889.219 Q160.417 892.761 164.028 892.761 Q167.663 892.761 169.468 889.219 Q171.297 885.654 171.297 878.548 Q171.297 871.418 169.468 867.876 Q167.663 864.312 164.028 864.312 M164.028 860.608 Q169.839 860.608 172.894 865.214 Q175.973 869.798 175.973 878.548 Q175.973 887.274 172.894 891.881 Q169.839 896.464 164.028 896.464 Q158.218 896.464 155.14 891.881 Q152.084 887.274 152.084 878.548 Q152.084 869.798 155.14 865.214 Q158.218 860.608 164.028 860.608 Z" fill="#000000" fill-rule="evenodd" fill-opacity="1" /><path clip-path="url(#clip870)" d="M184.19 889.913 L189.075 889.913 L189.075 895.793 L184.19 895.793 L184.19 889.913 Z" fill="#000000" fill-rule="evenodd" fill-opacity="1" /><path clip-path="url(#clip870)" d="M209.26 864.312 Q205.649 864.312 203.82 867.876 Q202.014 871.418 202.014 878.548 Q202.014 885.654 203.82 889.219 Q205.649 892.761 209.26 892.761 Q212.894 892.761 214.699 889.219 Q216.528 885.654 216.528 878.548 Q216.528 871.418 214.699 867.876 Q212.894 864.312 209.26 864.312 M209.26 860.608 Q215.07 860.608 218.125 865.214 Q221.204 869.798 221.204 878.548 Q221.204 887.274 218.125 891.881 Q215.07 896.464 209.26 896.464 Q203.449 896.464 200.371 891.881 Q197.315 887.274 197.315 878.548 Q197.315 869.798 200.371 865.214 Q203.449 860.608 209.26 860.608 Z" fill="#000000" fill-rule="evenodd" fill-opacity="1" /><path clip-path="url(#clip870)" d="M239.422 864.312 Q235.81 864.312 233.982 867.876 Q232.176 871.418 232.176 878.548 Q232.176 885.654 233.982 889.219 Q235.81 892.761 239.422 892.761 Q243.056 892.761 244.861 889.219 Q246.69 885.654 246.69 878.548 Q246.69 871.418 244.861 867.876 Q243.056 864.312 239.422 864.312 M239.422 860.608 Q245.232 860.608 248.287 865.214 Q251.366 869.798 251.366 878.548 Q251.366 887.274 248.287 891.881 Q245.232 896.464 239.422 896.464 Q233.611 896.464 230.533 891.881 Q227.477 887.274 227.477 878.548 Q227.477 869.798 230.533 865.214 Q233.611 860.608 239.422 860.608 Z" fill="#000000" fill-rule="evenodd" fill-opacity="1" /><path clip-path="url(#clip870)" d="M165.024 665.67 Q161.413 665.67 159.584 669.235 Q157.778 672.777 157.778 679.906 Q157.778 687.013 159.584 690.578 Q161.413 694.119 165.024 694.119 Q168.658 694.119 170.464 690.578 Q172.292 687.013 172.292 679.906 Q172.292 672.777 170.464 669.235 Q168.658 665.67 165.024 665.67 M165.024 661.967 Q170.834 661.967 173.889 666.573 Q176.968 671.156 176.968 679.906 Q176.968 688.633 173.889 693.24 Q170.834 697.823 165.024 697.823 Q159.214 697.823 156.135 693.24 Q153.079 688.633 153.079 679.906 Q153.079 671.156 156.135 666.573 Q159.214 661.967 165.024 661.967 Z" fill="#000000" fill-rule="evenodd" fill-opacity="1" /><path clip-path="url(#clip870)" d="M185.186 691.272 L190.07 691.272 L190.07 697.152 L185.186 697.152 L185.186 691.272 Z" fill="#000000" fill-rule="evenodd" fill-opacity="1" /><path clip-path="url(#clip870)" d="M204.283 693.216 L220.602 693.216 L220.602 697.152 L198.658 697.152 L198.658 693.216 Q201.32 690.462 205.903 685.832 Q210.51 681.179 211.69 679.837 Q213.936 677.314 214.815 675.578 Q215.718 673.818 215.718 672.129 Q215.718 669.374 213.774 667.638 Q211.852 665.902 208.75 665.902 Q206.551 665.902 204.098 666.666 Q201.667 667.43 198.889 668.98 L198.889 664.258 Q201.713 663.124 204.167 662.545 Q206.621 661.967 208.658 661.967 Q214.028 661.967 217.223 664.652 Q220.417 667.337 220.417 671.828 Q220.417 673.957 219.607 675.879 Q218.82 677.777 216.713 680.369 Q216.135 681.041 213.033 684.258 Q209.931 687.453 204.283 693.216 Z" fill="#000000" fill-rule="evenodd" fill-opacity="1" /><path clip-path="url(#clip870)" d="M230.463 662.592 L248.82 662.592 L248.82 666.527 L234.746 666.527 L234.746 674.999 Q235.764 674.652 236.783 674.49 Q237.801 674.305 238.82 674.305 Q244.607 674.305 247.986 677.476 Q251.366 680.647 251.366 686.064 Q251.366 691.642 247.894 694.744 Q244.421 697.823 238.102 697.823 Q235.926 697.823 233.658 697.453 Q231.412 697.082 229.005 696.341 L229.005 691.642 Q231.088 692.777 233.31 693.332 Q235.533 693.888 238.009 693.888 Q242.014 693.888 244.352 691.781 Q246.69 689.675 246.69 686.064 Q246.69 682.453 244.352 680.346 Q242.014 678.24 238.009 678.24 Q236.135 678.24 234.26 678.656 Q232.408 679.073 230.463 679.953 L230.463 662.592 Z" fill="#000000" fill-rule="evenodd" fill-opacity="1" /><path clip-path="url(#clip870)" d="M164.028 467.029 Q160.417 467.029 158.589 470.594 Q156.783 474.135 156.783 481.265 Q156.783 488.371 158.589 491.936 Q160.417 495.478 164.028 495.478 Q167.663 495.478 169.468 491.936 Q171.297 488.371 171.297 481.265 Q171.297 474.135 169.468 470.594 Q167.663 467.029 164.028 467.029 M164.028 463.325 Q169.839 463.325 172.894 467.932 Q175.973 472.515 175.973 481.265 Q175.973 489.992 172.894 494.598 Q169.839 499.182 164.028 499.182 Q158.218 499.182 155.14 494.598 Q152.084 489.992 152.084 481.265 Q152.084 472.515 155.14 467.932 Q158.218 463.325 164.028 463.325 Z" fill="#000000" fill-rule="evenodd" fill-opacity="1" /><path clip-path="url(#clip870)" d="M184.19 492.631 L189.075 492.631 L189.075 498.51 L184.19 498.51 L184.19 492.631 Z" fill="#000000" fill-rule="evenodd" fill-opacity="1" /><path clip-path="url(#clip870)" d="M199.306 463.95 L217.662 463.95 L217.662 467.885 L203.588 467.885 L203.588 476.358 Q204.607 476.01 205.625 475.848 Q206.644 475.663 207.662 475.663 Q213.449 475.663 216.829 478.834 Q220.209 482.006 220.209 487.422 Q220.209 493.001 216.736 496.103 Q213.264 499.182 206.945 499.182 Q204.769 499.182 202.5 498.811 Q200.255 498.441 197.848 497.7 L197.848 493.001 Q199.931 494.135 202.153 494.691 Q204.375 495.246 206.852 495.246 Q210.857 495.246 213.195 493.14 Q215.533 491.034 215.533 487.422 Q215.533 483.811 213.195 481.705 Q210.857 479.598 206.852 479.598 Q204.977 479.598 203.102 480.015 Q201.25 480.432 199.306 481.311 L199.306 463.95 Z" fill="#000000" fill-rule="evenodd" fill-opacity="1" /><path clip-path="url(#clip870)" d="M239.422 467.029 Q235.81 467.029 233.982 470.594 Q232.176 474.135 232.176 481.265 Q232.176 488.371 233.982 491.936 Q235.81 495.478 239.422 495.478 Q243.056 495.478 244.861 491.936 Q246.69 488.371 246.69 481.265 Q246.69 474.135 244.861 470.594 Q243.056 467.029 239.422 467.029 M239.422 463.325 Q245.232 463.325 248.287 467.932 Q251.366 472.515 251.366 481.265 Q251.366 489.992 248.287 494.598 Q245.232 499.182 239.422 499.182 Q233.611 499.182 230.533 494.598 Q227.477 489.992 227.477 481.265 Q227.477 472.515 230.533 467.932 Q233.611 463.325 239.422 463.325 Z" fill="#000000" fill-rule="evenodd" fill-opacity="1" /><path clip-path="url(#clip870)" d="M165.024 268.388 Q161.413 268.388 159.584 271.952 Q157.778 275.494 157.778 282.624 Q157.778 289.73 159.584 293.295 Q161.413 296.837 165.024 296.837 Q168.658 296.837 170.464 293.295 Q172.292 289.73 172.292 282.624 Q172.292 275.494 170.464 271.952 Q168.658 268.388 165.024 268.388 M165.024 264.684 Q170.834 264.684 173.889 269.29 Q176.968 273.874 176.968 282.624 Q176.968 291.351 173.889 295.957 Q170.834 300.54 165.024 300.54 Q159.214 300.54 156.135 295.957 Q153.079 291.351 153.079 282.624 Q153.079 273.874 156.135 269.29 Q159.214 264.684 165.024 264.684 Z" fill="#000000" fill-rule="evenodd" fill-opacity="1" /><path clip-path="url(#clip870)" d="M185.186 293.989 L190.07 293.989 L190.07 299.869 L185.186 299.869 L185.186 293.989 Z" fill="#000000" fill-rule="evenodd" fill-opacity="1" /><path clip-path="url(#clip870)" d="M199.075 265.309 L221.297 265.309 L221.297 267.3 L208.75 299.869 L203.866 299.869 L215.672 269.244 L199.075 269.244 L199.075 265.309 Z" fill="#000000" fill-rule="evenodd" fill-opacity="1" /><path clip-path="url(#clip870)" d="M230.463 265.309 L248.82 265.309 L248.82 269.244 L234.746 269.244 L234.746 277.716 Q235.764 277.369 236.783 277.207 Q237.801 277.022 238.82 277.022 Q244.607 277.022 247.986 280.193 Q251.366 283.364 251.366 288.781 Q251.366 294.36 247.894 297.462 Q244.421 300.54 238.102 300.54 Q235.926 300.54 233.658 300.17 Q231.412 299.8 229.005 299.059 L229.005 294.36 Q231.088 295.494 233.31 296.05 Q235.533 296.605 238.009 296.605 Q242.014 296.605 244.352 294.499 Q246.69 292.392 246.69 288.781 Q246.69 285.17 244.352 283.064 Q242.014 280.957 238.009 280.957 Q236.135 280.957 234.26 281.374 Q232.408 281.79 230.463 282.67 L230.463 265.309 Z" fill="#000000" fill-rule="evenodd" fill-opacity="1" /><path clip-path="url(#clip870)" d="M65.2145 928.863 L56.519 928.863 Q55.7782 928.863 55.5206 928.831 Q55.2629 928.798 55.0697 928.605 Q54.8765 928.412 54.8765 928.026 Q54.8765 927.575 55.0697 927.414 Q55.2629 927.22 56.0037 927.092 Q60.5447 926.093 62.9601 923.968 Q65.3434 921.81 65.3434 917.913 Q65.3434 914.209 63.7009 912.341 Q62.0584 910.473 59.3531 910.473 Q54.5222 910.473 53.2984 917.333 Q52.4932 921.295 51.9779 922.937 Q51.4304 924.58 50.2388 926.029 Q47.92 928.863 44.635 928.863 Q41.35 928.863 38.9346 926.383 Q36.5191 923.871 36.5191 918.332 Q36.5191 914.628 38.3871 912.116 Q37.8073 911.375 37.3243 910.989 Q36.5191 910.119 36.5191 909.668 Q36.5191 909.153 36.8734 909.056 Q37.1954 908.96 38.1294 908.96 L44.7638 908.96 Q45.5045 908.96 45.7622 908.992 Q46.0198 909.024 46.2131 909.217 Q46.3741 909.411 46.3741 909.829 Q46.3741 910.57 45.7622 910.602 Q37.7751 911.117 37.7751 918.332 Q37.7751 922.228 39.2888 923.968 Q40.7703 925.707 42.7993 925.707 Q43.9265 925.707 44.796 925.191 Q45.6334 924.644 46.1487 923.968 Q46.6318 923.259 47.1148 921.971 Q47.5657 920.683 47.7268 919.91 Q47.8878 919.105 48.2098 917.591 Q49.2082 912.309 51.366 910.087 Q54.1357 907.317 57.6462 907.317 Q61.5431 907.317 64.1839 909.958 Q66.8248 912.599 66.8248 917.913 Q66.8248 922.196 63.9585 925.191 Q64.345 925.578 64.6992 925.868 Q65.0213 926.158 65.1501 926.286 Q65.2789 926.383 65.3756 926.415 Q65.44 926.447 65.5044 926.512 Q66.8248 927.832 66.8248 928.154 Q66.8248 928.67 66.4706 928.766 Q66.1485 928.863 65.2145 928.863 Z" fill="#000000" fill-rule="evenodd" fill-opacity="1" /><path clip-path="url(#clip870)" d="M62.5415 899.069 Q58.2259 903.417 51.9779 903.417 Q45.6978 903.417 41.1246 899.166 Q36.5191 894.882 36.5191 888.763 Q36.5191 882.773 41.0923 878.489 Q45.6334 874.174 51.9779 874.174 Q58.1937 874.174 62.5092 878.522 Q66.8248 882.837 66.8248 888.827 Q66.8248 894.689 62.5415 899.069 M51.4304 897.942 Q57.8394 897.942 60.7379 896.267 Q65.1501 893.691 65.1501 888.763 Q65.1501 886.315 63.8297 884.286 Q62.5092 882.225 60.287 881.098 Q57.3885 879.649 51.4304 879.649 Q45.0859 879.649 42.284 881.388 Q38.0006 883.964 38.0006 888.827 Q38.0006 890.953 39.1278 893.046 Q40.2228 895.108 42.4128 896.364 Q45.3113 897.942 51.4304 897.942 Z" fill="#000000" fill-rule="evenodd" fill-opacity="1" /><path clip-path="url(#clip870)" d="M66.0841 872.073 L64.0551 872.073 Q64.0551 868.562 63.6364 867.757 Q63.1856 866.952 61.06 866.952 L43.379 866.952 Q40.9313 866.952 40.3194 867.821 Q39.7075 868.659 39.7075 872.073 L37.6463 872.073 L36.9378 862.797 L43.8621 862.797 Q36.9378 859.706 36.9378 853.039 Q36.9378 848.079 39.3854 846.115 Q41.0279 844.665 42.8637 844.376 Q44.6994 844.054 49.4659 844.054 L62.0584 844.054 Q63.4432 843.989 63.7653 842.926 Q64.0551 841.864 64.0551 838.901 L66.0841 838.901 Q65.8909 845.632 65.8909 846.308 Q65.8909 846.823 66.0841 853.748 L64.0551 853.748 Q64.0551 850.237 63.6364 849.432 Q63.1856 848.595 61.06 848.595 L45.6978 848.595 Q42.3484 848.595 40.3838 849.625 Q38.3871 850.656 38.3871 853.49 Q38.3871 856.904 41.2534 859.641 Q44.1197 862.379 48.9506 862.379 L61.06 862.379 Q63.1856 862.379 63.6364 861.574 Q64.0551 860.736 64.0551 857.258 L66.0841 857.258 Q65.8909 863.989 65.8909 864.633 Q65.8909 865.148 66.0841 872.073 Z" fill="#000000" fill-rule="evenodd" fill-opacity="1" /><path clip-path="url(#clip870)" d="M49.5947 835.836 Q38.4515 835.836 29.466 831.681 Q25.6979 829.91 22.5418 827.43 Q19.3856 824.95 18.0007 823.308 Q16.6159 821.665 16.6159 821.214 Q16.6159 820.57 17.26 820.538 Q17.5821 820.538 18.3872 821.408 Q29.2084 832.036 49.5947 832.003 Q70.0454 832.003 80.4479 821.665 Q81.5751 820.538 81.9294 820.538 Q82.5735 820.538 82.5735 821.214 Q82.5735 821.665 81.2531 823.243 Q79.9326 824.822 76.9053 827.269 Q73.8779 829.717 70.1742 831.488 Q61.1888 835.836 49.5947 835.836 Z" fill="#000000" fill-rule="evenodd" fill-opacity="1" /><path clip-path="url(#clip870)" d="M33.1053 786.958 Q38.5159 786.958 44.6028 788.698 Q50.6575 790.404 55.5528 793.11 Q60.4159 795.815 63.6364 799.358 Q66.8248 802.9 66.8248 806.282 Q66.8248 808.44 65.6332 810.05 Q64.4094 811.628 62.3804 812.498 Q60.3192 813.367 58.0648 813.786 Q55.7782 814.205 53.2984 814.205 Q49.5947 814.205 45.569 813.399 Q41.511 812.594 37.8396 811.242 Q34.1359 809.889 30.7865 807.989 Q27.4049 806.089 24.9572 803.995 Q22.4774 801.87 21.0281 799.486 Q19.5788 797.103 19.5788 794.881 Q19.5788 793.271 20.2874 791.982 Q20.9637 790.662 22.1553 789.825 Q23.3147 788.987 24.6996 788.408 Q26.0844 787.796 27.6947 787.506 Q29.2728 787.216 30.5932 787.087 Q31.8815 786.958 33.1053 786.958 M29.0151 791.306 Q27.3726 791.306 26.1488 791.435 Q24.8928 791.564 23.6368 791.918 Q22.3807 792.272 21.7044 793.045 Q21.0281 793.786 21.0281 794.945 Q21.0281 798.327 27.9524 802.127 Q30.1101 803.351 33.0409 804.446 Q35.9716 805.541 37.3565 805.928 Q38.7413 806.314 42.1551 807.216 L42.1551 793.432 Q33.3629 791.306 29.0151 791.306 M44.2485 794.011 L44.2485 807.731 Q52.3 809.857 57.3241 809.857 Q61.7041 809.857 63.5398 808.955 Q65.3434 808.021 65.3434 806.282 Q65.3434 804.285 63.3466 802.417 Q61.3176 800.549 57.6462 798.649 Q52.8797 796.137 44.2485 794.011 Z" fill="#000000" fill-rule="evenodd" fill-opacity="1" /><path clip-path="url(#clip870)" d="M65.0213 782.648 Q63.9585 783.582 62.5737 783.582 Q61.1888 783.582 60.1582 782.68 Q59.0954 781.746 59.0954 780.072 Q59.0954 778.107 60.9956 776.98 Q62.8635 775.853 66.0197 775.853 Q69.4335 775.853 72.5897 777.237 Q75.7781 778.622 77.2917 779.975 Q78.8054 781.328 78.8054 781.875 Q78.8054 782.519 78.0969 782.519 Q77.8392 782.519 77.3561 782.068 Q72.2676 777.334 66.0197 777.302 Q65.0213 777.302 65.0213 777.431 L65.1501 777.592 Q66.0841 778.719 66.0841 780.072 Q66.0841 781.714 65.0213 782.648 Z" fill="#000000" fill-rule="evenodd" fill-opacity="1" /><path clip-path="url(#clip870)" d="M44.9893 755.037 Q35.2953 755.037 30.0135 752.589 Q22.1553 749.175 22.1553 741.124 Q22.1553 739.417 22.6384 737.646 Q23.0893 735.842 24.8606 733.588 Q26.6319 731.301 29.5304 729.916 Q35.1343 727.275 44.9893 727.275 Q54.6188 727.275 59.8684 729.723 Q67.5334 733.298 67.5334 741.188 Q67.5334 744.151 66.0197 747.179 Q64.506 750.174 60.8667 752.074 Q55.424 755.037 44.9893 755.037 M44.1841 749.562 Q54.1357 749.562 58.097 748.853 Q62.3804 748.048 64.2484 745.858 Q66.0841 743.636 66.0841 741.188 Q66.0841 738.548 64.1195 736.358 Q62.1228 734.135 57.8394 733.459 Q53.6204 732.718 44.1841 732.75 Q35.0054 732.75 31.334 733.395 Q27.0506 734.264 25.3437 736.583 Q23.6046 738.87 23.6046 741.188 Q23.6046 742.058 23.8622 742.992 Q24.1199 743.894 24.8606 745.214 Q25.6013 746.535 27.4371 747.565 Q29.2728 748.564 32.0425 749.047 Q35.6174 749.562 44.1841 749.562 Z" fill="#000000" fill-rule="evenodd" fill-opacity="1" /><path clip-path="url(#clip870)" d="M65.0213 721.374 Q63.9585 722.373 62.5737 722.373 Q61.1888 722.373 60.1904 721.374 Q59.1598 720.376 59.1598 718.862 Q59.1598 717.413 60.126 716.447 Q61.06 715.449 62.6059 715.449 Q64.1195 715.449 65.1179 716.511 Q66.0841 717.542 66.0841 718.862 Q66.0841 720.376 65.0213 721.374 Z" fill="#000000" fill-rule="evenodd" fill-opacity="1" /><path clip-path="url(#clip870)" d="M35.0699 704.223 L21.5112 702.065 L21.5112 700.422 Q22.3163 700.229 22.6706 699.907 Q23.0249 699.553 23.3147 697.685 Q23.6046 695.785 23.6046 691.952 L23.6046 675.946 Q25.1182 675.946 25.9234 676.526 L38.4515 685.447 Q42.4128 688.281 49.7235 689.537 Q54.6188 690.277 60.5447 690.245 L63.8941 690.245 Q67.5334 690.245 67.5334 693.305 Q67.5334 696.332 63.8941 696.332 Q51.3016 696.332 39.0956 688.216 Q37.8396 687.347 33.3629 684.158 Q28.8863 680.938 28.6931 680.809 L28.6931 694.464 Q28.6931 700.455 29.0796 700.938 Q29.6593 701.582 35.0699 702.58 L35.0699 704.223 Z" fill="#000000" fill-rule="evenodd" fill-opacity="1" /><path clip-path="url(#clip870)" d="M55.4562 677.101 Q53.4916 677.101 52.7509 676.038 Q51.9779 674.975 51.9779 673.848 Q51.9779 672.334 52.9441 671.465 Q53.8781 670.563 55.1985 670.563 Q56.519 670.563 57.4851 671.465 Q58.4191 672.334 58.4191 673.848 Q58.4191 674.588 58.2903 674.975 Q61.3176 674.105 63.5076 671.465 Q65.6976 668.791 65.6976 665.281 Q65.6976 660.869 61.4142 658.228 Q58.6445 656.65 52.3644 656.65 Q46.825 656.65 44.0553 657.841 Q39.8363 659.677 39.8363 663.445 Q39.8363 668.791 44.4418 671.948 Q45.0215 672.334 45.0537 672.785 Q45.0537 673.429 44.6994 673.59 Q44.3129 673.719 43.3146 673.719 L23.7978 673.719 Q22.2197 673.719 22.2197 673.075 Q22.2197 672.817 22.4129 672.27 Q24.2487 668.115 24.2809 663.51 Q24.2809 658.775 22.3485 654.524 Q22.1553 654.202 22.1553 654.009 Q22.1553 653.365 22.896 653.333 Q23.1537 653.333 23.9266 653.88 Q24.6674 654.395 25.6657 655.523 Q26.6319 656.65 27.5659 658.099 Q28.4999 659.548 29.144 661.674 Q29.7559 663.767 29.7559 666.086 Q29.7559 668.856 28.8863 671.69 L41.7365 671.69 Q38.3871 668.276 38.3871 663.316 Q38.3871 658.035 42.6382 654.395 Q46.8894 650.756 52.8153 650.756 Q59.031 650.756 63.2822 655.072 Q67.5334 659.355 67.5334 665.152 Q67.5334 670.434 63.7653 673.783 Q59.9972 677.101 55.4562 677.101 Z" fill="#000000" fill-rule="evenodd" fill-opacity="1" /><path clip-path="url(#clip870)" d="M81.9294 643.116 Q81.6073 643.116 80.8022 642.279 Q69.981 631.651 49.5947 631.651 Q29.144 631.651 18.8059 641.86 Q17.6143 643.116 17.26 643.116 Q16.6159 643.116 16.6159 642.472 Q16.6159 642.021 17.9363 640.443 Q19.2568 638.833 22.2841 636.418 Q25.3115 633.97 29.0151 632.166 Q38.0006 627.819 49.5947 627.819 Q60.7379 627.819 69.7234 631.973 Q73.4914 633.745 76.6476 636.224 Q79.8038 638.704 81.1886 640.347 Q82.5735 641.989 82.5735 642.472 Q82.5735 643.116 81.9294 643.116 Z" fill="#000000" fill-rule="evenodd" fill-opacity="1" /><path clip-path="url(#clip870)" d="M1063.43 21.812 Q1063.43 24.0664 1061.99 25.4601 Q1060.6 26.8537 1058.83 26.8537 Q1057.56 26.8537 1056.62 26.0749 Q1055.72 25.2961 1055.72 23.9435 Q1055.72 22.5498 1056.78 21.0742 Q1057.85 19.5986 1060.27 19.3937 Q1058.67 17.8771 1056.13 17.8771 Q1054.86 17.8771 1053.79 18.6968 Q1052.77 19.4756 1052.19 20.7463 Q1051.58 22.058 1050.19 29.477 Q1049.73 31.8954 1049.32 34.2318 Q1048.91 36.5682 1048.42 39.0275 L1055.39 39.0275 Q1056.29 39.0275 1056.66 39.0685 Q1057.03 39.1095 1057.32 39.3145 Q1057.65 39.5194 1057.65 39.9703 Q1057.65 41.118 1057.11 41.4049 Q1056.62 41.6508 1055.15 41.6508 L1047.93 41.6508 L1042.89 68.2529 Q1042.77 69.0317 1042.23 71.491 Q1041.74 73.9094 1040.55 77.8854 Q1039.36 81.9023 1038.18 84.2797 Q1037.52 85.6323 1036.66 86.903 Q1035.84 88.2147 1034.65 89.5263 Q1033.46 90.838 1031.9 91.6168 Q1030.35 92.4366 1028.71 92.4366 Q1025.92 92.4366 1023.75 90.879 Q1021.58 89.3214 1021.58 86.6571 Q1021.58 84.4027 1022.97 83.009 Q1024.4 81.6154 1026.17 81.6154 Q1027.44 81.6154 1028.34 82.3942 Q1029.28 83.173 1029.28 84.5256 Q1029.28 85.0995 1029.08 85.7553 Q1028.87 86.4111 1028.42 87.1489 Q1027.97 87.9277 1026.99 88.4606 Q1026 88.9935 1024.65 89.0754 Q1026.25 90.592 1028.71 90.592 Q1029.49 90.592 1030.18 90.2641 Q1030.88 89.9772 1031.45 89.2394 Q1032.07 88.5016 1032.52 87.7638 Q1032.97 87.067 1033.42 85.7143 Q1033.87 84.4027 1034.16 83.4189 Q1034.45 82.4352 1034.81 80.6726 Q1035.22 78.9101 1035.43 77.8444 Q1035.63 76.8196 1036 74.8112 L1042.27 41.6508 L1036.74 41.6508 Q1035.76 41.6508 1035.35 41.6099 Q1034.98 41.5689 1034.69 41.3639 Q1034.4 41.118 1034.4 40.6261 Q1034.4 39.8473 1034.73 39.5194 Q1035.1 39.1505 1035.51 39.1095 Q1035.92 39.0275 1036.91 39.0275 L1042.73 39.0275 Q1044.69 28.6572 1045.47 25.87 Q1046.37 22.9187 1047.77 20.8693 Q1049.16 18.7788 1050.72 17.7951 Q1052.28 16.8113 1053.55 16.4424 Q1054.86 16.0325 1056.13 16.0325 Q1059 16.0325 1061.21 17.5901 Q1063.43 19.1067 1063.43 21.812 Z" fill="#000000" fill-rule="evenodd" fill-opacity="1" /><path clip-path="url(#clip870)" d="M1074.72 54.2346 Q1074.72 40.0523 1080.01 28.6163 Q1082.27 23.8205 1085.42 19.8036 Q1088.58 15.7866 1090.67 14.0241 Q1092.76 12.2615 1093.33 12.2615 Q1094.15 12.2615 1094.19 13.0813 Q1094.19 13.4912 1093.09 14.5159 Q1079.56 28.2883 1079.6 54.2346 Q1079.6 80.2627 1092.76 93.5023 Q1094.19 94.9369 1094.19 95.3878 Q1094.19 96.2076 1093.33 96.2076 Q1092.76 96.2076 1090.75 94.527 Q1088.74 92.8465 1085.63 88.9935 Q1082.51 85.1405 1080.26 80.4267 Q1074.72 68.9907 1074.72 54.2346 Z" fill="#000000" fill-rule="evenodd" fill-opacity="1" /><path clip-path="url(#clip870)" d="M1136.93 33.248 Q1136.93 40.1342 1134.72 47.8812 Q1132.55 55.5872 1129.1 61.8176 Q1125.66 68.0069 1121.15 72.1059 Q1116.64 76.1638 1112.34 76.1638 Q1109.59 76.1638 1107.54 74.6472 Q1105.53 73.0896 1104.43 70.5073 Q1103.32 67.884 1102.79 65.0147 Q1102.25 62.1045 1102.25 58.9483 Q1102.25 54.2346 1103.28 49.1109 Q1104.3 43.9462 1106.03 39.2735 Q1107.75 34.5597 1110.17 30.2968 Q1112.58 25.9929 1115.25 22.8778 Q1117.95 19.7216 1120.99 17.8771 Q1124.02 16.0325 1126.85 16.0325 Q1128.9 16.0325 1130.54 16.9343 Q1132.22 17.7951 1133.28 19.3117 Q1134.35 20.7873 1135.09 22.5498 Q1135.87 24.3124 1136.23 26.3618 Q1136.6 28.3703 1136.77 30.0509 Q1136.93 31.6904 1136.93 33.248 M1131.4 28.0424 Q1131.4 25.952 1131.23 24.3944 Q1131.07 22.7958 1130.62 21.1972 Q1130.17 19.5986 1129.18 18.7378 Q1128.24 17.8771 1126.77 17.8771 Q1122.46 17.8771 1117.63 26.6898 Q1116.07 29.436 1114.67 33.1661 Q1113.28 36.8961 1112.79 38.6586 Q1112.3 40.4212 1111.15 44.766 L1128.69 44.766 Q1131.4 33.576 1131.4 28.0424 M1127.95 47.4303 L1110.49 47.4303 Q1107.79 57.6777 1107.79 64.072 Q1107.79 69.6465 1108.94 71.9829 Q1110.12 74.2783 1112.34 74.2783 Q1114.88 74.2783 1117.26 71.737 Q1119.63 69.1546 1122.05 64.4819 Q1125.25 58.4155 1127.95 47.4303 Z" fill="#000000" fill-rule="evenodd" fill-opacity="1" /><path clip-path="url(#clip870)" d="M1145.59 95.3878 Q1145.59 94.9779 1146.66 93.9532 Q1160.19 80.1808 1160.19 54.2346 Q1160.19 28.2064 1147.19 15.0488 Q1145.59 13.5322 1145.59 13.0813 Q1145.59 12.2615 1146.41 12.2615 Q1146.99 12.2615 1149 13.9421 Q1151.05 15.6227 1154.12 19.4756 Q1157.24 23.3286 1159.53 28.0424 Q1165.06 39.4784 1165.06 54.2346 Q1165.06 68.4168 1159.78 79.8529 Q1157.52 84.6486 1154.37 88.6655 Q1151.21 92.6825 1149.12 94.445 Q1147.03 96.2076 1146.41 96.2076 Q1145.59 96.2076 1145.59 95.3878 Z" fill="#000000" fill-rule="evenodd" fill-opacity="1" /><path clip-path="url(#clip870)" d="M1201.12 62.4734 Q1201.2 61.4487 1202.8 61.4487 L1254.24 61.4487 Q1256.66 61.4487 1256.7 62.3914 Q1256.7 63.4162 1254.4 63.3752 L1203.37 63.3752 Q1201.12 63.4162 1201.12 62.4734 M1201.12 46.0777 Q1201.12 45.053 1202.88 45.0939 L1254.16 45.0939 Q1256.66 45.0939 1256.7 46.0777 Q1256.7 47.0204 1254.57 47.0204 L1202.8 47.0204 Q1201.12 47.0204 1201.12 46.0777 Z" fill="#000000" fill-rule="evenodd" fill-opacity="1" /><path clip-path="url(#clip870)" d="M1289.08 74.1144 L1289.08 63.0472 Q1289.08 62.1045 1289.12 61.7766 Q1289.16 61.4487 1289.41 61.2027 Q1289.65 60.9568 1290.14 60.9568 Q1290.72 60.9568 1290.92 61.2027 Q1291.17 61.4487 1291.33 62.3914 Q1292.6 68.1709 1295.31 71.2451 Q1298.05 74.2783 1303.01 74.2783 Q1307.73 74.2783 1310.11 72.1879 Q1312.48 70.0974 1312.48 66.6543 Q1312.48 60.5059 1303.75 58.9483 Q1298.71 57.9236 1296.62 57.2678 Q1294.53 56.5709 1292.68 55.0543 Q1289.08 52.1031 1289.08 47.9222 Q1289.08 43.7413 1292.23 40.6671 Q1295.43 37.5929 1302.48 37.5929 Q1307.2 37.5929 1310.39 39.9703 Q1311.34 39.2325 1311.83 38.6176 Q1312.93 37.5929 1313.51 37.5929 Q1314.16 37.5929 1314.29 38.0438 Q1314.41 38.4537 1314.41 39.6424 L1314.41 48.0862 Q1314.41 49.0289 1314.37 49.3568 Q1314.33 49.6847 1314.08 49.9307 Q1313.84 50.1356 1313.3 50.1356 Q1312.36 50.1356 1312.32 49.3568 Q1311.66 39.1915 1302.48 39.1915 Q1297.52 39.1915 1295.31 41.118 Q1293.09 43.0035 1293.09 45.5858 Q1293.09 47.0204 1293.75 48.1271 Q1294.45 49.1929 1295.31 49.8487 Q1296.21 50.4635 1297.85 51.0784 Q1299.49 51.6522 1300.47 51.8572 Q1301.5 52.0621 1303.42 52.472 Q1310.15 53.7427 1312.97 56.489 Q1316.5 60.014 1316.5 64.4819 Q1316.5 69.4416 1313.14 72.8027 Q1309.78 76.1638 1303.01 76.1638 Q1297.56 76.1638 1293.75 72.5158 Q1293.26 73.0076 1292.89 73.4585 Q1292.52 73.8684 1292.36 74.0324 Q1292.23 74.1963 1292.19 74.3193 Q1292.15 74.4013 1292.07 74.4833 Q1290.39 76.1638 1289.98 76.1638 Q1289.32 76.1638 1289.2 75.7129 Q1289.08 75.303 1289.08 74.1144 Z" fill="#000000" fill-rule="evenodd" fill-opacity="1" /><path clip-path="url(#clip870)" d="M1327 70.7122 Q1321.46 65.2197 1321.46 57.2678 Q1321.46 49.2748 1326.87 43.4544 Q1332.32 37.5929 1340.11 37.5929 Q1347.74 37.5929 1353.19 43.4134 Q1358.68 49.1929 1358.68 57.2678 Q1358.68 65.1787 1353.15 70.6713 Q1347.65 76.1638 1340.03 76.1638 Q1332.57 76.1638 1327 70.7122 M1328.43 56.5709 Q1328.43 64.7278 1330.56 68.4168 Q1333.84 74.0324 1340.11 74.0324 Q1343.23 74.0324 1345.81 72.3518 Q1348.43 70.6713 1349.87 67.843 Q1351.71 64.154 1351.71 56.5709 Q1351.71 48.4961 1349.5 44.93 Q1346.22 39.4784 1340.03 39.4784 Q1337.33 39.4784 1334.66 40.913 Q1332.04 42.3067 1330.44 45.0939 Q1328.43 48.783 1328.43 56.5709 Z" fill="#000000" fill-rule="evenodd" fill-opacity="1" /><path clip-path="url(#clip870)" d="M1361.35 75.2211 L1361.35 72.6387 Q1365.82 72.6387 1366.85 72.1059 Q1367.87 71.532 1367.87 68.8267 L1367.87 46.3236 Q1367.87 43.2084 1366.76 42.4296 Q1365.7 41.6508 1361.35 41.6508 L1361.35 39.0275 L1373.16 38.1258 L1373.16 46.9385 Q1377.09 38.1258 1385.58 38.1258 Q1391.89 38.1258 1394.39 41.241 Q1396.23 43.3314 1396.6 45.6678 Q1397.01 48.0042 1397.01 54.0706 L1397.01 70.0974 Q1397.1 71.8599 1398.45 72.2698 Q1399.8 72.6387 1403.57 72.6387 L1403.57 75.2211 Q1395 74.9751 1394.14 74.9751 Q1393.49 74.9751 1384.68 75.2211 L1384.68 72.6387 Q1389.14 72.6387 1390.17 72.1059 Q1391.23 71.532 1391.23 68.8267 L1391.23 49.2748 Q1391.23 45.012 1389.92 42.5116 Q1388.61 39.9703 1385 39.9703 Q1380.66 39.9703 1377.17 43.6183 Q1373.69 47.2664 1373.69 53.4148 L1373.69 68.8267 Q1373.69 71.532 1374.72 72.1059 Q1375.78 72.6387 1380.21 72.6387 L1380.21 75.2211 Q1371.64 74.9751 1370.82 74.9751 Q1370.17 74.9751 1361.35 75.2211 Z" fill="#000000" fill-rule="evenodd" fill-opacity="1" /><path clip-path="url(#clip870)" d="M1407.47 54.2346 Q1407.47 40.0523 1412.76 28.6163 Q1415.01 23.8205 1418.17 19.8036 Q1421.32 15.7866 1423.41 14.0241 Q1425.5 12.2615 1426.08 12.2615 Q1426.9 12.2615 1426.94 13.0813 Q1426.94 13.4912 1425.83 14.5159 Q1412.31 28.2883 1412.35 54.2346 Q1412.35 80.2627 1425.5 93.5023 Q1426.94 94.9369 1426.94 95.3878 Q1426.94 96.2076 1426.08 96.2076 Q1425.5 96.2076 1423.5 94.527 Q1421.49 92.8465 1418.37 88.9935 Q1415.26 85.1405 1413 80.4267 Q1407.47 68.9907 1407.47 54.2346 Z" fill="#000000" fill-rule="evenodd" fill-opacity="1" /><path clip-path="url(#clip870)" d="M1469.68 33.248 Q1469.68 40.1342 1467.46 47.8812 Q1465.29 55.5872 1461.85 61.8176 Q1458.4 68.0069 1453.89 72.1059 Q1449.39 76.1638 1445.08 76.1638 Q1442.34 76.1638 1440.29 74.6472 Q1438.28 73.0896 1437.17 70.5073 Q1436.06 67.884 1435.53 65.0147 Q1435 62.1045 1435 58.9483 Q1435 54.2346 1436.02 49.1109 Q1437.05 43.9462 1438.77 39.2735 Q1440.49 34.5597 1442.91 30.2968 Q1445.33 25.9929 1447.99 22.8778 Q1450.7 19.7216 1453.73 17.8771 Q1456.76 16.0325 1459.59 16.0325 Q1461.64 16.0325 1463.28 16.9343 Q1464.96 17.7951 1466.03 19.3117 Q1467.09 20.7873 1467.83 22.5498 Q1468.61 24.3124 1468.98 26.3618 Q1469.35 28.3703 1469.51 30.0509 Q1469.68 31.6904 1469.68 33.248 M1464.14 28.0424 Q1464.14 25.952 1463.98 24.3944 Q1463.81 22.7958 1463.36 21.1972 Q1462.91 19.5986 1461.93 18.7378 Q1460.99 17.8771 1459.51 17.8771 Q1455.21 17.8771 1450.37 26.6898 Q1448.81 29.436 1447.42 33.1661 Q1446.03 36.8961 1445.53 38.6586 Q1445.04 40.4212 1443.89 44.766 L1461.44 44.766 Q1464.14 33.576 1464.14 28.0424 M1460.7 47.4303 L1443.24 47.4303 Q1440.53 57.6777 1440.53 64.072 Q1440.53 69.6465 1441.68 71.9829 Q1442.87 74.2783 1445.08 74.2783 Q1447.62 74.2783 1450 71.737 Q1452.38 69.1546 1454.8 64.4819 Q1457.99 58.4155 1460.7 47.4303 Z" fill="#000000" fill-rule="evenodd" fill-opacity="1" /><path clip-path="url(#clip870)" d="M1475.16 73.8684 Q1473.97 72.5158 1473.97 70.7532 Q1473.97 68.9907 1475.12 67.679 Q1476.31 66.3264 1478.44 66.3264 Q1480.94 66.3264 1482.37 68.7448 Q1483.81 71.1221 1483.81 75.1391 Q1483.81 79.4839 1482.05 83.5009 Q1480.28 87.5588 1478.56 89.4853 Q1476.84 91.4118 1476.14 91.4118 Q1475.32 91.4118 1475.32 90.5101 Q1475.32 90.1821 1475.9 89.5673 Q1481.92 83.091 1481.96 75.1391 Q1481.96 73.8684 1481.8 73.8684 L1481.6 74.0324 Q1480.16 75.2211 1478.44 75.2211 Q1476.35 75.2211 1475.16 73.8684 Z" fill="#000000" fill-rule="evenodd" fill-opacity="1" /><path clip-path="url(#clip870)" d="M1579.08 63.2112 Q1579.08 63.5391 1578.71 64.8098 Q1578.34 66.0805 1577.44 68.0479 Q1576.58 70.0154 1575.35 71.819 Q1574.16 73.5815 1572.19 74.8931 Q1570.27 76.1638 1568.05 76.1638 Q1565.1 76.1638 1563.13 74.1963 Q1561.17 72.2288 1561.17 69.2776 Q1561.17 67.679 1562.27 64.6458 Q1567.48 50.7915 1567.48 45.8318 Q1567.48 39.9703 1562.93 39.9703 Q1560.35 39.9703 1558.01 41.036 Q1555.67 42.1017 1554.16 43.5773 Q1552.64 45.053 1551.45 46.7335 Q1550.26 48.4141 1549.73 49.5208 Q1549.24 50.6275 1549.11 51.1194 L1544.07 71.3681 Q1543.66 73.0896 1543.38 73.9094 Q1543.09 74.7292 1542.31 75.426 Q1541.53 76.1638 1540.3 76.1638 Q1539.28 76.1638 1538.54 75.549 Q1537.84 74.9341 1537.84 73.8684 Q1537.84 73.7045 1538.05 72.8437 Q1538.25 71.9829 1538.54 70.7942 Q1538.83 69.6055 1538.95 68.9087 Q1540.43 63.3342 1540.63 62.5554 L1542.97 52.7999 Q1544.24 47.9632 1544.24 45.8318 Q1544.24 39.9703 1539.69 39.9703 Q1537.43 39.9703 1535.3 40.8311 Q1533.21 41.6508 1531.78 42.7985 Q1530.34 43.9462 1529.03 45.5448 Q1527.76 47.1024 1527.1 48.1681 Q1526.49 49.1929 1526 50.2176 L1524.93 54.3985 Q1524.69 55.5462 1523.5 60.014 L1521.65 67.5971 Q1520.34 73.2536 1520.05 73.7864 Q1519.64 74.9341 1518.74 75.549 Q1517.84 76.1638 1516.94 76.1638 Q1515.91 76.1638 1515.22 75.549 Q1514.52 74.9341 1514.52 73.8684 Q1514.52 73.7045 1514.64 73.0896 Q1514.77 72.4748 1514.97 71.614 Q1515.18 70.7532 1515.26 70.2614 L1520.14 50.8734 Q1521.04 47.3484 1521.24 46.2416 Q1521.49 45.0939 1521.49 43.8233 Q1521.49 39.9703 1518.86 39.9703 Q1516.73 39.9703 1515.34 42.5116 Q1513.95 45.053 1512.76 49.9717 Q1512.39 51.3243 1512.14 51.6112 Q1511.94 51.8982 1511.32 51.8982 Q1510.3 51.8572 1510.3 51.0374 Q1510.3 50.8324 1510.63 49.5208 Q1510.95 48.2091 1511.57 46.2416 Q1512.22 44.2332 1512.92 42.9215 Q1513.33 42.0607 1513.7 41.4869 Q1514.07 40.913 1514.81 40.0113 Q1515.54 39.1095 1516.65 38.6176 Q1517.76 38.1258 1519.11 38.1258 Q1522.1 38.1258 1524.32 40.0523 Q1526.57 41.9788 1526.86 45.4219 Q1532.31 38.1258 1539.93 38.1258 Q1544.24 38.1258 1546.82 40.2982 Q1549.24 42.3887 1549.52 46.2416 Q1555.18 38.1258 1563.22 38.1258 Q1567.85 38.1258 1570.35 40.5441 Q1572.85 42.9215 1572.85 47.1024 Q1572.85 49.2748 1571.74 53.4148 Q1570.63 57.5137 1569.9 59.5632 Q1569.16 61.6126 1567.72 65.5476 Q1566.21 69.3186 1566.21 71.532 Q1566.21 72.9667 1566.7 73.6225 Q1567.19 74.2783 1568.26 74.2783 Q1569.9 74.2783 1571.33 73.3356 Q1572.77 72.3518 1573.79 70.7532 Q1574.86 69.1137 1575.55 67.4741 Q1576.25 65.7935 1576.78 63.908 Q1577.11 62.8833 1577.27 62.6374 Q1577.48 62.3914 1578.05 62.3914 Q1579.08 62.3914 1579.08 63.2112 Z" fill="#000000" fill-rule="evenodd" fill-opacity="1" /><path clip-path="url(#clip870)" d="M1586.31 95.3878 Q1586.31 94.9779 1587.38 93.9532 Q1600.91 80.1808 1600.91 54.2346 Q1600.91 28.2064 1587.91 15.0488 Q1586.31 13.5322 1586.31 13.0813 Q1586.31 12.2615 1587.13 12.2615 Q1587.71 12.2615 1589.72 13.9421 Q1591.77 15.6227 1594.84 19.4756 Q1597.95 23.3286 1600.25 28.0424 Q1605.78 39.4784 1605.78 54.2346 Q1605.78 68.4168 1600.5 79.8529 Q1598.24 84.6486 1595.09 88.6655 Q1591.93 92.6825 1589.84 94.445 Q1587.75 96.2076 1587.13 96.2076 Q1586.31 96.2076 1586.31 95.3878 Z" fill="#000000" fill-rule="evenodd" fill-opacity="1" /><polyline clip-path="url(#clip872)" style="stroke:#009af9; stroke-linecap:round; stroke-linejoin:round; stroke-width:4; stroke-opacity:1; fill:none" points="345.82,640.35 348.923,645.475 352.026,650.621 355.128,655.787 358.231,660.973 361.334,666.177 364.436,671.4 367.539,676.641 370.642,681.9 373.744,687.175 376.847,692.466 379.95,697.774 383.052,703.096 386.155,708.433 389.258,713.785 392.36,719.15 395.463,724.528 398.566,729.918 401.669,735.321 404.771,740.735 407.874,746.159 410.977,751.594 414.079,757.039 417.182,762.493 420.285,767.955 423.387,773.426 426.49,778.904 429.593,784.389 432.695,789.88 435.798,795.377 438.901,800.879 442.003,806.386 445.106,811.897 448.209,817.412 451.311,822.929 454.414,828.449 457.517,833.971 460.619,839.494 463.722,845.018 466.825,850.542 469.927,856.065 473.03,861.587 476.133,867.108 479.235,872.627 482.338,878.143 485.441,883.656 488.543,889.165 491.646,894.67 494.749,900.169 497.852,905.663 500.954,911.151 504.057,916.632 507.16,922.107 510.262,927.573 513.365,933.031 516.468,938.48 519.57,943.919 522.673,949.349 525.776,954.768 528.878,960.175 531.981,965.571 535.084,970.955 538.186,976.326 541.289,981.684 544.392,987.027 547.494,992.356 550.597,997.67 553.7,1002.97 556.802,1008.25 559.905,1013.52 563.008,1018.77 566.11,1024 569.213,1029.21 572.316,1034.4 575.418,1039.58 578.521,1044.73 581.624,1049.86 584.726,1054.98 587.829,1060.07 590.932,1065.14 594.034,1070.18 597.137,1075.21 600.24,1080.21 603.343,1085.18 606.445,1090.13 609.548,1095.06 612.651,1099.96 615.753,1104.83 618.856,1109.68 621.959,1114.5 625.061,1119.29 628.164,1124.05 631.267,1128.79 634.369,1133.49 637.472,1138.17 640.575,1142.81 643.677,1147.43 646.78,1152.01 649.883,1156.56 652.985,1161.08 656.088,1165.57 659.191,1170.03 662.293,1174.45 665.396,1178.83 668.499,1183.18 671.601,1187.5 674.704,1191.78 677.807,1196.03 680.909,1200.24 684.012,1204.41 687.115,1208.54 690.217,1212.64 693.32,1216.7 696.423,1220.72 699.526,1224.7 702.628,1228.65 705.731,1232.55 708.834,1236.41 711.936,1240.23 715.039,1244.01 718.142,1247.75 721.244,1251.45 724.347,1255.1 727.45,1258.71 730.552,1262.28 733.655,1265.81 736.758,1269.29 739.86,1272.72 742.963,1276.12 746.066,1279.46 749.168,1282.77 752.271,1286.02 755.374,1289.23 758.476,1292.4 761.579,1295.51 764.682,1298.58 767.784,1301.6 770.887,1304.58 773.99,1307.5 777.092,1310.38 780.195,1313.21 783.298,1315.99 786.4,1318.72 789.503,1321.4 792.606,1324.03 795.708,1326.61 798.811,1329.13 801.914,1331.61 805.017,1334.04 808.119,1336.41 811.222,1338.74 814.325,1341.01 817.427,1343.22 820.53,1345.39 823.633,1347.5 826.735,1349.56 829.838,1351.57 832.941,1353.52 836.043,1355.41 839.146,1357.26 842.249,1359.05 845.351,1360.78 848.454,1362.46 851.557,1364.08 854.659,1365.65 857.762,1367.17 860.865,1368.62 863.967,1370.02 867.07,1371.37 870.173,1372.66 873.275,1373.89 876.378,1375.06 879.481,1376.18 882.583,1377.24 885.686,1378.25 888.789,1379.19 891.891,1380.08 894.994,1380.91 898.097,1381.69 901.2,1382.4 904.302,1383.06 907.405,1383.65 910.508,1384.19 913.61,1384.67 916.713,1385.1 919.816,1385.46 922.918,1385.76 926.021,1386.01 929.124,1386.19 932.226,1386.32 935.329,1386.39 938.432,1386.4 941.534,1386.34 944.637,1386.23 947.74,1386.06 950.842,1385.83 953.945,1385.54 957.048,1385.19 960.15,1384.77 963.253,1384.3 966.356,1383.77 969.458,1383.18 972.561,1382.53 975.664,1381.81 978.766,1381.04 981.869,1380.21 984.972,1379.31 988.074,1378.36 991.177,1377.34 994.28,1376.27 997.383,1375.13 1000.49,1373.93 1003.59,1372.68 1006.69,1371.36 1009.79,1369.98 1012.9,1368.54 1016,1367.04 1019.1,1365.48 1022.2,1363.86 1025.31,1362.18 1028.41,1360.44 1031.51,1358.64 1034.61,1356.77 1037.72,1354.85 1040.82,1352.87 1043.92,1350.82 1047.03,1348.72 1050.13,1346.55 1053.23,1344.33 1056.33,1342.04 1059.44,1339.7 1062.54,1337.29 1065.64,1334.82 1068.74,1332.29 1071.85,1329.71 1074.95,1327.06 1078.05,1324.35 1081.15,1321.58 1084.26,1318.75 1087.36,1315.87 1090.46,1312.92 1093.57,1309.91 1096.67,1306.84 1099.77,1303.71 1102.87,1300.52 1105.98,1297.27 1109.08,1293.96 1112.18,1290.59 1115.28,1287.17 1118.39,1283.68 1121.49,1280.13 1124.59,1276.52 1127.69,1272.85 1130.8,1269.12 1133.9,1265.33 1137,1261.48 1140.11,1257.57 1143.21,1253.6 1146.31,1249.56 1149.41,1245.47 1152.52,1241.32 1155.62,1237.1 1158.72,1232.83 1161.82,1228.49 1164.93,1224.09 1168.03,1219.63 1171.13,1215.11 1174.24,1210.53 1177.34,1205.88 1180.44,1201.17 1183.54,1196.4 1186.65,1191.56 1189.75,1186.66 1192.85,1181.7 1195.95,1176.67 1199.06,1171.57 1202.16,1166.41 1205.26,1161.18 1208.36,1155.88 1211.47,1150.52 1214.57,1145.08 1217.67,1139.58 1220.78,1134 1223.88,1128.35 1226.98,1122.63 1230.08,1116.83 1233.19,1110.95 1236.29,1104.99 1239.39,1098.95 1242.49,1092.83 1245.6,1086.63 1248.7,1080.33 1251.8,1073.94 1254.9,1067.46 1258.01,1060.88 1261.11,1054.2 1264.21,1047.41 1267.32,1040.5 1270.42,1033.48 1273.52,1026.32 1276.62,1019.03 1279.73,1011.6 1282.83,1004 1285.93,996.239 1289.03,988.283 1292.14,980.116 1295.24,971.711 1298.34,963.033 1301.44,954.035 1304.55,944.654 1307.65,934.796 1310.75,924.313 1313.86,912.945 1316.96,900.11 1320.06,883.387 1323.16,854.51 1326.27,835.312 1329.37,818.701 1332.47,803.53 1335.57,789.335 1338.68,775.87 1341.78,762.984 1344.88,750.576 1347.98,738.572 1351.09,726.919 1354.19,715.577 1357.29,704.512 1360.4,693.698 1363.5,683.113 1366.6,672.741 1369.7,662.565 1372.81,652.573 1375.91,642.754 1379.01,633.099 1382.11,623.599 1385.22,614.247 1388.32,605.036 1391.42,595.962 1394.53,587.018 1397.63,578.201 1400.73,569.506 1403.83,560.931 1406.94,552.47 1410.04,544.123 1413.14,535.886 1416.24,527.757 1419.35,519.733 1422.45,511.813 1425.55,503.995 1428.65,496.277 1431.76,488.658 1434.86,481.136 1437.96,473.711 1441.07,466.381 1444.17,459.144 1447.27,452.001 1450.37,444.951 1453.48,437.991 1456.58,431.123 1459.68,424.345 1462.78,417.656 1465.89,411.057 1468.99,404.546 1472.09,398.123 1475.19,391.788 1478.3,385.54 1481.4,379.38 1484.5,373.306 1487.61,367.318 1490.71,361.417 1493.81,355.602 1496.91,349.873 1500.02,344.23 1503.12,338.672 1506.22,333.199 1509.32,327.812 1512.43,322.51 1515.53,317.294 1518.63,312.162 1521.73,307.115 1524.84,302.154 1527.94,297.277 1531.04,292.486 1534.15,287.779 1537.25,283.157 1540.35,278.62 1543.45,274.168 1546.56,269.801 1549.66,265.519 1552.76,261.322 1555.86,257.21 1558.97,253.183 1562.07,249.241 1565.17,245.384 1568.28,241.613 1571.38,237.926 1574.48,234.325 1577.58,230.809 1580.69,227.378 1583.79,224.032 1586.89,220.772 1589.99,217.597 1593.1,214.508 1596.2,211.504 1599.3,208.586 1602.4,205.753 1605.51,203.006 1608.61,200.344 1611.71,197.768 1614.82,195.277 1617.92,192.872 1621.02,190.553 1624.12,188.32 1627.23,186.172 1630.33,184.11 1633.43,182.133 1636.53,180.243 1639.64,178.437 1642.74,176.718 1645.84,175.084 1648.94,173.536 1652.05,172.073 1655.15,170.696 1658.25,169.405 1661.36,168.199 1664.46,167.078 1667.56,166.043 1670.66,165.093 1673.77,164.229 1676.87,163.449 1679.97,162.755 1683.07,162.146 1686.18,161.622 1689.28,161.183 1692.38,160.828 1695.48,160.559 1698.59,160.373 1701.69,160.273 1704.79,160.256 1707.9,160.324 1711,160.476 1714.1,160.712 1717.2,161.032 1720.31,161.435 1723.41,161.922 1726.51,162.493 1729.61,163.146 1732.72,163.883 1735.82,164.702 1738.92,165.604 1742.02,166.589 1745.13,167.655 1748.23,168.804 1751.33,170.035 1754.44,171.347 1757.54,172.74 1760.64,174.215 1763.74,175.77 1766.85,177.407 1769.95,179.123 1773.05,180.92 1776.15,182.797 1779.26,184.753 1782.36,186.788 1785.46,188.903 1788.57,191.096 1791.67,193.368 1794.77,195.718 1797.87,198.146 1800.98,200.651 1804.08,203.233 1807.18,205.893 1810.28,208.628 1813.39,211.44 1816.49,214.328 1819.59,217.291 1822.69,220.329 1825.8,223.442 1828.9,226.629 1832,229.89 1835.11,233.225 1838.21,236.633 1841.31,240.113 1844.41,243.666 1847.52,247.291 1850.62,250.987 1853.72,254.754 1856.82,258.592 1859.93,262.5 1863.03,266.478 1866.13,270.525 1869.23,274.641 1872.34,278.825 1875.44,283.078 1878.54,287.397 1881.65,291.783 1884.75,296.236 1887.85,300.755 1890.95,305.339 1894.06,309.988 1897.16,314.701 1900.26,319.478 1903.36,324.319 1906.47,329.222 1909.57,334.188 1912.67,339.215 1915.77,344.303 1918.88,349.452 1921.98,354.661 1925.08,359.93 1928.19,365.257 1931.29,370.643 1934.39,376.086 1937.49,381.587 1940.6,387.144 1943.7,392.757 1946.8,398.426 1949.9,404.149 1953.01,409.926 1956.11,415.757 1959.21,421.641 1962.32,427.577 1965.42,433.565 1968.52,439.603 1971.62,445.692 1974.73,451.831 1977.83,458.019 1980.93,464.255 1984.03,470.539 1987.14,476.87 1990.24,483.247 1993.34,489.67 1996.44,496.138 1999.55,502.651 2002.65,509.207 2005.75,515.806 2008.86,522.447 2011.96,529.13 2015.06,535.854 2018.16,542.618 2021.27,549.422 2024.37,556.264 2027.47,563.145 2030.57,570.062 2033.68,577.017 2036.78,584.007 2039.88,591.032 2042.98,598.092 2046.09,605.185 2049.19,612.312 2052.29,619.47 2055.4,626.66 2058.5,633.881 2061.6,641.131 2064.7,648.411 2067.81,655.72 2070.91,663.056 2074.01,670.418 2077.11,677.807 2080.22,685.222 2083.32,692.661 2086.42,700.124 2089.52,707.61 2092.63,715.118 2095.73,722.648 2098.83,730.198 2101.94,737.769 2105.04,745.358 2108.14,752.966 2111.24,760.592 2114.35,768.235 2117.45,775.893 2120.55,783.567 2123.65,791.255 2126.76,798.957 2129.86,806.672 2132.96,814.399 2136.06,822.137 2139.17,829.885 2142.27,837.644 2145.37,845.411 2148.48,853.186 2151.58,860.968 2154.68,868.757 2157.78,876.552 2160.89,884.351 2163.99,892.155 2167.09,899.962 2170.19,907.771 2173.3,915.582 2176.4,923.394 2179.5,931.206 2182.61,939.017 2185.71,946.827 2188.81,954.634 2191.91,962.438 2195.02,970.238 2198.12,978.034 2201.22,985.824 2204.32,993.607 2207.43,1001.38 2210.53,1009.15 2213.63,1016.91 2216.73,1024.66 2219.84,1032.4 2222.94,1040.13 2226.04,1047.85 2229.15,1055.55 2232.25,1063.24 2235.35,1070.92 2238.45,1078.58 2241.56,1086.23 2244.66,1093.85 2247.76,1101.47 2250.86,1109.06 2253.97,1116.63 2257.07,1124.19 2260.17,1131.72 2263.27,1139.23 2266.38,1146.72 2269.48,1154.19 2272.58,1161.64 2275.69,1169.06 2278.79,1176.45 2281.89,1183.82 2284.99,1191.16 2288.1,1198.48 2291.2,1205.76 2294.3,1213.02 "/>
<polyline clip-path="url(#clip872)" style="stroke:#e26f46; stroke-linecap:round; stroke-linejoin:round; stroke-width:4; stroke-opacity:1; fill:none" points="345.82,1116.68 348.923,1111.55 352.026,1106.4 355.128,1101.24 358.231,1096.05 361.334,1090.85 364.436,1085.63 367.539,1080.38 370.642,1075.13 373.744,1069.85 376.847,1064.56 379.95,1059.25 383.052,1053.93 386.155,1048.59 389.258,1043.24 392.36,1037.88 395.463,1032.5 398.566,1027.11 401.669,1021.71 404.771,1016.29 407.874,1010.87 410.977,1005.43 414.079,999.987 417.182,994.533 420.285,989.071 423.387,983.6 426.49,978.122 429.593,972.637 432.695,967.146 435.798,961.649 438.901,956.147 442.003,950.64 445.106,945.129 448.209,939.614 451.311,934.097 454.414,928.577 457.517,923.055 460.619,917.532 463.722,912.008 466.825,906.484 469.927,900.961 473.03,895.438 476.133,889.918 479.235,884.399 482.338,878.883 485.441,873.37 488.543,867.861 491.646,862.356 494.749,856.857 497.852,851.363 500.954,845.875 504.057,840.393 507.16,834.919 510.262,829.453 513.365,823.995 516.468,818.546 519.57,813.107 522.673,807.677 525.776,802.258 528.878,796.85 531.981,791.454 535.084,786.071 538.186,780.7 541.289,775.342 544.392,769.999 547.494,764.67 550.597,759.356 553.7,754.057 556.802,748.775 559.905,743.509 563.008,738.261 566.11,733.03 569.213,727.818 572.316,722.624 575.418,717.45 578.521,712.296 581.624,707.163 584.726,702.05 587.829,696.959 590.932,691.89 594.034,686.844 597.137,681.82 600.24,676.821 603.343,671.845 606.445,666.895 609.548,661.969 612.651,657.069 615.753,652.196 618.856,647.349 621.959,642.529 625.061,637.737 628.164,632.974 631.267,628.239 634.369,623.533 637.472,618.857 640.575,614.212 643.677,609.597 646.78,605.013 649.883,600.461 652.985,595.941 656.088,591.454 659.191,587 662.293,582.58 665.396,578.193 668.499,573.842 671.601,569.525 674.704,565.243 677.807,560.998 680.909,556.789 684.012,552.617 687.115,548.481 690.217,544.384 693.32,540.325 696.423,536.304 699.526,532.323 702.628,528.381 705.731,524.478 708.834,520.616 711.936,516.795 715.039,513.015 718.142,509.276 721.244,505.579 724.347,501.925 727.45,498.313 730.552,494.744 733.655,491.219 736.758,487.738 739.86,484.301 742.963,480.909 746.066,477.562 749.168,474.26 752.271,471.004 755.374,467.794 758.476,464.63 761.579,461.514 764.682,458.444 767.784,455.422 770.887,452.448 773.99,449.523 777.092,446.645 780.195,443.817 783.298,441.038 786.4,438.308 789.503,435.628 792.606,432.999 795.708,430.419 798.811,427.891 801.914,425.413 805.017,422.987 808.119,420.613 811.222,418.29 814.325,416.02 817.427,413.802 820.53,411.637 823.633,409.525 826.735,407.466 829.838,405.46 832.941,403.509 836.043,401.611 839.146,399.768 842.249,397.979 845.351,396.245 848.454,394.566 851.557,392.942 854.659,391.373 857.762,389.86 860.865,388.403 863.967,387.002 867.07,385.657 870.173,384.368 873.275,383.136 876.378,381.961 879.481,380.843 882.583,379.782 885.686,378.779 888.789,377.832 891.891,376.944 894.994,376.113 898.097,375.34 901.2,374.626 904.302,373.969 907.405,373.371 910.508,372.832 913.61,372.351 916.713,371.929 919.816,371.566 922.918,371.262 926.021,371.017 929.124,370.831 932.226,370.705 935.329,370.638 938.432,370.63 941.534,370.682 944.637,370.794 947.74,370.966 950.842,371.198 953.945,371.489 957.048,371.841 960.15,372.252 963.253,372.724 966.356,373.256 969.458,373.848 972.561,374.5 975.664,375.213 978.766,375.986 981.869,376.82 984.972,377.714 988.074,378.668 991.177,379.683 994.28,380.758 997.383,381.894 1000.49,383.091 1003.59,384.348 1006.69,385.666 1009.79,387.044 1012.9,388.483 1016,389.982 1019.1,391.542 1022.2,393.163 1025.31,394.844 1028.41,396.586 1031.51,398.388 1034.61,400.251 1037.72,402.174 1040.82,404.158 1043.92,406.203 1047.03,408.307 1050.13,410.473 1053.23,412.698 1056.33,414.984 1059.44,417.331 1062.54,419.737 1065.64,422.205 1068.74,424.732 1071.85,427.319 1074.95,429.967 1078.05,432.675 1081.15,435.444 1084.26,438.272 1087.36,441.16 1090.46,444.109 1093.57,447.118 1096.67,450.187 1099.77,453.315 1102.87,456.504 1105.98,459.753 1109.08,463.062 1112.18,466.431 1115.28,469.861 1118.39,473.35 1121.49,476.899 1124.59,480.509 1127.69,484.178 1130.8,487.908 1133.9,491.698 1137,495.548 1140.11,499.459 1143.21,503.43 1146.31,507.462 1149.41,511.555 1152.52,515.708 1155.62,519.922 1158.72,524.198 1161.82,528.534 1164.93,532.932 1168.03,537.392 1171.13,541.914 1174.24,546.498 1177.34,551.145 1180.44,555.854 1183.54,560.627 1186.65,565.463 1189.75,570.364 1192.85,575.329 1195.95,580.359 1199.06,585.454 1202.16,590.616 1205.26,595.845 1208.36,601.142 1211.47,606.508 1214.57,611.943 1217.67,617.448 1220.78,623.026 1223.88,628.676 1226.98,634.4 1230.08,640.2 1233.19,646.077 1236.29,652.034 1239.39,658.072 1242.49,664.193 1245.6,670.399 1248.7,676.695 1251.8,683.082 1254.9,689.563 1258.01,696.144 1261.11,702.828 1264.21,709.62 1267.32,716.525 1270.42,723.551 1273.52,730.704 1276.62,737.993 1279.73,745.428 1282.83,753.021 1285.93,760.787 1289.03,768.743 1292.14,776.91 1295.24,785.315 1298.34,793.993 1301.44,802.991 1304.55,812.372 1307.65,822.23 1310.75,832.713 1313.86,844.081 1316.96,856.916 1320.06,873.639 1323.16,878.513 1326.27,878.513 1329.37,878.513 1332.47,878.513 1335.57,878.513 1338.68,878.513 1341.78,878.513 1344.88,878.513 1347.98,878.513 1351.09,878.513 1354.19,878.513 1357.29,878.513 1360.4,878.513 1363.5,878.513 1366.6,878.513 1369.7,878.513 1372.81,878.513 1375.91,878.513 1379.01,878.513 1382.11,878.513 1385.22,878.513 1388.32,878.513 1391.42,878.513 1394.53,878.513 1397.63,878.513 1400.73,878.513 1403.83,878.513 1406.94,878.513 1410.04,878.513 1413.14,878.513 1416.24,878.513 1419.35,878.513 1422.45,878.513 1425.55,878.513 1428.65,878.513 1431.76,878.513 1434.86,878.513 1437.96,878.513 1441.07,878.513 1444.17,878.513 1447.27,878.513 1450.37,878.513 1453.48,878.513 1456.58,878.513 1459.68,878.513 1462.78,878.513 1465.89,878.513 1468.99,878.513 1472.09,878.513 1475.19,878.513 1478.3,878.513 1481.4,878.513 1484.5,878.513 1487.61,878.513 1490.71,878.513 1493.81,878.513 1496.91,878.513 1500.02,878.513 1503.12,878.513 1506.22,878.513 1509.32,878.513 1512.43,878.513 1515.53,878.513 1518.63,878.513 1521.73,878.513 1524.84,878.513 1527.94,878.513 1531.04,878.513 1534.15,878.513 1537.25,878.513 1540.35,878.513 1543.45,878.513 1546.56,878.513 1549.66,878.513 1552.76,878.513 1555.86,878.513 1558.97,878.513 1562.07,878.513 1565.17,878.513 1568.28,878.513 1571.38,878.513 1574.48,878.513 1577.58,878.513 1580.69,878.513 1583.79,878.513 1586.89,878.513 1589.99,878.513 1593.1,878.513 1596.2,878.513 1599.3,878.513 1602.4,878.513 1605.51,878.513 1608.61,878.513 1611.71,878.513 1614.82,878.513 1617.92,878.513 1621.02,878.513 1624.12,878.513 1627.23,878.513 1630.33,878.513 1633.43,878.513 1636.53,878.513 1639.64,878.513 1642.74,878.513 1645.84,878.513 1648.94,878.513 1652.05,878.513 1655.15,878.513 1658.25,878.513 1661.36,878.513 1664.46,878.513 1667.56,878.513 1670.66,878.513 1673.77,878.513 1676.87,878.513 1679.97,878.513 1683.07,878.513 1686.18,878.513 1689.28,878.513 1692.38,878.513 1695.48,878.513 1698.59,878.513 1701.69,878.513 1704.79,878.513 1707.9,878.513 1711,878.513 1714.1,878.513 1717.2,878.513 1720.31,878.513 1723.41,878.513 1726.51,878.513 1729.61,878.513 1732.72,878.513 1735.82,878.513 1738.92,878.513 1742.02,878.513 1745.13,878.513 1748.23,878.513 1751.33,878.513 1754.44,878.513 1757.54,878.513 1760.64,878.513 1763.74,878.513 1766.85,878.513 1769.95,878.513 1773.05,878.513 1776.15,878.513 1779.26,878.513 1782.36,878.513 1785.46,878.513 1788.57,878.513 1791.67,878.513 1794.77,878.513 1797.87,878.513 1800.98,878.513 1804.08,878.513 1807.18,878.513 1810.28,878.513 1813.39,878.513 1816.49,878.513 1819.59,878.513 1822.69,878.513 1825.8,878.513 1828.9,878.513 1832,878.513 1835.11,878.513 1838.21,878.513 1841.31,878.513 1844.41,878.513 1847.52,878.513 1850.62,878.513 1853.72,878.513 1856.82,878.513 1859.93,878.513 1863.03,878.513 1866.13,878.513 1869.23,878.513 1872.34,878.513 1875.44,878.513 1878.54,878.513 1881.65,878.513 1884.75,878.513 1887.85,878.513 1890.95,878.513 1894.06,878.513 1897.16,878.513 1900.26,878.513 1903.36,878.513 1906.47,878.513 1909.57,878.513 1912.67,878.513 1915.77,878.513 1918.88,878.513 1921.98,878.513 1925.08,878.513 1928.19,878.513 1931.29,878.513 1934.39,878.513 1937.49,878.513 1940.6,878.513 1943.7,878.513 1946.8,878.513 1949.9,878.513 1953.01,878.513 1956.11,878.513 1959.21,878.513 1962.32,878.513 1965.42,878.513 1968.52,878.513 1971.62,878.513 1974.73,878.513 1977.83,878.513 1980.93,878.513 1984.03,878.513 1987.14,878.513 1990.24,878.513 1993.34,878.513 1996.44,878.513 1999.55,878.513 2002.65,878.513 2005.75,878.513 2008.86,878.513 2011.96,878.513 2015.06,878.513 2018.16,878.513 2021.27,878.513 2024.37,878.513 2027.47,878.513 2030.57,878.513 2033.68,878.513 2036.78,878.513 2039.88,878.513 2042.98,878.513 2046.09,878.513 2049.19,878.513 2052.29,878.513 2055.4,878.513 2058.5,878.513 2061.6,878.513 2064.7,878.513 2067.81,878.513 2070.91,878.513 2074.01,878.513 2077.11,878.513 2080.22,878.513 2083.32,878.513 2086.42,878.513 2089.52,878.513 2092.63,878.513 2095.73,878.513 2098.83,878.513 2101.94,878.513 2105.04,878.513 2108.14,878.513 2111.24,878.513 2114.35,878.513 2117.45,878.513 2120.55,878.513 2123.65,878.513 2126.76,878.513 2129.86,878.513 2132.96,878.513 2136.06,878.513 2139.17,878.513 2142.27,878.513 2145.37,878.513 2148.48,878.513 2151.58,878.513 2154.68,878.513 2157.78,878.513 2160.89,878.513 2163.99,878.513 2167.09,878.513 2170.19,878.513 2173.3,878.513 2176.4,878.513 2179.5,878.513 2182.61,878.513 2185.71,878.513 2188.81,878.513 2191.91,878.513 2195.02,878.513 2198.12,878.513 2201.22,878.513 2204.32,878.513 2207.43,878.513 2210.53,878.513 2213.63,878.513 2216.73,878.513 2219.84,878.513 2222.94,878.513 2226.04,878.513 2229.15,878.513 2232.25,878.513 2235.35,878.513 2238.45,878.513 2241.56,878.513 2244.66,878.513 2247.76,878.513 2250.86,878.513 2253.97,878.513 2257.07,878.513 2260.17,878.513 2263.27,878.513 2266.38,878.513 2269.48,878.513 2272.58,878.513 2275.69,878.513 2278.79,878.513 2281.89,878.513 2284.99,878.513 2288.1,878.513 2291.2,878.513 2294.3,878.513 "/>
<path clip-path="url(#clip870)" d="M356.212 322.316 L710.286 322.316 L710.286 166.796 L356.212 166.796  Z" fill="#ffffff" fill-rule="evenodd" fill-opacity="1"/>
<polyline clip-path="url(#clip870)" style="stroke:#000000; stroke-linecap:round; stroke-linejoin:round; stroke-width:4; stroke-opacity:1; fill:none" points="356.212,322.316 710.286,322.316 710.286,166.796 356.212,166.796 356.212,322.316 "/>
<polyline clip-path="url(#clip870)" style="stroke:#009af9; stroke-linecap:round; stroke-linejoin:round; stroke-width:4; stroke-opacity:1; fill:none" points="379.161,218.636 516.854,218.636 "/>
<path clip-path="url(#clip870)" d="M570.931 208.306 Q569.877 208.236 569.174 207.533 Q568.94 207.299 568.706 206.245 Q568.472 205.191 568.401 204.231 Q568.331 202.966 567.628 201.678 Q566.996 200.389 565.614 200.389 Q563.576 200.389 562.311 201.725 Q560.672 203.294 559.149 205.941 Q559.196 206.151 559.29 207.299 Q559.384 208.423 559.384 208.868 Q559.384 212.171 559.243 213.811 Q562.077 212.288 564.747 211.89 L570.931 208.306 M578.145 226.951 L571.751 231.799 L568.682 226.201 Q568.706 225.686 568.729 224.819 Q568.776 223.952 568.799 223.25 Q568.823 222.524 568.823 221.915 Q568.823 219.736 568.565 218.354 Q568.331 216.973 568.073 216.551 Q567.839 216.129 567.441 215.731 Q566.691 214.982 565.591 214.537 Q564.49 214.068 563.459 214.068 Q562.124 214.068 559.056 214.958 Q558.845 216.457 558.47 218.191 Q557.533 222.125 555.777 224.796 Q554.324 225.967 551.584 228.403 Q548.867 230.839 547.719 231.799 Q546.759 230.839 545.635 230.066 Q544.51 229.269 543.831 229.269 Q541.864 229.269 540.341 231.284 L539.802 230.511 Q539.873 230.417 540.084 230.066 Q540.318 229.714 540.411 229.574 Q540.505 229.433 540.716 229.105 Q540.95 228.777 541.067 228.613 Q541.208 228.426 541.419 228.145 Q541.653 227.841 541.84 227.653 Q542.028 227.442 542.262 227.208 Q542.496 226.974 542.73 226.763 Q544.253 225.428 545.424 225.428 Q546.525 225.428 547.719 226.248 Q548.867 227.068 549.921 228.215 Q552.591 226.388 553.856 223.882 Q554.559 222.5 555.027 219.572 Q555.495 215.895 555.495 212.897 Q555.495 211.281 555.425 210.133 Q555.355 208.985 554.887 207.182 Q554.441 205.355 553.575 204.09 Q552.591 202.591 551.045 201.607 Q549.523 200.624 547.907 200.624 Q546.501 200.624 545.728 200.928 Q544.979 201.233 544.136 202.076 Q543.269 202.896 543.269 204.793 Q543.269 205.214 543.808 206.105 Q544.37 206.995 544.979 207.674 Q546.525 209.641 546.899 210.274 Q547.532 211.492 547.532 212.101 Q547.532 213.834 545.986 215.544 Q544.721 216.973 541.629 218.518 L540.903 217.98 Q542.192 217.277 543.269 215.965 Q543.972 215.099 543.972 214.115 Q543.972 213.623 543.363 212.803 L541.864 210.742 Q540.856 209.524 540.365 208.611 Q539.896 207.674 539.896 206.432 Q539.896 205.121 540.529 204.02 Q541.184 202.896 542.356 201.725 Q546.478 197.602 551.139 197.602 Q552.685 197.602 554.16 198.563 Q555.636 199.523 556.831 200.998 Q557.861 202.216 558.564 204.231 L558.751 203.973 Q560.016 202.404 561.257 201.162 Q564.818 197.602 568.682 197.602 Q570.439 197.602 571.47 198.844 Q572.219 199.757 572.524 202.17 Q572.547 202.38 572.594 203.247 Q572.641 204.09 572.758 204.559 Q572.852 204.98 572.992 205.238 Q573.133 205.472 573.624 205.683 Q574.14 205.894 575.03 205.894 Q575.662 205.894 576.833 205.706 L577.185 206.339 Q575.498 206.995 573.015 208.306 Q569.104 210.321 567.113 211.89 Q568.799 211.89 569.877 212.335 Q570.954 212.78 572.008 213.67 Q572.383 221.962 572.758 223.133 Q573.32 224.913 574.069 226.154 Q574.093 226.201 574.21 226.365 Q574.327 226.529 574.351 226.576 Q574.397 226.623 574.491 226.763 Q574.608 226.904 574.678 226.951 Q574.749 226.997 574.842 227.091 Q574.96 227.161 575.077 227.185 Q575.194 227.208 575.311 227.208 Q575.569 227.208 578.145 226.201 L578.145 226.951 Z" fill="#000000" fill-rule="evenodd" fill-opacity="1" /><path clip-path="url(#clip870)" d="M577.387 242.503 L577.387 194.534 L584.625 194.534 L584.625 195.635 L580.596 195.635 L580.596 241.402 L584.625 241.402 L584.625 242.503 L577.387 242.503 Z" fill="#000000" fill-rule="evenodd" fill-opacity="1" /><path clip-path="url(#clip870)" d="M610.467 199.991 Q610.467 201.28 609.647 202.076 Q608.85 202.872 607.843 202.872 Q607.117 202.872 606.578 202.427 Q606.063 201.982 606.063 201.209 Q606.063 200.413 606.672 199.57 Q607.281 198.726 608.663 198.609 Q607.75 197.743 606.297 197.743 Q605.571 197.743 604.962 198.211 Q604.377 198.656 604.049 199.382 Q603.697 200.132 602.901 204.371 Q602.643 205.753 602.409 207.088 Q602.175 208.423 601.894 209.829 L605.876 209.829 Q606.391 209.829 606.602 209.852 Q606.813 209.876 606.977 209.993 Q607.164 210.11 607.164 210.367 Q607.164 211.023 606.859 211.187 Q606.578 211.328 605.735 211.328 L601.613 211.328 L598.732 226.529 Q598.662 226.974 598.357 228.379 Q598.076 229.761 597.397 232.033 Q596.718 234.329 596.038 235.687 Q595.664 236.46 595.172 237.186 Q594.703 237.936 594.024 238.685 Q593.345 239.435 592.455 239.88 Q591.565 240.348 590.628 240.348 Q589.035 240.348 587.794 239.458 Q586.552 238.568 586.552 237.046 Q586.552 235.757 587.349 234.961 Q588.168 234.165 589.176 234.165 Q589.902 234.165 590.417 234.61 Q590.956 235.055 590.956 235.828 Q590.956 236.156 590.839 236.53 Q590.721 236.905 590.464 237.327 Q590.206 237.772 589.644 238.076 Q589.082 238.381 588.309 238.428 Q589.222 239.294 590.628 239.294 Q591.073 239.294 591.471 239.107 Q591.869 238.943 592.197 238.521 Q592.548 238.1 592.806 237.678 Q593.064 237.28 593.321 236.507 Q593.579 235.757 593.743 235.195 Q593.907 234.633 594.118 233.626 Q594.352 232.619 594.469 232.01 Q594.586 231.424 594.797 230.276 L598.381 211.328 L595.219 211.328 Q594.656 211.328 594.422 211.304 Q594.211 211.281 594.047 211.164 Q593.883 211.023 593.883 210.742 Q593.883 210.297 594.071 210.11 Q594.282 209.899 594.516 209.876 Q594.75 209.829 595.312 209.829 L598.638 209.829 Q599.762 203.903 600.208 202.31 Q600.723 200.624 601.519 199.453 Q602.316 198.258 603.206 197.696 Q604.096 197.134 604.822 196.923 Q605.571 196.689 606.297 196.689 Q607.937 196.689 609.202 197.579 Q610.467 198.445 610.467 199.991 Z" fill="#000000" fill-rule="evenodd" fill-opacity="1" /><path clip-path="url(#clip870)" d="M616.919 218.518 Q616.919 210.414 619.941 203.879 Q621.229 201.139 623.032 198.844 Q624.836 196.548 626.03 195.541 Q627.225 194.534 627.553 194.534 Q628.021 194.534 628.045 195.002 Q628.045 195.237 627.412 195.822 Q619.683 203.692 619.706 218.518 Q619.706 233.392 627.225 240.957 Q628.045 241.777 628.045 242.035 Q628.045 242.503 627.553 242.503 Q627.225 242.503 626.077 241.543 Q624.93 240.582 623.15 238.381 Q621.369 236.179 620.081 233.485 Q616.919 226.951 616.919 218.518 Z" fill="#000000" fill-rule="evenodd" fill-opacity="1" /><path clip-path="url(#clip870)" d="M652.462 206.526 Q652.462 210.461 651.197 214.888 Q649.956 219.291 647.988 222.852 Q646.021 226.388 643.444 228.731 Q640.868 231.049 638.409 231.049 Q636.839 231.049 635.668 230.183 Q634.52 229.293 633.888 227.817 Q633.256 226.318 632.951 224.679 Q632.647 223.016 632.647 221.212 Q632.647 218.518 633.232 215.591 Q633.818 212.639 634.802 209.969 Q635.785 207.276 637.167 204.84 Q638.549 202.38 640.072 200.6 Q641.617 198.797 643.351 197.743 Q645.084 196.689 646.7 196.689 Q647.871 196.689 648.808 197.204 Q649.768 197.696 650.377 198.563 Q650.986 199.406 651.408 200.413 Q651.853 201.42 652.064 202.591 Q652.275 203.739 652.368 204.699 Q652.462 205.636 652.462 206.526 M649.3 203.551 Q649.3 202.357 649.206 201.467 Q649.113 200.553 648.855 199.64 Q648.597 198.726 648.035 198.235 Q647.497 197.743 646.653 197.743 Q644.194 197.743 641.43 202.779 Q640.54 204.348 639.744 206.479 Q638.947 208.611 638.666 209.618 Q638.385 210.625 637.729 213.108 L647.754 213.108 Q649.3 206.714 649.3 203.551 M647.333 214.63 L637.355 214.63 Q635.809 220.486 635.809 224.14 Q635.809 227.325 636.465 228.66 Q637.144 229.972 638.409 229.972 Q639.861 229.972 641.219 228.52 Q642.578 227.044 643.96 224.374 Q645.787 220.908 647.333 214.63 Z" fill="#000000" fill-rule="evenodd" fill-opacity="1" /><path clip-path="url(#clip870)" d="M657.408 242.035 Q657.408 241.8 658.017 241.215 Q665.747 233.345 665.747 218.518 Q665.747 203.645 658.322 196.127 Q657.408 195.26 657.408 195.002 Q657.408 194.534 657.877 194.534 Q658.205 194.534 659.352 195.494 Q660.524 196.454 662.28 198.656 Q664.06 200.858 665.372 203.551 Q668.534 210.086 668.534 218.518 Q668.534 226.623 665.512 233.157 Q664.224 235.898 662.421 238.193 Q660.617 240.489 659.423 241.496 Q658.228 242.503 657.877 242.503 Q657.408 242.503 657.408 242.035 Z" fill="#000000" fill-rule="evenodd" fill-opacity="1" /><path clip-path="url(#clip870)" d="M673.904 241.402 L677.933 241.402 L677.933 195.635 L673.904 195.635 L673.904 194.534 L681.141 194.534 L681.141 242.503 L673.904 242.503 L673.904 241.402 Z" fill="#000000" fill-rule="evenodd" fill-opacity="1" /><polyline clip-path="url(#clip870)" style="stroke:#e26f46; stroke-linecap:round; stroke-linejoin:round; stroke-width:4; stroke-opacity:1; fill:none" points="379.161,270.476 516.854,270.476 "/>
<path clip-path="url(#clip870)" d="M564.045 250.941 Q560.484 254.267 556.596 256.305 L550.413 254.056 Q548.656 253.518 547.672 253.518 Q545.307 253.518 543.831 255.064 Q541.934 256.961 540.622 260.474 L539.802 259.959 Q540.669 257.663 542.121 254.572 Q543.175 252.44 544.182 251.363 Q545.845 249.442 548.726 249.442 Q550.811 249.442 556.128 251.995 Q557.767 252.745 558.658 252.745 Q559.829 252.745 560.906 252.136 Q562.007 251.574 563.506 250.168 L564.045 250.941 M563.131 254.619 Q561.632 255.954 560.578 257.687 Q560.016 258.717 560.016 260.099 Q560.016 262.395 560.157 263.215 Q560.719 267.384 560.719 270.593 Q560.719 275.956 557.885 278.791 Q553.036 283.639 547.672 283.639 Q545.658 283.639 543.082 281.344 L540.529 283.124 L540.294 282.351 Q540.997 281.39 542.309 279.915 Q543.62 278.416 544.604 277.385 Q545.588 276.331 545.752 276.214 Q546.759 278.369 547.087 279.001 Q547.438 279.634 547.907 280.102 Q548.516 280.711 549.429 281.109 Q550.366 281.484 551.233 281.484 Q552.24 281.484 552.966 281.109 Q553.715 280.735 554.488 279.962 Q555.472 278.978 556.081 276.682 Q556.596 274.996 556.596 272.42 Q556.596 269.984 556.128 266.33 Q555.73 262.934 555.73 261.762 Q555.73 261.224 555.823 260.146 Q559.267 256.375 562.546 254.291 L563.131 254.619 Z" fill="#000000" fill-rule="evenodd" fill-opacity="1" /><path clip-path="url(#clip870)" d="M577.624 294.343 L577.624 246.374 L584.861 246.374 L584.861 247.475 L580.833 247.475 L580.833 293.242 L584.861 293.242 L584.861 294.343 L577.624 294.343 Z" fill="#000000" fill-rule="evenodd" fill-opacity="1" /><path clip-path="url(#clip870)" d="M610.703 251.831 Q610.703 253.12 609.883 253.916 Q609.087 254.712 608.08 254.712 Q607.354 254.712 606.815 254.267 Q606.3 253.822 606.3 253.049 Q606.3 252.253 606.909 251.41 Q607.518 250.566 608.9 250.449 Q607.986 249.583 606.534 249.583 Q605.808 249.583 605.199 250.051 Q604.613 250.496 604.285 251.222 Q603.934 251.972 603.138 256.211 Q602.88 257.593 602.646 258.928 Q602.412 260.263 602.13 261.669 L606.112 261.669 Q606.628 261.669 606.838 261.692 Q607.049 261.716 607.213 261.833 Q607.401 261.95 607.401 262.207 Q607.401 262.863 607.096 263.027 Q606.815 263.168 605.972 263.168 L601.849 263.168 L598.968 278.369 Q598.898 278.814 598.594 280.219 Q598.313 281.601 597.633 283.873 Q596.954 286.169 596.275 287.527 Q595.9 288.3 595.408 289.026 Q594.94 289.776 594.261 290.525 Q593.581 291.275 592.691 291.72 Q591.801 292.188 590.864 292.188 Q589.272 292.188 588.03 291.298 Q586.789 290.408 586.789 288.886 Q586.789 287.597 587.585 286.801 Q588.405 286.005 589.412 286.005 Q590.138 286.005 590.653 286.45 Q591.192 286.895 591.192 287.668 Q591.192 287.996 591.075 288.37 Q590.958 288.745 590.7 289.167 Q590.443 289.612 589.881 289.916 Q589.318 290.221 588.545 290.268 Q589.459 291.134 590.864 291.134 Q591.309 291.134 591.707 290.947 Q592.106 290.783 592.434 290.361 Q592.785 289.94 593.043 289.518 Q593.3 289.12 593.558 288.347 Q593.815 287.597 593.979 287.035 Q594.143 286.473 594.354 285.466 Q594.588 284.459 594.706 283.85 Q594.823 283.264 595.033 282.116 L598.617 263.168 L595.455 263.168 Q594.893 263.168 594.659 263.144 Q594.448 263.121 594.284 263.004 Q594.12 262.863 594.12 262.582 Q594.12 262.137 594.307 261.95 Q594.518 261.739 594.752 261.716 Q594.987 261.669 595.549 261.669 L598.875 261.669 Q599.999 255.743 600.444 254.15 Q600.959 252.464 601.756 251.293 Q602.552 250.098 603.442 249.536 Q604.332 248.974 605.058 248.763 Q605.808 248.529 606.534 248.529 Q608.173 248.529 609.438 249.419 Q610.703 250.285 610.703 251.831 Z" fill="#000000" fill-rule="evenodd" fill-opacity="1" /><path clip-path="url(#clip870)" d="M617.156 270.358 Q617.156 262.254 620.177 255.719 Q621.465 252.979 623.269 250.684 Q625.072 248.388 626.267 247.381 Q627.462 246.374 627.789 246.374 Q628.258 246.374 628.281 246.842 Q628.281 247.077 627.649 247.662 Q619.92 255.532 619.943 270.358 Q619.943 285.232 627.462 292.797 Q628.281 293.617 628.281 293.875 Q628.281 294.343 627.789 294.343 Q627.462 294.343 626.314 293.383 Q625.166 292.422 623.386 290.221 Q621.606 288.019 620.318 285.325 Q617.156 278.791 617.156 270.358 Z" fill="#000000" fill-rule="evenodd" fill-opacity="1" /><path clip-path="url(#clip870)" d="M652.699 258.366 Q652.699 262.301 651.434 266.728 Q650.192 271.131 648.225 274.692 Q646.257 278.228 643.681 280.571 Q641.104 282.889 638.645 282.889 Q637.076 282.889 635.905 282.023 Q634.757 281.133 634.125 279.657 Q633.492 278.158 633.188 276.519 Q632.883 274.856 632.883 273.052 Q632.883 270.358 633.469 267.431 Q634.054 264.479 635.038 261.809 Q636.022 259.116 637.404 256.68 Q638.786 254.22 640.308 252.44 Q641.854 250.637 643.587 249.583 Q645.321 248.529 646.937 248.529 Q648.108 248.529 649.045 249.044 Q650.005 249.536 650.614 250.403 Q651.223 251.246 651.645 252.253 Q652.09 253.26 652.3 254.431 Q652.511 255.579 652.605 256.539 Q652.699 257.476 652.699 258.366 M649.537 255.391 Q649.537 254.197 649.443 253.307 Q649.349 252.393 649.092 251.48 Q648.834 250.566 648.272 250.075 Q647.733 249.583 646.89 249.583 Q644.43 249.583 641.667 254.619 Q640.777 256.188 639.98 258.319 Q639.184 260.451 638.903 261.458 Q638.622 262.465 637.966 264.948 L647.991 264.948 Q649.537 258.554 649.537 255.391 M647.569 266.47 L637.591 266.47 Q636.045 272.326 636.045 275.98 Q636.045 279.165 636.701 280.5 Q637.38 281.812 638.645 281.812 Q640.097 281.812 641.456 280.36 Q642.814 278.884 644.196 276.214 Q646.023 272.748 647.569 266.47 Z" fill="#000000" fill-rule="evenodd" fill-opacity="1" /><path clip-path="url(#clip870)" d="M657.645 293.875 Q657.645 293.64 658.254 293.055 Q665.983 285.185 665.983 270.358 Q665.983 255.485 658.558 247.967 Q657.645 247.1 657.645 246.842 Q657.645 246.374 658.113 246.374 Q658.441 246.374 659.589 247.334 Q660.76 248.294 662.517 250.496 Q664.297 252.698 665.608 255.391 Q668.771 261.926 668.771 270.358 Q668.771 278.463 665.749 284.997 Q664.461 287.738 662.657 290.033 Q660.854 292.329 659.659 293.336 Q658.465 294.343 658.113 294.343 Q657.645 294.343 657.645 293.875 Z" fill="#000000" fill-rule="evenodd" fill-opacity="1" /><path clip-path="url(#clip870)" d="M674.14 293.242 L678.169 293.242 L678.169 247.475 L674.14 247.475 L674.14 246.374 L681.378 246.374 L681.378 294.343 L674.14 294.343 L674.14 293.242 Z" fill="#000000" fill-rule="evenodd" fill-opacity="1" /></svg>
