<?xml version="1.0" encoding="utf-8"?>
<svg xmlns="http://www.w3.org/2000/svg" xmlns:xlink="http://www.w3.org/1999/xlink" width="600" height="400" viewBox="0 0 2400 1600">
<defs>
  <clipPath id="clip910">
    <rect x="0" y="0" width="2400" height="1600"/>
  </clipPath>
</defs>
<path clip-path="url(#clip910)" d="M0 1600 L2400 1600 L2400 0 L0 0  Z" fill="#ffffff" fill-rule="evenodd" fill-opacity="1"/>
<defs>
  <clipPath id="clip911">
    <rect x="480" y="0" width="1681" height="1600"/>
  </clipPath>
</defs>
<defs>
  <clipPath id="clip912">
    <rect x="257" y="123" width="2096" height="1301"/>
  </clipPath>
</defs>
<path clip-path="url(#clip910)" d="M257.366 1423.18 L2352.76 1423.18 L2352.76 123.472 L257.366 123.472  Z" fill="#ffffff" fill-rule="evenodd" fill-opacity="1"/>
<polyline clip-path="url(#clip912)" style="stroke:#000000; stroke-linecap:round; stroke-linejoin:round; stroke-width:2; stroke-opacity:0.1; fill:none" points="361.239,1423.18 361.239,123.472 "/>
<polyline clip-path="url(#clip912)" style="stroke:#000000; stroke-linecap:round; stroke-linejoin:round; stroke-width:2; stroke-opacity:0.1; fill:none" points="676.014,1423.18 676.014,123.472 "/>
<polyline clip-path="url(#clip912)" style="stroke:#000000; stroke-linecap:round; stroke-linejoin:round; stroke-width:2; stroke-opacity:0.1; fill:none" points="990.788,1423.18 990.788,123.472 "/>
<polyline clip-path="url(#clip912)" style="stroke:#000000; stroke-linecap:round; stroke-linejoin:round; stroke-width:2; stroke-opacity:0.1; fill:none" points="1305.56,1423.18 1305.56,123.472 "/>
<polyline clip-path="url(#clip912)" style="stroke:#000000; stroke-linecap:round; stroke-linejoin:round; stroke-width:2; stroke-opacity:0.1; fill:none" points="1620.34,1423.18 1620.34,123.472 "/>
<polyline clip-path="url(#clip912)" style="stroke:#000000; stroke-linecap:round; stroke-linejoin:round; stroke-width:2; stroke-opacity:0.1; fill:none" points="1935.11,1423.18 1935.11,123.472 "/>
<polyline clip-path="url(#clip912)" style="stroke:#000000; stroke-linecap:round; stroke-linejoin:round; stroke-width:2; stroke-opacity:0.1; fill:none" points="2249.89,1423.18 2249.89,123.472 "/>
<polyline clip-path="url(#clip910)" style="stroke:#000000; stroke-linecap:round; stroke-linejoin:round; stroke-width:4; stroke-opacity:1; fill:none" points="257.366,1423.18 2352.76,1423.18 "/>
<polyline clip-path="url(#clip910)" style="stroke:#000000; stroke-linecap:round; stroke-linejoin:round; stroke-width:4; stroke-opacity:1; fill:none" points="361.239,1423.18 361.239,1404.28 "/>
<polyline clip-path="url(#clip910)" style="stroke:#000000; stroke-linecap:round; stroke-linejoin:round; stroke-width:4; stroke-opacity:1; fill:none" points="676.014,1423.18 676.014,1404.28 "/>
<polyline clip-path="url(#clip910)" style="stroke:#000000; stroke-linecap:round; stroke-linejoin:round; stroke-width:4; stroke-opacity:1; fill:none" points="990.788,1423.18 990.788,1404.28 "/>
<polyline clip-path="url(#clip910)" style="stroke:#000000; stroke-linecap:round; stroke-linejoin:round; stroke-width:4; stroke-opacity:1; fill:none" points="1305.56,1423.18 1305.56,1404.28 "/>
<polyline clip-path="url(#clip910)" style="stroke:#000000; stroke-linecap:round; stroke-linejoin:round; stroke-width:4; stroke-opacity:1; fill:none" points="1620.34,1423.18 1620.34,1404.28 "/>
<polyline clip-path="url(#clip910)" style="stroke:#000000; stroke-linecap:round; stroke-linejoin:round; stroke-width:4; stroke-opacity:1; fill:none" points="1935.11,1423.18 1935.11,1404.28 "/>
<polyline clip-path="url(#clip910)" style="stroke:#000000; stroke-linecap:round; stroke-linejoin:round; stroke-width:4; stroke-opacity:1; fill:none" points="2249.89,1423.18 2249.89,1404.28 "/>
<path clip-path="url(#clip910)" d="M330.707 1468.75 L360.383 1468.75 L360.383 1472.69 L330.707 1472.69 L330.707 1468.75 Z" fill="#000000" fill-rule="evenodd" fill-opacity="1" /><path clip-path="url(#clip910)" d="M384.642 1466.95 Q387.998 1467.66 389.873 1469.93 Q391.772 1472.2 391.772 1475.53 Q391.772 1480.65 388.253 1483.45 Q384.735 1486.25 378.253 1486.25 Q376.077 1486.25 373.762 1485.81 Q371.471 1485.39 369.017 1484.54 L369.017 1480.02 Q370.961 1481.16 373.276 1481.74 Q375.591 1482.32 378.114 1482.32 Q382.512 1482.32 384.804 1480.58 Q387.119 1478.84 387.119 1475.53 Q387.119 1472.48 384.966 1470.77 Q382.836 1469.03 379.017 1469.03 L374.989 1469.03 L374.989 1465.19 L379.202 1465.19 Q382.651 1465.19 384.48 1463.82 Q386.309 1462.43 386.309 1459.84 Q386.309 1457.18 384.41 1455.77 Q382.535 1454.33 379.017 1454.33 Q377.096 1454.33 374.897 1454.75 Q372.698 1455.16 370.059 1456.04 L370.059 1451.88 Q372.721 1451.14 375.036 1450.77 Q377.373 1450.39 379.434 1450.39 Q384.758 1450.39 387.86 1452.83 Q390.961 1455.23 390.961 1459.35 Q390.961 1462.22 389.318 1464.21 Q387.674 1466.18 384.642 1466.95 Z" fill="#000000" fill-rule="evenodd" fill-opacity="1" /><path clip-path="url(#clip910)" d="M645.956 1468.75 L675.632 1468.75 L675.632 1472.69 L645.956 1472.69 L645.956 1468.75 Z" fill="#000000" fill-rule="evenodd" fill-opacity="1" /><path clip-path="url(#clip910)" d="M689.752 1481.64 L706.071 1481.64 L706.071 1485.58 L684.127 1485.58 L684.127 1481.64 Q686.789 1478.89 691.372 1474.26 Q695.979 1469.61 697.159 1468.27 Q699.405 1465.74 700.284 1464.01 Q701.187 1462.25 701.187 1460.56 Q701.187 1457.8 699.243 1456.07 Q697.321 1454.33 694.22 1454.33 Q692.02 1454.33 689.567 1455.09 Q687.136 1455.86 684.358 1457.41 L684.358 1452.69 Q687.183 1451.55 689.636 1450.97 Q692.09 1450.39 694.127 1450.39 Q699.497 1450.39 702.692 1453.08 Q705.886 1455.77 705.886 1460.26 Q705.886 1462.39 705.076 1464.31 Q704.289 1466.2 702.182 1468.8 Q701.604 1469.47 698.502 1472.69 Q695.4 1475.88 689.752 1481.64 Z" fill="#000000" fill-rule="evenodd" fill-opacity="1" /><path clip-path="url(#clip910)" d="M960.545 1468.75 L990.221 1468.75 L990.221 1472.69 L960.545 1472.69 L960.545 1468.75 Z" fill="#000000" fill-rule="evenodd" fill-opacity="1" /><path clip-path="url(#clip910)" d="M1001.12 1481.64 L1008.76 1481.64 L1008.76 1455.28 L1000.45 1456.95 L1000.45 1452.69 L1008.72 1451.02 L1013.39 1451.02 L1013.39 1481.64 L1021.03 1481.64 L1021.03 1485.58 L1001.12 1485.58 L1001.12 1481.64 Z" fill="#000000" fill-rule="evenodd" fill-opacity="1" /><path clip-path="url(#clip910)" d="M1305.56 1454.1 Q1301.95 1454.1 1300.12 1457.66 Q1298.32 1461.2 1298.32 1468.33 Q1298.32 1475.44 1300.12 1479.01 Q1301.95 1482.55 1305.56 1482.55 Q1309.2 1482.55 1311 1479.01 Q1312.83 1475.44 1312.83 1468.33 Q1312.83 1461.2 1311 1457.66 Q1309.2 1454.1 1305.56 1454.1 M1305.56 1450.39 Q1311.37 1450.39 1314.43 1455 Q1317.51 1459.58 1317.51 1468.33 Q1317.51 1477.06 1314.43 1481.67 Q1311.37 1486.25 1305.56 1486.25 Q1299.75 1486.25 1296.67 1481.67 Q1293.62 1477.06 1293.62 1468.33 Q1293.62 1459.58 1296.67 1455 Q1299.75 1450.39 1305.56 1450.39 Z" fill="#000000" fill-rule="evenodd" fill-opacity="1" /><path clip-path="url(#clip910)" d="M1610.72 1481.64 L1618.36 1481.64 L1618.36 1455.28 L1610.05 1456.95 L1610.05 1452.69 L1618.31 1451.02 L1622.99 1451.02 L1622.99 1481.64 L1630.63 1481.64 L1630.63 1485.58 L1610.72 1485.58 L1610.72 1481.64 Z" fill="#000000" fill-rule="evenodd" fill-opacity="1" /><path clip-path="url(#clip910)" d="M1929.76 1481.64 L1946.08 1481.64 L1946.08 1485.58 L1924.14 1485.58 L1924.14 1481.64 Q1926.8 1478.89 1931.38 1474.26 Q1935.99 1469.61 1937.17 1468.27 Q1939.42 1465.74 1940.3 1464.01 Q1941.2 1462.25 1941.2 1460.56 Q1941.2 1457.8 1939.25 1456.07 Q1937.33 1454.33 1934.23 1454.33 Q1932.03 1454.33 1929.58 1455.09 Q1927.15 1455.86 1924.37 1457.41 L1924.37 1452.69 Q1927.19 1451.55 1929.65 1450.97 Q1932.1 1450.39 1934.14 1450.39 Q1939.51 1450.39 1942.7 1453.08 Q1945.9 1455.77 1945.9 1460.26 Q1945.9 1462.39 1945.09 1464.31 Q1944.3 1466.2 1942.19 1468.8 Q1941.62 1469.47 1938.51 1472.69 Q1935.41 1475.88 1929.76 1481.64 Z" fill="#000000" fill-rule="evenodd" fill-opacity="1" /><path clip-path="url(#clip910)" d="M2254.13 1466.95 Q2257.49 1467.66 2259.36 1469.93 Q2261.26 1472.2 2261.26 1475.53 Q2261.26 1480.65 2257.74 1483.45 Q2254.23 1486.25 2247.74 1486.25 Q2245.57 1486.25 2243.25 1485.81 Q2240.96 1485.39 2238.51 1484.54 L2238.51 1480.02 Q2240.45 1481.16 2242.77 1481.74 Q2245.08 1482.32 2247.61 1482.32 Q2252 1482.32 2254.3 1480.58 Q2256.61 1478.84 2256.61 1475.53 Q2256.61 1472.48 2254.46 1470.77 Q2252.33 1469.03 2248.51 1469.03 L2244.48 1469.03 L2244.48 1465.19 L2248.69 1465.19 Q2252.14 1465.19 2253.97 1463.82 Q2255.8 1462.43 2255.8 1459.84 Q2255.8 1457.18 2253.9 1455.77 Q2252.03 1454.33 2248.51 1454.33 Q2246.59 1454.33 2244.39 1454.75 Q2242.19 1455.16 2239.55 1456.04 L2239.55 1451.88 Q2242.21 1451.14 2244.53 1450.77 Q2246.86 1450.39 2248.92 1450.39 Q2254.25 1450.39 2257.35 1452.83 Q2260.45 1455.23 2260.45 1459.35 Q2260.45 1462.22 2258.81 1464.21 Q2257.17 1466.18 2254.13 1466.95 Z" fill="#000000" fill-rule="evenodd" fill-opacity="1" /><path clip-path="url(#clip910)" d="M1317 1529.22 Q1317 1534.63 1315.26 1540.71 Q1313.55 1546.77 1310.84 1551.66 Q1308.14 1556.53 1304.6 1559.75 Q1301.05 1562.94 1297.67 1562.94 Q1295.51 1562.94 1293.9 1561.75 Q1292.33 1560.52 1291.46 1558.49 Q1290.59 1556.43 1290.17 1554.18 Q1289.75 1551.89 1289.75 1549.41 Q1289.75 1545.71 1290.55 1541.68 Q1291.36 1537.62 1292.71 1533.95 Q1294.07 1530.25 1295.97 1526.9 Q1297.87 1523.52 1299.96 1521.07 Q1302.08 1518.59 1304.47 1517.14 Q1306.85 1515.69 1309.07 1515.69 Q1310.68 1515.69 1311.97 1516.4 Q1313.29 1517.08 1314.13 1518.27 Q1314.97 1519.43 1315.55 1520.81 Q1316.16 1522.2 1316.45 1523.81 Q1316.74 1525.38 1316.87 1526.71 Q1317 1527.99 1317 1529.22 M1312.65 1525.13 Q1312.65 1523.48 1312.52 1522.26 Q1312.39 1521 1312.04 1519.75 Q1311.68 1518.49 1310.91 1517.82 Q1310.17 1517.14 1309.01 1517.14 Q1305.63 1517.14 1301.83 1524.06 Q1300.6 1526.22 1299.51 1529.15 Q1298.41 1532.08 1298.03 1533.47 Q1297.64 1534.85 1296.74 1538.27 L1310.52 1538.27 Q1312.65 1529.47 1312.65 1525.13 M1309.94 1540.36 L1296.22 1540.36 Q1294.1 1548.41 1294.1 1553.44 Q1294.1 1557.82 1295 1559.65 Q1295.93 1561.46 1297.67 1561.46 Q1299.67 1561.46 1301.54 1559.46 Q1303.4 1557.43 1305.31 1553.76 Q1307.82 1548.99 1309.94 1540.36 Z" fill="#000000" fill-rule="evenodd" fill-opacity="1" /><polyline clip-path="url(#clip912)" style="stroke:#000000; stroke-linecap:round; stroke-linejoin:round; stroke-width:2; stroke-opacity:0.1; fill:none" points="257.366,1272.96 2352.76,1272.96 "/>
<polyline clip-path="url(#clip912)" style="stroke:#000000; stroke-linecap:round; stroke-linejoin:round; stroke-width:2; stroke-opacity:0.1; fill:none" points="257.366,1042.89 2352.76,1042.89 "/>
<polyline clip-path="url(#clip912)" style="stroke:#000000; stroke-linecap:round; stroke-linejoin:round; stroke-width:2; stroke-opacity:0.1; fill:none" points="257.366,812.821 2352.76,812.821 "/>
<polyline clip-path="url(#clip912)" style="stroke:#000000; stroke-linecap:round; stroke-linejoin:round; stroke-width:2; stroke-opacity:0.1; fill:none" points="257.366,582.753 2352.76,582.753 "/>
<polyline clip-path="url(#clip912)" style="stroke:#000000; stroke-linecap:round; stroke-linejoin:round; stroke-width:2; stroke-opacity:0.1; fill:none" points="257.366,352.685 2352.76,352.685 "/>
<polyline clip-path="url(#clip910)" style="stroke:#000000; stroke-linecap:round; stroke-linejoin:round; stroke-width:4; stroke-opacity:1; fill:none" points="257.366,1423.18 257.366,123.472 "/>
<polyline clip-path="url(#clip910)" style="stroke:#000000; stroke-linecap:round; stroke-linejoin:round; stroke-width:4; stroke-opacity:1; fill:none" points="257.366,1272.96 276.264,1272.96 "/>
<polyline clip-path="url(#clip910)" style="stroke:#000000; stroke-linecap:round; stroke-linejoin:round; stroke-width:4; stroke-opacity:1; fill:none" points="257.366,1042.89 276.264,1042.89 "/>
<polyline clip-path="url(#clip910)" style="stroke:#000000; stroke-linecap:round; stroke-linejoin:round; stroke-width:4; stroke-opacity:1; fill:none" points="257.366,812.821 276.264,812.821 "/>
<polyline clip-path="url(#clip910)" style="stroke:#000000; stroke-linecap:round; stroke-linejoin:round; stroke-width:4; stroke-opacity:1; fill:none" points="257.366,582.753 276.264,582.753 "/>
<polyline clip-path="url(#clip910)" style="stroke:#000000; stroke-linecap:round; stroke-linejoin:round; stroke-width:4; stroke-opacity:1; fill:none" points="257.366,352.685 276.264,352.685 "/>
<path clip-path="url(#clip910)" d="M114.26 1273.41 L143.936 1273.41 L143.936 1277.34 L114.26 1277.34 L114.26 1273.41 Z" fill="#000000" fill-rule="evenodd" fill-opacity="1" /><path clip-path="url(#clip910)" d="M164.028 1258.76 Q160.417 1258.76 158.589 1262.32 Q156.783 1265.86 156.783 1272.99 Q156.783 1280.1 158.589 1283.66 Q160.417 1287.2 164.028 1287.2 Q167.663 1287.2 169.468 1283.66 Q171.297 1280.1 171.297 1272.99 Q171.297 1265.86 169.468 1262.32 Q167.663 1258.76 164.028 1258.76 M164.028 1255.05 Q169.839 1255.05 172.894 1259.66 Q175.973 1264.24 175.973 1272.99 Q175.973 1281.72 172.894 1286.33 Q169.839 1290.91 164.028 1290.91 Q158.218 1290.91 155.14 1286.33 Q152.084 1281.72 152.084 1272.99 Q152.084 1264.24 155.14 1259.66 Q158.218 1255.05 164.028 1255.05 Z" fill="#000000" fill-rule="evenodd" fill-opacity="1" /><path clip-path="url(#clip910)" d="M184.19 1284.36 L189.075 1284.36 L189.075 1290.24 L184.19 1290.24 L184.19 1284.36 Z" fill="#000000" fill-rule="evenodd" fill-opacity="1" /><path clip-path="url(#clip910)" d="M209.838 1271.09 Q206.69 1271.09 204.838 1273.25 Q203.01 1275.4 203.01 1279.15 Q203.01 1282.88 204.838 1285.05 Q206.69 1287.2 209.838 1287.2 Q212.986 1287.2 214.815 1285.05 Q216.667 1282.88 216.667 1279.15 Q216.667 1275.4 214.815 1273.25 Q212.986 1271.09 209.838 1271.09 M219.121 1256.44 L219.121 1260.7 Q217.361 1259.87 215.556 1259.43 Q213.774 1258.99 212.014 1258.99 Q207.385 1258.99 204.931 1262.11 Q202.5 1265.24 202.153 1271.56 Q203.519 1269.54 205.579 1268.48 Q207.639 1267.39 210.116 1267.39 Q215.324 1267.39 218.334 1270.56 Q221.366 1273.71 221.366 1279.15 Q221.366 1284.47 218.218 1287.69 Q215.07 1290.91 209.838 1290.91 Q203.843 1290.91 200.672 1286.33 Q197.5 1281.72 197.5 1272.99 Q197.5 1264.8 201.389 1259.94 Q205.278 1255.05 211.829 1255.05 Q213.588 1255.05 215.371 1255.4 Q217.176 1255.75 219.121 1256.44 Z" fill="#000000" fill-rule="evenodd" fill-opacity="1" /><path clip-path="url(#clip910)" d="M115.07 1043.34 L144.746 1043.34 L144.746 1047.28 L115.07 1047.28 L115.07 1043.34 Z" fill="#000000" fill-rule="evenodd" fill-opacity="1" /><path clip-path="url(#clip910)" d="M164.839 1028.69 Q161.227 1028.69 159.399 1032.25 Q157.593 1035.79 157.593 1042.92 Q157.593 1050.03 159.399 1053.6 Q161.227 1057.14 164.839 1057.14 Q168.473 1057.14 170.278 1053.6 Q172.107 1050.03 172.107 1042.92 Q172.107 1035.79 170.278 1032.25 Q168.473 1028.69 164.839 1028.69 M164.839 1024.98 Q170.649 1024.98 173.704 1029.59 Q176.783 1034.17 176.783 1042.92 Q176.783 1051.65 173.704 1056.26 Q170.649 1060.84 164.839 1060.84 Q159.028 1060.84 155.95 1056.26 Q152.894 1051.65 152.894 1042.92 Q152.894 1034.17 155.95 1029.59 Q159.028 1024.98 164.839 1024.98 Z" fill="#000000" fill-rule="evenodd" fill-opacity="1" /><path clip-path="url(#clip910)" d="M185.001 1054.29 L189.885 1054.29 L189.885 1060.17 L185.001 1060.17 L185.001 1054.29 Z" fill="#000000" fill-rule="evenodd" fill-opacity="1" /><path clip-path="url(#clip910)" d="M214.236 1041.54 Q217.593 1042.25 219.468 1044.52 Q221.366 1046.79 221.366 1050.12 Q221.366 1055.24 217.848 1058.04 Q214.329 1060.84 207.848 1060.84 Q205.672 1060.84 203.357 1060.4 Q201.065 1059.98 198.612 1059.13 L198.612 1054.61 Q200.556 1055.75 202.871 1056.33 Q205.186 1056.91 207.709 1056.91 Q212.107 1056.91 214.399 1055.17 Q216.713 1053.43 216.713 1050.12 Q216.713 1047.07 214.561 1045.35 Q212.431 1043.62 208.612 1043.62 L204.584 1043.62 L204.584 1039.78 L208.797 1039.78 Q212.246 1039.78 214.074 1038.41 Q215.903 1037.02 215.903 1034.43 Q215.903 1031.77 214.005 1030.35 Q212.13 1028.92 208.612 1028.92 Q206.69 1028.92 204.491 1029.34 Q202.292 1029.75 199.653 1030.63 L199.653 1026.47 Q202.315 1025.72 204.63 1025.35 Q206.968 1024.98 209.028 1024.98 Q214.352 1024.98 217.454 1027.41 Q220.556 1029.82 220.556 1033.94 Q220.556 1036.81 218.912 1038.8 Q217.269 1040.77 214.236 1041.54 Z" fill="#000000" fill-rule="evenodd" fill-opacity="1" /><path clip-path="url(#clip910)" d="M164.19 798.62 Q160.579 798.62 158.751 802.185 Q156.945 805.726 156.945 812.856 Q156.945 819.962 158.751 823.527 Q160.579 827.069 164.19 827.069 Q167.825 827.069 169.63 823.527 Q171.459 819.962 171.459 812.856 Q171.459 805.726 169.63 802.185 Q167.825 798.62 164.19 798.62 M164.19 794.916 Q170.001 794.916 173.056 799.523 Q176.135 804.106 176.135 812.856 Q176.135 821.583 173.056 826.189 Q170.001 830.772 164.19 830.772 Q158.38 830.772 155.302 826.189 Q152.246 821.583 152.246 812.856 Q152.246 804.106 155.302 799.523 Q158.38 794.916 164.19 794.916 Z" fill="#000000" fill-rule="evenodd" fill-opacity="1" /><path clip-path="url(#clip910)" d="M184.352 824.222 L189.237 824.222 L189.237 830.101 L184.352 830.101 L184.352 824.222 Z" fill="#000000" fill-rule="evenodd" fill-opacity="1" /><path clip-path="url(#clip910)" d="M209.422 798.62 Q205.811 798.62 203.982 802.185 Q202.176 805.726 202.176 812.856 Q202.176 819.962 203.982 823.527 Q205.811 827.069 209.422 827.069 Q213.056 827.069 214.861 823.527 Q216.69 819.962 216.69 812.856 Q216.69 805.726 214.861 802.185 Q213.056 798.62 209.422 798.62 M209.422 794.916 Q215.232 794.916 218.287 799.523 Q221.366 804.106 221.366 812.856 Q221.366 821.583 218.287 826.189 Q215.232 830.772 209.422 830.772 Q203.612 830.772 200.533 826.189 Q197.477 821.583 197.477 812.856 Q197.477 804.106 200.533 799.523 Q203.612 794.916 209.422 794.916 Z" fill="#000000" fill-rule="evenodd" fill-opacity="1" /><path clip-path="url(#clip910)" d="M164.839 568.552 Q161.227 568.552 159.399 572.116 Q157.593 575.658 157.593 582.788 Q157.593 589.894 159.399 593.459 Q161.227 597.001 164.839 597.001 Q168.473 597.001 170.278 593.459 Q172.107 589.894 172.107 582.788 Q172.107 575.658 170.278 572.116 Q168.473 568.552 164.839 568.552 M164.839 564.848 Q170.649 564.848 173.704 569.454 Q176.783 574.038 176.783 582.788 Q176.783 591.515 173.704 596.121 Q170.649 600.704 164.839 600.704 Q159.028 600.704 155.95 596.121 Q152.894 591.515 152.894 582.788 Q152.894 574.038 155.95 569.454 Q159.028 564.848 164.839 564.848 Z" fill="#000000" fill-rule="evenodd" fill-opacity="1" /><path clip-path="url(#clip910)" d="M185.001 594.153 L189.885 594.153 L189.885 600.033 L185.001 600.033 L185.001 594.153 Z" fill="#000000" fill-rule="evenodd" fill-opacity="1" /><path clip-path="url(#clip910)" d="M214.236 581.399 Q217.593 582.116 219.468 584.385 Q221.366 586.653 221.366 589.987 Q221.366 595.102 217.848 597.903 Q214.329 600.704 207.848 600.704 Q205.672 600.704 203.357 600.264 Q201.065 599.848 198.612 598.991 L198.612 594.477 Q200.556 595.612 202.871 596.19 Q205.186 596.769 207.709 596.769 Q212.107 596.769 214.399 595.033 Q216.713 593.297 216.713 589.987 Q216.713 586.931 214.561 585.218 Q212.431 583.482 208.612 583.482 L204.584 583.482 L204.584 579.64 L208.797 579.64 Q212.246 579.64 214.074 578.274 Q215.903 576.885 215.903 574.292 Q215.903 571.63 214.005 570.218 Q212.13 568.783 208.612 568.783 Q206.69 568.783 204.491 569.2 Q202.292 569.617 199.653 570.496 L199.653 566.329 Q202.315 565.589 204.63 565.218 Q206.968 564.848 209.028 564.848 Q214.352 564.848 217.454 567.279 Q220.556 569.686 220.556 573.806 Q220.556 576.677 218.912 578.667 Q217.269 580.635 214.236 581.399 Z" fill="#000000" fill-rule="evenodd" fill-opacity="1" /><path clip-path="url(#clip910)" d="M164.028 338.484 Q160.417 338.484 158.589 342.048 Q156.783 345.59 156.783 352.72 Q156.783 359.826 158.589 363.391 Q160.417 366.933 164.028 366.933 Q167.663 366.933 169.468 363.391 Q171.297 359.826 171.297 352.72 Q171.297 345.59 169.468 342.048 Q167.663 338.484 164.028 338.484 M164.028 334.78 Q169.839 334.78 172.894 339.386 Q175.973 343.97 175.973 352.72 Q175.973 361.446 172.894 366.053 Q169.839 370.636 164.028 370.636 Q158.218 370.636 155.14 366.053 Q152.084 361.446 152.084 352.72 Q152.084 343.97 155.14 339.386 Q158.218 334.78 164.028 334.78 Z" fill="#000000" fill-rule="evenodd" fill-opacity="1" /><path clip-path="url(#clip910)" d="M184.19 364.085 L189.075 364.085 L189.075 369.965 L184.19 369.965 L184.19 364.085 Z" fill="#000000" fill-rule="evenodd" fill-opacity="1" /><path clip-path="url(#clip910)" d="M209.838 350.821 Q206.69 350.821 204.838 352.974 Q203.01 355.127 203.01 358.877 Q203.01 362.604 204.838 364.78 Q206.69 366.933 209.838 366.933 Q212.986 366.933 214.815 364.78 Q216.667 362.604 216.667 358.877 Q216.667 355.127 214.815 352.974 Q212.986 350.821 209.838 350.821 M219.121 336.169 L219.121 340.428 Q217.361 339.595 215.556 339.155 Q213.774 338.715 212.014 338.715 Q207.385 338.715 204.931 341.84 Q202.5 344.965 202.153 351.284 Q203.519 349.271 205.579 348.206 Q207.639 347.118 210.116 347.118 Q215.324 347.118 218.334 350.289 Q221.366 353.437 221.366 358.877 Q221.366 364.201 218.218 367.419 Q215.07 370.636 209.838 370.636 Q203.843 370.636 200.672 366.053 Q197.5 361.446 197.5 352.72 Q197.5 344.525 201.389 339.664 Q205.278 334.78 211.829 334.78 Q213.588 334.78 215.371 335.127 Q217.176 335.474 219.121 336.169 Z" fill="#000000" fill-rule="evenodd" fill-opacity="1" /><path clip-path="url(#clip910)" d="M65.2145 915.302 L56.519 915.302 Q55.7782 915.302 55.5206 915.27 Q55.2629 915.237 55.0697 915.044 Q54.8765 914.851 54.8765 914.465 Q54.8765 914.014 55.0697 913.853 Q55.2629 913.659 56.0037 913.531 Q60.5447 912.532 62.9601 910.407 Q65.3434 908.249 65.3434 904.352 Q65.3434 900.648 63.7009 898.78 Q62.0584 896.912 59.3531 896.912 Q54.5222 896.912 53.2984 903.772 Q52.4932 907.733 51.9779 909.376 Q51.4304 911.018 50.2388 912.468 Q47.92 915.302 44.635 915.302 Q41.35 915.302 38.9346 912.822 Q36.5191 910.31 36.5191 904.771 Q36.5191 901.067 38.3871 898.555 Q37.8073 897.814 37.3243 897.428 Q36.5191 896.558 36.5191 896.107 Q36.5191 895.592 36.8734 895.495 Q37.1954 895.399 38.1294 895.399 L44.7638 895.399 Q45.5045 895.399 45.7622 895.431 Q46.0198 895.463 46.2131 895.656 Q46.3741 895.85 46.3741 896.268 Q46.3741 897.009 45.7622 897.041 Q37.7751 897.556 37.7751 904.771 Q37.7751 908.667 39.2888 910.407 Q40.7703 912.146 42.7993 912.146 Q43.9265 912.146 44.796 911.63 Q45.6334 911.083 46.1487 910.407 Q46.6318 909.698 47.1148 908.41 Q47.5657 907.122 47.7268 906.349 Q47.8878 905.543 48.2098 904.03 Q49.2082 898.748 51.366 896.526 Q54.1357 893.756 57.6462 893.756 Q61.5431 893.756 64.1839 896.397 Q66.8248 899.038 66.8248 904.352 Q66.8248 908.635 63.9585 911.63 Q64.345 912.017 64.6992 912.307 Q65.0213 912.597 65.1501 912.725 Q65.2789 912.822 65.3756 912.854 Q65.44 912.886 65.5044 912.951 Q66.8248 914.271 66.8248 914.593 Q66.8248 915.109 66.4706 915.205 Q66.1485 915.302 65.2145 915.302 Z" fill="#000000" fill-rule="evenodd" fill-opacity="1" /><path clip-path="url(#clip910)" d="M62.5415 885.508 Q58.2259 889.856 51.9779 889.856 Q45.6978 889.856 41.1246 885.605 Q36.5191 881.321 36.5191 875.202 Q36.5191 869.212 41.0923 864.928 Q45.6334 860.613 51.9779 860.613 Q58.1937 860.613 62.5092 864.961 Q66.8248 869.276 66.8248 875.266 Q66.8248 881.128 62.5415 885.508 M51.4304 884.381 Q57.8394 884.381 60.7379 882.706 Q65.1501 880.13 65.1501 875.202 Q65.1501 872.754 63.8297 870.725 Q62.5092 868.664 60.287 867.537 Q57.3885 866.088 51.4304 866.088 Q45.0859 866.088 42.284 867.827 Q38.0006 870.403 38.0006 875.266 Q38.0006 877.392 39.1278 879.485 Q40.2228 881.547 42.4128 882.803 Q45.3113 884.381 51.4304 884.381 Z" fill="#000000" fill-rule="evenodd" fill-opacity="1" /><path clip-path="url(#clip910)" d="M66.0841 858.512 L64.0551 858.512 Q64.0551 855.001 63.6364 854.196 Q63.1856 853.391 61.06 853.391 L43.379 853.391 Q40.9313 853.391 40.3194 854.26 Q39.7075 855.098 39.7075 858.512 L37.6463 858.512 L36.9378 849.236 L43.8621 849.236 Q36.9378 846.145 36.9378 839.478 Q36.9378 834.518 39.3854 832.554 Q41.0279 831.104 42.8637 830.815 Q44.6994 830.493 49.4659 830.493 L62.0584 830.493 Q63.4432 830.428 63.7653 829.365 Q64.0551 828.303 64.0551 825.34 L66.0841 825.34 Q65.8909 832.071 65.8909 832.747 Q65.8909 833.262 66.0841 840.186 L64.0551 840.186 Q64.0551 836.676 63.6364 835.871 Q63.1856 835.034 61.06 835.034 L45.6978 835.034 Q42.3484 835.034 40.3838 836.064 Q38.3871 837.095 38.3871 839.929 Q38.3871 843.343 41.2534 846.08 Q44.1197 848.818 48.9506 848.818 L61.06 848.818 Q63.1856 848.818 63.6364 848.013 Q64.0551 847.175 64.0551 843.697 L66.0841 843.697 Q65.8909 850.428 65.8909 851.072 Q65.8909 851.587 66.0841 858.512 Z" fill="#000000" fill-rule="evenodd" fill-opacity="1" /><path clip-path="url(#clip910)" d="M49.5947 822.275 Q38.4515 822.275 29.466 818.12 Q25.6979 816.349 22.5418 813.869 Q19.3856 811.389 18.0007 809.747 Q16.6159 808.104 16.6159 807.653 Q16.6159 807.009 17.26 806.977 Q17.5821 806.977 18.3872 807.847 Q29.2084 818.475 49.5947 818.442 Q70.0454 818.442 80.4479 808.104 Q81.5751 806.977 81.9294 806.977 Q82.5735 806.977 82.5735 807.653 Q82.5735 808.104 81.2531 809.682 Q79.9326 811.261 76.9053 813.708 Q73.8779 816.156 70.1742 817.927 Q61.1888 822.275 49.5947 822.275 Z" fill="#000000" fill-rule="evenodd" fill-opacity="1" /><path clip-path="url(#clip910)" d="M33.1053 773.397 Q38.5159 773.397 44.6028 775.136 Q50.6575 776.843 55.5528 779.549 Q60.4159 782.254 63.6364 785.797 Q66.8248 789.339 66.8248 792.721 Q66.8248 794.879 65.6332 796.489 Q64.4094 798.067 62.3804 798.937 Q60.3192 799.806 58.0648 800.225 Q55.7782 800.644 53.2984 800.644 Q49.5947 800.644 45.569 799.838 Q41.511 799.033 37.8396 797.681 Q34.1359 796.328 30.7865 794.428 Q27.4049 792.528 24.9572 790.434 Q22.4774 788.309 21.0281 785.925 Q19.5788 783.542 19.5788 781.32 Q19.5788 779.71 20.2874 778.421 Q20.9637 777.101 22.1553 776.264 Q23.3147 775.426 24.6996 774.847 Q26.0844 774.235 27.6947 773.945 Q29.2728 773.655 30.5932 773.526 Q31.8815 773.397 33.1053 773.397 M29.0151 777.745 Q27.3726 777.745 26.1488 777.874 Q24.8928 778.003 23.6368 778.357 Q22.3807 778.711 21.7044 779.484 Q21.0281 780.225 21.0281 781.384 Q21.0281 784.766 27.9524 788.566 Q30.1101 789.79 33.0409 790.885 Q35.9716 791.98 37.3565 792.367 Q38.7413 792.753 42.1551 793.655 L42.1551 779.871 Q33.3629 777.745 29.0151 777.745 M44.2485 780.45 L44.2485 794.17 Q52.3 796.296 57.3241 796.296 Q61.7041 796.296 63.5398 795.394 Q65.3434 794.46 65.3434 792.721 Q65.3434 790.724 63.3466 788.856 Q61.3176 786.988 57.6462 785.088 Q52.8797 782.576 44.2485 780.45 Z" fill="#000000" fill-rule="evenodd" fill-opacity="1" /><path clip-path="url(#clip910)" d="M65.0213 769.087 Q63.9585 770.021 62.5737 770.021 Q61.1888 770.021 60.1582 769.119 Q59.0954 768.185 59.0954 766.511 Q59.0954 764.546 60.9956 763.419 Q62.8635 762.292 66.0197 762.292 Q69.4335 762.292 72.5897 763.676 Q75.7781 765.061 77.2917 766.414 Q78.8054 767.767 78.8054 768.314 Q78.8054 768.958 78.0969 768.958 Q77.8392 768.958 77.3561 768.507 Q72.2676 763.773 66.0197 763.741 Q65.0213 763.741 65.0213 763.87 L65.1501 764.031 Q66.0841 765.158 66.0841 766.511 Q66.0841 768.153 65.0213 769.087 Z" fill="#000000" fill-rule="evenodd" fill-opacity="1" /><path clip-path="url(#clip910)" d="M44.9893 741.476 Q35.2953 741.476 30.0135 739.028 Q22.1553 735.614 22.1553 727.563 Q22.1553 725.856 22.6384 724.085 Q23.0893 722.281 24.8606 720.027 Q26.6319 717.74 29.5304 716.355 Q35.1343 713.714 44.9893 713.714 Q54.6188 713.714 59.8684 716.162 Q67.5334 719.737 67.5334 727.627 Q67.5334 730.59 66.0197 733.618 Q64.506 736.613 60.8667 738.513 Q55.424 741.476 44.9893 741.476 M44.1841 736.001 Q54.1357 736.001 58.097 735.292 Q62.3804 734.487 64.2484 732.297 Q66.0841 730.075 66.0841 727.627 Q66.0841 724.986 64.1195 722.796 Q62.1228 720.574 57.8394 719.898 Q53.6204 719.157 44.1841 719.189 Q35.0054 719.189 31.334 719.834 Q27.0506 720.703 25.3437 723.022 Q23.6046 725.309 23.6046 727.627 Q23.6046 728.497 23.8622 729.431 Q24.1199 730.333 24.8606 731.653 Q25.6013 732.974 27.4371 734.004 Q29.2728 735.002 32.0425 735.486 Q35.6174 736.001 44.1841 736.001 Z" fill="#000000" fill-rule="evenodd" fill-opacity="1" /><path clip-path="url(#clip910)" d="M65.0213 707.813 Q63.9585 708.812 62.5737 708.812 Q61.1888 708.812 60.1904 707.813 Q59.1598 706.815 59.1598 705.301 Q59.1598 703.852 60.126 702.886 Q61.06 701.888 62.6059 701.888 Q64.1195 701.888 65.1179 702.95 Q66.0841 703.981 66.0841 705.301 Q66.0841 706.815 65.0213 707.813 Z" fill="#000000" fill-rule="evenodd" fill-opacity="1" /><path clip-path="url(#clip910)" d="M55.4562 690.662 Q53.4916 690.662 52.7509 689.599 Q51.9779 688.536 51.9779 687.409 Q51.9779 685.895 52.9441 685.026 Q53.8781 684.124 55.1985 684.124 Q56.519 684.124 57.4851 685.026 Q58.4191 685.895 58.4191 687.409 Q58.4191 688.15 58.2903 688.536 Q61.3176 687.666 63.5076 685.026 Q65.6976 682.352 65.6976 678.842 Q65.6976 674.43 61.4142 671.789 Q58.6445 670.211 52.3644 670.211 Q46.825 670.211 44.0553 671.402 Q39.8363 673.238 39.8363 677.006 Q39.8363 682.352 44.4418 685.509 Q45.0215 685.895 45.0537 686.346 Q45.0537 686.99 44.6994 687.151 Q44.3129 687.28 43.3146 687.28 L23.7978 687.28 Q22.2197 687.28 22.2197 686.636 Q22.2197 686.378 22.4129 685.831 Q24.2487 681.676 24.2809 677.071 Q24.2809 672.336 22.3485 668.085 Q22.1553 667.763 22.1553 667.57 Q22.1553 666.926 22.896 666.894 Q23.1537 666.894 23.9266 667.441 Q24.6674 667.956 25.6657 669.084 Q26.6319 670.211 27.5659 671.66 Q28.4999 673.109 29.144 675.235 Q29.7559 677.328 29.7559 679.647 Q29.7559 682.417 28.8863 685.251 L41.7365 685.251 Q38.3871 681.837 38.3871 676.877 Q38.3871 671.596 42.6382 667.956 Q46.8894 664.317 52.8153 664.317 Q59.031 664.317 63.2822 668.633 Q67.5334 672.916 67.5334 678.713 Q67.5334 683.995 63.7653 687.344 Q59.9972 690.662 55.4562 690.662 Z" fill="#000000" fill-rule="evenodd" fill-opacity="1" /><path clip-path="url(#clip910)" d="M81.9294 656.678 Q81.6073 656.678 80.8022 655.84 Q69.981 645.212 49.5947 645.212 Q29.144 645.212 18.8059 655.421 Q17.6143 656.678 17.26 656.678 Q16.6159 656.678 16.6159 656.033 Q16.6159 655.583 17.9363 654.004 Q19.2568 652.394 22.2841 649.979 Q25.3115 647.531 29.0151 645.728 Q38.0006 641.38 49.5947 641.38 Q60.7379 641.38 69.7234 645.534 Q73.4914 647.306 76.6476 649.785 Q79.8038 652.265 81.1886 653.908 Q82.5735 655.55 82.5735 656.033 Q82.5735 656.678 81.9294 656.678 Z" fill="#000000" fill-rule="evenodd" fill-opacity="1" /><path clip-path="url(#clip910)" d="M1048.43 21.812 Q1048.43 24.0664 1046.99 25.4601 Q1045.6 26.8537 1043.83 26.8537 Q1042.56 26.8537 1041.62 26.0749 Q1040.72 25.2961 1040.72 23.9435 Q1040.72 22.5498 1041.78 21.0742 Q1042.85 19.5986 1045.27 19.3937 Q1043.67 17.8771 1041.13 17.8771 Q1039.86 17.8771 1038.79 18.6968 Q1037.77 19.4756 1037.19 20.7463 Q1036.58 22.058 1035.19 29.477 Q1034.73 31.8954 1034.32 34.2318 Q1033.91 36.5682 1033.42 39.0275 L1040.39 39.0275 Q1041.29 39.0275 1041.66 39.0685 Q1042.03 39.1095 1042.32 39.3145 Q1042.65 39.5194 1042.65 39.9703 Q1042.65 41.118 1042.11 41.4049 Q1041.62 41.6508 1040.15 41.6508 L1032.93 41.6508 L1027.89 68.2529 Q1027.77 69.0317 1027.23 71.491 Q1026.74 73.9094 1025.55 77.8854 Q1024.36 81.9023 1023.18 84.2797 Q1022.52 85.6323 1021.66 86.903 Q1020.84 88.2147 1019.65 89.5263 Q1018.46 90.838 1016.9 91.6168 Q1015.35 92.4366 1013.71 92.4366 Q1010.92 92.4366 1008.75 90.879 Q1006.58 89.3214 1006.58 86.6571 Q1006.58 84.4027 1007.97 83.009 Q1009.4 81.6154 1011.17 81.6154 Q1012.44 81.6154 1013.34 82.3942 Q1014.28 83.173 1014.28 84.5256 Q1014.28 85.0995 1014.08 85.7553 Q1013.87 86.4111 1013.42 87.1489 Q1012.97 87.9277 1011.99 88.4606 Q1011 88.9935 1009.65 89.0754 Q1011.25 90.592 1013.71 90.592 Q1014.49 90.592 1015.18 90.2641 Q1015.88 89.9772 1016.45 89.2394 Q1017.07 88.5016 1017.52 87.7638 Q1017.97 87.067 1018.42 85.7143 Q1018.87 84.4027 1019.16 83.4189 Q1019.45 82.4352 1019.81 80.6726 Q1020.22 78.9101 1020.43 77.8444 Q1020.63 76.8196 1021 74.8112 L1027.27 41.6508 L1021.74 41.6508 Q1020.76 41.6508 1020.35 41.6099 Q1019.98 41.5689 1019.69 41.3639 Q1019.4 41.118 1019.4 40.6261 Q1019.4 39.8473 1019.73 39.5194 Q1020.1 39.1505 1020.51 39.1095 Q1020.92 39.0275 1021.91 39.0275 L1027.73 39.0275 Q1029.69 28.6572 1030.47 25.87 Q1031.37 22.9187 1032.77 20.8693 Q1034.16 18.7788 1035.72 17.7951 Q1037.28 16.8113 1038.55 16.4424 Q1039.86 16.0325 1041.13 16.0325 Q1044 16.0325 1046.21 17.5901 Q1048.43 19.1067 1048.43 21.812 Z" fill="#000000" fill-rule="evenodd" fill-opacity="1" /><path clip-path="url(#clip910)" d="M1059.72 54.2346 Q1059.72 40.0523 1065.01 28.6163 Q1067.27 23.8205 1070.42 19.8036 Q1073.58 15.7866 1075.67 14.0241 Q1077.76 12.2615 1078.33 12.2615 Q1079.15 12.2615 1079.19 13.0813 Q1079.19 13.4912 1078.09 14.5159 Q1064.56 28.2883 1064.6 54.2346 Q1064.6 80.2627 1077.76 93.5023 Q1079.19 94.9369 1079.19 95.3878 Q1079.19 96.2076 1078.33 96.2076 Q1077.76 96.2076 1075.75 94.527 Q1073.74 92.8465 1070.63 88.9935 Q1067.51 85.1405 1065.26 80.4267 Q1059.72 68.9907 1059.72 54.2346 Z" fill="#000000" fill-rule="evenodd" fill-opacity="1" /><path clip-path="url(#clip910)" d="M1121.93 33.248 Q1121.93 40.1342 1119.72 47.8812 Q1117.55 55.5872 1114.1 61.8176 Q1110.66 68.0069 1106.15 72.1059 Q1101.64 76.1638 1097.34 76.1638 Q1094.59 76.1638 1092.54 74.6472 Q1090.53 73.0896 1089.43 70.5073 Q1088.32 67.884 1087.79 65.0147 Q1087.25 62.1045 1087.25 58.9483 Q1087.25 54.2346 1088.28 49.1109 Q1089.3 43.9462 1091.03 39.2735 Q1092.75 34.5597 1095.17 30.2968 Q1097.58 25.9929 1100.25 22.8778 Q1102.95 19.7216 1105.99 17.8771 Q1109.02 16.0325 1111.85 16.0325 Q1113.9 16.0325 1115.54 16.9343 Q1117.22 17.7951 1118.28 19.3117 Q1119.35 20.7873 1120.09 22.5498 Q1120.87 24.3124 1121.23 26.3618 Q1121.6 28.3703 1121.77 30.0509 Q1121.93 31.6904 1121.93 33.248 M1116.4 28.0424 Q1116.4 25.952 1116.23 24.3944 Q1116.07 22.7958 1115.62 21.1972 Q1115.17 19.5986 1114.18 18.7378 Q1113.24 17.8771 1111.77 17.8771 Q1107.46 17.8771 1102.63 26.6898 Q1101.07 29.436 1099.67 33.1661 Q1098.28 36.8961 1097.79 38.6586 Q1097.3 40.4212 1096.15 44.766 L1113.69 44.766 Q1116.4 33.576 1116.4 28.0424 M1112.95 47.4303 L1095.49 47.4303 Q1092.79 57.6777 1092.79 64.072 Q1092.79 69.6465 1093.94 71.9829 Q1095.12 74.2783 1097.34 74.2783 Q1099.88 74.2783 1102.26 71.737 Q1104.63 69.1546 1107.05 64.4819 Q1110.25 58.4155 1112.95 47.4303 Z" fill="#000000" fill-rule="evenodd" fill-opacity="1" /><path clip-path="url(#clip910)" d="M1130.59 95.3878 Q1130.59 94.9779 1131.66 93.9532 Q1145.19 80.1808 1145.19 54.2346 Q1145.19 28.2064 1132.19 15.0488 Q1130.59 13.5322 1130.59 13.0813 Q1130.59 12.2615 1131.41 12.2615 Q1131.99 12.2615 1134 13.9421 Q1136.05 15.6227 1139.12 19.4756 Q1142.24 23.3286 1144.53 28.0424 Q1150.06 39.4784 1150.06 54.2346 Q1150.06 68.4168 1144.78 79.8529 Q1142.52 84.6486 1139.37 88.6655 Q1136.21 92.6825 1134.12 94.445 Q1132.03 96.2076 1131.41 96.2076 Q1130.59 96.2076 1130.59 95.3878 Z" fill="#000000" fill-rule="evenodd" fill-opacity="1" /><path clip-path="url(#clip910)" d="M1186.12 62.4734 Q1186.2 61.4487 1187.8 61.4487 L1239.24 61.4487 Q1241.66 61.4487 1241.7 62.3914 Q1241.7 63.4162 1239.4 63.3752 L1188.37 63.3752 Q1186.12 63.4162 1186.12 62.4734 M1186.12 46.0777 Q1186.12 45.053 1187.88 45.0939 L1239.16 45.0939 Q1241.66 45.0939 1241.7 46.0777 Q1241.7 47.0204 1239.57 47.0204 L1187.8 47.0204 Q1186.12 47.0204 1186.12 46.0777 Z" fill="#000000" fill-rule="evenodd" fill-opacity="1" /><path clip-path="url(#clip910)" d="M1274.08 74.1144 L1274.08 63.0472 Q1274.08 62.1045 1274.12 61.7766 Q1274.16 61.4487 1274.41 61.2027 Q1274.65 60.9568 1275.14 60.9568 Q1275.72 60.9568 1275.92 61.2027 Q1276.17 61.4487 1276.33 62.3914 Q1277.6 68.1709 1280.31 71.2451 Q1283.05 74.2783 1288.01 74.2783 Q1292.73 74.2783 1295.11 72.1879 Q1297.48 70.0974 1297.48 66.6543 Q1297.48 60.5059 1288.75 58.9483 Q1283.71 57.9236 1281.62 57.2678 Q1279.53 56.5709 1277.69 55.0543 Q1274.08 52.1031 1274.08 47.9222 Q1274.08 43.7413 1277.23 40.6671 Q1280.43 37.5929 1287.48 37.5929 Q1292.2 37.5929 1295.39 39.9703 Q1296.34 39.2325 1296.83 38.6176 Q1297.93 37.5929 1298.51 37.5929 Q1299.16 37.5929 1299.29 38.0438 Q1299.41 38.4537 1299.41 39.6424 L1299.41 48.0862 Q1299.41 49.0289 1299.37 49.3568 Q1299.33 49.6847 1299.08 49.9307 Q1298.84 50.1356 1298.3 50.1356 Q1297.36 50.1356 1297.32 49.3568 Q1296.66 39.1915 1287.48 39.1915 Q1282.52 39.1915 1280.31 41.118 Q1278.09 43.0035 1278.09 45.5858 Q1278.09 47.0204 1278.75 48.1271 Q1279.45 49.1929 1280.31 49.8487 Q1281.21 50.4635 1282.85 51.0784 Q1284.49 51.6522 1285.47 51.8572 Q1286.5 52.0621 1288.42 52.472 Q1295.15 53.7427 1297.97 56.489 Q1301.5 60.014 1301.5 64.4819 Q1301.5 69.4416 1298.14 72.8027 Q1294.78 76.1638 1288.01 76.1638 Q1282.56 76.1638 1278.75 72.5158 Q1278.26 73.0076 1277.89 73.4585 Q1277.52 73.8684 1277.36 74.0324 Q1277.23 74.1963 1277.19 74.3193 Q1277.15 74.4013 1277.07 74.4833 Q1275.39 76.1638 1274.98 76.1638 Q1274.32 76.1638 1274.2 75.7129 Q1274.08 75.303 1274.08 74.1144 Z" fill="#000000" fill-rule="evenodd" fill-opacity="1" /><path clip-path="url(#clip910)" d="M1312 70.7122 Q1306.46 65.2197 1306.46 57.2678 Q1306.46 49.2748 1311.87 43.4544 Q1317.32 37.5929 1325.11 37.5929 Q1332.74 37.5929 1338.19 43.4134 Q1343.68 49.1929 1343.68 57.2678 Q1343.68 65.1787 1338.15 70.6713 Q1332.65 76.1638 1325.03 76.1638 Q1317.57 76.1638 1312 70.7122 M1313.43 56.5709 Q1313.43 64.7278 1315.56 68.4168 Q1318.84 74.0324 1325.11 74.0324 Q1328.23 74.0324 1330.81 72.3518 Q1333.43 70.6713 1334.87 67.843 Q1336.71 64.154 1336.71 56.5709 Q1336.71 48.4961 1334.5 44.93 Q1331.22 39.4784 1325.03 39.4784 Q1322.33 39.4784 1319.66 40.913 Q1317.04 42.3067 1315.44 45.0939 Q1313.43 48.783 1313.43 56.5709 Z" fill="#000000" fill-rule="evenodd" fill-opacity="1" /><path clip-path="url(#clip910)" d="M1346.35 75.2211 L1346.35 72.6387 Q1350.82 72.6387 1351.85 72.1059 Q1352.87 71.532 1352.87 68.8267 L1352.87 46.3236 Q1352.87 43.2084 1351.76 42.4296 Q1350.7 41.6508 1346.35 41.6508 L1346.35 39.0275 L1358.16 38.1258 L1358.16 46.9385 Q1362.09 38.1258 1370.58 38.1258 Q1376.89 38.1258 1379.39 41.241 Q1381.23 43.3314 1381.6 45.6678 Q1382.01 48.0042 1382.01 54.0706 L1382.01 70.0974 Q1382.1 71.8599 1383.45 72.2698 Q1384.8 72.6387 1388.57 72.6387 L1388.57 75.2211 Q1380 74.9751 1379.14 74.9751 Q1378.49 74.9751 1369.68 75.2211 L1369.68 72.6387 Q1374.14 72.6387 1375.17 72.1059 Q1376.23 71.532 1376.23 68.8267 L1376.23 49.2748 Q1376.23 45.012 1374.92 42.5116 Q1373.61 39.9703 1370 39.9703 Q1365.66 39.9703 1362.17 43.6183 Q1358.69 47.2664 1358.69 53.4148 L1358.69 68.8267 Q1358.69 71.532 1359.72 72.1059 Q1360.78 72.6387 1365.21 72.6387 L1365.21 75.2211 Q1356.64 74.9751 1355.82 74.9751 Q1355.17 74.9751 1346.35 75.2211 Z" fill="#000000" fill-rule="evenodd" fill-opacity="1" /><path clip-path="url(#clip910)" d="M1392.47 54.2346 Q1392.47 40.0523 1397.76 28.6163 Q1400.01 23.8205 1403.17 19.8036 Q1406.32 15.7866 1408.41 14.0241 Q1410.51 12.2615 1411.08 12.2615 Q1411.9 12.2615 1411.94 13.0813 Q1411.94 13.4912 1410.83 14.5159 Q1397.31 28.2883 1397.35 54.2346 Q1397.35 80.2627 1410.51 93.5023 Q1411.94 94.9369 1411.94 95.3878 Q1411.94 96.2076 1411.08 96.2076 Q1410.51 96.2076 1408.5 94.527 Q1406.49 92.8465 1403.37 88.9935 Q1400.26 85.1405 1398 80.4267 Q1392.47 68.9907 1392.47 54.2346 Z" fill="#000000" fill-rule="evenodd" fill-opacity="1" /><path clip-path="url(#clip910)" d="M1454.68 33.248 Q1454.68 40.1342 1452.46 47.8812 Q1450.29 55.5872 1446.85 61.8176 Q1443.4 68.0069 1438.9 72.1059 Q1434.39 76.1638 1430.08 76.1638 Q1427.34 76.1638 1425.29 74.6472 Q1423.28 73.0896 1422.17 70.5073 Q1421.06 67.884 1420.53 65.0147 Q1420 62.1045 1420 58.9483 Q1420 54.2346 1421.02 49.1109 Q1422.05 43.9462 1423.77 39.2735 Q1425.49 34.5597 1427.91 30.2968 Q1430.33 25.9929 1432.99 22.8778 Q1435.7 19.7216 1438.73 17.8771 Q1441.76 16.0325 1444.59 16.0325 Q1446.64 16.0325 1448.28 16.9343 Q1449.96 17.7951 1451.03 19.3117 Q1452.09 20.7873 1452.83 22.5498 Q1453.61 24.3124 1453.98 26.3618 Q1454.35 28.3703 1454.51 30.0509 Q1454.68 31.6904 1454.68 33.248 M1449.14 28.0424 Q1449.14 25.952 1448.98 24.3944 Q1448.81 22.7958 1448.36 21.1972 Q1447.91 19.5986 1446.93 18.7378 Q1445.99 17.8771 1444.51 17.8771 Q1440.21 17.8771 1435.37 26.6898 Q1433.81 29.436 1432.42 33.1661 Q1431.03 36.8961 1430.53 38.6586 Q1430.04 40.4212 1428.89 44.766 L1446.44 44.766 Q1449.14 33.576 1449.14 28.0424 M1445.7 47.4303 L1428.24 47.4303 Q1425.53 57.6777 1425.53 64.072 Q1425.53 69.6465 1426.68 71.9829 Q1427.87 74.2783 1430.08 74.2783 Q1432.62 74.2783 1435 71.737 Q1437.38 69.1546 1439.8 64.4819 Q1442.99 58.4155 1445.7 47.4303 Z" fill="#000000" fill-rule="evenodd" fill-opacity="1" /><path clip-path="url(#clip910)" d="M1460.16 73.8684 Q1458.97 72.5158 1458.97 70.7532 Q1458.97 68.9907 1460.12 67.679 Q1461.31 66.3264 1463.44 66.3264 Q1465.94 66.3264 1467.37 68.7448 Q1468.81 71.1221 1468.81 75.1391 Q1468.81 79.4839 1467.05 83.5009 Q1465.28 87.5588 1463.56 89.4853 Q1461.84 91.4118 1461.14 91.4118 Q1460.32 91.4118 1460.32 90.5101 Q1460.32 90.1821 1460.9 89.5673 Q1466.92 83.091 1466.96 75.1391 Q1466.96 73.8684 1466.8 73.8684 L1466.6 74.0324 Q1465.16 75.2211 1463.44 75.2211 Q1461.35 75.2211 1460.16 73.8684 Z" fill="#000000" fill-rule="evenodd" fill-opacity="1" /><path clip-path="url(#clip910)" d="M1564.08 63.2112 Q1564.08 63.5391 1563.71 64.8098 Q1563.34 66.0805 1562.44 68.0479 Q1561.58 70.0154 1560.35 71.819 Q1559.16 73.5815 1557.19 74.8931 Q1555.27 76.1638 1553.05 76.1638 Q1550.1 76.1638 1548.13 74.1963 Q1546.17 72.2288 1546.17 69.2776 Q1546.17 67.679 1547.27 64.6458 Q1552.48 50.7915 1552.48 45.8318 Q1552.48 39.9703 1547.93 39.9703 Q1545.35 39.9703 1543.01 41.036 Q1540.67 42.1017 1539.16 43.5773 Q1537.64 45.053 1536.45 46.7335 Q1535.26 48.4141 1534.73 49.5208 Q1534.24 50.6275 1534.11 51.1194 L1529.07 71.3681 Q1528.66 73.0896 1528.38 73.9094 Q1528.09 74.7292 1527.31 75.426 Q1526.53 76.1638 1525.3 76.1638 Q1524.28 76.1638 1523.54 75.549 Q1522.84 74.9341 1522.84 73.8684 Q1522.84 73.7045 1523.05 72.8437 Q1523.25 71.9829 1523.54 70.7942 Q1523.83 69.6055 1523.95 68.9087 Q1525.43 63.3342 1525.63 62.5554 L1527.97 52.7999 Q1529.24 47.9632 1529.24 45.8318 Q1529.24 39.9703 1524.69 39.9703 Q1522.43 39.9703 1520.3 40.8311 Q1518.21 41.6508 1516.78 42.7985 Q1515.34 43.9462 1514.03 45.5448 Q1512.76 47.1024 1512.1 48.1681 Q1511.49 49.1929 1511 50.2176 L1509.93 54.3985 Q1509.69 55.5462 1508.5 60.014 L1506.65 67.5971 Q1505.34 73.2536 1505.05 73.7864 Q1504.64 74.9341 1503.74 75.549 Q1502.84 76.1638 1501.94 76.1638 Q1500.91 76.1638 1500.22 75.549 Q1499.52 74.9341 1499.52 73.8684 Q1499.52 73.7045 1499.64 73.0896 Q1499.77 72.4748 1499.97 71.614 Q1500.18 70.7532 1500.26 70.2614 L1505.14 50.8734 Q1506.04 47.3484 1506.24 46.2416 Q1506.49 45.0939 1506.49 43.8233 Q1506.49 39.9703 1503.86 39.9703 Q1501.73 39.9703 1500.34 42.5116 Q1498.95 45.053 1497.76 49.9717 Q1497.39 51.3243 1497.14 51.6112 Q1496.94 51.8982 1496.32 51.8982 Q1495.3 51.8572 1495.3 51.0374 Q1495.3 50.8324 1495.63 49.5208 Q1495.95 48.2091 1496.57 46.2416 Q1497.22 44.2332 1497.92 42.9215 Q1498.33 42.0607 1498.7 41.4869 Q1499.07 40.913 1499.81 40.0113 Q1500.54 39.1095 1501.65 38.6176 Q1502.76 38.1258 1504.11 38.1258 Q1507.1 38.1258 1509.32 40.0523 Q1511.57 41.9788 1511.86 45.4219 Q1517.31 38.1258 1524.93 38.1258 Q1529.24 38.1258 1531.82 40.2982 Q1534.24 42.3887 1534.52 46.2416 Q1540.18 38.1258 1548.22 38.1258 Q1552.85 38.1258 1555.35 40.5441 Q1557.85 42.9215 1557.85 47.1024 Q1557.85 49.2748 1556.74 53.4148 Q1555.63 57.5137 1554.9 59.5632 Q1554.16 61.6126 1552.72 65.5476 Q1551.21 69.3186 1551.21 71.532 Q1551.21 72.9667 1551.7 73.6225 Q1552.19 74.2783 1553.26 74.2783 Q1554.9 74.2783 1556.33 73.3356 Q1557.77 72.3518 1558.79 70.7532 Q1559.86 69.1137 1560.55 67.4741 Q1561.25 65.7935 1561.78 63.908 Q1562.11 62.8833 1562.27 62.6374 Q1562.48 62.3914 1563.05 62.3914 Q1564.08 62.3914 1564.08 63.2112 Z" fill="#000000" fill-rule="evenodd" fill-opacity="1" /><path clip-path="url(#clip910)" d="M1571.31 95.3878 Q1571.31 94.9779 1572.38 93.9532 Q1585.91 80.1808 1585.91 54.2346 Q1585.91 28.2064 1572.91 15.0488 Q1571.31 13.5322 1571.31 13.0813 Q1571.31 12.2615 1572.13 12.2615 Q1572.71 12.2615 1574.72 13.9421 Q1576.77 15.6227 1579.84 19.4756 Q1582.95 23.3286 1585.25 28.0424 Q1590.78 39.4784 1590.78 54.2346 Q1590.78 68.4168 1585.5 79.8529 Q1583.24 84.6486 1580.09 88.6655 Q1576.93 92.6825 1574.84 94.445 Q1572.75 96.2076 1572.13 96.2076 Q1571.31 96.2076 1571.31 95.3878 Z" fill="#000000" fill-rule="evenodd" fill-opacity="1" /><polyline clip-path="url(#clip912)" style="stroke:#009af9; stroke-linecap:round; stroke-linejoin:round; stroke-width:4; stroke-opacity:1; fill:none" points="316.67,812.821 319.817,812.821 322.965,812.821 326.113,812.821 329.261,812.821 332.408,812.821 335.556,812.821 338.704,812.821 341.851,812.821 344.999,812.821 348.147,812.821 351.295,812.821 354.442,812.821 357.59,812.821 360.738,812.821 363.886,812.821 367.033,812.821 370.181,812.821 373.329,812.821 376.477,812.821 379.624,812.821 382.772,812.821 385.92,812.821 389.068,812.821 392.215,812.821 395.363,812.821 398.511,812.821 401.659,812.821 404.806,812.821 407.954,812.821 411.102,812.821 414.25,812.821 417.397,812.821 420.545,812.821 423.693,812.821 426.841,812.821 429.988,812.821 433.136,812.821 436.284,812.821 439.432,812.821 442.579,812.821 445.727,812.821 448.875,812.821 452.023,812.821 455.17,812.821 458.318,812.821 461.466,812.821 464.613,812.821 467.761,812.821 470.909,812.821 474.057,812.821 477.204,812.821 480.352,812.821 483.5,812.821 486.648,812.821 489.795,812.821 492.943,812.821 496.091,812.821 499.239,812.821 502.386,812.821 505.534,812.821 508.682,812.821 511.83,812.821 514.977,812.821 518.125,812.821 521.273,812.821 524.421,812.821 527.568,812.821 530.716,812.821 533.864,812.821 537.012,812.821 540.159,812.821 543.307,812.821 546.455,812.821 549.603,812.821 552.75,812.821 555.898,812.821 559.046,812.821 562.194,812.821 565.341,812.821 568.489,812.821 571.637,812.821 574.785,812.821 577.932,812.821 581.08,812.821 584.228,812.821 587.375,812.821 590.523,812.821 593.671,812.821 596.819,812.821 599.966,812.821 603.114,812.821 606.262,812.821 609.41,812.821 612.557,812.821 615.705,812.821 618.853,812.821 622.001,812.821 625.148,812.821 628.296,812.821 631.444,812.821 634.592,812.821 637.739,812.821 640.887,812.821 644.035,812.821 647.183,812.821 650.33,812.821 653.478,812.821 656.626,812.821 659.774,812.821 662.921,812.821 666.069,812.821 669.217,812.821 672.365,812.821 675.512,812.821 678.66,812.821 681.808,812.821 684.956,812.821 688.103,812.821 691.251,812.821 694.399,812.821 697.547,812.821 700.694,812.821 703.842,812.821 706.99,812.821 710.137,812.821 713.285,812.821 716.433,812.821 719.581,812.821 722.728,812.821 725.876,812.821 729.024,812.821 732.172,812.821 735.319,812.821 738.467,812.821 741.615,812.821 744.763,812.821 747.91,812.821 751.058,812.821 754.206,812.821 757.354,812.821 760.501,812.821 763.649,812.821 766.797,812.821 769.945,812.821 773.092,812.821 776.24,812.821 779.388,812.821 782.536,812.821 785.683,812.821 788.831,812.821 791.979,812.821 795.127,812.821 798.274,812.821 801.422,812.821 804.57,812.821 807.718,812.821 810.865,812.821 814.013,812.821 817.161,812.821 820.308,812.821 823.456,812.821 826.604,812.821 829.752,812.821 832.899,812.821 836.047,812.821 839.195,812.821 842.343,812.821 845.49,812.821 848.638,812.821 851.786,812.821 854.934,812.821 858.081,812.821 861.229,812.821 864.377,812.821 867.525,812.821 870.672,812.821 873.82,812.821 876.968,812.821 880.116,812.821 883.263,812.821 886.411,812.821 889.559,812.821 892.707,812.821 895.854,812.821 899.002,812.821 902.15,812.821 905.298,812.821 908.445,812.821 911.593,812.821 914.741,812.821 917.889,812.821 921.036,812.821 924.184,812.821 927.332,812.821 930.48,812.821 933.627,812.821 936.775,812.821 939.923,812.821 943.07,812.821 946.218,812.821 949.366,812.821 952.514,812.821 955.661,812.821 958.809,812.821 961.957,812.821 965.105,812.821 968.252,812.821 971.4,812.821 974.548,812.821 977.696,812.821 980.843,812.821 983.991,812.821 987.139,812.821 990.287,812.821 993.434,812.821 996.582,812.821 999.73,812.821 1002.88,812.821 1006.03,812.821 1009.17,812.821 1012.32,812.821 1015.47,812.821 1018.62,812.821 1021.76,812.821 1024.91,812.821 1028.06,812.821 1031.21,812.821 1034.36,812.821 1037.5,812.821 1040.65,812.821 1043.8,812.821 1046.95,812.821 1050.09,812.821 1053.24,812.821 1056.39,812.821 1059.54,812.821 1062.68,812.821 1065.83,812.821 1068.98,812.821 1072.13,812.821 1075.28,812.821 1078.42,812.821 1081.57,812.821 1084.72,812.821 1087.87,812.821 1091.01,812.821 1094.16,812.821 1097.31,812.821 1100.46,812.821 1103.61,812.821 1106.75,812.821 1109.9,812.821 1113.05,812.821 1116.2,812.821 1119.34,812.821 1122.49,812.821 1125.64,812.821 1128.79,812.821 1131.94,812.821 1135.08,812.821 1138.23,812.821 1141.38,812.821 1144.53,812.821 1147.67,812.821 1150.82,812.821 1153.97,812.821 1157.12,812.821 1160.26,812.821 1163.41,812.821 1166.56,812.821 1169.71,812.821 1172.86,812.821 1176,812.821 1179.15,812.821 1182.3,812.821 1185.45,812.821 1188.59,812.821 1191.74,812.821 1194.89,812.821 1198.04,812.821 1201.19,812.821 1204.33,812.821 1207.48,812.821 1210.63,812.821 1213.78,812.821 1216.92,812.821 1220.07,812.821 1223.22,812.821 1226.37,812.821 1229.52,812.821 1232.66,812.821 1235.81,812.821 1238.96,812.821 1242.11,812.821 1245.25,812.821 1248.4,812.821 1251.55,812.821 1254.7,812.821 1257.84,812.821 1260.99,812.821 1264.14,812.821 1267.29,812.821 1270.44,812.821 1273.58,812.821 1276.73,812.821 1279.88,812.821 1283.03,812.821 1286.17,812.821 1289.32,812.821 1292.47,812.821 1295.62,812.821 1298.77,812.821 1301.91,812.821 1305.06,812.821 1308.21,733.478 1311.36,695.427 1314.5,667.003 1317.65,643.299 1320.8,622.549 1323.95,603.878 1327.1,586.774 1330.24,570.91 1333.39,556.06 1336.54,542.063 1339.69,528.796 1342.83,516.164 1345.98,504.095 1349.13,492.528 1352.28,481.413 1355.42,470.71 1358.57,460.386 1361.72,450.409 1364.87,440.757 1368.02,431.406 1371.16,422.339 1374.31,413.538 1377.46,404.989 1380.61,396.679 1383.75,388.597 1386.9,380.732 1390.05,373.075 1393.2,365.618 1396.35,358.353 1399.49,351.273 1402.64,344.371 1405.79,337.643 1408.94,331.083 1412.08,324.686 1415.23,318.448 1418.38,312.365 1421.53,306.432 1424.68,300.647 1427.82,295.006 1430.97,289.506 1434.12,284.144 1437.27,278.919 1440.41,273.826 1443.56,268.865 1446.71,264.032 1449.86,259.327 1453,254.747 1456.15,250.29 1459.3,245.954 1462.45,241.739 1465.6,237.642 1468.74,233.662 1471.89,229.799 1475.04,226.05 1478.19,222.414 1481.33,218.891 1484.48,215.479 1487.63,212.177 1490.78,208.984 1493.93,205.9 1497.07,202.923 1500.22,200.053 1503.37,197.288 1506.52,194.629 1509.66,192.073 1512.81,189.622 1515.96,187.273 1519.11,185.026 1522.26,182.88 1525.4,180.836 1528.55,178.892 1531.7,177.047 1534.85,175.302 1537.99,173.655 1541.14,172.106 1544.29,170.655 1547.44,169.3 1550.58,168.043 1553.73,166.881 1556.88,165.814 1560.03,164.843 1563.18,163.966 1566.32,163.183 1569.47,162.494 1572.62,161.898 1575.77,161.395 1578.91,160.984 1582.06,160.666 1585.21,160.438 1588.36,160.302 1591.51,160.256 1594.65,160.301 1597.8,160.435 1600.95,160.659 1604.1,160.972 1607.24,161.374 1610.39,161.863 1613.54,162.441 1616.69,163.106 1619.84,163.858 1622.98,164.696 1626.13,165.621 1629.28,166.631 1632.43,167.727 1635.57,168.908 1638.72,170.173 1641.87,171.522 1645.02,172.956 1648.17,174.472 1651.31,176.071 1654.46,177.753 1657.61,179.517 1660.76,181.362 1663.9,183.289 1667.05,185.296 1670.2,187.384 1673.35,189.552 1676.49,191.799 1679.64,194.125 1682.79,196.53 1685.94,199.013 1689.09,201.573 1692.23,204.211 1695.38,206.925 1698.53,209.716 1701.68,212.582 1704.82,215.524 1707.97,218.541 1711.12,221.632 1714.27,224.797 1717.42,228.036 1720.56,231.347 1723.71,234.731 1726.86,238.187 1730.01,241.714 1733.15,245.312 1736.3,248.981 1739.45,252.719 1742.6,256.527 1745.75,260.404 1748.89,264.349 1752.04,268.361 1755.19,272.441 1758.34,276.588 1761.48,280.801 1764.63,285.08 1767.78,289.423 1770.93,293.831 1774.07,298.303 1777.22,302.839 1780.37,307.437 1783.52,312.097 1786.67,316.819 1789.81,321.603 1792.96,326.446 1796.11,331.35 1799.26,336.312 1802.4,341.334 1805.55,346.413 1808.7,351.55 1811.85,356.744 1815,361.993 1818.14,367.299 1821.29,372.659 1824.44,378.074 1827.59,383.543 1830.73,389.064 1833.88,394.638 1837.03,400.264 1840.18,405.941 1843.33,411.668 1846.47,417.445 1849.62,423.271 1852.77,429.146 1855.92,435.068 1859.06,441.038 1862.21,447.054 1865.36,453.116 1868.51,459.223 1871.65,465.374 1874.8,471.57 1877.95,477.808 1881.1,484.088 1884.25,490.41 1887.39,496.773 1890.54,503.176 1893.69,509.619 1896.84,516.1 1899.98,522.62 1903.13,529.177 1906.28,535.771 1909.43,542.4 1912.58,549.065 1915.72,555.764 1918.87,562.497 1922.02,569.262 1925.17,576.06 1928.31,582.89 1931.46,589.75 1934.61,596.641 1937.76,603.56 1940.91,610.508 1944.05,617.484 1947.2,624.487 1950.35,631.517 1953.5,638.571 1956.64,645.651 1959.79,652.754 1962.94,659.881 1966.09,667.03 1969.23,674.201 1972.38,681.393 1975.53,688.605 1978.68,695.836 1981.83,703.086 1984.97,710.354 1988.12,717.639 1991.27,724.94 1994.42,732.256 1997.56,739.588 2000.71,746.933 2003.86,754.292 2007.01,761.663 2010.16,769.045 2013.3,776.439 2016.45,783.842 2019.6,791.255 2022.75,798.676 2025.89,806.105 2029.04,813.541 2032.19,820.983 2035.34,828.43 2038.49,835.882 2041.63,843.337 2044.78,850.796 2047.93,858.257 2051.08,865.719 2054.22,873.182 2057.37,880.645 2060.52,888.107 2063.67,895.567 2066.81,903.025 2069.96,910.479 2073.11,917.93 2076.26,925.375 2079.41,932.815 2082.55,940.248 2085.7,947.675 2088.85,955.093 2092,962.503 2095.14,969.903 2098.29,977.293 2101.44,984.672 2104.59,992.039 2107.74,999.394 2110.88,1006.73 2114.03,1014.06 2117.18,1021.37 2120.33,1028.67 2123.47,1035.95 2126.62,1043.21 2129.77,1050.46 2132.92,1057.69 2136.07,1064.89 2139.21,1072.08 2142.36,1079.24 2145.51,1086.39 2148.66,1093.51 2151.8,1100.61 2154.95,1107.68 2158.1,1114.73 2161.25,1121.76 2164.39,1128.76 2167.54,1135.73 2170.69,1142.67 2173.84,1149.59 2176.99,1156.48 2180.13,1163.34 2183.28,1170.16 2186.43,1176.96 2189.58,1183.72 2192.72,1190.45 2195.87,1197.15 2199.02,1203.82 2202.17,1210.45 2205.32,1217.04 2208.46,1223.6 2211.61,1230.12 2214.76,1236.61 2217.91,1243.06 2221.05,1249.46 2224.2,1255.83 2227.35,1262.16 2230.5,1268.45 2233.65,1274.7 2236.79,1280.9 2239.94,1287.06 2243.09,1293.18 2246.24,1299.26 2249.38,1305.29 2252.53,1311.27 2255.68,1317.21 2258.83,1323.11 2261.97,1328.95 2265.12,1334.75 2268.27,1340.5 2271.42,1346.21 2274.57,1351.86 2277.71,1357.46 2280.86,1363.01 2284.01,1368.51 2287.16,1373.96 2290.3,1379.36 2293.45,1384.7 "/>
<polyline clip-path="url(#clip912)" style="stroke:#e26f46; stroke-linecap:round; stroke-linejoin:round; stroke-width:4; stroke-opacity:1; fill:none" points="316.67,1386.4 319.817,1381.07 322.965,1375.69 326.113,1370.26 329.261,1364.77 332.408,1359.23 335.556,1353.65 338.704,1348.01 341.851,1342.32 344.999,1336.59 348.147,1330.81 351.295,1324.97 354.442,1319.1 357.59,1313.17 360.738,1307.2 363.886,1301.18 367.033,1295.12 370.181,1289.02 373.329,1282.87 376.477,1276.68 379.624,1270.44 382.772,1264.17 385.92,1257.85 389.068,1251.5 392.215,1245.1 395.363,1238.67 398.511,1232.19 401.659,1225.68 404.806,1219.14 407.954,1212.55 411.102,1205.93 414.25,1199.28 417.397,1192.59 420.545,1185.87 423.693,1179.12 426.841,1172.33 429.988,1165.51 433.136,1158.67 436.284,1151.79 439.432,1144.88 442.579,1137.95 445.727,1130.98 448.875,1123.99 452.023,1116.98 455.17,1109.93 458.318,1102.87 461.466,1095.77 464.613,1088.66 467.761,1081.52 470.909,1074.36 474.057,1067.18 477.204,1059.98 480.352,1052.76 483.5,1045.52 486.648,1038.27 489.795,1030.99 492.943,1023.7 496.091,1016.39 499.239,1009.07 502.386,1001.73 505.534,994.383 508.682,987.02 511.83,979.645 514.977,972.258 518.125,964.861 521.273,957.454 524.421,950.039 527.568,942.615 530.716,935.183 533.864,927.746 537.012,920.302 540.159,912.853 543.307,905.4 546.455,897.943 549.603,890.483 552.75,883.022 555.898,875.559 559.046,868.096 562.194,860.634 565.341,853.172 568.489,845.713 571.637,838.256 574.785,830.803 577.932,823.354 581.08,815.911 584.228,808.473 587.375,801.041 590.523,793.618 593.671,786.202 596.819,778.796 599.966,771.399 603.114,764.013 606.262,756.638 609.41,749.276 612.557,741.926 615.705,734.59 618.853,727.269 622.001,719.962 625.148,712.672 628.296,705.399 631.444,698.143 634.592,690.906 637.739,683.688 640.887,676.489 644.035,669.312 647.183,662.156 650.33,655.022 653.478,647.911 656.626,640.824 659.774,633.761 662.921,626.724 666.069,619.712 669.217,612.728 672.365,605.77 675.512,598.842 678.66,591.942 681.808,585.072 684.956,578.232 688.103,571.424 691.251,564.648 694.399,557.905 697.547,551.195 700.694,544.519 703.842,537.878 706.99,531.273 710.137,524.705 713.285,518.173 716.433,511.679 719.581,505.224 722.728,498.808 725.876,492.433 729.024,486.097 732.172,479.804 735.319,473.552 738.467,467.343 741.615,461.178 744.763,455.056 747.91,448.98 751.058,442.949 754.206,436.965 757.354,431.027 760.501,425.137 763.649,419.296 766.797,413.503 769.945,407.759 773.092,402.067 776.24,396.424 779.388,390.834 782.536,385.296 785.683,379.81 788.831,374.378 791.979,369 795.127,363.677 798.274,358.41 801.422,353.198 804.57,348.043 807.718,342.945 810.865,337.905 814.013,332.924 817.161,328.002 820.308,323.139 823.456,318.336 826.604,313.595 829.752,308.915 832.899,304.297 836.047,299.741 839.195,295.249 842.343,290.82 845.49,286.456 848.638,282.157 851.786,277.923 854.934,273.755 858.081,269.654 861.229,265.619 864.377,261.653 867.525,257.754 870.672,253.924 873.82,250.164 876.968,246.473 880.116,242.852 883.263,239.302 886.411,235.824 889.559,232.417 892.707,229.083 895.854,225.821 899.002,222.632 902.15,219.518 905.298,216.477 908.445,213.511 911.593,210.621 914.741,207.806 917.889,205.067 921.036,202.405 924.184,199.82 927.332,197.312 930.48,194.883 933.627,192.531 936.775,190.259 939.923,188.066 943.07,185.953 946.218,183.92 949.366,181.967 952.514,180.096 955.661,178.306 958.809,176.598 961.957,174.972 965.105,173.43 968.252,171.97 971.4,170.594 974.548,169.302 977.696,168.094 980.843,166.971 983.991,165.933 987.139,164.981 990.287,164.115 993.434,163.336 996.582,162.643 999.73,162.038 1002.88,161.52 1006.03,161.091 1009.17,160.749 1012.32,160.497 1015.47,160.334 1018.62,160.261 1021.76,160.278 1024.91,160.385 1028.06,160.583 1031.21,160.873 1034.36,161.254 1037.5,161.728 1040.65,162.294 1043.8,162.954 1046.95,163.706 1050.09,164.553 1053.24,165.494 1056.39,166.531 1059.54,167.662 1062.68,168.889 1065.83,170.213 1068.98,171.633 1072.13,173.151 1075.28,174.767 1078.42,176.481 1081.57,178.293 1084.72,180.206 1087.87,182.218 1091.01,184.331 1094.16,186.546 1097.31,188.862 1100.46,191.281 1103.61,193.803 1106.75,196.43 1109.9,199.161 1113.05,201.997 1116.2,204.94 1119.34,207.99 1122.49,211.148 1125.64,214.415 1128.79,217.792 1131.94,221.28 1135.08,224.879 1138.23,228.592 1141.38,232.419 1144.53,236.362 1147.67,240.421 1150.82,244.598 1153.97,248.895 1157.12,253.314 1160.26,257.855 1163.41,262.52 1166.56,267.312 1169.71,272.232 1172.86,277.282 1176,282.465 1179.15,287.783 1182.3,293.239 1185.45,298.834 1188.59,304.573 1191.74,310.459 1194.89,316.494 1198.04,322.682 1201.19,329.028 1204.33,335.536 1207.48,342.21 1210.63,349.055 1213.78,356.078 1216.92,363.283 1220.07,370.679 1223.22,378.271 1226.37,386.069 1229.52,394.081 1232.66,402.317 1235.81,410.788 1238.96,419.507 1242.11,428.488 1245.25,437.747 1248.4,447.301 1251.55,457.171 1254.7,467.382 1257.84,477.961 1260.99,488.94 1264.14,500.358 1267.29,512.262 1270.44,524.707 1273.58,537.763 1276.73,551.516 1279.88,566.078 1283.03,581.598 1286.17,598.278 1289.32,616.406 1292.47,636.421 1295.62,659.053 1298.77,685.679 1301.91,719.653 1305.06,778.287 1308.21,812.821 1311.36,812.821 1314.5,812.821 1317.65,812.821 1320.8,812.821 1323.95,812.821 1327.1,812.821 1330.24,812.821 1333.39,812.821 1336.54,812.821 1339.69,812.821 1342.83,812.821 1345.98,812.821 1349.13,812.821 1352.28,812.821 1355.42,812.821 1358.57,812.821 1361.72,812.821 1364.87,812.821 1368.02,812.821 1371.16,812.821 1374.31,812.821 1377.46,812.821 1380.61,812.821 1383.75,812.821 1386.9,812.821 1390.05,812.821 1393.2,812.821 1396.35,812.821 1399.49,812.821 1402.64,812.821 1405.79,812.821 1408.94,812.821 1412.08,812.821 1415.23,812.821 1418.38,812.821 1421.53,812.821 1424.68,812.821 1427.82,812.821 1430.97,812.821 1434.12,812.821 1437.27,812.821 1440.41,812.821 1443.56,812.821 1446.71,812.821 1449.86,812.821 1453,812.821 1456.15,812.821 1459.3,812.821 1462.45,812.821 1465.6,812.821 1468.74,812.821 1471.89,812.821 1475.04,812.821 1478.19,812.821 1481.33,812.821 1484.48,812.821 1487.63,812.821 1490.78,812.821 1493.93,812.821 1497.07,812.821 1500.22,812.821 1503.37,812.821 1506.52,812.821 1509.66,812.821 1512.81,812.821 1515.96,812.821 1519.11,812.821 1522.26,812.821 1525.4,812.821 1528.55,812.821 1531.7,812.821 1534.85,812.821 1537.99,812.821 1541.14,812.821 1544.29,812.821 1547.44,812.821 1550.58,812.821 1553.73,812.821 1556.88,812.821 1560.03,812.821 1563.18,812.821 1566.32,812.821 1569.47,812.821 1572.62,812.821 1575.77,812.821 1578.91,812.821 1582.06,812.821 1585.21,812.821 1588.36,812.821 1591.51,812.821 1594.65,812.821 1597.8,812.821 1600.95,812.821 1604.1,812.821 1607.24,812.821 1610.39,812.821 1613.54,812.821 1616.69,812.821 1619.84,812.821 1622.98,812.821 1626.13,812.821 1629.28,812.821 1632.43,812.821 1635.57,812.821 1638.72,812.821 1641.87,812.821 1645.02,812.821 1648.17,812.821 1651.31,812.821 1654.46,812.821 1657.61,812.821 1660.76,812.821 1663.9,812.821 1667.05,812.821 1670.2,812.821 1673.35,812.821 1676.49,812.821 1679.64,812.821 1682.79,812.821 1685.94,812.821 1689.09,812.821 1692.23,812.821 1695.38,812.821 1698.53,812.821 1701.68,812.821 1704.82,812.821 1707.97,812.821 1711.12,812.821 1714.27,812.821 1717.42,812.821 1720.56,812.821 1723.71,812.821 1726.86,812.821 1730.01,812.821 1733.15,812.821 1736.3,812.821 1739.45,812.821 1742.6,812.821 1745.75,812.821 1748.89,812.821 1752.04,812.821 1755.19,812.821 1758.34,812.821 1761.48,812.821 1764.63,812.821 1767.78,812.821 1770.93,812.821 1774.07,812.821 1777.22,812.821 1780.37,812.821 1783.52,812.821 1786.67,812.821 1789.81,812.821 1792.96,812.821 1796.11,812.821 1799.26,812.821 1802.4,812.821 1805.55,812.821 1808.7,812.821 1811.85,812.821 1815,812.821 1818.14,812.821 1821.29,812.821 1824.44,812.821 1827.59,812.821 1830.73,812.821 1833.88,812.821 1837.03,812.821 1840.18,812.821 1843.33,812.821 1846.47,812.821 1849.62,812.821 1852.77,812.821 1855.92,812.821 1859.06,812.821 1862.21,812.821 1865.36,812.821 1868.51,812.821 1871.65,812.821 1874.8,812.821 1877.95,812.821 1881.1,812.821 1884.25,812.821 1887.39,812.821 1890.54,812.821 1893.69,812.821 1896.84,812.821 1899.98,812.821 1903.13,812.821 1906.28,812.821 1909.43,812.821 1912.58,812.821 1915.72,812.821 1918.87,812.821 1922.02,812.821 1925.17,812.821 1928.31,812.821 1931.46,812.821 1934.61,812.821 1937.76,812.821 1940.91,812.821 1944.05,812.821 1947.2,812.821 1950.35,812.821 1953.5,812.821 1956.64,812.821 1959.79,812.821 1962.94,812.821 1966.09,812.821 1969.23,812.821 1972.38,812.821 1975.53,812.821 1978.68,812.821 1981.83,812.821 1984.97,812.821 1988.12,812.821 1991.27,812.821 1994.42,812.821 1997.56,812.821 2000.71,812.821 2003.86,812.821 2007.01,812.821 2010.16,812.821 2013.3,812.821 2016.45,812.821 2019.6,812.821 2022.75,812.821 2025.89,812.821 2029.04,812.821 2032.19,812.821 2035.34,812.821 2038.49,812.821 2041.63,812.821 2044.78,812.821 2047.93,812.821 2051.08,812.821 2054.22,812.821 2057.37,812.821 2060.52,812.821 2063.67,812.821 2066.81,812.821 2069.96,812.821 2073.11,812.821 2076.26,812.821 2079.41,812.821 2082.55,812.821 2085.7,812.821 2088.85,812.821 2092,812.821 2095.14,812.821 2098.29,812.821 2101.44,812.821 2104.59,812.821 2107.74,812.821 2110.88,812.821 2114.03,812.821 2117.18,812.821 2120.33,812.821 2123.47,812.821 2126.62,812.821 2129.77,812.821 2132.92,812.821 2136.07,812.821 2139.21,812.821 2142.36,812.821 2145.51,812.821 2148.66,812.821 2151.8,812.821 2154.95,812.821 2158.1,812.821 2161.25,812.821 2164.39,812.821 2167.54,812.821 2170.69,812.821 2173.84,812.821 2176.99,812.821 2180.13,812.821 2183.28,812.821 2186.43,812.821 2189.58,812.821 2192.72,812.821 2195.87,812.821 2199.02,812.821 2202.17,812.821 2205.32,812.821 2208.46,812.821 2211.61,812.821 2214.76,812.821 2217.91,812.821 2221.05,812.821 2224.2,812.821 2227.35,812.821 2230.5,812.821 2233.65,812.821 2236.79,812.821 2239.94,812.821 2243.09,812.821 2246.24,812.821 2249.38,812.821 2252.53,812.821 2255.68,812.821 2258.83,812.821 2261.97,812.821 2265.12,812.821 2268.27,812.821 2271.42,812.821 2274.57,812.821 2277.71,812.821 2280.86,812.821 2284.01,812.821 2287.16,812.821 2290.3,812.821 2293.45,812.821 "/>
<path clip-path="url(#clip910)" d="M327.212 322.316 L684.286 322.316 L684.286 166.796 L327.212 166.796  Z" fill="#ffffff" fill-rule="evenodd" fill-opacity="1"/>
<polyline clip-path="url(#clip910)" style="stroke:#000000; stroke-linecap:round; stroke-linejoin:round; stroke-width:4; stroke-opacity:1; fill:none" points="327.212,322.316 684.286,322.316 684.286,166.796 327.212,166.796 327.212,322.316 "/>
<polyline clip-path="url(#clip910)" style="stroke:#009af9; stroke-linecap:round; stroke-linejoin:round; stroke-width:4; stroke-opacity:1; fill:none" points="350.495,218.636 490.187,218.636 "/>
<path clip-path="url(#clip910)" d="M544.598 208.306 Q543.544 208.236 542.841 207.533 Q542.607 207.299 542.373 206.245 Q542.138 205.191 542.068 204.231 Q541.998 202.966 541.295 201.678 Q540.663 200.389 539.281 200.389 Q537.243 200.389 535.978 201.725 Q534.339 203.294 532.816 205.941 Q532.863 206.151 532.957 207.299 Q533.05 208.423 533.05 208.868 Q533.05 212.171 532.91 213.811 Q535.744 212.288 538.414 211.89 L544.598 208.306 M551.812 226.951 L545.417 231.799 L542.349 226.201 Q542.373 225.686 542.396 224.819 Q542.443 223.952 542.466 223.25 Q542.49 222.524 542.49 221.915 Q542.49 219.736 542.232 218.354 Q541.998 216.973 541.74 216.551 Q541.506 216.129 541.108 215.731 Q540.358 214.982 539.257 214.537 Q538.157 214.068 537.126 214.068 Q535.791 214.068 532.723 214.958 Q532.512 216.457 532.137 218.191 Q531.2 222.125 529.443 224.796 Q527.991 225.967 525.251 228.403 Q522.534 230.839 521.386 231.799 Q520.426 230.839 519.301 230.066 Q518.177 229.269 517.498 229.269 Q515.53 229.269 514.008 231.284 L513.469 230.511 Q513.54 230.417 513.75 230.066 Q513.985 229.714 514.078 229.574 Q514.172 229.433 514.383 229.105 Q514.617 228.777 514.734 228.613 Q514.875 228.426 515.085 228.145 Q515.32 227.841 515.507 227.653 Q515.694 227.442 515.929 227.208 Q516.163 226.974 516.397 226.763 Q517.92 225.428 519.091 225.428 Q520.192 225.428 521.386 226.248 Q522.534 227.068 523.588 228.215 Q526.258 226.388 527.523 223.882 Q528.225 222.5 528.694 219.572 Q529.162 215.895 529.162 212.897 Q529.162 211.281 529.092 210.133 Q529.022 208.985 528.553 207.182 Q528.108 205.355 527.242 204.09 Q526.258 202.591 524.712 201.607 Q523.19 200.624 521.573 200.624 Q520.168 200.624 519.395 200.928 Q518.646 201.233 517.802 202.076 Q516.936 202.896 516.936 204.793 Q516.936 205.214 517.475 206.105 Q518.037 206.995 518.646 207.674 Q520.192 209.641 520.566 210.274 Q521.199 211.492 521.199 212.101 Q521.199 213.834 519.653 215.544 Q518.388 216.973 515.296 218.518 L514.57 217.98 Q515.858 217.277 516.936 215.965 Q517.638 215.099 517.638 214.115 Q517.638 213.623 517.029 212.803 L515.53 210.742 Q514.523 209.524 514.031 208.611 Q513.563 207.674 513.563 206.432 Q513.563 205.121 514.195 204.02 Q514.851 202.896 516.022 201.725 Q520.145 197.602 524.806 197.602 Q526.352 197.602 527.827 198.563 Q529.303 199.523 530.497 200.998 Q531.528 202.216 532.231 204.231 L532.418 203.973 Q533.683 202.404 534.924 201.162 Q538.484 197.602 542.349 197.602 Q544.106 197.602 545.136 198.844 Q545.886 199.757 546.19 202.17 Q546.214 202.38 546.261 203.247 Q546.308 204.09 546.425 204.559 Q546.518 204.98 546.659 205.238 Q546.799 205.472 547.291 205.683 Q547.807 205.894 548.697 205.894 Q549.329 205.894 550.5 205.706 L550.851 206.339 Q549.165 206.995 546.682 208.306 Q542.771 210.321 540.78 211.89 Q542.466 211.89 543.544 212.335 Q544.621 212.78 545.675 213.67 Q546.05 221.962 546.425 223.133 Q546.987 224.913 547.736 226.154 Q547.76 226.201 547.877 226.365 Q547.994 226.529 548.017 226.576 Q548.064 226.623 548.158 226.763 Q548.275 226.904 548.345 226.951 Q548.416 226.997 548.509 227.091 Q548.626 227.161 548.743 227.185 Q548.861 227.208 548.978 227.208 Q549.235 227.208 551.812 226.201 L551.812 226.951 Z" fill="#000000" fill-rule="evenodd" fill-opacity="1" /><path clip-path="url(#clip910)" d="M551.054 242.503 L551.054 194.534 L558.292 194.534 L558.292 195.635 L554.263 195.635 L554.263 241.402 L558.292 241.402 L558.292 242.503 L551.054 242.503 Z" fill="#000000" fill-rule="evenodd" fill-opacity="1" /><path clip-path="url(#clip910)" d="M584.133 199.991 Q584.133 201.28 583.314 202.076 Q582.517 202.872 581.51 202.872 Q580.784 202.872 580.245 202.427 Q579.73 201.982 579.73 201.209 Q579.73 200.413 580.339 199.57 Q580.948 198.726 582.33 198.609 Q581.416 197.743 579.964 197.743 Q579.238 197.743 578.629 198.211 Q578.044 198.656 577.716 199.382 Q577.364 200.132 576.568 204.371 Q576.31 205.753 576.076 207.088 Q575.842 208.423 575.561 209.829 L579.543 209.829 Q580.058 209.829 580.269 209.852 Q580.479 209.876 580.643 209.993 Q580.831 210.11 580.831 210.367 Q580.831 211.023 580.526 211.187 Q580.245 211.328 579.402 211.328 L575.28 211.328 L572.399 226.529 Q572.328 226.974 572.024 228.379 Q571.743 229.761 571.064 232.033 Q570.384 234.329 569.705 235.687 Q569.33 236.46 568.838 237.186 Q568.37 237.936 567.691 238.685 Q567.012 239.435 566.121 239.88 Q565.231 240.348 564.295 240.348 Q562.702 240.348 561.46 239.458 Q560.219 238.568 560.219 237.046 Q560.219 235.757 561.015 234.961 Q561.835 234.165 562.842 234.165 Q563.568 234.165 564.084 234.61 Q564.622 235.055 564.622 235.828 Q564.622 236.156 564.505 236.53 Q564.388 236.905 564.131 237.327 Q563.873 237.772 563.311 238.076 Q562.749 238.381 561.976 238.428 Q562.889 239.294 564.295 239.294 Q564.74 239.294 565.138 239.107 Q565.536 238.943 565.864 238.521 Q566.215 238.1 566.473 237.678 Q566.73 237.28 566.988 236.507 Q567.246 235.757 567.41 235.195 Q567.574 234.633 567.784 233.626 Q568.019 232.619 568.136 232.01 Q568.253 231.424 568.464 230.276 L572.047 211.328 L568.885 211.328 Q568.323 211.328 568.089 211.304 Q567.878 211.281 567.714 211.164 Q567.55 211.023 567.55 210.742 Q567.55 210.297 567.738 210.11 Q567.948 209.899 568.183 209.876 Q568.417 209.829 568.979 209.829 L572.305 209.829 Q573.429 203.903 573.874 202.31 Q574.39 200.624 575.186 199.453 Q575.982 198.258 576.872 197.696 Q577.762 197.134 578.489 196.923 Q579.238 196.689 579.964 196.689 Q581.604 196.689 582.869 197.579 Q584.133 198.445 584.133 199.991 Z" fill="#000000" fill-rule="evenodd" fill-opacity="1" /><path clip-path="url(#clip910)" d="M590.586 218.518 Q590.586 210.414 593.607 203.879 Q594.896 201.139 596.699 198.844 Q598.503 196.548 599.697 195.541 Q600.892 194.534 601.22 194.534 Q601.688 194.534 601.712 195.002 Q601.712 195.237 601.079 195.822 Q593.35 203.692 593.373 218.518 Q593.373 233.392 600.892 240.957 Q601.712 241.777 601.712 242.035 Q601.712 242.503 601.22 242.503 Q600.892 242.503 599.744 241.543 Q598.596 240.582 596.816 238.381 Q595.036 236.179 593.748 233.485 Q590.586 226.951 590.586 218.518 Z" fill="#000000" fill-rule="evenodd" fill-opacity="1" /><path clip-path="url(#clip910)" d="M626.129 206.526 Q626.129 210.461 624.864 214.888 Q623.623 219.291 621.655 222.852 Q619.688 226.388 617.111 228.731 Q614.535 231.049 612.075 231.049 Q610.506 231.049 609.335 230.183 Q608.187 229.293 607.555 227.817 Q606.922 226.318 606.618 224.679 Q606.313 223.016 606.313 221.212 Q606.313 218.518 606.899 215.591 Q607.485 212.639 608.468 209.969 Q609.452 207.276 610.834 204.84 Q612.216 202.38 613.738 200.6 Q615.284 198.797 617.018 197.743 Q618.751 196.689 620.367 196.689 Q621.538 196.689 622.475 197.204 Q623.435 197.696 624.044 198.563 Q624.653 199.406 625.075 200.413 Q625.52 201.42 625.731 202.591 Q625.942 203.739 626.035 204.699 Q626.129 205.636 626.129 206.526 M622.967 203.551 Q622.967 202.357 622.873 201.467 Q622.779 200.553 622.522 199.64 Q622.264 198.726 621.702 198.235 Q621.163 197.743 620.32 197.743 Q617.861 197.743 615.097 202.779 Q614.207 204.348 613.411 206.479 Q612.614 208.611 612.333 209.618 Q612.052 210.625 611.396 213.108 L621.421 213.108 Q622.967 206.714 622.967 203.551 M620.999 214.63 L611.021 214.63 Q609.476 220.486 609.476 224.14 Q609.476 227.325 610.131 228.66 Q610.811 229.972 612.075 229.972 Q613.528 229.972 614.886 228.52 Q616.245 227.044 617.627 224.374 Q619.453 220.908 620.999 214.63 Z" fill="#000000" fill-rule="evenodd" fill-opacity="1" /><path clip-path="url(#clip910)" d="M631.075 242.035 Q631.075 241.8 631.684 241.215 Q639.414 233.345 639.414 218.518 Q639.414 203.645 631.989 196.127 Q631.075 195.26 631.075 195.002 Q631.075 194.534 631.544 194.534 Q631.871 194.534 633.019 195.494 Q634.19 196.454 635.947 198.656 Q637.727 200.858 639.039 203.551 Q642.201 210.086 642.201 218.518 Q642.201 226.623 639.179 233.157 Q637.891 235.898 636.088 238.193 Q634.284 240.489 633.089 241.496 Q631.895 242.503 631.544 242.503 Q631.075 242.503 631.075 242.035 Z" fill="#000000" fill-rule="evenodd" fill-opacity="1" /><path clip-path="url(#clip910)" d="M647.571 241.402 L651.599 241.402 L651.599 195.635 L647.571 195.635 L647.571 194.534 L654.808 194.534 L654.808 242.503 L647.571 242.503 L647.571 241.402 Z" fill="#000000" fill-rule="evenodd" fill-opacity="1" /><polyline clip-path="url(#clip910)" style="stroke:#e26f46; stroke-linecap:round; stroke-linejoin:round; stroke-width:4; stroke-opacity:1; fill:none" points="350.495,270.476 490.187,270.476 "/>
<path clip-path="url(#clip910)" d="M537.711 250.941 Q534.151 254.267 530.263 256.305 L524.08 254.056 Q522.323 253.518 521.339 253.518 Q518.974 253.518 517.498 255.064 Q515.601 256.961 514.289 260.474 L513.469 259.959 Q514.336 257.663 515.788 254.572 Q516.842 252.44 517.849 251.363 Q519.512 249.442 522.393 249.442 Q524.478 249.442 529.795 251.995 Q531.434 252.745 532.324 252.745 Q533.495 252.745 534.573 252.136 Q535.674 251.574 537.173 250.168 L537.711 250.941 M536.798 254.619 Q535.299 255.954 534.245 257.687 Q533.683 258.717 533.683 260.099 Q533.683 262.395 533.823 263.215 Q534.386 267.384 534.386 270.593 Q534.386 275.956 531.551 278.791 Q526.703 283.639 521.339 283.639 Q519.325 283.639 516.748 281.344 L514.195 283.124 L513.961 282.351 Q514.664 281.39 515.975 279.915 Q517.287 278.416 518.271 277.385 Q519.255 276.331 519.419 276.214 Q520.426 278.369 520.754 279.001 Q521.105 279.634 521.573 280.102 Q522.182 280.711 523.096 281.109 Q524.033 281.484 524.899 281.484 Q525.907 281.484 526.633 281.109 Q527.382 280.735 528.155 279.962 Q529.139 278.978 529.748 276.682 Q530.263 274.996 530.263 272.42 Q530.263 269.984 529.795 266.33 Q529.397 262.934 529.397 261.762 Q529.397 261.224 529.49 260.146 Q532.933 256.375 536.212 254.291 L536.798 254.619 Z" fill="#000000" fill-rule="evenodd" fill-opacity="1" /><path clip-path="url(#clip910)" d="M551.291 294.343 L551.291 246.374 L558.528 246.374 L558.528 247.475 L554.499 247.475 L554.499 293.242 L558.528 293.242 L558.528 294.343 L551.291 294.343 Z" fill="#000000" fill-rule="evenodd" fill-opacity="1" /><path clip-path="url(#clip910)" d="M584.37 251.831 Q584.37 253.12 583.55 253.916 Q582.754 254.712 581.747 254.712 Q581.02 254.712 580.482 254.267 Q579.966 253.822 579.966 253.049 Q579.966 252.253 580.575 251.41 Q581.184 250.566 582.566 250.449 Q581.653 249.583 580.201 249.583 Q579.475 249.583 578.866 250.051 Q578.28 250.496 577.952 251.222 Q577.601 251.972 576.804 256.211 Q576.547 257.593 576.313 258.928 Q576.078 260.263 575.797 261.669 L579.779 261.669 Q580.294 261.669 580.505 261.692 Q580.716 261.716 580.88 261.833 Q581.067 261.95 581.067 262.207 Q581.067 262.863 580.763 263.027 Q580.482 263.168 579.639 263.168 L575.516 263.168 L572.635 278.369 Q572.565 278.814 572.26 280.219 Q571.979 281.601 571.3 283.873 Q570.621 286.169 569.942 287.527 Q569.567 288.3 569.075 289.026 Q568.607 289.776 567.927 290.525 Q567.248 291.275 566.358 291.72 Q565.468 292.188 564.531 292.188 Q562.938 292.188 561.697 291.298 Q560.456 290.408 560.456 288.886 Q560.456 287.597 561.252 286.801 Q562.072 286.005 563.079 286.005 Q563.805 286.005 564.32 286.45 Q564.859 286.895 564.859 287.668 Q564.859 287.996 564.742 288.37 Q564.625 288.745 564.367 289.167 Q564.109 289.612 563.547 289.916 Q562.985 290.221 562.212 290.268 Q563.126 291.134 564.531 291.134 Q564.976 291.134 565.374 290.947 Q565.772 290.783 566.1 290.361 Q566.452 289.94 566.709 289.518 Q566.967 289.12 567.225 288.347 Q567.482 287.597 567.646 287.035 Q567.81 286.473 568.021 285.466 Q568.255 284.459 568.372 283.85 Q568.489 283.264 568.7 282.116 L572.284 263.168 L569.122 263.168 Q568.56 263.168 568.326 263.144 Q568.115 263.121 567.951 263.004 Q567.787 262.863 567.787 262.582 Q567.787 262.137 567.974 261.95 Q568.185 261.739 568.419 261.716 Q568.653 261.669 569.216 261.669 L572.542 261.669 Q573.666 255.743 574.111 254.15 Q574.626 252.464 575.423 251.293 Q576.219 250.098 577.109 249.536 Q577.999 248.974 578.725 248.763 Q579.475 248.529 580.201 248.529 Q581.84 248.529 583.105 249.419 Q584.37 250.285 584.37 251.831 Z" fill="#000000" fill-rule="evenodd" fill-opacity="1" /><path clip-path="url(#clip910)" d="M590.823 270.358 Q590.823 262.254 593.844 255.719 Q595.132 252.979 596.936 250.684 Q598.739 248.388 599.934 247.381 Q601.128 246.374 601.456 246.374 Q601.925 246.374 601.948 246.842 Q601.948 247.077 601.316 247.662 Q593.586 255.532 593.61 270.358 Q593.61 285.232 601.128 292.797 Q601.948 293.617 601.948 293.875 Q601.948 294.343 601.456 294.343 Q601.128 294.343 599.981 293.383 Q598.833 292.422 597.053 290.221 Q595.273 288.019 593.985 285.325 Q590.823 278.791 590.823 270.358 Z" fill="#000000" fill-rule="evenodd" fill-opacity="1" /><path clip-path="url(#clip910)" d="M626.365 258.366 Q626.365 262.301 625.101 266.728 Q623.859 271.131 621.892 274.692 Q619.924 278.228 617.348 280.571 Q614.771 282.889 612.312 282.889 Q610.743 282.889 609.572 282.023 Q608.424 281.133 607.791 279.657 Q607.159 278.158 606.855 276.519 Q606.55 274.856 606.55 273.052 Q606.55 270.358 607.136 267.431 Q607.721 264.479 608.705 261.809 Q609.689 259.116 611.071 256.68 Q612.452 254.22 613.975 252.44 Q615.521 250.637 617.254 249.583 Q618.987 248.529 620.603 248.529 Q621.775 248.529 622.712 249.044 Q623.672 249.536 624.281 250.403 Q624.89 251.246 625.311 252.253 Q625.756 253.26 625.967 254.431 Q626.178 255.579 626.272 256.539 Q626.365 257.476 626.365 258.366 M623.203 255.391 Q623.203 254.197 623.11 253.307 Q623.016 252.393 622.758 251.48 Q622.501 250.566 621.939 250.075 Q621.4 249.583 620.557 249.583 Q618.097 249.583 615.333 254.619 Q614.443 256.188 613.647 258.319 Q612.851 260.451 612.57 261.458 Q612.289 262.465 611.633 264.948 L621.658 264.948 Q623.203 258.554 623.203 255.391 M621.236 266.47 L611.258 266.47 Q609.712 272.326 609.712 275.98 Q609.712 279.165 610.368 280.5 Q611.047 281.812 612.312 281.812 Q613.764 281.812 615.123 280.36 Q616.481 278.884 617.863 276.214 Q619.69 272.748 621.236 266.47 Z" fill="#000000" fill-rule="evenodd" fill-opacity="1" /><path clip-path="url(#clip910)" d="M631.312 293.875 Q631.312 293.64 631.921 293.055 Q639.65 285.185 639.65 270.358 Q639.65 255.485 632.225 247.967 Q631.312 247.1 631.312 246.842 Q631.312 246.374 631.78 246.374 Q632.108 246.374 633.256 247.334 Q634.427 248.294 636.184 250.496 Q637.964 252.698 639.275 255.391 Q642.437 261.926 642.437 270.358 Q642.437 278.463 639.416 284.997 Q638.128 287.738 636.324 290.033 Q634.521 292.329 633.326 293.336 Q632.131 294.343 631.78 294.343 Q631.312 294.343 631.312 293.875 Z" fill="#000000" fill-rule="evenodd" fill-opacity="1" /><path clip-path="url(#clip910)" d="M647.807 293.242 L651.836 293.242 L651.836 247.475 L647.807 247.475 L647.807 246.374 L655.045 246.374 L655.045 294.343 L647.807 294.343 L647.807 293.242 Z" fill="#000000" fill-rule="evenodd" fill-opacity="1" /></svg>
