<?xml version="1.0" encoding="utf-8"?>
<svg xmlns="http://www.w3.org/2000/svg" xmlns:xlink="http://www.w3.org/1999/xlink" width="600" height="400" viewBox="0 0 2400 1600">
<defs>
  <clipPath id="clip790">
    <rect x="0" y="0" width="2400" height="1600"/>
  </clipPath>
</defs>
<path clip-path="url(#clip790)" d="M0 1600 L2400 1600 L2400 0 L0 0  Z" fill="#ffffff" fill-rule="evenodd" fill-opacity="1"/>
<defs>
  <clipPath id="clip791">
    <rect x="480" y="0" width="1681" height="1600"/>
  </clipPath>
</defs>
<defs>
  <clipPath id="clip792">
    <rect x="257" y="123" width="2097" height="1301"/>
  </clipPath>
</defs>
<path clip-path="url(#clip790)" d="M257.204 1423.18 L2352.76 1423.18 L2352.76 123.472 L257.204 123.472  Z" fill="#ffffff" fill-rule="evenodd" fill-opacity="1"/>
<polyline clip-path="url(#clip792)" style="stroke:#000000; stroke-linecap:round; stroke-linejoin:round; stroke-width:2; stroke-opacity:0.1; fill:none" points="361.085,1423.18 361.085,123.472 "/>
<polyline clip-path="url(#clip792)" style="stroke:#000000; stroke-linecap:round; stroke-linejoin:round; stroke-width:2; stroke-opacity:0.1; fill:none" points="675.884,1423.18 675.884,123.472 "/>
<polyline clip-path="url(#clip792)" style="stroke:#000000; stroke-linecap:round; stroke-linejoin:round; stroke-width:2; stroke-opacity:0.1; fill:none" points="990.683,1423.18 990.683,123.472 "/>
<polyline clip-path="url(#clip792)" style="stroke:#000000; stroke-linecap:round; stroke-linejoin:round; stroke-width:2; stroke-opacity:0.1; fill:none" points="1305.48,1423.18 1305.48,123.472 "/>
<polyline clip-path="url(#clip792)" style="stroke:#000000; stroke-linecap:round; stroke-linejoin:round; stroke-width:2; stroke-opacity:0.1; fill:none" points="1620.28,1423.18 1620.28,123.472 "/>
<polyline clip-path="url(#clip792)" style="stroke:#000000; stroke-linecap:round; stroke-linejoin:round; stroke-width:2; stroke-opacity:0.1; fill:none" points="1935.08,1423.18 1935.08,123.472 "/>
<polyline clip-path="url(#clip792)" style="stroke:#000000; stroke-linecap:round; stroke-linejoin:round; stroke-width:2; stroke-opacity:0.1; fill:none" points="2249.88,1423.18 2249.88,123.472 "/>
<polyline clip-path="url(#clip790)" style="stroke:#000000; stroke-linecap:round; stroke-linejoin:round; stroke-width:4; stroke-opacity:1; fill:none" points="257.204,1423.18 2352.76,1423.18 "/>
<polyline clip-path="url(#clip790)" style="stroke:#000000; stroke-linecap:round; stroke-linejoin:round; stroke-width:4; stroke-opacity:1; fill:none" points="361.085,1423.18 361.085,1404.28 "/>
<polyline clip-path="url(#clip790)" style="stroke:#000000; stroke-linecap:round; stroke-linejoin:round; stroke-width:4; stroke-opacity:1; fill:none" points="675.884,1423.18 675.884,1404.28 "/>
<polyline clip-path="url(#clip790)" style="stroke:#000000; stroke-linecap:round; stroke-linejoin:round; stroke-width:4; stroke-opacity:1; fill:none" points="990.683,1423.18 990.683,1404.28 "/>
<polyline clip-path="url(#clip790)" style="stroke:#000000; stroke-linecap:round; stroke-linejoin:round; stroke-width:4; stroke-opacity:1; fill:none" points="1305.48,1423.18 1305.48,1404.28 "/>
<polyline clip-path="url(#clip790)" style="stroke:#000000; stroke-linecap:round; stroke-linejoin:round; stroke-width:4; stroke-opacity:1; fill:none" points="1620.28,1423.18 1620.28,1404.28 "/>
<polyline clip-path="url(#clip790)" style="stroke:#000000; stroke-linecap:round; stroke-linejoin:round; stroke-width:4; stroke-opacity:1; fill:none" points="1935.08,1423.18 1935.08,1404.28 "/>
<polyline clip-path="url(#clip790)" style="stroke:#000000; stroke-linecap:round; stroke-linejoin:round; stroke-width:4; stroke-opacity:1; fill:none" points="2249.88,1423.18 2249.88,1404.28 "/>
<path clip-path="url(#clip790)" d="M330.553 1468.75 L360.229 1468.75 L360.229 1472.69 L330.553 1472.69 L330.553 1468.75 Z" fill="#000000" fill-rule="evenodd" fill-opacity="1" /><path clip-path="url(#clip790)" d="M384.488 1466.95 Q387.844 1467.66 389.719 1469.93 Q391.618 1472.2 391.618 1475.53 Q391.618 1480.65 388.099 1483.45 Q384.581 1486.25 378.099 1486.25 Q375.923 1486.25 373.608 1485.81 Q371.317 1485.39 368.863 1484.54 L368.863 1480.02 Q370.807 1481.16 373.122 1481.74 Q375.437 1482.32 377.96 1482.32 Q382.358 1482.32 384.65 1480.58 Q386.965 1478.84 386.965 1475.53 Q386.965 1472.48 384.812 1470.77 Q382.682 1469.03 378.863 1469.03 L374.835 1469.03 L374.835 1465.19 L379.048 1465.19 Q382.497 1465.19 384.326 1463.82 Q386.155 1462.43 386.155 1459.84 Q386.155 1457.18 384.256 1455.77 Q382.381 1454.33 378.863 1454.33 Q376.942 1454.33 374.743 1454.75 Q372.544 1455.16 369.905 1456.04 L369.905 1451.88 Q372.567 1451.14 374.882 1450.77 Q377.219 1450.39 379.28 1450.39 Q384.604 1450.39 387.706 1452.83 Q390.807 1455.23 390.807 1459.35 Q390.807 1462.22 389.164 1464.21 Q387.52 1466.18 384.488 1466.95 Z" fill="#000000" fill-rule="evenodd" fill-opacity="1" /><path clip-path="url(#clip790)" d="M645.826 1468.75 L675.502 1468.75 L675.502 1472.69 L645.826 1472.69 L645.826 1468.75 Z" fill="#000000" fill-rule="evenodd" fill-opacity="1" /><path clip-path="url(#clip790)" d="M689.622 1481.64 L705.942 1481.64 L705.942 1485.58 L683.997 1485.58 L683.997 1481.64 Q686.659 1478.89 691.243 1474.26 Q695.849 1469.61 697.03 1468.27 Q699.275 1465.74 700.155 1464.01 Q701.057 1462.25 701.057 1460.56 Q701.057 1457.8 699.113 1456.07 Q697.192 1454.33 694.09 1454.33 Q691.891 1454.33 689.437 1455.09 Q687.007 1455.86 684.229 1457.41 L684.229 1452.69 Q687.053 1451.55 689.507 1450.97 Q691.96 1450.39 693.997 1450.39 Q699.368 1450.39 702.562 1453.08 Q705.756 1455.77 705.756 1460.26 Q705.756 1462.39 704.946 1464.31 Q704.159 1466.2 702.053 1468.8 Q701.474 1469.47 698.372 1472.69 Q695.27 1475.88 689.622 1481.64 Z" fill="#000000" fill-rule="evenodd" fill-opacity="1" /><path clip-path="url(#clip790)" d="M960.44 1468.75 L990.116 1468.75 L990.116 1472.69 L960.44 1472.69 L960.44 1468.75 Z" fill="#000000" fill-rule="evenodd" fill-opacity="1" /><path clip-path="url(#clip790)" d="M1001.02 1481.64 L1008.66 1481.64 L1008.66 1455.28 L1000.35 1456.95 L1000.35 1452.69 L1008.61 1451.02 L1013.29 1451.02 L1013.29 1481.64 L1020.93 1481.64 L1020.93 1485.58 L1001.02 1485.58 L1001.02 1481.64 Z" fill="#000000" fill-rule="evenodd" fill-opacity="1" /><path clip-path="url(#clip790)" d="M1305.48 1454.1 Q1301.87 1454.1 1300.04 1457.66 Q1298.24 1461.2 1298.24 1468.33 Q1298.24 1475.44 1300.04 1479.01 Q1301.87 1482.55 1305.48 1482.55 Q1309.12 1482.55 1310.92 1479.01 Q1312.75 1475.44 1312.75 1468.33 Q1312.75 1461.2 1310.92 1457.66 Q1309.12 1454.1 1305.48 1454.1 M1305.48 1450.39 Q1311.29 1450.39 1314.35 1455 Q1317.43 1459.58 1317.43 1468.33 Q1317.43 1477.06 1314.35 1481.67 Q1311.29 1486.25 1305.48 1486.25 Q1299.67 1486.25 1296.59 1481.67 Q1293.54 1477.06 1293.54 1468.33 Q1293.54 1459.58 1296.59 1455 Q1299.67 1450.39 1305.48 1450.39 Z" fill="#000000" fill-rule="evenodd" fill-opacity="1" /><path clip-path="url(#clip790)" d="M1610.66 1481.64 L1618.3 1481.64 L1618.3 1455.28 L1609.99 1456.95 L1609.99 1452.69 L1618.25 1451.02 L1622.93 1451.02 L1622.93 1481.64 L1630.57 1481.64 L1630.57 1485.58 L1610.66 1485.58 L1610.66 1481.64 Z" fill="#000000" fill-rule="evenodd" fill-opacity="1" /><path clip-path="url(#clip790)" d="M1929.73 1481.64 L1946.05 1481.64 L1946.05 1485.58 L1924.11 1485.58 L1924.11 1481.64 Q1926.77 1478.89 1931.35 1474.26 Q1935.96 1469.61 1937.14 1468.27 Q1939.38 1465.74 1940.26 1464.01 Q1941.17 1462.25 1941.17 1460.56 Q1941.17 1457.8 1939.22 1456.07 Q1937.3 1454.33 1934.2 1454.33 Q1932 1454.33 1929.55 1455.09 Q1927.12 1455.86 1924.34 1457.41 L1924.34 1452.69 Q1927.16 1451.55 1929.62 1450.97 Q1932.07 1450.39 1934.11 1450.39 Q1939.48 1450.39 1942.67 1453.08 Q1945.87 1455.77 1945.87 1460.26 Q1945.87 1462.39 1945.06 1464.31 Q1944.27 1466.2 1942.16 1468.8 Q1941.58 1469.47 1938.48 1472.69 Q1935.38 1475.88 1929.73 1481.64 Z" fill="#000000" fill-rule="evenodd" fill-opacity="1" /><path clip-path="url(#clip790)" d="M2254.13 1466.95 Q2257.48 1467.66 2259.36 1469.93 Q2261.25 1472.2 2261.25 1475.53 Q2261.25 1480.65 2257.74 1483.45 Q2254.22 1486.25 2247.74 1486.25 Q2245.56 1486.25 2243.25 1485.81 Q2240.95 1485.39 2238.5 1484.54 L2238.5 1480.02 Q2240.44 1481.16 2242.76 1481.74 Q2245.07 1482.32 2247.6 1482.32 Q2252 1482.32 2254.29 1480.58 Q2256.6 1478.84 2256.6 1475.53 Q2256.6 1472.48 2254.45 1470.77 Q2252.32 1469.03 2248.5 1469.03 L2244.47 1469.03 L2244.47 1465.19 L2248.69 1465.19 Q2252.13 1465.19 2253.96 1463.82 Q2255.79 1462.43 2255.79 1459.84 Q2255.79 1457.18 2253.89 1455.77 Q2252.02 1454.33 2248.5 1454.33 Q2246.58 1454.33 2244.38 1454.75 Q2242.18 1455.16 2239.54 1456.04 L2239.54 1451.88 Q2242.2 1451.14 2244.52 1450.77 Q2246.86 1450.39 2248.92 1450.39 Q2254.24 1450.39 2257.34 1452.83 Q2260.44 1455.23 2260.44 1459.35 Q2260.44 1462.22 2258.8 1464.21 Q2257.16 1466.18 2254.13 1466.95 Z" fill="#000000" fill-rule="evenodd" fill-opacity="1" /><path clip-path="url(#clip790)" d="M1316.91 1529.22 Q1316.91 1534.63 1315.18 1540.71 Q1313.47 1546.77 1310.76 1551.66 Q1308.06 1556.53 1304.52 1559.75 Q1300.97 1562.94 1297.59 1562.94 Q1295.43 1562.94 1293.82 1561.75 Q1292.25 1560.52 1291.38 1558.49 Q1290.51 1556.43 1290.09 1554.18 Q1289.67 1551.89 1289.67 1549.41 Q1289.67 1545.71 1290.47 1541.68 Q1291.28 1537.62 1292.63 1533.95 Q1293.98 1530.25 1295.88 1526.9 Q1297.78 1523.52 1299.88 1521.07 Q1302 1518.59 1304.39 1517.14 Q1306.77 1515.69 1308.99 1515.69 Q1310.6 1515.69 1311.89 1516.4 Q1313.21 1517.08 1314.05 1518.27 Q1314.89 1519.43 1315.47 1520.81 Q1316.08 1522.2 1316.37 1523.81 Q1316.66 1525.38 1316.79 1526.71 Q1316.91 1527.99 1316.91 1529.22 M1312.57 1525.13 Q1312.57 1523.48 1312.44 1522.26 Q1312.31 1521 1311.96 1519.75 Q1311.6 1518.49 1310.83 1517.82 Q1310.09 1517.14 1308.93 1517.14 Q1305.55 1517.14 1301.75 1524.06 Q1300.52 1526.22 1299.43 1529.15 Q1298.33 1532.08 1297.95 1533.47 Q1297.56 1534.85 1296.66 1538.27 L1310.44 1538.27 Q1312.57 1529.47 1312.57 1525.13 M1309.86 1540.36 L1296.14 1540.36 Q1294.02 1548.41 1294.02 1553.44 Q1294.02 1557.82 1294.92 1559.65 Q1295.85 1561.46 1297.59 1561.46 Q1299.59 1561.46 1301.46 1559.46 Q1303.32 1557.43 1305.22 1553.76 Q1307.74 1548.99 1309.86 1540.36 Z" fill="#000000" fill-rule="evenodd" fill-opacity="1" /><polyline clip-path="url(#clip792)" style="stroke:#000000; stroke-linecap:round; stroke-linejoin:round; stroke-width:2; stroke-opacity:0.1; fill:none" points="257.204,1386.46 2352.76,1386.46 "/>
<polyline clip-path="url(#clip792)" style="stroke:#000000; stroke-linecap:round; stroke-linejoin:round; stroke-width:2; stroke-opacity:0.1; fill:none" points="257.204,1079.91 2352.76,1079.91 "/>
<polyline clip-path="url(#clip792)" style="stroke:#000000; stroke-linecap:round; stroke-linejoin:round; stroke-width:2; stroke-opacity:0.1; fill:none" points="257.204,773.356 2352.76,773.356 "/>
<polyline clip-path="url(#clip792)" style="stroke:#000000; stroke-linecap:round; stroke-linejoin:round; stroke-width:2; stroke-opacity:0.1; fill:none" points="257.204,466.806 2352.76,466.806 "/>
<polyline clip-path="url(#clip792)" style="stroke:#000000; stroke-linecap:round; stroke-linejoin:round; stroke-width:2; stroke-opacity:0.1; fill:none" points="257.204,160.256 2352.76,160.256 "/>
<polyline clip-path="url(#clip790)" style="stroke:#000000; stroke-linecap:round; stroke-linejoin:round; stroke-width:4; stroke-opacity:1; fill:none" points="257.204,1423.18 257.204,123.472 "/>
<polyline clip-path="url(#clip790)" style="stroke:#000000; stroke-linecap:round; stroke-linejoin:round; stroke-width:4; stroke-opacity:1; fill:none" points="257.204,1386.46 276.102,1386.46 "/>
<polyline clip-path="url(#clip790)" style="stroke:#000000; stroke-linecap:round; stroke-linejoin:round; stroke-width:4; stroke-opacity:1; fill:none" points="257.204,1079.91 276.102,1079.91 "/>
<polyline clip-path="url(#clip790)" style="stroke:#000000; stroke-linecap:round; stroke-linejoin:round; stroke-width:4; stroke-opacity:1; fill:none" points="257.204,773.356 276.102,773.356 "/>
<polyline clip-path="url(#clip790)" style="stroke:#000000; stroke-linecap:round; stroke-linejoin:round; stroke-width:4; stroke-opacity:1; fill:none" points="257.204,466.806 276.102,466.806 "/>
<polyline clip-path="url(#clip790)" style="stroke:#000000; stroke-linecap:round; stroke-linejoin:round; stroke-width:4; stroke-opacity:1; fill:none" points="257.204,160.256 276.102,160.256 "/>
<path clip-path="url(#clip790)" d="M114.26 1386.91 L143.936 1386.91 L143.936 1390.84 L114.26 1390.84 L114.26 1386.91 Z" fill="#000000" fill-rule="evenodd" fill-opacity="1" /><path clip-path="url(#clip790)" d="M154.839 1399.8 L162.477 1399.8 L162.477 1373.44 L154.167 1375.1 L154.167 1370.84 L162.431 1369.18 L167.107 1369.18 L167.107 1399.8 L174.746 1399.8 L174.746 1403.74 L154.839 1403.74 L154.839 1399.8 Z" fill="#000000" fill-rule="evenodd" fill-opacity="1" /><path clip-path="url(#clip790)" d="M184.19 1397.86 L189.075 1397.86 L189.075 1403.74 L184.19 1403.74 L184.19 1397.86 Z" fill="#000000" fill-rule="evenodd" fill-opacity="1" /><path clip-path="url(#clip790)" d="M209.26 1372.26 Q205.649 1372.26 203.82 1375.82 Q202.014 1379.36 202.014 1386.49 Q202.014 1393.6 203.82 1397.16 Q205.649 1400.7 209.26 1400.7 Q212.894 1400.7 214.699 1397.16 Q216.528 1393.6 216.528 1386.49 Q216.528 1379.36 214.699 1375.82 Q212.894 1372.26 209.26 1372.26 M209.26 1368.55 Q215.07 1368.55 218.125 1373.16 Q221.204 1377.74 221.204 1386.49 Q221.204 1395.22 218.125 1399.83 Q215.07 1404.41 209.26 1404.41 Q203.449 1404.41 200.371 1399.83 Q197.315 1395.22 197.315 1386.49 Q197.315 1377.74 200.371 1373.16 Q203.449 1368.55 209.26 1368.55 Z" fill="#000000" fill-rule="evenodd" fill-opacity="1" /><path clip-path="url(#clip790)" d="M115.256 1080.36 L144.931 1080.36 L144.931 1084.29 L115.256 1084.29 L115.256 1080.36 Z" fill="#000000" fill-rule="evenodd" fill-opacity="1" /><path clip-path="url(#clip790)" d="M165.024 1065.71 Q161.413 1065.71 159.584 1069.27 Q157.778 1072.81 157.778 1079.94 Q157.778 1087.05 159.584 1090.61 Q161.413 1094.15 165.024 1094.15 Q168.658 1094.15 170.464 1090.61 Q172.292 1087.05 172.292 1079.94 Q172.292 1072.81 170.464 1069.27 Q168.658 1065.71 165.024 1065.71 M165.024 1062 Q170.834 1062 173.889 1066.61 Q176.968 1071.19 176.968 1079.94 Q176.968 1088.67 173.889 1093.27 Q170.834 1097.86 165.024 1097.86 Q159.214 1097.86 156.135 1093.27 Q153.079 1088.67 153.079 1079.94 Q153.079 1071.19 156.135 1066.61 Q159.214 1062 165.024 1062 Z" fill="#000000" fill-rule="evenodd" fill-opacity="1" /><path clip-path="url(#clip790)" d="M185.186 1091.31 L190.07 1091.31 L190.07 1097.19 L185.186 1097.19 L185.186 1091.31 Z" fill="#000000" fill-rule="evenodd" fill-opacity="1" /><path clip-path="url(#clip790)" d="M200.301 1062.63 L218.658 1062.63 L218.658 1066.56 L204.584 1066.56 L204.584 1075.03 Q205.602 1074.69 206.621 1074.52 Q207.639 1074.34 208.658 1074.34 Q214.445 1074.34 217.824 1077.51 Q221.204 1080.68 221.204 1086.1 Q221.204 1091.68 217.732 1094.78 Q214.26 1097.86 207.94 1097.86 Q205.764 1097.86 203.496 1097.49 Q201.25 1097.12 198.843 1096.38 L198.843 1091.68 Q200.926 1092.81 203.149 1093.37 Q205.371 1093.92 207.848 1093.92 Q211.852 1093.92 214.19 1091.82 Q216.528 1089.71 216.528 1086.1 Q216.528 1082.49 214.19 1080.38 Q211.852 1078.27 207.848 1078.27 Q205.973 1078.27 204.098 1078.69 Q202.246 1079.11 200.301 1079.99 L200.301 1062.63 Z" fill="#000000" fill-rule="evenodd" fill-opacity="1" /><path clip-path="url(#clip790)" d="M164.028 759.155 Q160.417 759.155 158.589 762.72 Q156.783 766.262 156.783 773.391 Q156.783 780.498 158.589 784.062 Q160.417 787.604 164.028 787.604 Q167.663 787.604 169.468 784.062 Q171.297 780.498 171.297 773.391 Q171.297 766.262 169.468 762.72 Q167.663 759.155 164.028 759.155 M164.028 755.451 Q169.839 755.451 172.894 760.058 Q175.973 764.641 175.973 773.391 Q175.973 782.118 172.894 786.724 Q169.839 791.308 164.028 791.308 Q158.218 791.308 155.14 786.724 Q152.084 782.118 152.084 773.391 Q152.084 764.641 155.14 760.058 Q158.218 755.451 164.028 755.451 Z" fill="#000000" fill-rule="evenodd" fill-opacity="1" /><path clip-path="url(#clip790)" d="M184.19 784.757 L189.075 784.757 L189.075 790.636 L184.19 790.636 L184.19 784.757 Z" fill="#000000" fill-rule="evenodd" fill-opacity="1" /><path clip-path="url(#clip790)" d="M209.26 759.155 Q205.649 759.155 203.82 762.72 Q202.014 766.262 202.014 773.391 Q202.014 780.498 203.82 784.062 Q205.649 787.604 209.26 787.604 Q212.894 787.604 214.699 784.062 Q216.528 780.498 216.528 773.391 Q216.528 766.262 214.699 762.72 Q212.894 759.155 209.26 759.155 M209.26 755.451 Q215.07 755.451 218.125 760.058 Q221.204 764.641 221.204 773.391 Q221.204 782.118 218.125 786.724 Q215.07 791.308 209.26 791.308 Q203.449 791.308 200.371 786.724 Q197.315 782.118 197.315 773.391 Q197.315 764.641 200.371 760.058 Q203.449 755.451 209.26 755.451 Z" fill="#000000" fill-rule="evenodd" fill-opacity="1" /><path clip-path="url(#clip790)" d="M165.024 452.605 Q161.413 452.605 159.584 456.169 Q157.778 459.711 157.778 466.841 Q157.778 473.947 159.584 477.512 Q161.413 481.054 165.024 481.054 Q168.658 481.054 170.464 477.512 Q172.292 473.947 172.292 466.841 Q172.292 459.711 170.464 456.169 Q168.658 452.605 165.024 452.605 M165.024 448.901 Q170.834 448.901 173.889 453.507 Q176.968 458.091 176.968 466.841 Q176.968 475.567 173.889 480.174 Q170.834 484.757 165.024 484.757 Q159.214 484.757 156.135 480.174 Q153.079 475.567 153.079 466.841 Q153.079 458.091 156.135 453.507 Q159.214 448.901 165.024 448.901 Z" fill="#000000" fill-rule="evenodd" fill-opacity="1" /><path clip-path="url(#clip790)" d="M185.186 478.206 L190.07 478.206 L190.07 484.086 L185.186 484.086 L185.186 478.206 Z" fill="#000000" fill-rule="evenodd" fill-opacity="1" /><path clip-path="url(#clip790)" d="M200.301 449.526 L218.658 449.526 L218.658 453.461 L204.584 453.461 L204.584 461.933 Q205.602 461.586 206.621 461.424 Q207.639 461.239 208.658 461.239 Q214.445 461.239 217.824 464.41 Q221.204 467.581 221.204 472.998 Q221.204 478.577 217.732 481.679 Q214.26 484.757 207.94 484.757 Q205.764 484.757 203.496 484.387 Q201.25 484.017 198.843 483.276 L198.843 478.577 Q200.926 479.711 203.149 480.267 Q205.371 480.822 207.848 480.822 Q211.852 480.822 214.19 478.716 Q216.528 476.609 216.528 472.998 Q216.528 469.387 214.19 467.28 Q211.852 465.174 207.848 465.174 Q205.973 465.174 204.098 465.591 Q202.246 466.007 200.301 466.887 L200.301 449.526 Z" fill="#000000" fill-rule="evenodd" fill-opacity="1" /><path clip-path="url(#clip790)" d="M154.839 173.6 L162.477 173.6 L162.477 147.235 L154.167 148.901 L154.167 144.642 L162.431 142.976 L167.107 142.976 L167.107 173.6 L174.746 173.6 L174.746 177.536 L154.839 177.536 L154.839 173.6 Z" fill="#000000" fill-rule="evenodd" fill-opacity="1" /><path clip-path="url(#clip790)" d="M184.19 171.656 L189.075 171.656 L189.075 177.536 L184.19 177.536 L184.19 171.656 Z" fill="#000000" fill-rule="evenodd" fill-opacity="1" /><path clip-path="url(#clip790)" d="M209.26 146.054 Q205.649 146.054 203.82 149.619 Q202.014 153.161 202.014 160.29 Q202.014 167.397 203.82 170.961 Q205.649 174.503 209.26 174.503 Q212.894 174.503 214.699 170.961 Q216.528 167.397 216.528 160.29 Q216.528 153.161 214.699 149.619 Q212.894 146.054 209.26 146.054 M209.26 142.351 Q215.07 142.351 218.125 146.957 Q221.204 151.54 221.204 160.29 Q221.204 169.017 218.125 173.624 Q215.07 178.207 209.26 178.207 Q203.449 178.207 200.371 173.624 Q197.315 169.017 197.315 160.29 Q197.315 151.54 200.371 146.957 Q203.449 142.351 209.26 142.351 Z" fill="#000000" fill-rule="evenodd" fill-opacity="1" /><path clip-path="url(#clip790)" d="M65.2145 915.434 L56.519 915.434 Q55.7782 915.434 55.5206 915.402 Q55.2629 915.369 55.0697 915.176 Q54.8765 914.983 54.8765 914.597 Q54.8765 914.146 55.0697 913.985 Q55.2629 913.791 56.0037 913.663 Q60.5447 912.664 62.9601 910.539 Q65.3434 908.381 65.3434 904.484 Q65.3434 900.78 63.7009 898.912 Q62.0584 897.044 59.3531 897.044 Q54.5222 897.044 53.2984 903.904 Q52.4932 907.865 51.9779 909.508 Q51.4304 911.15 50.2388 912.6 Q47.92 915.434 44.635 915.434 Q41.35 915.434 38.9346 912.954 Q36.5191 910.442 36.5191 904.903 Q36.5191 901.199 38.3871 898.687 Q37.8073 897.946 37.3243 897.56 Q36.5191 896.69 36.5191 896.239 Q36.5191 895.724 36.8734 895.627 Q37.1954 895.531 38.1294 895.531 L44.7638 895.531 Q45.5045 895.531 45.7622 895.563 Q46.0198 895.595 46.2131 895.788 Q46.3741 895.982 46.3741 896.4 Q46.3741 897.141 45.7622 897.173 Q37.7751 897.688 37.7751 904.903 Q37.7751 908.799 39.2888 910.539 Q40.7703 912.278 42.7993 912.278 Q43.9265 912.278 44.796 911.762 Q45.6334 911.215 46.1487 910.539 Q46.6318 909.83 47.1148 908.542 Q47.5657 907.254 47.7268 906.481 Q47.8878 905.675 48.2098 904.162 Q49.2082 898.88 51.366 896.658 Q54.1357 893.888 57.6462 893.888 Q61.5431 893.888 64.1839 896.529 Q66.8248 899.17 66.8248 904.484 Q66.8248 908.767 63.9585 911.762 Q64.345 912.149 64.6992 912.439 Q65.0213 912.729 65.1501 912.857 Q65.2789 912.954 65.3756 912.986 Q65.44 913.018 65.5044 913.083 Q66.8248 914.403 66.8248 914.725 Q66.8248 915.241 66.4706 915.337 Q66.1485 915.434 65.2145 915.434 Z" fill="#000000" fill-rule="evenodd" fill-opacity="1" /><path clip-path="url(#clip790)" d="M62.5415 885.64 Q58.2259 889.988 51.9779 889.988 Q45.6978 889.988 41.1246 885.737 Q36.5191 881.453 36.5191 875.334 Q36.5191 869.344 41.0923 865.06 Q45.6334 860.745 51.9779 860.745 Q58.1937 860.745 62.5092 865.093 Q66.8248 869.408 66.8248 875.398 Q66.8248 881.26 62.5415 885.64 M51.4304 884.513 Q57.8394 884.513 60.7379 882.838 Q65.1501 880.262 65.1501 875.334 Q65.1501 872.886 63.8297 870.857 Q62.5092 868.796 60.287 867.669 Q57.3885 866.22 51.4304 866.22 Q45.0859 866.22 42.284 867.959 Q38.0006 870.535 38.0006 875.398 Q38.0006 877.524 39.1278 879.617 Q40.2228 881.679 42.4128 882.935 Q45.3113 884.513 51.4304 884.513 Z" fill="#000000" fill-rule="evenodd" fill-opacity="1" /><path clip-path="url(#clip790)" d="M66.0841 858.644 L64.0551 858.644 Q64.0551 855.133 63.6364 854.328 Q63.1856 853.523 61.06 853.523 L43.379 853.523 Q40.9313 853.523 40.3194 854.392 Q39.7075 855.23 39.7075 858.644 L37.6463 858.644 L36.9378 849.368 L43.8621 849.368 Q36.9378 846.277 36.9378 839.61 Q36.9378 834.65 39.3854 832.686 Q41.0279 831.236 42.8637 830.947 Q44.6994 830.625 49.4659 830.625 L62.0584 830.625 Q63.4432 830.56 63.7653 829.497 Q64.0551 828.435 64.0551 825.472 L66.0841 825.472 Q65.8909 832.203 65.8909 832.879 Q65.8909 833.394 66.0841 840.318 L64.0551 840.318 Q64.0551 836.808 63.6364 836.003 Q63.1856 835.166 61.06 835.166 L45.6978 835.166 Q42.3484 835.166 40.3838 836.196 Q38.3871 837.227 38.3871 840.061 Q38.3871 843.475 41.2534 846.212 Q44.1197 848.95 48.9506 848.95 L61.06 848.95 Q63.1856 848.95 63.6364 848.145 Q64.0551 847.307 64.0551 843.829 L66.0841 843.829 Q65.8909 850.56 65.8909 851.204 Q65.8909 851.719 66.0841 858.644 Z" fill="#000000" fill-rule="evenodd" fill-opacity="1" /><path clip-path="url(#clip790)" d="M49.5947 822.407 Q38.4515 822.407 29.466 818.252 Q25.6979 816.481 22.5418 814.001 Q19.3856 811.521 18.0007 809.879 Q16.6159 808.236 16.6159 807.785 Q16.6159 807.141 17.26 807.109 Q17.5821 807.109 18.3872 807.979 Q29.2084 818.607 49.5947 818.574 Q70.0454 818.574 80.4479 808.236 Q81.5751 807.109 81.9294 807.109 Q82.5735 807.109 82.5735 807.785 Q82.5735 808.236 81.2531 809.814 Q79.9326 811.393 76.9053 813.84 Q73.8779 816.288 70.1742 818.059 Q61.1888 822.407 49.5947 822.407 Z" fill="#000000" fill-rule="evenodd" fill-opacity="1" /><path clip-path="url(#clip790)" d="M33.1053 773.529 Q38.5159 773.529 44.6028 775.268 Q50.6575 776.975 55.5528 779.681 Q60.4159 782.386 63.6364 785.929 Q66.8248 789.471 66.8248 792.853 Q66.8248 795.011 65.6332 796.621 Q64.4094 798.199 62.3804 799.069 Q60.3192 799.938 58.0648 800.357 Q55.7782 800.776 53.2984 800.776 Q49.5947 800.776 45.569 799.97 Q41.511 799.165 37.8396 797.813 Q34.1359 796.46 30.7865 794.56 Q27.4049 792.66 24.9572 790.566 Q22.4774 788.441 21.0281 786.057 Q19.5788 783.674 19.5788 781.452 Q19.5788 779.842 20.2874 778.553 Q20.9637 777.233 22.1553 776.396 Q23.3147 775.558 24.6996 774.979 Q26.0844 774.367 27.6947 774.077 Q29.2728 773.787 30.5932 773.658 Q31.8815 773.529 33.1053 773.529 M29.0151 777.877 Q27.3726 777.877 26.1488 778.006 Q24.8928 778.135 23.6368 778.489 Q22.3807 778.843 21.7044 779.616 Q21.0281 780.357 21.0281 781.516 Q21.0281 784.898 27.9524 788.698 Q30.1101 789.922 33.0409 791.017 Q35.9716 792.112 37.3565 792.499 Q38.7413 792.885 42.1551 793.787 L42.1551 780.003 Q33.3629 777.877 29.0151 777.877 M44.2485 780.582 L44.2485 794.302 Q52.3 796.428 57.3241 796.428 Q61.7041 796.428 63.5398 795.526 Q65.3434 794.592 65.3434 792.853 Q65.3434 790.856 63.3466 788.988 Q61.3176 787.12 57.6462 785.22 Q52.8797 782.708 44.2485 780.582 Z" fill="#000000" fill-rule="evenodd" fill-opacity="1" /><path clip-path="url(#clip790)" d="M65.0213 769.219 Q63.9585 770.153 62.5737 770.153 Q61.1888 770.153 60.1582 769.251 Q59.0954 768.317 59.0954 766.643 Q59.0954 764.678 60.9956 763.551 Q62.8635 762.424 66.0197 762.424 Q69.4335 762.424 72.5897 763.808 Q75.7781 765.193 77.2917 766.546 Q78.8054 767.899 78.8054 768.446 Q78.8054 769.09 78.0969 769.09 Q77.8392 769.09 77.3561 768.639 Q72.2676 763.905 66.0197 763.873 Q65.0213 763.873 65.0213 764.002 L65.1501 764.163 Q66.0841 765.29 66.0841 766.643 Q66.0841 768.285 65.0213 769.219 Z" fill="#000000" fill-rule="evenodd" fill-opacity="1" /><path clip-path="url(#clip790)" d="M44.9893 741.608 Q35.2953 741.608 30.0135 739.16 Q22.1553 735.746 22.1553 727.695 Q22.1553 725.988 22.6384 724.217 Q23.0893 722.413 24.8606 720.159 Q26.6319 717.872 29.5304 716.487 Q35.1343 713.846 44.9893 713.846 Q54.6188 713.846 59.8684 716.294 Q67.5334 719.869 67.5334 727.759 Q67.5334 730.722 66.0197 733.75 Q64.506 736.745 60.8667 738.645 Q55.424 741.608 44.9893 741.608 M44.1841 736.133 Q54.1357 736.133 58.097 735.424 Q62.3804 734.619 64.2484 732.429 Q66.0841 730.207 66.0841 727.759 Q66.0841 725.118 64.1195 722.928 Q62.1228 720.706 57.8394 720.03 Q53.6204 719.289 44.1841 719.321 Q35.0054 719.321 31.334 719.966 Q27.0506 720.835 25.3437 723.154 Q23.6046 725.441 23.6046 727.759 Q23.6046 728.629 23.8622 729.563 Q24.1199 730.465 24.8606 731.785 Q25.6013 733.106 27.4371 734.136 Q29.2728 735.134 32.0425 735.618 Q35.6174 736.133 44.1841 736.133 Z" fill="#000000" fill-rule="evenodd" fill-opacity="1" /><path clip-path="url(#clip790)" d="M65.0213 707.945 Q63.9585 708.944 62.5737 708.944 Q61.1888 708.944 60.1904 707.945 Q59.1598 706.947 59.1598 705.433 Q59.1598 703.984 60.126 703.018 Q61.06 702.02 62.6059 702.02 Q64.1195 702.02 65.1179 703.082 Q66.0841 704.113 66.0841 705.433 Q66.0841 706.947 65.0213 707.945 Z" fill="#000000" fill-rule="evenodd" fill-opacity="1" /><path clip-path="url(#clip790)" d="M44.9893 690.794 Q35.2953 690.794 30.0135 688.346 Q22.1553 684.932 22.1553 676.881 Q22.1553 675.174 22.6384 673.402 Q23.0893 671.599 24.8606 669.344 Q26.6319 667.058 29.5304 665.673 Q35.1343 663.032 44.9893 663.032 Q54.6188 663.032 59.8684 665.48 Q67.5334 669.055 67.5334 676.945 Q67.5334 679.908 66.0197 682.935 Q64.506 685.93 60.8667 687.831 Q55.424 690.794 44.9893 690.794 M44.1841 685.319 Q54.1357 685.319 58.097 684.61 Q62.3804 683.805 64.2484 681.615 Q66.0841 679.393 66.0841 676.945 Q66.0841 674.304 64.1195 672.114 Q62.1228 669.892 57.8394 669.216 Q53.6204 668.475 44.1841 668.507 Q35.0054 668.507 31.334 669.151 Q27.0506 670.021 25.3437 672.34 Q23.6046 674.626 23.6046 676.945 Q23.6046 677.815 23.8622 678.749 Q24.1199 679.65 24.8606 680.971 Q25.6013 682.291 27.4371 683.322 Q29.2728 684.32 32.0425 684.803 Q35.6174 685.319 44.1841 685.319 Z" fill="#000000" fill-rule="evenodd" fill-opacity="1" /><path clip-path="url(#clip790)" d="M81.9294 656.546 Q81.6073 656.546 80.8022 655.708 Q69.981 645.08 49.5947 645.08 Q29.144 645.08 18.8059 655.289 Q17.6143 656.546 17.26 656.546 Q16.6159 656.546 16.6159 655.901 Q16.6159 655.451 17.9363 653.872 Q19.2568 652.262 22.2841 649.847 Q25.3115 647.399 29.0151 645.596 Q38.0006 641.248 49.5947 641.248 Q60.7379 641.248 69.7234 645.402 Q73.4914 647.174 76.6476 649.653 Q79.8038 652.133 81.1886 653.776 Q82.5735 655.418 82.5735 655.901 Q82.5735 656.546 81.9294 656.546 Z" fill="#000000" fill-rule="evenodd" fill-opacity="1" /><path clip-path="url(#clip790)" d="M1048.34 21.812 Q1048.34 24.0664 1046.91 25.4601 Q1045.52 26.8537 1043.75 26.8537 Q1042.48 26.8537 1041.54 26.0749 Q1040.64 25.2961 1040.64 23.9435 Q1040.64 22.5498 1041.7 21.0742 Q1042.77 19.5986 1045.19 19.3937 Q1043.59 17.8771 1041.05 17.8771 Q1039.78 17.8771 1038.71 18.6968 Q1037.69 19.4756 1037.11 20.7463 Q1036.5 22.058 1035.1 29.477 Q1034.65 31.8954 1034.24 34.2318 Q1033.83 36.5682 1033.34 39.0275 L1040.31 39.0275 Q1041.21 39.0275 1041.58 39.0685 Q1041.95 39.1095 1042.24 39.3145 Q1042.56 39.5194 1042.56 39.9703 Q1042.56 41.118 1042.03 41.4049 Q1041.54 41.6508 1040.06 41.6508 L1032.85 41.6508 L1027.81 68.2529 Q1027.69 69.0317 1027.15 71.491 Q1026.66 73.9094 1025.47 77.8854 Q1024.28 81.9023 1023.09 84.2797 Q1022.44 85.6323 1021.58 86.903 Q1020.76 88.2147 1019.57 89.5263 Q1018.38 90.838 1016.82 91.6168 Q1015.27 92.4366 1013.63 92.4366 Q1010.84 92.4366 1008.67 90.879 Q1006.49 89.3214 1006.49 86.6571 Q1006.49 84.4027 1007.89 83.009 Q1009.32 81.6154 1011.08 81.6154 Q1012.36 81.6154 1013.26 82.3942 Q1014.2 83.173 1014.2 84.5256 Q1014.2 85.0995 1014 85.7553 Q1013.79 86.4111 1013.34 87.1489 Q1012.89 87.9277 1011.9 88.4606 Q1010.92 88.9935 1009.57 89.0754 Q1011.17 90.592 1013.63 90.592 Q1014.41 90.592 1015.1 90.2641 Q1015.8 89.9772 1016.37 89.2394 Q1016.99 88.5016 1017.44 87.7638 Q1017.89 87.067 1018.34 85.7143 Q1018.79 84.4027 1019.08 83.4189 Q1019.36 82.4352 1019.73 80.6726 Q1020.14 78.9101 1020.35 77.8444 Q1020.55 76.8196 1020.92 74.8112 L1027.19 41.6508 L1021.66 41.6508 Q1020.68 41.6508 1020.27 41.6099 Q1019.9 41.5689 1019.61 41.3639 Q1019.32 41.118 1019.32 40.6261 Q1019.32 39.8473 1019.65 39.5194 Q1020.02 39.1505 1020.43 39.1095 Q1020.84 39.0275 1021.82 39.0275 L1027.64 39.0275 Q1029.61 28.6572 1030.39 25.87 Q1031.29 22.9187 1032.69 20.8693 Q1034.08 18.7788 1035.64 17.7951 Q1037.2 16.8113 1038.47 16.4424 Q1039.78 16.0325 1041.05 16.0325 Q1043.92 16.0325 1046.13 17.5901 Q1048.34 19.1067 1048.34 21.812 Z" fill="#000000" fill-rule="evenodd" fill-opacity="1" /><path clip-path="url(#clip790)" d="M1059.64 54.2346 Q1059.64 40.0523 1064.93 28.6163 Q1067.19 23.8205 1070.34 19.8036 Q1073.5 15.7866 1075.59 14.0241 Q1077.68 12.2615 1078.25 12.2615 Q1079.07 12.2615 1079.11 13.0813 Q1079.11 13.4912 1078.01 14.5159 Q1064.48 28.2883 1064.52 54.2346 Q1064.52 80.2627 1077.68 93.5023 Q1079.11 94.9369 1079.11 95.3878 Q1079.11 96.2076 1078.25 96.2076 Q1077.68 96.2076 1075.67 94.527 Q1073.66 92.8465 1070.55 88.9935 Q1067.43 85.1405 1065.18 80.4267 Q1059.64 68.9907 1059.64 54.2346 Z" fill="#000000" fill-rule="evenodd" fill-opacity="1" /><path clip-path="url(#clip790)" d="M1121.85 33.248 Q1121.85 40.1342 1119.64 47.8812 Q1117.46 55.5872 1114.02 61.8176 Q1110.58 68.0069 1106.07 72.1059 Q1101.56 76.1638 1097.26 76.1638 Q1094.51 76.1638 1092.46 74.6472 Q1090.45 73.0896 1089.35 70.5073 Q1088.24 67.884 1087.71 65.0147 Q1087.17 62.1045 1087.17 58.9483 Q1087.17 54.2346 1088.2 49.1109 Q1089.22 43.9462 1090.94 39.2735 Q1092.67 34.5597 1095.08 30.2968 Q1097.5 25.9929 1100.17 22.8778 Q1102.87 19.7216 1105.91 17.8771 Q1108.94 16.0325 1111.77 16.0325 Q1113.82 16.0325 1115.46 16.9343 Q1117.14 17.7951 1118.2 19.3117 Q1119.27 20.7873 1120.01 22.5498 Q1120.78 24.3124 1121.15 26.3618 Q1121.52 28.3703 1121.69 30.0509 Q1121.85 31.6904 1121.85 33.248 M1116.32 28.0424 Q1116.32 25.952 1116.15 24.3944 Q1115.99 22.7958 1115.54 21.1972 Q1115.09 19.5986 1114.1 18.7378 Q1113.16 17.8771 1111.68 17.8771 Q1107.38 17.8771 1102.54 26.6898 Q1100.99 29.436 1099.59 33.1661 Q1098.2 36.8961 1097.71 38.6586 Q1097.22 40.4212 1096.07 44.766 L1113.61 44.766 Q1116.32 33.576 1116.32 28.0424 M1112.87 47.4303 L1095.41 47.4303 Q1092.71 57.6777 1092.71 64.072 Q1092.71 69.6465 1093.85 71.9829 Q1095.04 74.2783 1097.26 74.2783 Q1099.8 74.2783 1102.18 71.737 Q1104.55 69.1546 1106.97 64.4819 Q1110.17 58.4155 1112.87 47.4303 Z" fill="#000000" fill-rule="evenodd" fill-opacity="1" /><path clip-path="url(#clip790)" d="M1130.51 95.3878 Q1130.51 94.9779 1131.58 93.9532 Q1145.11 80.1808 1145.11 54.2346 Q1145.11 28.2064 1132.11 15.0488 Q1130.51 13.5322 1130.51 13.0813 Q1130.51 12.2615 1131.33 12.2615 Q1131.91 12.2615 1133.92 13.9421 Q1135.96 15.6227 1139.04 19.4756 Q1142.15 23.3286 1144.45 28.0424 Q1149.98 39.4784 1149.98 54.2346 Q1149.98 68.4168 1144.7 79.8529 Q1142.44 84.6486 1139.29 88.6655 Q1136.13 92.6825 1134.04 94.445 Q1131.95 96.2076 1131.33 96.2076 Q1130.51 96.2076 1130.51 95.3878 Z" fill="#000000" fill-rule="evenodd" fill-opacity="1" /><path clip-path="url(#clip790)" d="M1186.04 62.4734 Q1186.12 61.4487 1187.72 61.4487 L1239.16 61.4487 Q1241.58 61.4487 1241.62 62.3914 Q1241.62 63.4162 1239.32 63.3752 L1188.29 63.3752 Q1186.04 63.4162 1186.04 62.4734 M1186.04 46.0777 Q1186.04 45.053 1187.8 45.0939 L1239.08 45.0939 Q1241.58 45.0939 1241.62 46.0777 Q1241.62 47.0204 1239.49 47.0204 L1187.72 47.0204 Q1186.04 47.0204 1186.04 46.0777 Z" fill="#000000" fill-rule="evenodd" fill-opacity="1" /><path clip-path="url(#clip790)" d="M1274 74.1144 L1274 63.0472 Q1274 62.1045 1274.04 61.7766 Q1274.08 61.4487 1274.32 61.2027 Q1274.57 60.9568 1275.06 60.9568 Q1275.64 60.9568 1275.84 61.2027 Q1276.09 61.4487 1276.25 62.3914 Q1277.52 68.1709 1280.23 71.2451 Q1282.97 74.2783 1287.93 74.2783 Q1292.65 74.2783 1295.02 72.1879 Q1297.4 70.0974 1297.4 66.6543 Q1297.4 60.5059 1288.67 58.9483 Q1283.63 57.9236 1281.54 57.2678 Q1279.45 56.5709 1277.6 55.0543 Q1274 52.1031 1274 47.9222 Q1274 43.7413 1277.15 40.6671 Q1280.35 37.5929 1287.4 37.5929 Q1292.11 37.5929 1295.31 39.9703 Q1296.25 39.2325 1296.75 38.6176 Q1297.85 37.5929 1298.43 37.5929 Q1299.08 37.5929 1299.21 38.0438 Q1299.33 38.4537 1299.33 39.6424 L1299.33 48.0862 Q1299.33 49.0289 1299.29 49.3568 Q1299.25 49.6847 1299 49.9307 Q1298.75 50.1356 1298.22 50.1356 Q1297.28 50.1356 1297.24 49.3568 Q1296.58 39.1915 1287.4 39.1915 Q1282.44 39.1915 1280.23 41.118 Q1278.01 43.0035 1278.01 45.5858 Q1278.01 47.0204 1278.67 48.1271 Q1279.37 49.1929 1280.23 49.8487 Q1281.13 50.4635 1282.77 51.0784 Q1284.41 51.6522 1285.39 51.8572 Q1286.42 52.0621 1288.34 52.472 Q1295.07 53.7427 1297.89 56.489 Q1301.42 60.014 1301.42 64.4819 Q1301.42 69.4416 1298.06 72.8027 Q1294.7 76.1638 1287.93 76.1638 Q1282.48 76.1638 1278.67 72.5158 Q1278.18 73.0076 1277.81 73.4585 Q1277.44 73.8684 1277.28 74.0324 Q1277.15 74.1963 1277.11 74.3193 Q1277.07 74.4013 1276.99 74.4833 Q1275.31 76.1638 1274.9 76.1638 Q1274.24 76.1638 1274.12 75.7129 Q1274 75.303 1274 74.1144 Z" fill="#000000" fill-rule="evenodd" fill-opacity="1" /><path clip-path="url(#clip790)" d="M1311.91 70.7122 Q1306.38 65.2197 1306.38 57.2678 Q1306.38 49.2748 1311.79 43.4544 Q1317.24 37.5929 1325.03 37.5929 Q1332.66 37.5929 1338.11 43.4134 Q1343.6 49.1929 1343.6 57.2678 Q1343.6 65.1787 1338.07 70.6713 Q1332.57 76.1638 1324.95 76.1638 Q1317.49 76.1638 1311.91 70.7122 M1313.35 56.5709 Q1313.35 64.7278 1315.48 68.4168 Q1318.76 74.0324 1325.03 74.0324 Q1328.15 74.0324 1330.73 72.3518 Q1333.35 70.6713 1334.79 67.843 Q1336.63 64.154 1336.63 56.5709 Q1336.63 48.4961 1334.42 44.93 Q1331.14 39.4784 1324.95 39.4784 Q1322.24 39.4784 1319.58 40.913 Q1316.96 42.3067 1315.36 45.0939 Q1313.35 48.783 1313.35 56.5709 Z" fill="#000000" fill-rule="evenodd" fill-opacity="1" /><path clip-path="url(#clip790)" d="M1346.27 75.2211 L1346.27 72.6387 Q1350.74 72.6387 1351.76 72.1059 Q1352.79 71.532 1352.79 68.8267 L1352.79 46.3236 Q1352.79 43.2084 1351.68 42.4296 Q1350.62 41.6508 1346.27 41.6508 L1346.27 39.0275 L1358.08 38.1258 L1358.08 46.9385 Q1362.01 38.1258 1370.5 38.1258 Q1376.81 38.1258 1379.31 41.241 Q1381.15 43.3314 1381.52 45.6678 Q1381.93 48.0042 1381.93 54.0706 L1381.93 70.0974 Q1382.01 71.8599 1383.37 72.2698 Q1384.72 72.6387 1388.49 72.6387 L1388.49 75.2211 Q1379.92 74.9751 1379.06 74.9751 Q1378.41 74.9751 1369.59 75.2211 L1369.59 72.6387 Q1374.06 72.6387 1375.09 72.1059 Q1376.15 71.532 1376.15 68.8267 L1376.15 49.2748 Q1376.15 45.012 1374.84 42.5116 Q1373.53 39.9703 1369.92 39.9703 Q1365.58 39.9703 1362.09 43.6183 Q1358.61 47.2664 1358.61 53.4148 L1358.61 68.8267 Q1358.61 71.532 1359.63 72.1059 Q1360.7 72.6387 1365.13 72.6387 L1365.13 75.2211 Q1356.56 74.9751 1355.74 74.9751 Q1355.08 74.9751 1346.27 75.2211 Z" fill="#000000" fill-rule="evenodd" fill-opacity="1" /><path clip-path="url(#clip790)" d="M1392.39 54.2346 Q1392.39 40.0523 1397.68 28.6163 Q1399.93 23.8205 1403.09 19.8036 Q1406.24 15.7866 1408.33 14.0241 Q1410.42 12.2615 1411 12.2615 Q1411.82 12.2615 1411.86 13.0813 Q1411.86 13.4912 1410.75 14.5159 Q1397.23 28.2883 1397.27 54.2346 Q1397.27 80.2627 1410.42 93.5023 Q1411.86 94.9369 1411.86 95.3878 Q1411.86 96.2076 1411 96.2076 Q1410.42 96.2076 1408.42 94.527 Q1406.41 92.8465 1403.29 88.9935 Q1400.18 85.1405 1397.92 80.4267 Q1392.39 68.9907 1392.39 54.2346 Z" fill="#000000" fill-rule="evenodd" fill-opacity="1" /><path clip-path="url(#clip790)" d="M1454.59 33.248 Q1454.59 40.1342 1452.38 47.8812 Q1450.21 55.5872 1446.77 61.8176 Q1443.32 68.0069 1438.81 72.1059 Q1434.31 76.1638 1430 76.1638 Q1427.26 76.1638 1425.21 74.6472 Q1423.2 73.0896 1422.09 70.5073 Q1420.98 67.884 1420.45 65.0147 Q1419.92 62.1045 1419.92 58.9483 Q1419.92 54.2346 1420.94 49.1109 Q1421.97 43.9462 1423.69 39.2735 Q1425.41 34.5597 1427.83 30.2968 Q1430.25 25.9929 1432.91 22.8778 Q1435.62 19.7216 1438.65 17.8771 Q1441.68 16.0325 1444.51 16.0325 Q1446.56 16.0325 1448.2 16.9343 Q1449.88 17.7951 1450.95 19.3117 Q1452.01 20.7873 1452.75 22.5498 Q1453.53 24.3124 1453.9 26.3618 Q1454.27 28.3703 1454.43 30.0509 Q1454.59 31.6904 1454.59 33.248 M1449.06 28.0424 Q1449.06 25.952 1448.9 24.3944 Q1448.73 22.7958 1448.28 21.1972 Q1447.83 19.5986 1446.85 18.7378 Q1445.91 17.8771 1444.43 17.8771 Q1440.13 17.8771 1435.29 26.6898 Q1433.73 29.436 1432.34 33.1661 Q1430.94 36.8961 1430.45 38.6586 Q1429.96 40.4212 1428.81 44.766 L1446.36 44.766 Q1449.06 33.576 1449.06 28.0424 M1445.62 47.4303 L1428.16 47.4303 Q1425.45 57.6777 1425.45 64.072 Q1425.45 69.6465 1426.6 71.9829 Q1427.79 74.2783 1430 74.2783 Q1432.54 74.2783 1434.92 71.737 Q1437.3 69.1546 1439.72 64.4819 Q1442.91 58.4155 1445.62 47.4303 Z" fill="#000000" fill-rule="evenodd" fill-opacity="1" /><path clip-path="url(#clip790)" d="M1460.08 73.8684 Q1458.89 72.5158 1458.89 70.7532 Q1458.89 68.9907 1460.04 67.679 Q1461.23 66.3264 1463.36 66.3264 Q1465.86 66.3264 1467.29 68.7448 Q1468.73 71.1221 1468.73 75.1391 Q1468.73 79.4839 1466.97 83.5009 Q1465.2 87.5588 1463.48 89.4853 Q1461.76 91.4118 1461.06 91.4118 Q1460.24 91.4118 1460.24 90.5101 Q1460.24 90.1821 1460.82 89.5673 Q1466.84 83.091 1466.88 75.1391 Q1466.88 73.8684 1466.72 73.8684 L1466.51 74.0324 Q1465.08 75.2211 1463.36 75.2211 Q1461.27 75.2211 1460.08 73.8684 Z" fill="#000000" fill-rule="evenodd" fill-opacity="1" /><path clip-path="url(#clip790)" d="M1564 63.2112 Q1564 63.5391 1563.63 64.8098 Q1563.26 66.0805 1562.36 68.0479 Q1561.5 70.0154 1560.27 71.819 Q1559.08 73.5815 1557.11 74.8931 Q1555.18 76.1638 1552.97 76.1638 Q1550.02 76.1638 1548.05 74.1963 Q1546.08 72.2288 1546.08 69.2776 Q1546.08 67.679 1547.19 64.6458 Q1552.4 50.7915 1552.4 45.8318 Q1552.4 39.9703 1547.85 39.9703 Q1545.26 39.9703 1542.93 41.036 Q1540.59 42.1017 1539.08 43.5773 Q1537.56 45.053 1536.37 46.7335 Q1535.18 48.4141 1534.65 49.5208 Q1534.16 50.6275 1534.03 51.1194 L1528.99 71.3681 Q1528.58 73.0896 1528.3 73.9094 Q1528.01 74.7292 1527.23 75.426 Q1526.45 76.1638 1525.22 76.1638 Q1524.2 76.1638 1523.46 75.549 Q1522.76 74.9341 1522.76 73.8684 Q1522.76 73.7045 1522.97 72.8437 Q1523.17 71.9829 1523.46 70.7942 Q1523.75 69.6055 1523.87 68.9087 Q1525.34 63.3342 1525.55 62.5554 L1527.89 52.7999 Q1529.16 47.9632 1529.16 45.8318 Q1529.16 39.9703 1524.61 39.9703 Q1522.35 39.9703 1520.22 40.8311 Q1518.13 41.6508 1516.7 42.7985 Q1515.26 43.9462 1513.95 45.5448 Q1512.68 47.1024 1512.02 48.1681 Q1511.41 49.1929 1510.92 50.2176 L1509.85 54.3985 Q1509.6 55.5462 1508.42 60.014 L1506.57 67.5971 Q1505.26 73.2536 1504.97 73.7864 Q1504.56 74.9341 1503.66 75.549 Q1502.76 76.1638 1501.86 76.1638 Q1500.83 76.1638 1500.14 75.549 Q1499.44 74.9341 1499.44 73.8684 Q1499.44 73.7045 1499.56 73.0896 Q1499.68 72.4748 1499.89 71.614 Q1500.09 70.7532 1500.18 70.2614 L1505.05 50.8734 Q1505.96 47.3484 1506.16 46.2416 Q1506.41 45.0939 1506.41 43.8233 Q1506.41 39.9703 1503.78 39.9703 Q1501.65 39.9703 1500.26 42.5116 Q1498.86 45.053 1497.68 49.9717 Q1497.31 51.3243 1497.06 51.6112 Q1496.86 51.8982 1496.24 51.8982 Q1495.22 51.8572 1495.22 51.0374 Q1495.22 50.8324 1495.54 49.5208 Q1495.87 48.2091 1496.49 46.2416 Q1497.14 44.2332 1497.84 42.9215 Q1498.25 42.0607 1498.62 41.4869 Q1498.99 40.913 1499.73 40.0113 Q1500.46 39.1095 1501.57 38.6176 Q1502.68 38.1258 1504.03 38.1258 Q1507.02 38.1258 1509.24 40.0523 Q1511.49 41.9788 1511.78 45.4219 Q1517.23 38.1258 1524.85 38.1258 Q1529.16 38.1258 1531.74 40.2982 Q1534.16 42.3887 1534.44 46.2416 Q1540.1 38.1258 1548.13 38.1258 Q1552.77 38.1258 1555.27 40.5441 Q1557.77 42.9215 1557.77 47.1024 Q1557.77 49.2748 1556.66 53.4148 Q1555.55 57.5137 1554.82 59.5632 Q1554.08 61.6126 1552.64 65.5476 Q1551.13 69.3186 1551.13 71.532 Q1551.13 72.9667 1551.62 73.6225 Q1552.11 74.2783 1553.18 74.2783 Q1554.82 74.2783 1556.25 73.3356 Q1557.68 72.3518 1558.71 70.7532 Q1559.78 69.1137 1560.47 67.4741 Q1561.17 65.7935 1561.7 63.908 Q1562.03 62.8833 1562.19 62.6374 Q1562.4 62.3914 1562.97 62.3914 Q1564 62.3914 1564 63.2112 Z" fill="#000000" fill-rule="evenodd" fill-opacity="1" /><path clip-path="url(#clip790)" d="M1571.23 95.3878 Q1571.23 94.9779 1572.3 93.9532 Q1585.82 80.1808 1585.82 54.2346 Q1585.82 28.2064 1572.83 15.0488 Q1571.23 13.5322 1571.23 13.0813 Q1571.23 12.2615 1572.05 12.2615 Q1572.63 12.2615 1574.63 13.9421 Q1576.68 15.6227 1579.76 19.4756 Q1582.87 23.3286 1585.17 28.0424 Q1590.7 39.4784 1590.7 54.2346 Q1590.7 68.4168 1585.41 79.8529 Q1583.16 84.6486 1580 88.6655 Q1576.85 92.6825 1574.76 94.445 Q1572.67 96.2076 1572.05 96.2076 Q1571.23 96.2076 1571.23 95.3878 Z" fill="#000000" fill-rule="evenodd" fill-opacity="1" /><polyline clip-path="url(#clip792)" style="stroke:#009af9; stroke-linecap:round; stroke-linejoin:round; stroke-width:4; stroke-opacity:1; fill:none" points="316.512,1386.4 319.66,1386.37 322.808,1386.28 325.956,1386.13 329.104,1385.92 332.252,1385.64 335.4,1385.31 338.548,1384.91 341.696,1384.45 344.844,1383.93 347.992,1383.36 351.14,1382.71 354.288,1382.01 357.436,1381.25 360.584,1380.43 363.732,1379.54 366.88,1378.6 370.028,1377.59 373.176,1376.52 376.324,1375.4 379.472,1374.21 382.62,1372.96 385.768,1371.66 388.916,1370.29 392.064,1368.86 395.212,1367.38 398.36,1365.83 401.508,1364.23 404.656,1362.56 407.804,1360.84 410.952,1359.06 414.1,1357.22 417.248,1355.32 420.396,1353.36 423.544,1351.35 426.692,1349.27 429.84,1347.14 432.988,1344.96 436.136,1342.71 439.284,1340.41 442.432,1338.05 445.58,1335.64 448.728,1333.16 451.876,1330.64 455.024,1328.05 458.172,1325.41 461.319,1322.72 464.467,1319.97 467.615,1317.17 470.763,1314.31 473.911,1311.4 477.059,1308.43 480.207,1305.41 483.355,1302.34 486.503,1299.21 489.651,1296.04 492.799,1292.81 495.947,1289.52 499.095,1286.19 502.243,1282.8 505.391,1279.37 508.539,1275.88 511.687,1272.34 514.835,1268.76 517.983,1265.12 521.131,1261.43 524.279,1257.7 527.427,1253.92 530.575,1250.08 533.723,1246.21 536.871,1242.28 540.019,1238.31 543.167,1234.29 546.315,1230.22 549.463,1226.11 552.611,1221.95 555.759,1217.75 558.907,1213.51 562.055,1209.22 565.203,1204.88 568.351,1200.51 571.499,1196.09 574.647,1191.63 577.795,1187.12 580.943,1182.58 584.091,1177.99 587.239,1173.37 590.387,1168.7 593.535,1163.99 596.683,1159.25 599.831,1154.47 602.979,1149.64 606.127,1144.78 609.275,1139.89 612.423,1134.96 615.571,1129.99 618.719,1124.98 621.867,1119.94 625.015,1114.87 628.163,1109.76 631.311,1104.62 634.459,1099.44 637.607,1094.23 640.755,1088.99 643.903,1083.72 647.051,1078.42 650.199,1073.08 653.347,1067.72 656.495,1062.33 659.643,1056.91 662.791,1051.46 665.939,1045.98 669.087,1040.47 672.235,1034.94 675.383,1029.38 678.531,1023.8 681.679,1018.19 684.827,1012.56 687.975,1006.9 691.123,1001.22 694.271,995.518 697.419,989.793 700.566,984.046 703.714,978.278 706.862,972.489 710.01,966.681 713.158,960.853 716.306,955.006 719.454,949.142 722.602,943.259 725.75,937.36 728.898,931.444 732.046,925.513 735.194,919.566 738.342,913.605 741.49,907.63 744.638,901.641 747.786,895.639 750.934,889.625 754.082,883.6 757.23,877.563 760.378,871.516 763.526,865.46 766.674,859.394 769.822,853.319 772.97,847.237 776.118,841.147 779.266,835.05 782.414,828.947 785.562,822.839 788.71,816.725 791.858,810.608 795.006,804.486 798.154,798.362 801.302,792.235 804.45,786.106 807.598,779.975 810.746,773.845 813.894,767.714 817.042,761.583 820.19,755.454 823.338,749.327 826.486,743.202 829.634,737.08 832.782,730.961 835.93,724.847 839.078,718.738 842.226,712.634 845.374,706.537 848.522,700.445 851.67,694.362 854.818,688.286 857.966,682.219 861.114,676.16 864.262,670.112 867.41,664.074 870.558,658.046 873.706,652.031 876.854,646.027 880.002,640.036 883.15,634.059 886.298,628.095 889.446,622.146 892.594,616.212 895.742,610.294 898.89,604.392 902.038,598.507 905.186,592.639 908.334,586.79 911.482,580.959 914.63,575.147 917.778,569.356 920.926,563.584 924.074,557.834 927.222,552.105 930.37,546.398 933.518,540.714 936.666,535.053 939.813,529.417 942.961,523.804 946.109,518.216 949.257,512.654 952.405,507.118 955.553,501.609 958.701,496.127 961.849,490.672 964.997,485.246 968.145,479.849 971.293,474.481 974.441,469.143 977.589,463.835 980.737,458.558 983.885,453.313 987.033,448.099 990.181,442.919 993.329,437.771 996.477,432.657 999.625,427.577 1002.77,422.531 1005.92,417.521 1009.07,412.546 1012.22,407.607 1015.37,402.705 1018.51,397.84 1021.66,393.012 1024.81,388.223 1027.96,383.472 1031.11,378.76 1034.25,374.087 1037.4,369.454 1040.55,364.862 1043.7,360.311 1046.85,355.8 1049.99,351.332 1053.14,346.906 1056.29,342.522 1059.44,338.182 1062.58,333.885 1065.73,329.632 1068.88,325.423 1072.03,321.26 1075.18,317.141 1078.32,313.068 1081.47,309.041 1084.62,305.061 1087.77,301.127 1090.92,297.24 1094.06,293.402 1097.21,289.611 1100.36,285.868 1103.51,282.175 1106.66,278.53 1109.8,274.935 1112.95,271.39 1116.1,267.894 1119.25,264.45 1122.4,261.056 1125.54,257.714 1128.69,254.423 1131.84,251.184 1134.99,247.997 1138.14,244.863 1141.28,241.782 1144.43,238.753 1147.58,235.779 1150.73,232.858 1153.88,229.991 1157.02,227.178 1160.17,224.42 1163.32,221.717 1166.47,219.069 1169.62,216.476 1172.76,213.94 1175.91,211.459 1179.06,209.034 1182.21,206.666 1185.36,204.354 1188.5,202.1 1191.65,199.902 1194.8,197.762 1197.95,195.679 1201.1,193.654 1204.24,191.687 1207.39,189.778 1210.54,187.928 1213.69,186.136 1216.84,184.403 1219.98,182.729 1223.13,181.114 1226.28,179.558 1229.43,178.061 1232.58,176.624 1235.72,175.247 1238.87,173.929 1242.02,172.671 1245.17,171.474 1248.32,170.337 1251.46,169.259 1254.61,168.243 1257.76,167.287 1260.91,166.391 1264.06,165.556 1267.2,164.782 1270.35,164.069 1273.5,163.417 1276.65,162.825 1279.8,162.295 1282.94,161.826 1286.09,161.418 1289.24,161.071 1292.39,160.786 1295.54,160.561 1298.68,160.398 1301.83,160.297 1304.98,160.256 1308.13,160.277 1311.28,160.359 1314.42,160.503 1317.57,160.708 1320.72,160.974 1323.87,161.301 1327.02,161.689 1330.16,162.139 1333.31,162.65 1336.46,163.222 1339.61,163.855 1342.76,164.548 1345.9,165.303 1349.05,166.119 1352.2,166.995 1355.35,167.932 1358.5,168.929 1361.64,169.987 1364.79,171.105 1367.94,172.283 1371.09,173.522 1374.24,174.82 1377.38,176.179 1380.53,177.597 1383.68,179.075 1386.83,180.612 1389.98,182.208 1393.12,183.863 1396.27,185.578 1399.42,187.351 1402.57,189.183 1405.72,191.073 1408.86,193.021 1412.01,195.028 1415.16,197.092 1418.31,199.214 1421.46,201.393 1424.6,203.63 1427.75,205.923 1430.9,208.274 1434.05,210.68 1437.2,213.143 1440.34,215.662 1443.49,218.237 1446.64,220.867 1449.79,223.553 1452.94,226.294 1456.08,229.089 1459.23,231.938 1462.38,234.842 1465.53,237.8 1468.68,240.811 1471.82,243.876 1474.97,246.993 1478.12,250.163 1481.27,253.386 1484.42,256.66 1487.56,259.986 1490.71,263.363 1493.86,266.792 1497.01,270.271 1500.16,273.8 1503.3,277.379 1506.45,281.008 1509.6,284.686 1512.75,288.413 1515.9,292.189 1519.04,296.013 1522.19,299.884 1525.34,303.803 1528.49,307.768 1531.64,311.78 1534.78,315.839 1537.93,319.943 1541.08,324.092 1544.23,328.287 1547.37,332.526 1550.52,336.809 1553.67,341.135 1556.82,345.505 1559.97,349.918 1563.11,354.373 1566.26,358.869 1569.41,363.408 1572.56,367.987 1575.71,372.607 1578.85,377.267 1582,381.966 1585.15,386.705 1588.3,391.482 1591.45,396.298 1594.59,401.151 1597.74,406.042 1600.89,410.969 1604.04,415.932 1607.19,420.931 1610.33,425.966 1613.48,431.035 1616.63,436.138 1619.78,441.275 1622.93,446.446 1626.07,451.649 1629.22,456.884 1632.37,462.151 1635.52,467.449 1638.67,472.777 1641.81,478.136 1644.96,483.524 1648.11,488.941 1651.26,494.386 1654.41,499.86 1657.55,505.361 1660.7,510.888 1663.85,516.442 1667,522.021 1670.15,527.626 1673.29,533.255 1676.44,538.909 1679.59,544.585 1682.74,550.285 1685.89,556.007 1689.03,561.75 1692.18,567.515 1695.33,573.3 1698.48,579.106 1701.63,584.93 1704.77,590.774 1707.92,596.636 1711.07,602.515 1714.22,608.412 1717.37,614.325 1720.51,620.254 1723.66,626.198 1726.81,632.157 1729.96,638.131 1733.11,644.117 1736.25,650.117 1739.4,656.129 1742.55,662.153 1745.7,668.187 1748.85,674.233 1751.99,680.288 1755.14,686.352 1758.29,692.425 1761.44,698.507 1764.59,704.596 1767.73,710.691 1770.88,716.793 1774.03,722.901 1777.18,729.013 1780.33,735.13 1783.47,741.251 1786.62,747.375 1789.77,753.502 1792.92,759.631 1796.07,765.761 1799.21,771.892 1802.36,778.023 1805.51,784.153 1808.66,790.283 1811.81,796.41 1814.95,802.536 1818.1,808.658 1821.25,814.777 1824.4,820.892 1827.55,827.002 1830.69,833.107 1833.84,839.206 1836.99,845.298 1840.14,851.383 1843.29,857.46 1846.43,863.529 1849.58,869.588 1852.73,875.638 1855.88,881.678 1859.03,887.707 1862.17,893.725 1865.32,899.73 1868.47,905.723 1871.62,911.703 1874.77,917.669 1877.91,923.62 1881.06,929.557 1884.21,935.478 1887.36,941.382 1890.51,947.27 1893.65,953.14 1896.8,958.993 1899.95,964.826 1903.1,970.641 1906.25,976.436 1909.39,982.211 1912.54,987.965 1915.69,993.697 1918.84,999.407 1921.99,1005.09 1925.13,1010.76 1928.28,1016.4 1931.43,1022.02 1934.58,1027.61 1937.73,1033.17 1940.87,1038.71 1944.02,1044.23 1947.17,1049.71 1950.32,1055.17 1953.47,1060.6 1956.61,1066.01 1959.76,1071.38 1962.91,1076.72 1966.06,1082.03 1969.21,1087.32 1972.35,1092.57 1975.5,1097.78 1978.65,1102.97 1981.8,1108.12 1984.95,1113.24 1988.09,1118.33 1991.24,1123.38 1994.39,1128.4 1997.54,1133.38 2000.69,1138.32 2003.83,1143.23 2006.98,1148.1 2010.13,1152.93 2013.28,1157.73 2016.42,1162.49 2019.57,1167.2 2022.72,1171.88 2025.87,1176.52 2029.02,1181.12 2032.16,1185.68 2035.31,1190.2 2038.46,1194.67 2041.61,1199.1 2044.76,1203.49 2047.9,1207.84 2051.05,1212.15 2054.2,1216.41 2057.35,1220.62 2060.5,1224.79 2063.64,1228.92 2066.79,1233 2069.94,1237.03 2073.09,1241.02 2076.24,1244.96 2079.38,1248.85 2082.53,1252.7 2085.68,1256.5 2088.83,1260.25 2091.98,1263.95 2095.12,1267.6 2098.27,1271.21 2101.42,1274.76 2104.57,1278.26 2107.72,1281.71 2110.86,1285.12 2114.01,1288.47 2117.16,1291.77 2120.31,1295.01 2123.46,1298.21 2126.6,1301.35 2129.75,1304.44 2132.9,1307.48 2136.05,1310.46 2139.2,1313.39 2142.34,1316.26 2145.49,1319.08 2148.64,1321.85 2151.79,1324.56 2154.94,1327.22 2158.08,1329.82 2161.23,1332.36 2164.38,1334.85 2167.53,1337.29 2170.68,1339.66 2173.82,1341.98 2176.97,1344.25 2180.12,1346.45 2183.27,1348.6 2186.42,1350.69 2189.56,1352.73 2192.71,1354.7 2195.86,1356.62 2199.01,1358.48 2202.16,1360.28 2205.3,1362.02 2208.45,1363.7 2211.6,1365.33 2214.75,1366.89 2217.9,1368.4 2221.04,1369.84 2224.19,1371.23 2227.34,1372.55 2230.49,1373.82 2233.64,1375.03 2236.78,1376.17 2239.93,1377.26 2243.08,1378.28 2246.23,1379.25 2249.38,1380.15 2252.52,1380.99 2255.67,1381.78 2258.82,1382.5 2261.97,1383.16 2265.12,1383.76 2268.26,1384.29 2271.41,1384.77 2274.56,1385.19 2277.71,1385.54 2280.86,1385.83 2284,1386.07 2287.15,1386.24 2290.3,1386.35 2293.45,1386.39 "/>
<polyline clip-path="url(#clip792)" style="stroke:#e26f46; stroke-linecap:round; stroke-linejoin:round; stroke-width:4; stroke-opacity:1; fill:none" points="316.512,773.356 319.66,773.356 322.808,773.356 325.956,773.356 329.104,773.356 332.252,773.356 335.4,773.356 338.548,773.356 341.696,773.356 344.844,773.356 347.992,773.356 351.14,773.356 354.288,773.356 357.436,773.356 360.584,773.356 363.732,773.356 366.88,773.356 370.028,773.356 373.176,773.356 376.324,773.356 379.472,773.356 382.62,773.356 385.768,773.356 388.916,773.356 392.064,773.356 395.212,773.356 398.36,773.356 401.508,773.356 404.656,773.356 407.804,773.356 410.952,773.356 414.1,773.356 417.248,773.356 420.396,773.356 423.544,773.356 426.692,773.356 429.84,773.356 432.988,773.356 436.136,773.356 439.284,773.356 442.432,773.356 445.58,773.356 448.728,773.356 451.876,773.356 455.024,773.356 458.172,773.356 461.319,773.356 464.467,773.356 467.615,773.356 470.763,773.356 473.911,773.356 477.059,773.356 480.207,773.356 483.355,773.356 486.503,773.356 489.651,773.356 492.799,773.356 495.947,773.356 499.095,773.356 502.243,773.356 505.391,773.356 508.539,773.356 511.687,773.356 514.835,773.356 517.983,773.356 521.131,773.356 524.279,773.356 527.427,773.356 530.575,773.356 533.723,773.356 536.871,773.356 540.019,773.356 543.167,773.356 546.315,773.356 549.463,773.356 552.611,773.356 555.759,773.356 558.907,773.356 562.055,773.356 565.203,773.356 568.351,773.356 571.499,773.356 574.647,773.356 577.795,773.356 580.943,773.356 584.091,773.356 587.239,773.356 590.387,773.356 593.535,773.356 596.683,773.356 599.831,773.356 602.979,773.356 606.127,773.356 609.275,773.356 612.423,773.356 615.571,773.356 618.719,773.356 621.867,773.356 625.015,773.356 628.163,773.356 631.311,773.356 634.459,773.356 637.607,773.356 640.755,773.356 643.903,773.356 647.051,773.356 650.199,773.356 653.347,773.356 656.495,773.356 659.643,773.356 662.791,773.356 665.939,773.356 669.087,773.356 672.235,773.356 675.383,773.356 678.531,773.356 681.679,773.356 684.827,773.356 687.975,773.356 691.123,773.356 694.271,773.356 697.419,773.356 700.566,773.356 703.714,773.356 706.862,773.356 710.01,773.356 713.158,773.356 716.306,773.356 719.454,773.356 722.602,773.356 725.75,773.356 728.898,773.356 732.046,773.356 735.194,773.356 738.342,773.356 741.49,773.356 744.638,773.356 747.786,773.356 750.934,773.356 754.082,773.356 757.23,773.356 760.378,773.356 763.526,773.356 766.674,773.356 769.822,773.356 772.97,773.356 776.118,773.356 779.266,773.356 782.414,773.356 785.562,773.356 788.71,773.356 791.858,773.356 795.006,773.356 798.154,773.356 801.302,773.356 804.45,773.356 807.598,773.356 810.746,773.356 813.894,773.356 817.042,773.356 820.19,773.356 823.338,773.356 826.486,773.356 829.634,773.356 832.782,773.356 835.93,773.356 839.078,773.356 842.226,773.356 845.374,773.356 848.522,773.356 851.67,773.356 854.818,773.356 857.966,773.356 861.114,773.356 864.262,773.356 867.41,773.356 870.558,773.356 873.706,773.356 876.854,773.356 880.002,773.356 883.15,773.356 886.298,773.356 889.446,773.356 892.594,773.356 895.742,773.356 898.89,773.356 902.038,773.356 905.186,773.356 908.334,773.356 911.482,773.356 914.63,773.356 917.778,773.356 920.926,773.356 924.074,773.356 927.222,773.356 930.37,773.356 933.518,773.356 936.666,773.356 939.813,773.356 942.961,773.356 946.109,773.356 949.257,773.356 952.405,773.356 955.553,773.356 958.701,773.356 961.849,773.356 964.997,773.356 968.145,773.356 971.293,773.356 974.441,773.356 977.589,773.356 980.737,773.356 983.885,773.356 987.033,773.356 990.181,773.356 993.329,773.356 996.477,773.356 999.625,773.356 1002.77,773.356 1005.92,773.356 1009.07,773.356 1012.22,773.356 1015.37,773.356 1018.51,773.356 1021.66,773.356 1024.81,773.356 1027.96,773.356 1031.11,773.356 1034.25,773.356 1037.4,773.356 1040.55,773.356 1043.7,773.356 1046.85,773.356 1049.99,773.356 1053.14,773.356 1056.29,773.356 1059.44,773.356 1062.58,773.356 1065.73,773.356 1068.88,773.356 1072.03,773.356 1075.18,773.356 1078.32,773.356 1081.47,773.356 1084.62,773.356 1087.77,773.356 1090.92,773.356 1094.06,773.356 1097.21,773.356 1100.36,773.356 1103.51,773.356 1106.66,773.356 1109.8,773.356 1112.95,773.356 1116.1,773.356 1119.25,773.356 1122.4,773.356 1125.54,773.356 1128.69,773.356 1131.84,773.356 1134.99,773.356 1138.14,773.356 1141.28,773.356 1144.43,773.356 1147.58,773.356 1150.73,773.356 1153.88,773.356 1157.02,773.356 1160.17,773.356 1163.32,773.356 1166.47,773.356 1169.62,773.356 1172.76,773.356 1175.91,773.356 1179.06,773.356 1182.21,773.356 1185.36,773.356 1188.5,773.356 1191.65,773.356 1194.8,773.356 1197.95,773.356 1201.1,773.356 1204.24,773.356 1207.39,773.356 1210.54,773.356 1213.69,773.356 1216.84,773.356 1219.98,773.356 1223.13,773.356 1226.28,773.356 1229.43,773.356 1232.58,773.356 1235.72,773.356 1238.87,773.356 1242.02,773.356 1245.17,773.356 1248.32,773.356 1251.46,773.356 1254.61,773.356 1257.76,773.356 1260.91,773.356 1264.06,773.356 1267.2,773.356 1270.35,773.356 1273.5,773.356 1276.65,773.356 1279.8,773.356 1282.94,773.356 1286.09,773.356 1289.24,773.356 1292.39,773.356 1295.54,773.356 1298.68,773.356 1301.83,773.356 1304.98,773.356 1308.13,773.356 1311.28,773.356 1314.42,773.356 1317.57,773.356 1320.72,773.356 1323.87,773.356 1327.02,773.356 1330.16,773.356 1333.31,773.356 1336.46,773.356 1339.61,773.356 1342.76,773.356 1345.9,773.356 1349.05,773.356 1352.2,773.356 1355.35,773.356 1358.5,773.356 1361.64,773.356 1364.79,773.356 1367.94,773.356 1371.09,773.356 1374.24,773.356 1377.38,773.356 1380.53,773.356 1383.68,773.356 1386.83,773.356 1389.98,773.356 1393.12,773.356 1396.27,773.356 1399.42,773.356 1402.57,773.356 1405.72,773.356 1408.86,773.356 1412.01,773.356 1415.16,773.356 1418.31,773.356 1421.46,773.356 1424.6,773.356 1427.75,773.356 1430.9,773.356 1434.05,773.356 1437.2,773.356 1440.34,773.356 1443.49,773.356 1446.64,773.356 1449.79,773.356 1452.94,773.356 1456.08,773.356 1459.23,773.356 1462.38,773.356 1465.53,773.356 1468.68,773.356 1471.82,773.356 1474.97,773.356 1478.12,773.356 1481.27,773.356 1484.42,773.356 1487.56,773.356 1490.71,773.356 1493.86,773.356 1497.01,773.356 1500.16,773.356 1503.3,773.356 1506.45,773.356 1509.6,773.356 1512.75,773.356 1515.9,773.356 1519.04,773.356 1522.19,773.356 1525.34,773.356 1528.49,773.356 1531.64,773.356 1534.78,773.356 1537.93,773.356 1541.08,773.356 1544.23,773.356 1547.37,773.356 1550.52,773.356 1553.67,773.356 1556.82,773.356 1559.97,773.356 1563.11,773.356 1566.26,773.356 1569.41,773.356 1572.56,773.356 1575.71,773.356 1578.85,773.356 1582,773.356 1585.15,773.356 1588.3,773.356 1591.45,773.356 1594.59,773.356 1597.74,773.356 1600.89,773.356 1604.04,773.356 1607.19,773.356 1610.33,773.356 1613.48,773.356 1616.63,773.356 1619.78,773.356 1622.93,773.356 1626.07,773.356 1629.22,773.356 1632.37,773.356 1635.52,773.356 1638.67,773.356 1641.81,773.356 1644.96,773.356 1648.11,773.356 1651.26,773.356 1654.41,773.356 1657.55,773.356 1660.7,773.356 1663.85,773.356 1667,773.356 1670.15,773.356 1673.29,773.356 1676.44,773.356 1679.59,773.356 1682.74,773.356 1685.89,773.356 1689.03,773.356 1692.18,773.356 1695.33,773.356 1698.48,773.356 1701.63,773.356 1704.77,773.356 1707.92,773.356 1711.07,773.356 1714.22,773.356 1717.37,773.356 1720.51,773.356 1723.66,773.356 1726.81,773.356 1729.96,773.356 1733.11,773.356 1736.25,773.356 1739.4,773.356 1742.55,773.356 1745.7,773.356 1748.85,773.356 1751.99,773.356 1755.14,773.356 1758.29,773.356 1761.44,773.356 1764.59,773.356 1767.73,773.356 1770.88,773.356 1774.03,773.356 1777.18,773.356 1780.33,773.356 1783.47,773.356 1786.62,773.356 1789.77,773.356 1792.92,773.356 1796.07,773.356 1799.21,773.356 1802.36,773.356 1805.51,773.356 1808.66,773.356 1811.81,773.356 1814.95,773.356 1818.1,773.356 1821.25,773.356 1824.4,773.356 1827.55,773.356 1830.69,773.356 1833.84,773.356 1836.99,773.356 1840.14,773.356 1843.29,773.356 1846.43,773.356 1849.58,773.356 1852.73,773.356 1855.88,773.356 1859.03,773.356 1862.17,773.356 1865.32,773.356 1868.47,773.356 1871.62,773.356 1874.77,773.356 1877.91,773.356 1881.06,773.356 1884.21,773.356 1887.36,773.356 1890.51,773.356 1893.65,773.356 1896.8,773.356 1899.95,773.356 1903.1,773.356 1906.25,773.356 1909.39,773.356 1912.54,773.356 1915.69,773.356 1918.84,773.356 1921.99,773.356 1925.13,773.356 1928.28,773.356 1931.43,773.356 1934.58,773.356 1937.73,773.356 1940.87,773.356 1944.02,773.356 1947.17,773.356 1950.32,773.356 1953.47,773.356 1956.61,773.356 1959.76,773.356 1962.91,773.356 1966.06,773.356 1969.21,773.356 1972.35,773.356 1975.5,773.356 1978.65,773.356 1981.8,773.356 1984.95,773.356 1988.09,773.356 1991.24,773.356 1994.39,773.356 1997.54,773.356 2000.69,773.356 2003.83,773.356 2006.98,773.356 2010.13,773.356 2013.28,773.356 2016.42,773.356 2019.57,773.356 2022.72,773.356 2025.87,773.356 2029.02,773.356 2032.16,773.356 2035.31,773.356 2038.46,773.356 2041.61,773.356 2044.76,773.356 2047.9,773.356 2051.05,773.356 2054.2,773.356 2057.35,773.356 2060.5,773.356 2063.64,773.356 2066.79,773.356 2069.94,773.356 2073.09,773.356 2076.24,773.356 2079.38,773.356 2082.53,773.356 2085.68,773.356 2088.83,773.356 2091.98,773.356 2095.12,773.356 2098.27,773.356 2101.42,773.356 2104.57,773.356 2107.72,773.356 2110.86,773.356 2114.01,773.356 2117.16,773.356 2120.31,773.356 2123.46,773.356 2126.6,773.356 2129.75,773.356 2132.9,773.356 2136.05,773.356 2139.2,773.356 2142.34,773.356 2145.49,773.356 2148.64,773.356 2151.79,773.356 2154.94,773.356 2158.08,773.356 2161.23,773.356 2164.38,773.356 2167.53,773.356 2170.68,773.356 2173.82,773.356 2176.97,773.356 2180.12,773.356 2183.27,773.356 2186.42,773.356 2189.56,773.356 2192.71,773.356 2195.86,773.356 2199.01,773.356 2202.16,773.356 2205.3,773.356 2208.45,773.356 2211.6,773.356 2214.75,773.356 2217.9,773.356 2221.04,773.356 2224.19,773.356 2227.34,773.356 2230.49,773.356 2233.64,773.356 2236.78,773.356 2239.93,773.356 2243.08,773.356 2246.23,773.356 2249.38,773.356 2252.52,773.356 2255.67,773.356 2258.82,773.356 2261.97,773.356 2265.12,773.356 2268.26,773.356 2271.41,773.356 2274.56,773.356 2277.71,773.356 2280.86,773.356 2284,773.356 2287.15,773.356 2290.3,773.356 2293.45,773.356 "/>
<path clip-path="url(#clip790)" d="M1925.81 322.316 L2282.9 322.316 L2282.9 166.796 L1925.81 166.796  Z" fill="#ffffff" fill-rule="evenodd" fill-opacity="1"/>
<polyline clip-path="url(#clip790)" style="stroke:#000000; stroke-linecap:round; stroke-linejoin:round; stroke-width:4; stroke-opacity:1; fill:none" points="1925.81,322.316 2282.9,322.316 2282.9,166.796 1925.81,166.796 1925.81,322.316 "/>
<polyline clip-path="url(#clip790)" style="stroke:#009af9; stroke-linecap:round; stroke-linejoin:round; stroke-width:4; stroke-opacity:1; fill:none" points="1949.1,218.636 2088.8,218.636 "/>
<path clip-path="url(#clip790)" d="M2143.21 208.306 Q2142.16 208.236 2141.46 207.533 Q2141.22 207.299 2140.99 206.245 Q2140.75 205.191 2140.68 204.231 Q2140.61 202.966 2139.91 201.678 Q2139.28 200.389 2137.9 200.389 Q2135.86 200.389 2134.59 201.725 Q2132.95 203.294 2131.43 205.941 Q2131.48 206.151 2131.57 207.299 Q2131.67 208.423 2131.67 208.868 Q2131.67 212.171 2131.53 213.811 Q2134.36 212.288 2137.03 211.89 L2143.21 208.306 M2150.43 226.951 L2144.03 231.799 L2140.97 226.201 Q2140.99 225.686 2141.01 224.819 Q2141.06 223.952 2141.08 223.25 Q2141.11 222.524 2141.11 221.915 Q2141.11 219.736 2140.85 218.354 Q2140.61 216.973 2140.36 216.551 Q2140.12 216.129 2139.72 215.731 Q2138.97 214.982 2137.87 214.537 Q2136.77 214.068 2135.74 214.068 Q2134.41 214.068 2131.34 214.958 Q2131.13 216.457 2130.75 218.191 Q2129.82 222.125 2128.06 224.796 Q2126.61 225.967 2123.87 228.403 Q2121.15 230.839 2120 231.799 Q2119.04 230.839 2117.92 230.066 Q2116.79 229.269 2116.11 229.269 Q2114.15 229.269 2112.62 231.284 L2112.09 230.511 Q2112.16 230.417 2112.37 230.066 Q2112.6 229.714 2112.69 229.574 Q2112.79 229.433 2113 229.105 Q2113.23 228.777 2113.35 228.613 Q2113.49 228.426 2113.7 228.145 Q2113.94 227.841 2114.12 227.653 Q2114.31 227.442 2114.54 227.208 Q2114.78 226.974 2115.01 226.763 Q2116.54 225.428 2117.71 225.428 Q2118.81 225.428 2120 226.248 Q2121.15 227.068 2122.2 228.215 Q2124.87 226.388 2126.14 223.882 Q2126.84 222.5 2127.31 219.572 Q2127.78 215.895 2127.78 212.897 Q2127.78 211.281 2127.71 210.133 Q2127.64 208.985 2127.17 207.182 Q2126.72 205.355 2125.86 204.09 Q2124.87 202.591 2123.33 201.607 Q2121.81 200.624 2120.19 200.624 Q2118.78 200.624 2118.01 200.928 Q2117.26 201.233 2116.42 202.076 Q2115.55 202.896 2115.55 204.793 Q2115.55 205.214 2116.09 206.105 Q2116.65 206.995 2117.26 207.674 Q2118.81 209.641 2119.18 210.274 Q2119.81 211.492 2119.81 212.101 Q2119.81 213.834 2118.27 215.544 Q2117 216.973 2113.91 218.518 L2113.19 217.98 Q2114.47 217.277 2115.55 215.965 Q2116.25 215.099 2116.25 214.115 Q2116.25 213.623 2115.65 212.803 L2114.15 210.742 Q2113.14 209.524 2112.65 208.611 Q2112.18 207.674 2112.18 206.432 Q2112.18 205.121 2112.81 204.02 Q2113.47 202.896 2114.64 201.725 Q2118.76 197.602 2123.42 197.602 Q2124.97 197.602 2126.44 198.563 Q2127.92 199.523 2129.11 200.998 Q2130.14 202.216 2130.85 204.231 L2131.03 203.973 Q2132.3 202.404 2133.54 201.162 Q2137.1 197.602 2140.97 197.602 Q2142.72 197.602 2143.75 198.844 Q2144.5 199.757 2144.81 202.17 Q2144.83 202.38 2144.88 203.247 Q2144.92 204.09 2145.04 204.559 Q2145.13 204.98 2145.27 205.238 Q2145.42 205.472 2145.91 205.683 Q2146.42 205.894 2147.31 205.894 Q2147.95 205.894 2149.12 205.706 L2149.47 206.339 Q2147.78 206.995 2145.3 208.306 Q2141.39 210.321 2139.4 211.89 Q2141.08 211.89 2142.16 212.335 Q2143.24 212.78 2144.29 213.67 Q2144.67 221.962 2145.04 223.133 Q2145.6 224.913 2146.35 226.154 Q2146.38 226.201 2146.49 226.365 Q2146.61 226.529 2146.63 226.576 Q2146.68 226.623 2146.77 226.763 Q2146.89 226.904 2146.96 226.951 Q2147.03 226.997 2147.13 227.091 Q2147.24 227.161 2147.36 227.185 Q2147.48 227.208 2147.59 227.208 Q2147.85 227.208 2150.43 226.201 L2150.43 226.951 Z" fill="#000000" fill-rule="evenodd" fill-opacity="1" /><path clip-path="url(#clip790)" d="M2149.67 242.503 L2149.67 194.534 L2156.91 194.534 L2156.91 195.635 L2152.88 195.635 L2152.88 241.402 L2156.91 241.402 L2156.91 242.503 L2149.67 242.503 Z" fill="#000000" fill-rule="evenodd" fill-opacity="1" /><path clip-path="url(#clip790)" d="M2182.75 199.991 Q2182.75 201.28 2181.93 202.076 Q2181.13 202.872 2180.13 202.872 Q2179.4 202.872 2178.86 202.427 Q2178.35 201.982 2178.35 201.209 Q2178.35 200.413 2178.95 199.57 Q2179.56 198.726 2180.95 198.609 Q2180.03 197.743 2178.58 197.743 Q2177.85 197.743 2177.25 198.211 Q2176.66 198.656 2176.33 199.382 Q2175.98 200.132 2175.18 204.371 Q2174.93 205.753 2174.69 207.088 Q2174.46 208.423 2174.18 209.829 L2178.16 209.829 Q2178.67 209.829 2178.88 209.852 Q2179.1 209.876 2179.26 209.993 Q2179.45 210.11 2179.45 210.367 Q2179.45 211.023 2179.14 211.187 Q2178.86 211.328 2178.02 211.328 L2173.9 211.328 L2171.01 226.529 Q2170.94 226.974 2170.64 228.379 Q2170.36 229.761 2169.68 232.033 Q2169 234.329 2168.32 235.687 Q2167.95 236.46 2167.45 237.186 Q2166.99 237.936 2166.31 238.685 Q2165.63 239.435 2164.74 239.88 Q2163.85 240.348 2162.91 240.348 Q2161.32 240.348 2160.08 239.458 Q2158.84 238.568 2158.84 237.046 Q2158.84 235.757 2159.63 234.961 Q2160.45 234.165 2161.46 234.165 Q2162.18 234.165 2162.7 234.61 Q2163.24 235.055 2163.24 235.828 Q2163.24 236.156 2163.12 236.53 Q2163 236.905 2162.75 237.327 Q2162.49 237.772 2161.93 238.076 Q2161.36 238.381 2160.59 238.428 Q2161.51 239.294 2162.91 239.294 Q2163.36 239.294 2163.75 239.107 Q2164.15 238.943 2164.48 238.521 Q2164.83 238.1 2165.09 237.678 Q2165.35 237.28 2165.6 236.507 Q2165.86 235.757 2166.03 235.195 Q2166.19 234.633 2166.4 233.626 Q2166.63 232.619 2166.75 232.01 Q2166.87 231.424 2167.08 230.276 L2170.66 211.328 L2167.5 211.328 Q2166.94 211.328 2166.71 211.304 Q2166.49 211.281 2166.33 211.164 Q2166.17 211.023 2166.17 210.742 Q2166.17 210.297 2166.35 210.11 Q2166.56 209.899 2166.8 209.876 Q2167.03 209.829 2167.6 209.829 L2170.92 209.829 Q2172.05 203.903 2172.49 202.31 Q2173.01 200.624 2173.8 199.453 Q2174.6 198.258 2175.49 197.696 Q2176.38 197.134 2177.1 196.923 Q2177.85 196.689 2178.58 196.689 Q2180.22 196.689 2181.48 197.579 Q2182.75 198.445 2182.75 199.991 Z" fill="#000000" fill-rule="evenodd" fill-opacity="1" /><path clip-path="url(#clip790)" d="M2189.2 218.518 Q2189.2 210.414 2192.22 203.879 Q2193.51 201.139 2195.32 198.844 Q2197.12 196.548 2198.31 195.541 Q2199.51 194.534 2199.84 194.534 Q2200.3 194.534 2200.33 195.002 Q2200.33 195.237 2199.7 195.822 Q2191.97 203.692 2191.99 218.518 Q2191.99 233.392 2199.51 240.957 Q2200.33 241.777 2200.33 242.035 Q2200.33 242.503 2199.84 242.503 Q2199.51 242.503 2198.36 241.543 Q2197.21 240.582 2195.43 238.381 Q2193.65 236.179 2192.36 233.485 Q2189.2 226.951 2189.2 218.518 Z" fill="#000000" fill-rule="evenodd" fill-opacity="1" /><path clip-path="url(#clip790)" d="M2224.74 206.526 Q2224.74 210.461 2223.48 214.888 Q2222.24 219.291 2220.27 222.852 Q2218.3 226.388 2215.73 228.731 Q2213.15 231.049 2210.69 231.049 Q2209.12 231.049 2207.95 230.183 Q2206.8 229.293 2206.17 227.817 Q2205.54 226.318 2205.23 224.679 Q2204.93 223.016 2204.93 221.212 Q2204.93 218.518 2205.52 215.591 Q2206.1 212.639 2207.08 209.969 Q2208.07 207.276 2209.45 204.84 Q2210.83 202.38 2212.35 200.6 Q2213.9 198.797 2215.63 197.743 Q2217.37 196.689 2218.98 196.689 Q2220.15 196.689 2221.09 197.204 Q2222.05 197.696 2222.66 198.563 Q2223.27 199.406 2223.69 200.413 Q2224.14 201.42 2224.35 202.591 Q2224.56 203.739 2224.65 204.699 Q2224.74 205.636 2224.74 206.526 M2221.58 203.551 Q2221.58 202.357 2221.49 201.467 Q2221.4 200.553 2221.14 199.64 Q2220.88 198.726 2220.32 198.235 Q2219.78 197.743 2218.94 197.743 Q2216.48 197.743 2213.71 202.779 Q2212.82 204.348 2212.03 206.479 Q2211.23 208.611 2210.95 209.618 Q2210.67 210.625 2210.01 213.108 L2220.04 213.108 Q2221.58 206.714 2221.58 203.551 M2219.62 214.63 L2209.64 214.63 Q2208.09 220.486 2208.09 224.14 Q2208.09 227.325 2208.75 228.66 Q2209.43 229.972 2210.69 229.972 Q2212.14 229.972 2213.5 228.52 Q2214.86 227.044 2216.24 224.374 Q2218.07 220.908 2219.62 214.63 Z" fill="#000000" fill-rule="evenodd" fill-opacity="1" /><path clip-path="url(#clip790)" d="M2229.69 242.035 Q2229.69 241.8 2230.3 241.215 Q2238.03 233.345 2238.03 218.518 Q2238.03 203.645 2230.6 196.127 Q2229.69 195.26 2229.69 195.002 Q2229.69 194.534 2230.16 194.534 Q2230.49 194.534 2231.64 195.494 Q2232.81 196.454 2234.56 198.656 Q2236.34 200.858 2237.65 203.551 Q2240.82 210.086 2240.82 218.518 Q2240.82 226.623 2237.8 233.157 Q2236.51 235.898 2234.7 238.193 Q2232.9 240.489 2231.71 241.496 Q2230.51 242.503 2230.16 242.503 Q2229.69 242.503 2229.69 242.035 Z" fill="#000000" fill-rule="evenodd" fill-opacity="1" /><path clip-path="url(#clip790)" d="M2246.19 241.402 L2250.22 241.402 L2250.22 195.635 L2246.19 195.635 L2246.19 194.534 L2253.42 194.534 L2253.42 242.503 L2246.19 242.503 L2246.19 241.402 Z" fill="#000000" fill-rule="evenodd" fill-opacity="1" /><polyline clip-path="url(#clip790)" style="stroke:#e26f46; stroke-linecap:round; stroke-linejoin:round; stroke-width:4; stroke-opacity:1; fill:none" points="1949.1,270.476 2088.8,270.476 "/>
<path clip-path="url(#clip790)" d="M2136.33 250.941 Q2132.77 254.267 2128.88 256.305 L2122.7 254.056 Q2120.94 253.518 2119.96 253.518 Q2117.59 253.518 2116.11 255.064 Q2114.22 256.961 2112.91 260.474 L2112.09 259.959 Q2112.95 257.663 2114.4 254.572 Q2115.46 252.44 2116.47 251.363 Q2118.13 249.442 2121.01 249.442 Q2123.09 249.442 2128.41 251.995 Q2130.05 252.745 2130.94 252.745 Q2132.11 252.745 2133.19 252.136 Q2134.29 251.574 2135.79 250.168 L2136.33 250.941 M2135.41 254.619 Q2133.92 255.954 2132.86 257.687 Q2132.3 258.717 2132.3 260.099 Q2132.3 262.395 2132.44 263.215 Q2133 267.384 2133 270.593 Q2133 275.956 2130.17 278.791 Q2125.32 283.639 2119.96 283.639 Q2117.94 283.639 2115.36 281.344 L2112.81 283.124 L2112.58 282.351 Q2113.28 281.39 2114.59 279.915 Q2115.9 278.416 2116.89 277.385 Q2117.87 276.331 2118.03 276.214 Q2119.04 278.369 2119.37 279.001 Q2119.72 279.634 2120.19 280.102 Q2120.8 280.711 2121.71 281.109 Q2122.65 281.484 2123.52 281.484 Q2124.52 281.484 2125.25 281.109 Q2126 280.735 2126.77 279.962 Q2127.75 278.978 2128.36 276.682 Q2128.88 274.996 2128.88 272.42 Q2128.88 269.984 2128.41 266.33 Q2128.01 262.934 2128.01 261.762 Q2128.01 261.224 2128.11 260.146 Q2131.55 256.375 2134.83 254.291 L2135.41 254.619 Z" fill="#000000" fill-rule="evenodd" fill-opacity="1" /><path clip-path="url(#clip790)" d="M2149.91 294.343 L2149.91 246.374 L2157.14 246.374 L2157.14 247.475 L2153.12 247.475 L2153.12 293.242 L2157.14 293.242 L2157.14 294.343 L2149.91 294.343 Z" fill="#000000" fill-rule="evenodd" fill-opacity="1" /><path clip-path="url(#clip790)" d="M2182.99 251.831 Q2182.99 253.12 2182.17 253.916 Q2181.37 254.712 2180.36 254.712 Q2179.64 254.712 2179.1 254.267 Q2178.58 253.822 2178.58 253.049 Q2178.58 252.253 2179.19 251.41 Q2179.8 250.566 2181.18 250.449 Q2180.27 249.583 2178.82 249.583 Q2178.09 249.583 2177.48 250.051 Q2176.9 250.496 2176.57 251.222 Q2176.22 251.972 2175.42 256.211 Q2175.16 257.593 2174.93 258.928 Q2174.69 260.263 2174.41 261.669 L2178.4 261.669 Q2178.91 261.669 2179.12 261.692 Q2179.33 261.716 2179.5 261.833 Q2179.68 261.95 2179.68 262.207 Q2179.68 262.863 2179.38 263.027 Q2179.1 263.168 2178.25 263.168 L2174.13 263.168 L2171.25 278.369 Q2171.18 278.814 2170.88 280.219 Q2170.6 281.601 2169.92 283.873 Q2169.24 286.169 2168.56 287.527 Q2168.18 288.3 2167.69 289.026 Q2167.22 289.776 2166.54 290.525 Q2165.86 291.275 2164.97 291.72 Q2164.08 292.188 2163.15 292.188 Q2161.55 292.188 2160.31 291.298 Q2159.07 290.408 2159.07 288.886 Q2159.07 287.597 2159.87 286.801 Q2160.69 286.005 2161.69 286.005 Q2162.42 286.005 2162.94 286.45 Q2163.48 286.895 2163.48 287.668 Q2163.48 287.996 2163.36 288.37 Q2163.24 288.745 2162.98 289.167 Q2162.73 289.612 2162.16 289.916 Q2161.6 290.221 2160.83 290.268 Q2161.74 291.134 2163.15 291.134 Q2163.59 291.134 2163.99 290.947 Q2164.39 290.783 2164.72 290.361 Q2165.07 289.94 2165.33 289.518 Q2165.58 289.12 2165.84 288.347 Q2166.1 287.597 2166.26 287.035 Q2166.43 286.473 2166.64 285.466 Q2166.87 284.459 2166.99 283.85 Q2167.11 283.264 2167.32 282.116 L2170.9 263.168 L2167.74 263.168 Q2167.18 263.168 2166.94 263.144 Q2166.73 263.121 2166.57 263.004 Q2166.4 262.863 2166.4 262.582 Q2166.4 262.137 2166.59 261.95 Q2166.8 261.739 2167.04 261.716 Q2167.27 261.669 2167.83 261.669 L2171.16 261.669 Q2172.28 255.743 2172.73 254.15 Q2173.24 252.464 2174.04 251.293 Q2174.83 250.098 2175.72 249.536 Q2176.62 248.974 2177.34 248.763 Q2178.09 248.529 2178.82 248.529 Q2180.46 248.529 2181.72 249.419 Q2182.99 250.285 2182.99 251.831 Z" fill="#000000" fill-rule="evenodd" fill-opacity="1" /><path clip-path="url(#clip790)" d="M2189.44 270.358 Q2189.44 262.254 2192.46 255.719 Q2193.75 252.979 2195.55 250.684 Q2197.36 248.388 2198.55 247.381 Q2199.74 246.374 2200.07 246.374 Q2200.54 246.374 2200.56 246.842 Q2200.56 247.077 2199.93 247.662 Q2192.2 255.532 2192.23 270.358 Q2192.23 285.232 2199.74 292.797 Q2200.56 293.617 2200.56 293.875 Q2200.56 294.343 2200.07 294.343 Q2199.74 294.343 2198.6 293.383 Q2197.45 292.422 2195.67 290.221 Q2193.89 288.019 2192.6 285.325 Q2189.44 278.791 2189.44 270.358 Z" fill="#000000" fill-rule="evenodd" fill-opacity="1" /><path clip-path="url(#clip790)" d="M2224.98 258.366 Q2224.98 262.301 2223.72 266.728 Q2222.48 271.131 2220.51 274.692 Q2218.54 278.228 2215.96 280.571 Q2213.39 282.889 2210.93 282.889 Q2209.36 282.889 2208.19 282.023 Q2207.04 281.133 2206.41 279.657 Q2205.78 278.158 2205.47 276.519 Q2205.17 274.856 2205.17 273.052 Q2205.17 270.358 2205.75 267.431 Q2206.34 264.479 2207.32 261.809 Q2208.3 259.116 2209.69 256.68 Q2211.07 254.22 2212.59 252.44 Q2214.14 250.637 2215.87 249.583 Q2217.6 248.529 2219.22 248.529 Q2220.39 248.529 2221.33 249.044 Q2222.29 249.536 2222.9 250.403 Q2223.51 251.246 2223.93 252.253 Q2224.37 253.26 2224.58 254.431 Q2224.79 255.579 2224.89 256.539 Q2224.98 257.476 2224.98 258.366 M2221.82 255.391 Q2221.82 254.197 2221.73 253.307 Q2221.63 252.393 2221.37 251.48 Q2221.12 250.566 2220.55 250.075 Q2220.02 249.583 2219.17 249.583 Q2216.71 249.583 2213.95 254.619 Q2213.06 256.188 2212.26 258.319 Q2211.47 260.451 2211.19 261.458 Q2210.9 262.465 2210.25 264.948 L2220.27 264.948 Q2221.82 258.554 2221.82 255.391 M2219.85 266.47 L2209.87 266.47 Q2208.33 272.326 2208.33 275.98 Q2208.33 279.165 2208.98 280.5 Q2209.66 281.812 2210.93 281.812 Q2212.38 281.812 2213.74 280.36 Q2215.1 278.884 2216.48 276.214 Q2218.31 272.748 2219.85 266.47 Z" fill="#000000" fill-rule="evenodd" fill-opacity="1" /><path clip-path="url(#clip790)" d="M2229.93 293.875 Q2229.93 293.64 2230.54 293.055 Q2238.27 285.185 2238.27 270.358 Q2238.27 255.485 2230.84 247.967 Q2229.93 247.1 2229.93 246.842 Q2229.93 246.374 2230.4 246.374 Q2230.72 246.374 2231.87 247.334 Q2233.04 248.294 2234.8 250.496 Q2236.58 252.698 2237.89 255.391 Q2241.05 261.926 2241.05 270.358 Q2241.05 278.463 2238.03 284.997 Q2236.74 287.738 2234.94 290.033 Q2233.14 292.329 2231.94 293.336 Q2230.75 294.343 2230.4 294.343 Q2229.93 294.343 2229.93 293.875 Z" fill="#000000" fill-rule="evenodd" fill-opacity="1" /><path clip-path="url(#clip790)" d="M2246.42 293.242 L2250.45 293.242 L2250.45 247.475 L2246.42 247.475 L2246.42 246.374 L2253.66 246.374 L2253.66 294.343 L2246.42 294.343 L2246.42 293.242 Z" fill="#000000" fill-rule="evenodd" fill-opacity="1" /></svg>
