<?xml version="1.0" encoding="utf-8"?>
<svg xmlns="http://www.w3.org/2000/svg" xmlns:xlink="http://www.w3.org/1999/xlink" width="600" height="400" viewBox="0 0 2400 1600">
<defs>
  <clipPath id="clip670">
    <rect x="0" y="0" width="2400" height="1600"/>
  </clipPath>
</defs>
<path clip-path="url(#clip670)" d="M0 1600 L2400 1600 L2400 0 L0 0  Z" fill="#ffffff" fill-rule="evenodd" fill-opacity="1"/>
<defs>
  <clipPath id="clip671">
    <rect x="480" y="0" width="1681" height="1600"/>
  </clipPath>
</defs>
<defs>
  <clipPath id="clip672">
    <rect x="257" y="123" width="2097" height="1301"/>
  </clipPath>
</defs>
<path clip-path="url(#clip670)" d="M287.366 1423.18 L2352.76 1423.18 L2352.76 123.472 L287.366 123.472  Z" fill="#ffffff" fill-rule="evenodd" fill-opacity="1"/>
<defs>
  <clipPath id="clip673">
    <rect x="287" y="123" width="2066" height="1301"/>
  </clipPath>
</defs>
<polyline clip-path="url(#clip673)" style="stroke:#000000; stroke-linecap:round; stroke-linejoin:round; stroke-width:2; stroke-opacity:0.1; fill:none" points="389.752,1423.18 389.752,123.472 "/>
<polyline clip-path="url(#clip673)" style="stroke:#000000; stroke-linecap:round; stroke-linejoin:round; stroke-width:2; stroke-opacity:0.1; fill:none" points="700.02,1423.18 700.02,123.472 "/>
<polyline clip-path="url(#clip673)" style="stroke:#000000; stroke-linecap:round; stroke-linejoin:round; stroke-width:2; stroke-opacity:0.1; fill:none" points="1010.29,1423.18 1010.29,123.472 "/>
<polyline clip-path="url(#clip673)" style="stroke:#000000; stroke-linecap:round; stroke-linejoin:round; stroke-width:2; stroke-opacity:0.1; fill:none" points="1320.56,1423.18 1320.56,123.472 "/>
<polyline clip-path="url(#clip673)" style="stroke:#000000; stroke-linecap:round; stroke-linejoin:round; stroke-width:2; stroke-opacity:0.1; fill:none" points="1630.82,1423.18 1630.82,123.472 "/>
<polyline clip-path="url(#clip673)" style="stroke:#000000; stroke-linecap:round; stroke-linejoin:round; stroke-width:2; stroke-opacity:0.1; fill:none" points="1941.09,1423.18 1941.09,123.472 "/>
<polyline clip-path="url(#clip673)" style="stroke:#000000; stroke-linecap:round; stroke-linejoin:round; stroke-width:2; stroke-opacity:0.1; fill:none" points="2251.36,1423.18 2251.36,123.472 "/>
<polyline clip-path="url(#clip670)" style="stroke:#000000; stroke-linecap:round; stroke-linejoin:round; stroke-width:4; stroke-opacity:1; fill:none" points="287.366,1423.18 2352.76,1423.18 "/>
<polyline clip-path="url(#clip670)" style="stroke:#000000; stroke-linecap:round; stroke-linejoin:round; stroke-width:4; stroke-opacity:1; fill:none" points="389.752,1423.18 389.752,1404.28 "/>
<polyline clip-path="url(#clip670)" style="stroke:#000000; stroke-linecap:round; stroke-linejoin:round; stroke-width:4; stroke-opacity:1; fill:none" points="700.02,1423.18 700.02,1404.28 "/>
<polyline clip-path="url(#clip670)" style="stroke:#000000; stroke-linecap:round; stroke-linejoin:round; stroke-width:4; stroke-opacity:1; fill:none" points="1010.29,1423.18 1010.29,1404.28 "/>
<polyline clip-path="url(#clip670)" style="stroke:#000000; stroke-linecap:round; stroke-linejoin:round; stroke-width:4; stroke-opacity:1; fill:none" points="1320.56,1423.18 1320.56,1404.28 "/>
<polyline clip-path="url(#clip670)" style="stroke:#000000; stroke-linecap:round; stroke-linejoin:round; stroke-width:4; stroke-opacity:1; fill:none" points="1630.82,1423.18 1630.82,1404.28 "/>
<polyline clip-path="url(#clip670)" style="stroke:#000000; stroke-linecap:round; stroke-linejoin:round; stroke-width:4; stroke-opacity:1; fill:none" points="1941.09,1423.18 1941.09,1404.28 "/>
<polyline clip-path="url(#clip670)" style="stroke:#000000; stroke-linecap:round; stroke-linejoin:round; stroke-width:4; stroke-opacity:1; fill:none" points="2251.36,1423.18 2251.36,1404.28 "/>
<path clip-path="url(#clip670)" d="M359.22 1468.75 L388.895 1468.75 L388.895 1472.69 L359.22 1472.69 L359.22 1468.75 Z" fill="#000000" fill-rule="evenodd" fill-opacity="1" /><path clip-path="url(#clip670)" d="M413.155 1466.95 Q416.511 1467.66 418.386 1469.93 Q420.284 1472.2 420.284 1475.53 Q420.284 1480.65 416.766 1483.45 Q413.247 1486.25 406.766 1486.25 Q404.59 1486.25 402.275 1485.81 Q399.983 1485.39 397.53 1484.54 L397.53 1480.02 Q399.474 1481.16 401.789 1481.74 Q404.104 1482.32 406.627 1482.32 Q411.025 1482.32 413.317 1480.58 Q415.631 1478.84 415.631 1475.53 Q415.631 1472.48 413.479 1470.77 Q411.349 1469.03 407.53 1469.03 L403.502 1469.03 L403.502 1465.19 L407.715 1465.19 Q411.164 1465.19 412.993 1463.82 Q414.821 1462.43 414.821 1459.84 Q414.821 1457.18 412.923 1455.77 Q411.048 1454.33 407.53 1454.33 Q405.608 1454.33 403.409 1454.75 Q401.21 1455.16 398.571 1456.04 L398.571 1451.88 Q401.233 1451.14 403.548 1450.77 Q405.886 1450.39 407.946 1450.39 Q413.27 1450.39 416.372 1452.83 Q419.474 1455.23 419.474 1459.35 Q419.474 1462.22 417.831 1464.21 Q416.187 1466.18 413.155 1466.95 Z" fill="#000000" fill-rule="evenodd" fill-opacity="1" /><path clip-path="url(#clip670)" d="M669.962 1468.75 L699.638 1468.75 L699.638 1472.69 L669.962 1472.69 L669.962 1468.75 Z" fill="#000000" fill-rule="evenodd" fill-opacity="1" /><path clip-path="url(#clip670)" d="M713.758 1481.64 L730.077 1481.64 L730.077 1485.58 L708.133 1485.58 L708.133 1481.64 Q710.795 1478.89 715.378 1474.26 Q719.985 1469.61 721.165 1468.27 Q723.411 1465.74 724.29 1464.01 Q725.193 1462.25 725.193 1460.56 Q725.193 1457.8 723.249 1456.07 Q721.327 1454.33 718.226 1454.33 Q716.027 1454.33 713.573 1455.09 Q711.142 1455.86 708.365 1457.41 L708.365 1452.69 Q711.189 1451.55 713.642 1450.97 Q716.096 1450.39 718.133 1450.39 Q723.503 1450.39 726.698 1453.08 Q729.892 1455.77 729.892 1460.26 Q729.892 1462.39 729.082 1464.31 Q728.295 1466.2 726.189 1468.8 Q725.61 1469.47 722.508 1472.69 Q719.406 1475.88 713.758 1481.64 Z" fill="#000000" fill-rule="evenodd" fill-opacity="1" /><path clip-path="url(#clip670)" d="M980.044 1468.75 L1009.72 1468.75 L1009.72 1472.69 L980.044 1472.69 L980.044 1468.75 Z" fill="#000000" fill-rule="evenodd" fill-opacity="1" /><path clip-path="url(#clip670)" d="M1020.62 1481.64 L1028.26 1481.64 L1028.26 1455.28 L1019.95 1456.95 L1019.95 1452.69 L1028.22 1451.02 L1032.89 1451.02 L1032.89 1481.64 L1040.53 1481.64 L1040.53 1485.58 L1020.62 1485.58 L1020.62 1481.64 Z" fill="#000000" fill-rule="evenodd" fill-opacity="1" /><path clip-path="url(#clip670)" d="M1320.56 1454.1 Q1316.94 1454.1 1315.12 1457.66 Q1313.31 1461.2 1313.31 1468.33 Q1313.31 1475.44 1315.12 1479.01 Q1316.94 1482.55 1320.56 1482.55 Q1324.19 1482.55 1325.99 1479.01 Q1327.82 1475.44 1327.82 1468.33 Q1327.82 1461.2 1325.99 1457.66 Q1324.19 1454.1 1320.56 1454.1 M1320.56 1450.39 Q1326.37 1450.39 1329.42 1455 Q1332.5 1459.58 1332.5 1468.33 Q1332.5 1477.06 1329.42 1481.67 Q1326.37 1486.25 1320.56 1486.25 Q1314.74 1486.25 1311.67 1481.67 Q1308.61 1477.06 1308.61 1468.33 Q1308.61 1459.58 1311.67 1455 Q1314.74 1450.39 1320.56 1450.39 Z" fill="#000000" fill-rule="evenodd" fill-opacity="1" /><path clip-path="url(#clip670)" d="M1621.2 1481.64 L1628.84 1481.64 L1628.84 1455.28 L1620.53 1456.95 L1620.53 1452.69 L1628.8 1451.02 L1633.47 1451.02 L1633.47 1481.64 L1641.11 1481.64 L1641.11 1485.58 L1621.2 1485.58 L1621.2 1481.64 Z" fill="#000000" fill-rule="evenodd" fill-opacity="1" /><path clip-path="url(#clip670)" d="M1935.74 1481.64 L1952.06 1481.64 L1952.06 1485.58 L1930.12 1485.58 L1930.12 1481.64 Q1932.78 1478.89 1937.36 1474.26 Q1941.97 1469.61 1943.15 1468.27 Q1945.4 1465.74 1946.28 1464.01 Q1947.18 1462.25 1947.18 1460.56 Q1947.18 1457.8 1945.23 1456.07 Q1943.31 1454.33 1940.21 1454.33 Q1938.01 1454.33 1935.56 1455.09 Q1933.13 1455.86 1930.35 1457.41 L1930.35 1452.69 Q1933.17 1451.55 1935.63 1450.97 Q1938.08 1450.39 1940.12 1450.39 Q1945.49 1450.39 1948.68 1453.08 Q1951.88 1455.77 1951.88 1460.26 Q1951.88 1462.39 1951.07 1464.31 Q1950.28 1466.2 1948.17 1468.8 Q1947.6 1469.47 1944.49 1472.69 Q1941.39 1475.88 1935.74 1481.64 Z" fill="#000000" fill-rule="evenodd" fill-opacity="1" /><path clip-path="url(#clip670)" d="M2255.61 1466.95 Q2258.96 1467.66 2260.84 1469.93 Q2262.74 1472.2 2262.74 1475.53 Q2262.74 1480.65 2259.22 1483.45 Q2255.7 1486.25 2249.22 1486.25 Q2247.04 1486.25 2244.73 1485.81 Q2242.43 1485.39 2239.98 1484.54 L2239.98 1480.02 Q2241.93 1481.16 2244.24 1481.74 Q2246.55 1482.32 2249.08 1482.32 Q2253.48 1482.32 2255.77 1480.58 Q2258.08 1478.84 2258.08 1475.53 Q2258.08 1472.48 2255.93 1470.77 Q2253.8 1469.03 2249.98 1469.03 L2245.95 1469.03 L2245.95 1465.19 L2250.17 1465.19 Q2253.62 1465.19 2255.44 1463.82 Q2257.27 1462.43 2257.27 1459.84 Q2257.27 1457.18 2255.37 1455.77 Q2253.5 1454.33 2249.98 1454.33 Q2248.06 1454.33 2245.86 1454.75 Q2243.66 1455.16 2241.02 1456.04 L2241.02 1451.88 Q2243.68 1451.14 2246 1450.77 Q2248.34 1450.39 2250.4 1450.39 Q2255.72 1450.39 2258.82 1452.83 Q2261.93 1455.23 2261.93 1459.35 Q2261.93 1462.22 2260.28 1464.21 Q2258.64 1466.18 2255.61 1466.95 Z" fill="#000000" fill-rule="evenodd" fill-opacity="1" /><path clip-path="url(#clip670)" d="M1332 1529.22 Q1332 1534.63 1330.26 1540.71 Q1328.55 1546.77 1325.84 1551.66 Q1323.14 1556.53 1319.6 1559.75 Q1316.05 1562.94 1312.67 1562.94 Q1310.51 1562.94 1308.9 1561.75 Q1307.33 1560.52 1306.46 1558.49 Q1305.59 1556.43 1305.17 1554.18 Q1304.75 1551.89 1304.75 1549.41 Q1304.75 1545.71 1305.55 1541.68 Q1306.36 1537.62 1307.71 1533.95 Q1309.07 1530.25 1310.97 1526.9 Q1312.87 1523.52 1314.96 1521.07 Q1317.08 1518.59 1319.47 1517.14 Q1321.85 1515.69 1324.07 1515.69 Q1325.68 1515.69 1326.97 1516.4 Q1328.29 1517.08 1329.13 1518.27 Q1329.97 1519.43 1330.55 1520.81 Q1331.16 1522.2 1331.45 1523.81 Q1331.74 1525.38 1331.87 1526.71 Q1332 1527.99 1332 1529.22 M1327.65 1525.13 Q1327.65 1523.48 1327.52 1522.26 Q1327.39 1521 1327.04 1519.75 Q1326.68 1518.49 1325.91 1517.82 Q1325.17 1517.14 1324.01 1517.14 Q1320.63 1517.14 1316.83 1524.06 Q1315.6 1526.22 1314.51 1529.15 Q1313.41 1532.08 1313.03 1533.47 Q1312.64 1534.85 1311.74 1538.27 L1325.52 1538.27 Q1327.65 1529.47 1327.65 1525.13 M1324.94 1540.36 L1311.22 1540.36 Q1309.1 1548.41 1309.1 1553.44 Q1309.1 1557.82 1310 1559.65 Q1310.93 1561.46 1312.67 1561.46 Q1314.67 1561.46 1316.54 1559.46 Q1318.4 1557.43 1320.31 1553.76 Q1322.82 1548.99 1324.94 1540.36 Z" fill="#000000" fill-rule="evenodd" fill-opacity="1" /><polyline clip-path="url(#clip673)" style="stroke:#000000; stroke-linecap:round; stroke-linejoin:round; stroke-width:2; stroke-opacity:0.1; fill:none" points="287.366,1253.83 2352.76,1253.83 "/>
<polyline clip-path="url(#clip673)" style="stroke:#000000; stroke-linecap:round; stroke-linejoin:round; stroke-width:2; stroke-opacity:0.1; fill:none" points="287.366,1083.01 2352.76,1083.01 "/>
<polyline clip-path="url(#clip673)" style="stroke:#000000; stroke-linecap:round; stroke-linejoin:round; stroke-width:2; stroke-opacity:0.1; fill:none" points="287.366,912.184 2352.76,912.184 "/>
<polyline clip-path="url(#clip673)" style="stroke:#000000; stroke-linecap:round; stroke-linejoin:round; stroke-width:2; stroke-opacity:0.1; fill:none" points="287.366,741.362 2352.76,741.362 "/>
<polyline clip-path="url(#clip673)" style="stroke:#000000; stroke-linecap:round; stroke-linejoin:round; stroke-width:2; stroke-opacity:0.1; fill:none" points="287.366,570.54 2352.76,570.54 "/>
<polyline clip-path="url(#clip673)" style="stroke:#000000; stroke-linecap:round; stroke-linejoin:round; stroke-width:2; stroke-opacity:0.1; fill:none" points="287.366,399.718 2352.76,399.718 "/>
<polyline clip-path="url(#clip673)" style="stroke:#000000; stroke-linecap:round; stroke-linejoin:round; stroke-width:2; stroke-opacity:0.1; fill:none" points="287.366,228.897 2352.76,228.897 "/>
<polyline clip-path="url(#clip670)" style="stroke:#000000; stroke-linecap:round; stroke-linejoin:round; stroke-width:4; stroke-opacity:1; fill:none" points="287.366,1423.18 287.366,123.472 "/>
<polyline clip-path="url(#clip670)" style="stroke:#000000; stroke-linecap:round; stroke-linejoin:round; stroke-width:4; stroke-opacity:1; fill:none" points="287.366,1253.83 306.264,1253.83 "/>
<polyline clip-path="url(#clip670)" style="stroke:#000000; stroke-linecap:round; stroke-linejoin:round; stroke-width:4; stroke-opacity:1; fill:none" points="287.366,1083.01 306.264,1083.01 "/>
<polyline clip-path="url(#clip670)" style="stroke:#000000; stroke-linecap:round; stroke-linejoin:round; stroke-width:4; stroke-opacity:1; fill:none" points="287.366,912.184 306.264,912.184 "/>
<polyline clip-path="url(#clip670)" style="stroke:#000000; stroke-linecap:round; stroke-linejoin:round; stroke-width:4; stroke-opacity:1; fill:none" points="287.366,741.362 306.264,741.362 "/>
<polyline clip-path="url(#clip670)" style="stroke:#000000; stroke-linecap:round; stroke-linejoin:round; stroke-width:4; stroke-opacity:1; fill:none" points="287.366,570.54 306.264,570.54 "/>
<polyline clip-path="url(#clip670)" style="stroke:#000000; stroke-linecap:round; stroke-linejoin:round; stroke-width:4; stroke-opacity:1; fill:none" points="287.366,399.718 306.264,399.718 "/>
<polyline clip-path="url(#clip670)" style="stroke:#000000; stroke-linecap:round; stroke-linejoin:round; stroke-width:4; stroke-opacity:1; fill:none" points="287.366,228.897 306.264,228.897 "/>
<path clip-path="url(#clip670)" d="M115.256 1254.28 L144.931 1254.28 L144.931 1258.21 L115.256 1258.21 L115.256 1254.28 Z" fill="#000000" fill-rule="evenodd" fill-opacity="1" /><path clip-path="url(#clip670)" d="M165.024 1239.63 Q161.413 1239.63 159.584 1243.19 Q157.778 1246.73 157.778 1253.86 Q157.778 1260.97 159.584 1264.53 Q161.413 1268.07 165.024 1268.07 Q168.658 1268.07 170.464 1264.53 Q172.292 1260.97 172.292 1253.86 Q172.292 1246.73 170.464 1243.19 Q168.658 1239.63 165.024 1239.63 M165.024 1235.92 Q170.834 1235.92 173.889 1240.53 Q176.968 1245.11 176.968 1253.86 Q176.968 1262.59 173.889 1267.2 Q170.834 1271.78 165.024 1271.78 Q159.214 1271.78 156.135 1267.2 Q153.079 1262.59 153.079 1253.86 Q153.079 1245.11 156.135 1240.53 Q159.214 1235.92 165.024 1235.92 Z" fill="#000000" fill-rule="evenodd" fill-opacity="1" /><path clip-path="url(#clip670)" d="M185.186 1265.23 L190.07 1265.23 L190.07 1271.11 L185.186 1271.11 L185.186 1265.23 Z" fill="#000000" fill-rule="evenodd" fill-opacity="1" /><path clip-path="url(#clip670)" d="M199.075 1236.55 L221.297 1236.55 L221.297 1238.54 L208.75 1271.11 L203.866 1271.11 L215.672 1240.48 L199.075 1240.48 L199.075 1236.55 Z" fill="#000000" fill-rule="evenodd" fill-opacity="1" /><path clip-path="url(#clip670)" d="M230.463 1236.55 L248.82 1236.55 L248.82 1240.48 L234.746 1240.48 L234.746 1248.95 Q235.764 1248.61 236.783 1248.45 Q237.801 1248.26 238.82 1248.26 Q244.607 1248.26 247.986 1251.43 Q251.366 1254.6 251.366 1260.02 Q251.366 1265.6 247.894 1268.7 Q244.421 1271.78 238.102 1271.78 Q235.926 1271.78 233.658 1271.41 Q231.412 1271.04 229.005 1270.3 L229.005 1265.6 Q231.088 1266.73 233.31 1267.29 Q235.533 1267.84 238.009 1267.84 Q242.014 1267.84 244.352 1265.74 Q246.69 1263.63 246.69 1260.02 Q246.69 1256.41 244.352 1254.3 Q242.014 1252.2 238.009 1252.2 Q236.135 1252.2 234.26 1252.61 Q232.408 1253.03 230.463 1253.91 L230.463 1236.55 Z" fill="#000000" fill-rule="evenodd" fill-opacity="1" /><path clip-path="url(#clip670)" d="M114.26 1083.46 L143.936 1083.46 L143.936 1087.39 L114.26 1087.39 L114.26 1083.46 Z" fill="#000000" fill-rule="evenodd" fill-opacity="1" /><path clip-path="url(#clip670)" d="M164.028 1068.8 Q160.417 1068.8 158.589 1072.37 Q156.783 1075.91 156.783 1083.04 Q156.783 1090.15 158.589 1093.71 Q160.417 1097.25 164.028 1097.25 Q167.663 1097.25 169.468 1093.71 Q171.297 1090.15 171.297 1083.04 Q171.297 1075.91 169.468 1072.37 Q167.663 1068.8 164.028 1068.8 M164.028 1065.1 Q169.839 1065.1 172.894 1069.71 Q175.973 1074.29 175.973 1083.04 Q175.973 1091.77 172.894 1096.37 Q169.839 1100.96 164.028 1100.96 Q158.218 1100.96 155.14 1096.37 Q152.084 1091.77 152.084 1083.04 Q152.084 1074.29 155.14 1069.71 Q158.218 1065.1 164.028 1065.1 Z" fill="#000000" fill-rule="evenodd" fill-opacity="1" /><path clip-path="url(#clip670)" d="M184.19 1094.41 L189.075 1094.41 L189.075 1100.29 L184.19 1100.29 L184.19 1094.41 Z" fill="#000000" fill-rule="evenodd" fill-opacity="1" /><path clip-path="url(#clip670)" d="M199.306 1065.73 L217.662 1065.73 L217.662 1069.66 L203.588 1069.66 L203.588 1078.13 Q204.607 1077.79 205.625 1077.62 Q206.644 1077.44 207.662 1077.44 Q213.449 1077.44 216.829 1080.61 Q220.209 1083.78 220.209 1089.2 Q220.209 1094.78 216.736 1097.88 Q213.264 1100.96 206.945 1100.96 Q204.769 1100.96 202.5 1100.59 Q200.255 1100.22 197.848 1099.48 L197.848 1094.78 Q199.931 1095.91 202.153 1096.47 Q204.375 1097.02 206.852 1097.02 Q210.857 1097.02 213.195 1094.91 Q215.533 1092.81 215.533 1089.2 Q215.533 1085.59 213.195 1083.48 Q210.857 1081.37 206.852 1081.37 Q204.977 1081.37 203.102 1081.79 Q201.25 1082.21 199.306 1083.09 L199.306 1065.73 Z" fill="#000000" fill-rule="evenodd" fill-opacity="1" /><path clip-path="url(#clip670)" d="M239.422 1068.8 Q235.81 1068.8 233.982 1072.37 Q232.176 1075.91 232.176 1083.04 Q232.176 1090.15 233.982 1093.71 Q235.81 1097.25 239.422 1097.25 Q243.056 1097.25 244.861 1093.71 Q246.69 1090.15 246.69 1083.04 Q246.69 1075.91 244.861 1072.37 Q243.056 1068.8 239.422 1068.8 M239.422 1065.1 Q245.232 1065.1 248.287 1069.71 Q251.366 1074.29 251.366 1083.04 Q251.366 1091.77 248.287 1096.37 Q245.232 1100.96 239.422 1100.96 Q233.611 1100.96 230.533 1096.37 Q227.477 1091.77 227.477 1083.04 Q227.477 1074.29 230.533 1069.71 Q233.611 1065.1 239.422 1065.1 Z" fill="#000000" fill-rule="evenodd" fill-opacity="1" /><path clip-path="url(#clip670)" d="M115.256 912.635 L144.931 912.635 L144.931 916.57 L115.256 916.57 L115.256 912.635 Z" fill="#000000" fill-rule="evenodd" fill-opacity="1" /><path clip-path="url(#clip670)" d="M165.024 897.982 Q161.413 897.982 159.584 901.547 Q157.778 905.089 157.778 912.218 Q157.778 919.325 159.584 922.89 Q161.413 926.431 165.024 926.431 Q168.658 926.431 170.464 922.89 Q172.292 919.325 172.292 912.218 Q172.292 905.089 170.464 901.547 Q168.658 897.982 165.024 897.982 M165.024 894.279 Q170.834 894.279 173.889 898.885 Q176.968 903.468 176.968 912.218 Q176.968 920.945 173.889 925.552 Q170.834 930.135 165.024 930.135 Q159.214 930.135 156.135 925.552 Q153.079 920.945 153.079 912.218 Q153.079 903.468 156.135 898.885 Q159.214 894.279 165.024 894.279 Z" fill="#000000" fill-rule="evenodd" fill-opacity="1" /><path clip-path="url(#clip670)" d="M185.186 923.584 L190.07 923.584 L190.07 929.464 L185.186 929.464 L185.186 923.584 Z" fill="#000000" fill-rule="evenodd" fill-opacity="1" /><path clip-path="url(#clip670)" d="M204.283 925.528 L220.602 925.528 L220.602 929.464 L198.658 929.464 L198.658 925.528 Q201.32 922.774 205.903 918.144 Q210.51 913.491 211.69 912.149 Q213.936 909.626 214.815 907.89 Q215.718 906.13 215.718 904.441 Q215.718 901.686 213.774 899.95 Q211.852 898.214 208.75 898.214 Q206.551 898.214 204.098 898.978 Q201.667 899.741 198.889 901.292 L198.889 896.57 Q201.713 895.436 204.167 894.857 Q206.621 894.279 208.658 894.279 Q214.028 894.279 217.223 896.964 Q220.417 899.649 220.417 904.14 Q220.417 906.269 219.607 908.191 Q218.82 910.089 216.713 912.681 Q216.135 913.353 213.033 916.57 Q209.931 919.765 204.283 925.528 Z" fill="#000000" fill-rule="evenodd" fill-opacity="1" /><path clip-path="url(#clip670)" d="M230.463 894.904 L248.82 894.904 L248.82 898.839 L234.746 898.839 L234.746 907.311 Q235.764 906.964 236.783 906.802 Q237.801 906.616 238.82 906.616 Q244.607 906.616 247.986 909.788 Q251.366 912.959 251.366 918.376 Q251.366 923.954 247.894 927.056 Q244.421 930.135 238.102 930.135 Q235.926 930.135 233.658 929.764 Q231.412 929.394 229.005 928.653 L229.005 923.954 Q231.088 925.089 233.31 925.644 Q235.533 926.2 238.009 926.2 Q242.014 926.2 244.352 924.093 Q246.69 921.987 246.69 918.376 Q246.69 914.765 244.352 912.658 Q242.014 910.552 238.009 910.552 Q236.135 910.552 234.26 910.968 Q232.408 911.385 230.463 912.265 L230.463 894.904 Z" fill="#000000" fill-rule="evenodd" fill-opacity="1" /><path clip-path="url(#clip670)" d="M164.028 727.16 Q160.417 727.16 158.589 730.725 Q156.783 734.267 156.783 741.397 Q156.783 748.503 158.589 752.068 Q160.417 755.609 164.028 755.609 Q167.663 755.609 169.468 752.068 Q171.297 748.503 171.297 741.397 Q171.297 734.267 169.468 730.725 Q167.663 727.16 164.028 727.16 M164.028 723.457 Q169.839 723.457 172.894 728.063 Q175.973 732.647 175.973 741.397 Q175.973 750.123 172.894 754.73 Q169.839 759.313 164.028 759.313 Q158.218 759.313 155.14 754.73 Q152.084 750.123 152.084 741.397 Q152.084 732.647 155.14 728.063 Q158.218 723.457 164.028 723.457 Z" fill="#000000" fill-rule="evenodd" fill-opacity="1" /><path clip-path="url(#clip670)" d="M184.19 752.762 L189.075 752.762 L189.075 758.642 L184.19 758.642 L184.19 752.762 Z" fill="#000000" fill-rule="evenodd" fill-opacity="1" /><path clip-path="url(#clip670)" d="M209.26 727.16 Q205.649 727.16 203.82 730.725 Q202.014 734.267 202.014 741.397 Q202.014 748.503 203.82 752.068 Q205.649 755.609 209.26 755.609 Q212.894 755.609 214.699 752.068 Q216.528 748.503 216.528 741.397 Q216.528 734.267 214.699 730.725 Q212.894 727.16 209.26 727.16 M209.26 723.457 Q215.07 723.457 218.125 728.063 Q221.204 732.647 221.204 741.397 Q221.204 750.123 218.125 754.73 Q215.07 759.313 209.26 759.313 Q203.449 759.313 200.371 754.73 Q197.315 750.123 197.315 741.397 Q197.315 732.647 200.371 728.063 Q203.449 723.457 209.26 723.457 Z" fill="#000000" fill-rule="evenodd" fill-opacity="1" /><path clip-path="url(#clip670)" d="M239.422 727.16 Q235.81 727.16 233.982 730.725 Q232.176 734.267 232.176 741.397 Q232.176 748.503 233.982 752.068 Q235.81 755.609 239.422 755.609 Q243.056 755.609 244.861 752.068 Q246.69 748.503 246.69 741.397 Q246.69 734.267 244.861 730.725 Q243.056 727.16 239.422 727.16 M239.422 723.457 Q245.232 723.457 248.287 728.063 Q251.366 732.647 251.366 741.397 Q251.366 750.123 248.287 754.73 Q245.232 759.313 239.422 759.313 Q233.611 759.313 230.533 754.73 Q227.477 750.123 227.477 741.397 Q227.477 732.647 230.533 728.063 Q233.611 723.457 239.422 723.457 Z" fill="#000000" fill-rule="evenodd" fill-opacity="1" /><path clip-path="url(#clip670)" d="M165.024 556.339 Q161.413 556.339 159.584 559.904 Q157.778 563.445 157.778 570.575 Q157.778 577.681 159.584 581.246 Q161.413 584.788 165.024 584.788 Q168.658 584.788 170.464 581.246 Q172.292 577.681 172.292 570.575 Q172.292 563.445 170.464 559.904 Q168.658 556.339 165.024 556.339 M165.024 552.635 Q170.834 552.635 173.889 557.242 Q176.968 561.825 176.968 570.575 Q176.968 579.302 173.889 583.908 Q170.834 588.491 165.024 588.491 Q159.214 588.491 156.135 583.908 Q153.079 579.302 153.079 570.575 Q153.079 561.825 156.135 557.242 Q159.214 552.635 165.024 552.635 Z" fill="#000000" fill-rule="evenodd" fill-opacity="1" /><path clip-path="url(#clip670)" d="M185.186 581.94 L190.07 581.94 L190.07 587.82 L185.186 587.82 L185.186 581.94 Z" fill="#000000" fill-rule="evenodd" fill-opacity="1" /><path clip-path="url(#clip670)" d="M204.283 583.885 L220.602 583.885 L220.602 587.82 L198.658 587.82 L198.658 583.885 Q201.32 581.13 205.903 576.501 Q210.51 571.848 211.69 570.505 Q213.936 567.982 214.815 566.246 Q215.718 564.487 215.718 562.797 Q215.718 560.042 213.774 558.306 Q211.852 556.57 208.75 556.57 Q206.551 556.57 204.098 557.334 Q201.667 558.098 198.889 559.649 L198.889 554.927 Q201.713 553.792 204.167 553.214 Q206.621 552.635 208.658 552.635 Q214.028 552.635 217.223 555.32 Q220.417 558.005 220.417 562.496 Q220.417 564.626 219.607 566.547 Q218.82 568.445 216.713 571.038 Q216.135 571.709 213.033 574.927 Q209.931 578.121 204.283 583.885 Z" fill="#000000" fill-rule="evenodd" fill-opacity="1" /><path clip-path="url(#clip670)" d="M230.463 553.26 L248.82 553.26 L248.82 557.195 L234.746 557.195 L234.746 565.667 Q235.764 565.32 236.783 565.158 Q237.801 564.973 238.82 564.973 Q244.607 564.973 247.986 568.144 Q251.366 571.316 251.366 576.732 Q251.366 582.311 247.894 585.413 Q244.421 588.491 238.102 588.491 Q235.926 588.491 233.658 588.121 Q231.412 587.751 229.005 587.01 L229.005 582.311 Q231.088 583.445 233.31 584.001 Q235.533 584.556 238.009 584.556 Q242.014 584.556 244.352 582.45 Q246.69 580.343 246.69 576.732 Q246.69 573.121 244.352 571.015 Q242.014 568.908 238.009 568.908 Q236.135 568.908 234.26 569.325 Q232.408 569.741 230.463 570.621 L230.463 553.26 Z" fill="#000000" fill-rule="evenodd" fill-opacity="1" /><path clip-path="url(#clip670)" d="M164.028 385.517 Q160.417 385.517 158.589 389.082 Q156.783 392.623 156.783 399.753 Q156.783 406.859 158.589 410.424 Q160.417 413.966 164.028 413.966 Q167.663 413.966 169.468 410.424 Q171.297 406.859 171.297 399.753 Q171.297 392.623 169.468 389.082 Q167.663 385.517 164.028 385.517 M164.028 381.813 Q169.839 381.813 172.894 386.42 Q175.973 391.003 175.973 399.753 Q175.973 408.48 172.894 413.086 Q169.839 417.67 164.028 417.67 Q158.218 417.67 155.14 413.086 Q152.084 408.48 152.084 399.753 Q152.084 391.003 155.14 386.42 Q158.218 381.813 164.028 381.813 Z" fill="#000000" fill-rule="evenodd" fill-opacity="1" /><path clip-path="url(#clip670)" d="M184.19 411.119 L189.075 411.119 L189.075 416.998 L184.19 416.998 L184.19 411.119 Z" fill="#000000" fill-rule="evenodd" fill-opacity="1" /><path clip-path="url(#clip670)" d="M199.306 382.438 L217.662 382.438 L217.662 386.373 L203.588 386.373 L203.588 394.846 Q204.607 394.498 205.625 394.336 Q206.644 394.151 207.662 394.151 Q213.449 394.151 216.829 397.322 Q220.209 400.494 220.209 405.91 Q220.209 411.489 216.736 414.591 Q213.264 417.67 206.945 417.67 Q204.769 417.67 202.5 417.299 Q200.255 416.929 197.848 416.188 L197.848 411.489 Q199.931 412.623 202.153 413.179 Q204.375 413.734 206.852 413.734 Q210.857 413.734 213.195 411.628 Q215.533 409.521 215.533 405.91 Q215.533 402.299 213.195 400.193 Q210.857 398.086 206.852 398.086 Q204.977 398.086 203.102 398.503 Q201.25 398.92 199.306 399.799 L199.306 382.438 Z" fill="#000000" fill-rule="evenodd" fill-opacity="1" /><path clip-path="url(#clip670)" d="M239.422 385.517 Q235.81 385.517 233.982 389.082 Q232.176 392.623 232.176 399.753 Q232.176 406.859 233.982 410.424 Q235.81 413.966 239.422 413.966 Q243.056 413.966 244.861 410.424 Q246.69 406.859 246.69 399.753 Q246.69 392.623 244.861 389.082 Q243.056 385.517 239.422 385.517 M239.422 381.813 Q245.232 381.813 248.287 386.42 Q251.366 391.003 251.366 399.753 Q251.366 408.48 248.287 413.086 Q245.232 417.67 239.422 417.67 Q233.611 417.67 230.533 413.086 Q227.477 408.48 227.477 399.753 Q227.477 391.003 230.533 386.42 Q233.611 381.813 239.422 381.813 Z" fill="#000000" fill-rule="evenodd" fill-opacity="1" /><path clip-path="url(#clip670)" d="M165.024 214.695 Q161.413 214.695 159.584 218.26 Q157.778 221.802 157.778 228.931 Q157.778 236.038 159.584 239.603 Q161.413 243.144 165.024 243.144 Q168.658 243.144 170.464 239.603 Q172.292 236.038 172.292 228.931 Q172.292 221.802 170.464 218.26 Q168.658 214.695 165.024 214.695 M165.024 210.992 Q170.834 210.992 173.889 215.598 Q176.968 220.181 176.968 228.931 Q176.968 237.658 173.889 242.265 Q170.834 246.848 165.024 246.848 Q159.214 246.848 156.135 242.265 Q153.079 237.658 153.079 228.931 Q153.079 220.181 156.135 215.598 Q159.214 210.992 165.024 210.992 Z" fill="#000000" fill-rule="evenodd" fill-opacity="1" /><path clip-path="url(#clip670)" d="M185.186 240.297 L190.07 240.297 L190.07 246.177 L185.186 246.177 L185.186 240.297 Z" fill="#000000" fill-rule="evenodd" fill-opacity="1" /><path clip-path="url(#clip670)" d="M199.075 211.617 L221.297 211.617 L221.297 213.607 L208.75 246.177 L203.866 246.177 L215.672 215.552 L199.075 215.552 L199.075 211.617 Z" fill="#000000" fill-rule="evenodd" fill-opacity="1" /><path clip-path="url(#clip670)" d="M230.463 211.617 L248.82 211.617 L248.82 215.552 L234.746 215.552 L234.746 224.024 Q235.764 223.677 236.783 223.515 Q237.801 223.329 238.82 223.329 Q244.607 223.329 247.986 226.501 Q251.366 229.672 251.366 235.089 Q251.366 240.667 247.894 243.769 Q244.421 246.848 238.102 246.848 Q235.926 246.848 233.658 246.477 Q231.412 246.107 229.005 245.366 L229.005 240.667 Q231.088 241.802 233.31 242.357 Q235.533 242.913 238.009 242.913 Q242.014 242.913 244.352 240.806 Q246.69 238.7 246.69 235.089 Q246.69 231.478 244.352 229.371 Q242.014 227.265 238.009 227.265 Q236.135 227.265 234.26 227.681 Q232.408 228.098 230.463 228.978 L230.463 211.617 Z" fill="#000000" fill-rule="evenodd" fill-opacity="1" /><path clip-path="url(#clip670)" d="M65.2145 931.766 L56.519 931.766 Q55.7782 931.766 55.5206 931.734 Q55.2629 931.701 55.0697 931.508 Q54.8765 931.315 54.8765 930.929 Q54.8765 930.478 55.0697 930.317 Q55.2629 930.123 56.0037 929.995 Q60.5447 928.996 62.9601 926.871 Q65.3434 924.713 65.3434 920.816 Q65.3434 917.112 63.7009 915.244 Q62.0584 913.376 59.3531 913.376 Q54.5222 913.376 53.2984 920.236 Q52.4932 924.198 51.9779 925.84 Q51.4304 927.483 50.2388 928.932 Q47.92 931.766 44.635 931.766 Q41.35 931.766 38.9346 929.286 Q36.5191 926.774 36.5191 921.235 Q36.5191 917.531 38.3871 915.019 Q37.8073 914.278 37.3243 913.892 Q36.5191 913.022 36.5191 912.571 Q36.5191 912.056 36.8734 911.959 Q37.1954 911.863 38.1294 911.863 L44.7638 911.863 Q45.5045 911.863 45.7622 911.895 Q46.0198 911.927 46.2131 912.12 Q46.3741 912.314 46.3741 912.732 Q46.3741 913.473 45.7622 913.505 Q37.7751 914.02 37.7751 921.235 Q37.7751 925.131 39.2888 926.871 Q40.7703 928.61 42.7993 928.61 Q43.9265 928.61 44.796 928.094 Q45.6334 927.547 46.1487 926.871 Q46.6318 926.162 47.1148 924.874 Q47.5657 923.586 47.7268 922.813 Q47.8878 922.008 48.2098 920.494 Q49.2082 915.212 51.366 912.99 Q54.1357 910.22 57.6462 910.22 Q61.5431 910.22 64.1839 912.861 Q66.8248 915.502 66.8248 920.816 Q66.8248 925.099 63.9585 928.094 Q64.345 928.481 64.6992 928.771 Q65.0213 929.061 65.1501 929.189 Q65.2789 929.286 65.3756 929.318 Q65.44 929.35 65.5044 929.415 Q66.8248 930.735 66.8248 931.057 Q66.8248 931.573 66.4706 931.669 Q66.1485 931.766 65.2145 931.766 Z" fill="#000000" fill-rule="evenodd" fill-opacity="1" /><path clip-path="url(#clip670)" d="M62.5415 901.972 Q58.2259 906.32 51.9779 906.32 Q45.6978 906.32 41.1246 902.069 Q36.5191 897.785 36.5191 891.666 Q36.5191 885.676 41.0923 881.392 Q45.6334 877.077 51.9779 877.077 Q58.1937 877.077 62.5092 881.425 Q66.8248 885.74 66.8248 891.73 Q66.8248 897.592 62.5415 901.972 M51.4304 900.845 Q57.8394 900.845 60.7379 899.17 Q65.1501 896.594 65.1501 891.666 Q65.1501 889.218 63.8297 887.189 Q62.5092 885.128 60.287 884.001 Q57.3885 882.552 51.4304 882.552 Q45.0859 882.552 42.284 884.291 Q38.0006 886.867 38.0006 891.73 Q38.0006 893.856 39.1278 895.949 Q40.2228 898.011 42.4128 899.267 Q45.3113 900.845 51.4304 900.845 Z" fill="#000000" fill-rule="evenodd" fill-opacity="1" /><path clip-path="url(#clip670)" d="M66.0841 874.976 L64.0551 874.976 Q64.0551 871.465 63.6364 870.66 Q63.1856 869.855 61.06 869.855 L43.379 869.855 Q40.9313 869.855 40.3194 870.724 Q39.7075 871.562 39.7075 874.976 L37.6463 874.976 L36.9378 865.7 L43.8621 865.7 Q36.9378 862.609 36.9378 855.942 Q36.9378 850.982 39.3854 849.018 Q41.0279 847.568 42.8637 847.279 Q44.6994 846.957 49.4659 846.957 L62.0584 846.957 Q63.4432 846.892 63.7653 845.829 Q64.0551 844.767 64.0551 841.804 L66.0841 841.804 Q65.8909 848.535 65.8909 849.211 Q65.8909 849.726 66.0841 856.651 L64.0551 856.651 Q64.0551 853.14 63.6364 852.335 Q63.1856 851.498 61.06 851.498 L45.6978 851.498 Q42.3484 851.498 40.3838 852.528 Q38.3871 853.559 38.3871 856.393 Q38.3871 859.807 41.2534 862.544 Q44.1197 865.282 48.9506 865.282 L61.06 865.282 Q63.1856 865.282 63.6364 864.477 Q64.0551 863.639 64.0551 860.161 L66.0841 860.161 Q65.8909 866.892 65.8909 867.536 Q65.8909 868.051 66.0841 874.976 Z" fill="#000000" fill-rule="evenodd" fill-opacity="1" /><path clip-path="url(#clip670)" d="M49.5947 838.739 Q38.4515 838.739 29.466 834.584 Q25.6979 832.813 22.5418 830.333 Q19.3856 827.853 18.0007 826.211 Q16.6159 824.568 16.6159 824.117 Q16.6159 823.473 17.26 823.441 Q17.5821 823.441 18.3872 824.311 Q29.2084 834.939 49.5947 834.906 Q70.0454 834.906 80.4479 824.568 Q81.5751 823.441 81.9294 823.441 Q82.5735 823.441 82.5735 824.117 Q82.5735 824.568 81.2531 826.146 Q79.9326 827.725 76.9053 830.172 Q73.8779 832.62 70.1742 834.391 Q61.1888 838.739 49.5947 838.739 Z" fill="#000000" fill-rule="evenodd" fill-opacity="1" /><path clip-path="url(#clip670)" d="M33.1053 789.861 Q38.5159 789.861 44.6028 791.601 Q50.6575 793.307 55.5528 796.013 Q60.4159 798.718 63.6364 802.261 Q66.8248 805.803 66.8248 809.185 Q66.8248 811.343 65.6332 812.953 Q64.4094 814.531 62.3804 815.401 Q60.3192 816.27 58.0648 816.689 Q55.7782 817.108 53.2984 817.108 Q49.5947 817.108 45.569 816.302 Q41.511 815.497 37.8396 814.145 Q34.1359 812.792 30.7865 810.892 Q27.4049 808.992 24.9572 806.898 Q22.4774 804.773 21.0281 802.389 Q19.5788 800.006 19.5788 797.784 Q19.5788 796.174 20.2874 794.885 Q20.9637 793.565 22.1553 792.728 Q23.3147 791.89 24.6996 791.311 Q26.0844 790.699 27.6947 790.409 Q29.2728 790.119 30.5932 789.99 Q31.8815 789.861 33.1053 789.861 M29.0151 794.209 Q27.3726 794.209 26.1488 794.338 Q24.8928 794.467 23.6368 794.821 Q22.3807 795.175 21.7044 795.948 Q21.0281 796.689 21.0281 797.848 Q21.0281 801.23 27.9524 805.03 Q30.1101 806.254 33.0409 807.349 Q35.9716 808.444 37.3565 808.831 Q38.7413 809.217 42.1551 810.119 L42.1551 796.335 Q33.3629 794.209 29.0151 794.209 M44.2485 796.914 L44.2485 810.634 Q52.3 812.76 57.3241 812.76 Q61.7041 812.76 63.5398 811.858 Q65.3434 810.924 65.3434 809.185 Q65.3434 807.188 63.3466 805.32 Q61.3176 803.452 57.6462 801.552 Q52.8797 799.04 44.2485 796.914 Z" fill="#000000" fill-rule="evenodd" fill-opacity="1" /><path clip-path="url(#clip670)" d="M65.0213 785.551 Q63.9585 786.485 62.5737 786.485 Q61.1888 786.485 60.1582 785.583 Q59.0954 784.649 59.0954 782.975 Q59.0954 781.01 60.9956 779.883 Q62.8635 778.756 66.0197 778.756 Q69.4335 778.756 72.5897 780.14 Q75.7781 781.525 77.2917 782.878 Q78.8054 784.231 78.8054 784.778 Q78.8054 785.422 78.0969 785.422 Q77.8392 785.422 77.3561 784.971 Q72.2676 780.237 66.0197 780.205 Q65.0213 780.205 65.0213 780.334 L65.1501 780.495 Q66.0841 781.622 66.0841 782.975 Q66.0841 784.617 65.0213 785.551 Z" fill="#000000" fill-rule="evenodd" fill-opacity="1" /><path clip-path="url(#clip670)" d="M44.9893 757.94 Q35.2953 757.94 30.0135 755.492 Q22.1553 752.078 22.1553 744.027 Q22.1553 742.32 22.6384 740.549 Q23.0893 738.745 24.8606 736.491 Q26.6319 734.204 29.5304 732.819 Q35.1343 730.178 44.9893 730.178 Q54.6188 730.178 59.8684 732.626 Q67.5334 736.201 67.5334 744.091 Q67.5334 747.054 66.0197 750.082 Q64.506 753.077 60.8667 754.977 Q55.424 757.94 44.9893 757.94 M44.1841 752.465 Q54.1357 752.465 58.097 751.756 Q62.3804 750.951 64.2484 748.761 Q66.0841 746.539 66.0841 744.091 Q66.0841 741.451 64.1195 739.261 Q62.1228 737.038 57.8394 736.362 Q53.6204 735.621 44.1841 735.653 Q35.0054 735.653 31.334 736.298 Q27.0506 737.167 25.3437 739.486 Q23.6046 741.773 23.6046 744.091 Q23.6046 744.961 23.8622 745.895 Q24.1199 746.797 24.8606 748.117 Q25.6013 749.438 27.4371 750.468 Q29.2728 751.467 32.0425 751.95 Q35.6174 752.465 44.1841 752.465 Z" fill="#000000" fill-rule="evenodd" fill-opacity="1" /><path clip-path="url(#clip670)" d="M65.0213 724.277 Q63.9585 725.276 62.5737 725.276 Q61.1888 725.276 60.1904 724.277 Q59.1598 723.279 59.1598 721.765 Q59.1598 720.316 60.126 719.35 Q61.06 718.352 62.6059 718.352 Q64.1195 718.352 65.1179 719.414 Q66.0841 720.445 66.0841 721.765 Q66.0841 723.279 65.0213 724.277 Z" fill="#000000" fill-rule="evenodd" fill-opacity="1" /><path clip-path="url(#clip670)" d="M66.0841 707.126 Q64.8925 707.126 64.5382 707.029 Q64.1839 706.9 63.6364 706.385 L49.5303 693.728 Q41.7365 686.804 34.941 686.804 Q30.5288 686.804 27.3726 689.123 Q24.2165 691.409 24.2165 695.628 Q24.2165 698.527 25.9878 700.974 Q27.7591 703.422 30.9153 704.549 Q30.8509 704.356 30.8509 703.68 Q30.8509 702.037 31.8815 701.135 Q32.9121 700.201 34.2969 700.201 Q36.0682 700.201 36.9378 701.361 Q37.7751 702.488 37.7751 703.615 Q37.7751 704.066 37.6785 704.678 Q37.5819 705.258 36.6801 706.192 Q35.7462 707.126 34.1037 707.126 Q29.4982 707.126 25.8268 703.647 Q22.1553 700.137 22.1553 694.791 Q22.1553 688.736 25.7624 684.775 Q29.3372 680.781 34.941 680.781 Q36.9056 680.781 38.7091 681.393 Q40.4804 681.973 41.8653 682.778 Q43.2501 683.551 45.4723 685.677 Q47.6945 687.802 49.2726 689.509 Q50.8507 691.216 54.2001 695.048 L60.9956 702.037 L60.9956 690.153 Q60.9956 684.356 60.4803 683.905 Q59.5463 683.261 54.6188 682.456 L54.6188 680.781 L66.0841 682.649 L66.0841 707.126 Z" fill="#000000" fill-rule="evenodd" fill-opacity="1" /><path clip-path="url(#clip670)" d="M55.4562 674.198 Q53.4916 674.198 52.7509 673.135 Q51.9779 672.072 51.9779 670.945 Q51.9779 669.431 52.9441 668.562 Q53.8781 667.66 55.1985 667.66 Q56.519 667.66 57.4851 668.562 Q58.4191 669.431 58.4191 670.945 Q58.4191 671.685 58.2903 672.072 Q61.3176 671.202 63.5076 668.562 Q65.6976 665.888 65.6976 662.378 Q65.6976 657.966 61.4142 655.325 Q58.6445 653.747 52.3644 653.747 Q46.825 653.747 44.0553 654.938 Q39.8363 656.774 39.8363 660.542 Q39.8363 665.888 44.4418 669.045 Q45.0215 669.431 45.0537 669.882 Q45.0537 670.526 44.6994 670.687 Q44.3129 670.816 43.3146 670.816 L23.7978 670.816 Q22.2197 670.816 22.2197 670.172 Q22.2197 669.914 22.4129 669.367 Q24.2487 665.212 24.2809 660.607 Q24.2809 655.872 22.3485 651.621 Q22.1553 651.299 22.1553 651.106 Q22.1553 650.462 22.896 650.43 Q23.1537 650.43 23.9266 650.977 Q24.6674 651.492 25.6657 652.62 Q26.6319 653.747 27.5659 655.196 Q28.4999 656.645 29.144 658.771 Q29.7559 660.864 29.7559 663.183 Q29.7559 665.953 28.8863 668.787 L41.7365 668.787 Q38.3871 665.373 38.3871 660.413 Q38.3871 655.132 42.6382 651.492 Q46.8894 647.853 52.8153 647.853 Q59.031 647.853 63.2822 652.169 Q67.5334 656.452 67.5334 662.249 Q67.5334 667.531 63.7653 670.88 Q59.9972 674.198 55.4562 674.198 Z" fill="#000000" fill-rule="evenodd" fill-opacity="1" /><path clip-path="url(#clip670)" d="M81.9294 640.213 Q81.6073 640.213 80.8022 639.376 Q69.981 628.748 49.5947 628.748 Q29.144 628.748 18.8059 638.957 Q17.6143 640.213 17.26 640.213 Q16.6159 640.213 16.6159 639.569 Q16.6159 639.118 17.9363 637.54 Q19.2568 635.93 22.2841 633.515 Q25.3115 631.067 29.0151 629.263 Q38.0006 624.916 49.5947 624.916 Q60.7379 624.916 69.7234 629.07 Q73.4914 630.842 76.6476 633.321 Q79.8038 635.801 81.1886 637.444 Q82.5735 639.086 82.5735 639.569 Q82.5735 640.213 81.9294 640.213 Z" fill="#000000" fill-rule="evenodd" fill-opacity="1" /><path clip-path="url(#clip670)" d="M1063.43 21.812 Q1063.43 24.0664 1061.99 25.4601 Q1060.6 26.8537 1058.83 26.8537 Q1057.56 26.8537 1056.62 26.0749 Q1055.72 25.2961 1055.72 23.9435 Q1055.72 22.5498 1056.78 21.0742 Q1057.85 19.5986 1060.27 19.3937 Q1058.67 17.8771 1056.13 17.8771 Q1054.86 17.8771 1053.79 18.6968 Q1052.77 19.4756 1052.19 20.7463 Q1051.58 22.058 1050.19 29.477 Q1049.73 31.8954 1049.32 34.2318 Q1048.91 36.5682 1048.42 39.0275 L1055.39 39.0275 Q1056.29 39.0275 1056.66 39.0685 Q1057.03 39.1095 1057.32 39.3145 Q1057.65 39.5194 1057.65 39.9703 Q1057.65 41.118 1057.11 41.4049 Q1056.62 41.6508 1055.15 41.6508 L1047.93 41.6508 L1042.89 68.2529 Q1042.77 69.0317 1042.23 71.491 Q1041.74 73.9094 1040.55 77.8854 Q1039.36 81.9023 1038.18 84.2797 Q1037.52 85.6323 1036.66 86.903 Q1035.84 88.2147 1034.65 89.5263 Q1033.46 90.838 1031.9 91.6168 Q1030.35 92.4366 1028.71 92.4366 Q1025.92 92.4366 1023.75 90.879 Q1021.58 89.3214 1021.58 86.6571 Q1021.58 84.4027 1022.97 83.009 Q1024.4 81.6154 1026.17 81.6154 Q1027.44 81.6154 1028.34 82.3942 Q1029.28 83.173 1029.28 84.5256 Q1029.28 85.0995 1029.08 85.7553 Q1028.87 86.4111 1028.42 87.1489 Q1027.97 87.9277 1026.99 88.4606 Q1026 88.9935 1024.65 89.0754 Q1026.25 90.592 1028.71 90.592 Q1029.49 90.592 1030.18 90.2641 Q1030.88 89.9772 1031.45 89.2394 Q1032.07 88.5016 1032.52 87.7638 Q1032.97 87.067 1033.42 85.7143 Q1033.87 84.4027 1034.16 83.4189 Q1034.45 82.4352 1034.81 80.6726 Q1035.22 78.9101 1035.43 77.8444 Q1035.63 76.8196 1036 74.8112 L1042.27 41.6508 L1036.74 41.6508 Q1035.76 41.6508 1035.35 41.6099 Q1034.98 41.5689 1034.69 41.3639 Q1034.4 41.118 1034.4 40.6261 Q1034.4 39.8473 1034.73 39.5194 Q1035.1 39.1505 1035.51 39.1095 Q1035.92 39.0275 1036.91 39.0275 L1042.73 39.0275 Q1044.69 28.6572 1045.47 25.87 Q1046.37 22.9187 1047.77 20.8693 Q1049.16 18.7788 1050.72 17.7951 Q1052.28 16.8113 1053.55 16.4424 Q1054.86 16.0325 1056.13 16.0325 Q1059 16.0325 1061.21 17.5901 Q1063.43 19.1067 1063.43 21.812 Z" fill="#000000" fill-rule="evenodd" fill-opacity="1" /><path clip-path="url(#clip670)" d="M1074.72 54.2346 Q1074.72 40.0523 1080.01 28.6163 Q1082.27 23.8205 1085.42 19.8036 Q1088.58 15.7866 1090.67 14.0241 Q1092.76 12.2615 1093.33 12.2615 Q1094.15 12.2615 1094.19 13.0813 Q1094.19 13.4912 1093.09 14.5159 Q1079.56 28.2883 1079.6 54.2346 Q1079.6 80.2627 1092.76 93.5023 Q1094.19 94.9369 1094.19 95.3878 Q1094.19 96.2076 1093.33 96.2076 Q1092.76 96.2076 1090.75 94.527 Q1088.74 92.8465 1085.63 88.9935 Q1082.51 85.1405 1080.26 80.4267 Q1074.72 68.9907 1074.72 54.2346 Z" fill="#000000" fill-rule="evenodd" fill-opacity="1" /><path clip-path="url(#clip670)" d="M1136.93 33.248 Q1136.93 40.1342 1134.72 47.8812 Q1132.55 55.5872 1129.1 61.8176 Q1125.66 68.0069 1121.15 72.1059 Q1116.64 76.1638 1112.34 76.1638 Q1109.59 76.1638 1107.54 74.6472 Q1105.53 73.0896 1104.43 70.5073 Q1103.32 67.884 1102.79 65.0147 Q1102.25 62.1045 1102.25 58.9483 Q1102.25 54.2346 1103.28 49.1109 Q1104.3 43.9462 1106.03 39.2735 Q1107.75 34.5597 1110.17 30.2968 Q1112.58 25.9929 1115.25 22.8778 Q1117.95 19.7216 1120.99 17.8771 Q1124.02 16.0325 1126.85 16.0325 Q1128.9 16.0325 1130.54 16.9343 Q1132.22 17.7951 1133.28 19.3117 Q1134.35 20.7873 1135.09 22.5498 Q1135.87 24.3124 1136.23 26.3618 Q1136.6 28.3703 1136.77 30.0509 Q1136.93 31.6904 1136.93 33.248 M1131.4 28.0424 Q1131.4 25.952 1131.23 24.3944 Q1131.07 22.7958 1130.62 21.1972 Q1130.17 19.5986 1129.18 18.7378 Q1128.24 17.8771 1126.77 17.8771 Q1122.46 17.8771 1117.63 26.6898 Q1116.07 29.436 1114.67 33.1661 Q1113.28 36.8961 1112.79 38.6586 Q1112.3 40.4212 1111.15 44.766 L1128.69 44.766 Q1131.4 33.576 1131.4 28.0424 M1127.95 47.4303 L1110.49 47.4303 Q1107.79 57.6777 1107.79 64.072 Q1107.79 69.6465 1108.94 71.9829 Q1110.12 74.2783 1112.34 74.2783 Q1114.88 74.2783 1117.26 71.737 Q1119.63 69.1546 1122.05 64.4819 Q1125.25 58.4155 1127.95 47.4303 Z" fill="#000000" fill-rule="evenodd" fill-opacity="1" /><path clip-path="url(#clip670)" d="M1145.59 95.3878 Q1145.59 94.9779 1146.66 93.9532 Q1160.19 80.1808 1160.19 54.2346 Q1160.19 28.2064 1147.19 15.0488 Q1145.59 13.5322 1145.59 13.0813 Q1145.59 12.2615 1146.41 12.2615 Q1146.99 12.2615 1149 13.9421 Q1151.05 15.6227 1154.12 19.4756 Q1157.24 23.3286 1159.53 28.0424 Q1165.06 39.4784 1165.06 54.2346 Q1165.06 68.4168 1159.78 79.8529 Q1157.52 84.6486 1154.37 88.6655 Q1151.21 92.6825 1149.12 94.445 Q1147.03 96.2076 1146.41 96.2076 Q1145.59 96.2076 1145.59 95.3878 Z" fill="#000000" fill-rule="evenodd" fill-opacity="1" /><path clip-path="url(#clip670)" d="M1201.12 62.4734 Q1201.2 61.4487 1202.8 61.4487 L1254.24 61.4487 Q1256.66 61.4487 1256.7 62.3914 Q1256.7 63.4162 1254.4 63.3752 L1203.37 63.3752 Q1201.12 63.4162 1201.12 62.4734 M1201.12 46.0777 Q1201.12 45.053 1202.88 45.0939 L1254.16 45.0939 Q1256.66 45.0939 1256.7 46.0777 Q1256.7 47.0204 1254.57 47.0204 L1202.8 47.0204 Q1201.12 47.0204 1201.12 46.0777 Z" fill="#000000" fill-rule="evenodd" fill-opacity="1" /><path clip-path="url(#clip670)" d="M1289.08 74.1144 L1289.08 63.0472 Q1289.08 62.1045 1289.12 61.7766 Q1289.16 61.4487 1289.41 61.2027 Q1289.65 60.9568 1290.14 60.9568 Q1290.72 60.9568 1290.92 61.2027 Q1291.17 61.4487 1291.33 62.3914 Q1292.6 68.1709 1295.31 71.2451 Q1298.05 74.2783 1303.01 74.2783 Q1307.73 74.2783 1310.11 72.1879 Q1312.48 70.0974 1312.48 66.6543 Q1312.48 60.5059 1303.75 58.9483 Q1298.71 57.9236 1296.62 57.2678 Q1294.53 56.5709 1292.68 55.0543 Q1289.08 52.1031 1289.08 47.9222 Q1289.08 43.7413 1292.23 40.6671 Q1295.43 37.5929 1302.48 37.5929 Q1307.2 37.5929 1310.39 39.9703 Q1311.34 39.2325 1311.83 38.6176 Q1312.93 37.5929 1313.51 37.5929 Q1314.16 37.5929 1314.29 38.0438 Q1314.41 38.4537 1314.41 39.6424 L1314.41 48.0862 Q1314.41 49.0289 1314.37 49.3568 Q1314.33 49.6847 1314.08 49.9307 Q1313.84 50.1356 1313.3 50.1356 Q1312.36 50.1356 1312.32 49.3568 Q1311.66 39.1915 1302.48 39.1915 Q1297.52 39.1915 1295.31 41.118 Q1293.09 43.0035 1293.09 45.5858 Q1293.09 47.0204 1293.75 48.1271 Q1294.45 49.1929 1295.31 49.8487 Q1296.21 50.4635 1297.85 51.0784 Q1299.49 51.6522 1300.47 51.8572 Q1301.5 52.0621 1303.42 52.472 Q1310.15 53.7427 1312.97 56.489 Q1316.5 60.014 1316.5 64.4819 Q1316.5 69.4416 1313.14 72.8027 Q1309.78 76.1638 1303.01 76.1638 Q1297.56 76.1638 1293.75 72.5158 Q1293.26 73.0076 1292.89 73.4585 Q1292.52 73.8684 1292.36 74.0324 Q1292.23 74.1963 1292.19 74.3193 Q1292.15 74.4013 1292.07 74.4833 Q1290.39 76.1638 1289.98 76.1638 Q1289.32 76.1638 1289.2 75.7129 Q1289.08 75.303 1289.08 74.1144 Z" fill="#000000" fill-rule="evenodd" fill-opacity="1" /><path clip-path="url(#clip670)" d="M1327 70.7122 Q1321.46 65.2197 1321.46 57.2678 Q1321.46 49.2748 1326.87 43.4544 Q1332.32 37.5929 1340.11 37.5929 Q1347.74 37.5929 1353.19 43.4134 Q1358.68 49.1929 1358.68 57.2678 Q1358.68 65.1787 1353.15 70.6713 Q1347.65 76.1638 1340.03 76.1638 Q1332.57 76.1638 1327 70.7122 M1328.43 56.5709 Q1328.43 64.7278 1330.56 68.4168 Q1333.84 74.0324 1340.11 74.0324 Q1343.23 74.0324 1345.81 72.3518 Q1348.43 70.6713 1349.87 67.843 Q1351.71 64.154 1351.71 56.5709 Q1351.71 48.4961 1349.5 44.93 Q1346.22 39.4784 1340.03 39.4784 Q1337.33 39.4784 1334.66 40.913 Q1332.04 42.3067 1330.44 45.0939 Q1328.43 48.783 1328.43 56.5709 Z" fill="#000000" fill-rule="evenodd" fill-opacity="1" /><path clip-path="url(#clip670)" d="M1361.35 75.2211 L1361.35 72.6387 Q1365.82 72.6387 1366.85 72.1059 Q1367.87 71.532 1367.87 68.8267 L1367.87 46.3236 Q1367.87 43.2084 1366.76 42.4296 Q1365.7 41.6508 1361.35 41.6508 L1361.35 39.0275 L1373.16 38.1258 L1373.16 46.9385 Q1377.09 38.1258 1385.58 38.1258 Q1391.89 38.1258 1394.39 41.241 Q1396.23 43.3314 1396.6 45.6678 Q1397.01 48.0042 1397.01 54.0706 L1397.01 70.0974 Q1397.1 71.8599 1398.45 72.2698 Q1399.8 72.6387 1403.57 72.6387 L1403.57 75.2211 Q1395 74.9751 1394.14 74.9751 Q1393.49 74.9751 1384.68 75.2211 L1384.68 72.6387 Q1389.14 72.6387 1390.17 72.1059 Q1391.23 71.532 1391.23 68.8267 L1391.23 49.2748 Q1391.23 45.012 1389.92 42.5116 Q1388.61 39.9703 1385 39.9703 Q1380.66 39.9703 1377.17 43.6183 Q1373.69 47.2664 1373.69 53.4148 L1373.69 68.8267 Q1373.69 71.532 1374.72 72.1059 Q1375.78 72.6387 1380.21 72.6387 L1380.21 75.2211 Q1371.64 74.9751 1370.82 74.9751 Q1370.17 74.9751 1361.35 75.2211 Z" fill="#000000" fill-rule="evenodd" fill-opacity="1" /><path clip-path="url(#clip670)" d="M1407.47 54.2346 Q1407.47 40.0523 1412.76 28.6163 Q1415.01 23.8205 1418.17 19.8036 Q1421.32 15.7866 1423.41 14.0241 Q1425.5 12.2615 1426.08 12.2615 Q1426.9 12.2615 1426.94 13.0813 Q1426.94 13.4912 1425.83 14.5159 Q1412.31 28.2883 1412.35 54.2346 Q1412.35 80.2627 1425.5 93.5023 Q1426.94 94.9369 1426.94 95.3878 Q1426.94 96.2076 1426.08 96.2076 Q1425.5 96.2076 1423.5 94.527 Q1421.49 92.8465 1418.37 88.9935 Q1415.26 85.1405 1413 80.4267 Q1407.47 68.9907 1407.47 54.2346 Z" fill="#000000" fill-rule="evenodd" fill-opacity="1" /><path clip-path="url(#clip670)" d="M1469.68 33.248 Q1469.68 40.1342 1467.46 47.8812 Q1465.29 55.5872 1461.85 61.8176 Q1458.4 68.0069 1453.89 72.1059 Q1449.39 76.1638 1445.08 76.1638 Q1442.34 76.1638 1440.29 74.6472 Q1438.28 73.0896 1437.17 70.5073 Q1436.06 67.884 1435.53 65.0147 Q1435 62.1045 1435 58.9483 Q1435 54.2346 1436.02 49.1109 Q1437.05 43.9462 1438.77 39.2735 Q1440.49 34.5597 1442.91 30.2968 Q1445.33 25.9929 1447.99 22.8778 Q1450.7 19.7216 1453.73 17.8771 Q1456.76 16.0325 1459.59 16.0325 Q1461.64 16.0325 1463.28 16.9343 Q1464.96 17.7951 1466.03 19.3117 Q1467.09 20.7873 1467.83 22.5498 Q1468.61 24.3124 1468.98 26.3618 Q1469.35 28.3703 1469.51 30.0509 Q1469.68 31.6904 1469.68 33.248 M1464.14 28.0424 Q1464.14 25.952 1463.98 24.3944 Q1463.81 22.7958 1463.36 21.1972 Q1462.91 19.5986 1461.93 18.7378 Q1460.99 17.8771 1459.51 17.8771 Q1455.21 17.8771 1450.37 26.6898 Q1448.81 29.436 1447.42 33.1661 Q1446.03 36.8961 1445.53 38.6586 Q1445.04 40.4212 1443.89 44.766 L1461.44 44.766 Q1464.14 33.576 1464.14 28.0424 M1460.7 47.4303 L1443.24 47.4303 Q1440.53 57.6777 1440.53 64.072 Q1440.53 69.6465 1441.68 71.9829 Q1442.87 74.2783 1445.08 74.2783 Q1447.62 74.2783 1450 71.737 Q1452.38 69.1546 1454.8 64.4819 Q1457.99 58.4155 1460.7 47.4303 Z" fill="#000000" fill-rule="evenodd" fill-opacity="1" /><path clip-path="url(#clip670)" d="M1475.16 73.8684 Q1473.97 72.5158 1473.97 70.7532 Q1473.97 68.9907 1475.12 67.679 Q1476.31 66.3264 1478.44 66.3264 Q1480.94 66.3264 1482.37 68.7448 Q1483.81 71.1221 1483.81 75.1391 Q1483.81 79.4839 1482.05 83.5009 Q1480.28 87.5588 1478.56 89.4853 Q1476.84 91.4118 1476.14 91.4118 Q1475.32 91.4118 1475.32 90.5101 Q1475.32 90.1821 1475.9 89.5673 Q1481.92 83.091 1481.96 75.1391 Q1481.96 73.8684 1481.8 73.8684 L1481.6 74.0324 Q1480.16 75.2211 1478.44 75.2211 Q1476.35 75.2211 1475.16 73.8684 Z" fill="#000000" fill-rule="evenodd" fill-opacity="1" /><path clip-path="url(#clip670)" d="M1579.08 63.2112 Q1579.08 63.5391 1578.71 64.8098 Q1578.34 66.0805 1577.44 68.0479 Q1576.58 70.0154 1575.35 71.819 Q1574.16 73.5815 1572.19 74.8931 Q1570.27 76.1638 1568.05 76.1638 Q1565.1 76.1638 1563.13 74.1963 Q1561.17 72.2288 1561.17 69.2776 Q1561.17 67.679 1562.27 64.6458 Q1567.48 50.7915 1567.48 45.8318 Q1567.48 39.9703 1562.93 39.9703 Q1560.35 39.9703 1558.01 41.036 Q1555.67 42.1017 1554.16 43.5773 Q1552.64 45.053 1551.45 46.7335 Q1550.26 48.4141 1549.73 49.5208 Q1549.24 50.6275 1549.11 51.1194 L1544.07 71.3681 Q1543.66 73.0896 1543.38 73.9094 Q1543.09 74.7292 1542.31 75.426 Q1541.53 76.1638 1540.3 76.1638 Q1539.28 76.1638 1538.54 75.549 Q1537.84 74.9341 1537.84 73.8684 Q1537.84 73.7045 1538.05 72.8437 Q1538.25 71.9829 1538.54 70.7942 Q1538.83 69.6055 1538.95 68.9087 Q1540.43 63.3342 1540.63 62.5554 L1542.97 52.7999 Q1544.24 47.9632 1544.24 45.8318 Q1544.24 39.9703 1539.69 39.9703 Q1537.43 39.9703 1535.3 40.8311 Q1533.21 41.6508 1531.78 42.7985 Q1530.34 43.9462 1529.03 45.5448 Q1527.76 47.1024 1527.1 48.1681 Q1526.49 49.1929 1526 50.2176 L1524.93 54.3985 Q1524.69 55.5462 1523.5 60.014 L1521.65 67.5971 Q1520.34 73.2536 1520.05 73.7864 Q1519.64 74.9341 1518.74 75.549 Q1517.84 76.1638 1516.94 76.1638 Q1515.91 76.1638 1515.22 75.549 Q1514.52 74.9341 1514.52 73.8684 Q1514.52 73.7045 1514.64 73.0896 Q1514.77 72.4748 1514.97 71.614 Q1515.18 70.7532 1515.26 70.2614 L1520.14 50.8734 Q1521.04 47.3484 1521.24 46.2416 Q1521.49 45.0939 1521.49 43.8233 Q1521.49 39.9703 1518.86 39.9703 Q1516.73 39.9703 1515.34 42.5116 Q1513.95 45.053 1512.76 49.9717 Q1512.39 51.3243 1512.14 51.6112 Q1511.94 51.8982 1511.32 51.8982 Q1510.3 51.8572 1510.3 51.0374 Q1510.3 50.8324 1510.63 49.5208 Q1510.95 48.2091 1511.57 46.2416 Q1512.22 44.2332 1512.92 42.9215 Q1513.33 42.0607 1513.7 41.4869 Q1514.07 40.913 1514.81 40.0113 Q1515.54 39.1095 1516.65 38.6176 Q1517.76 38.1258 1519.11 38.1258 Q1522.1 38.1258 1524.32 40.0523 Q1526.57 41.9788 1526.86 45.4219 Q1532.31 38.1258 1539.93 38.1258 Q1544.24 38.1258 1546.82 40.2982 Q1549.24 42.3887 1549.52 46.2416 Q1555.18 38.1258 1563.22 38.1258 Q1567.85 38.1258 1570.35 40.5441 Q1572.85 42.9215 1572.85 47.1024 Q1572.85 49.2748 1571.74 53.4148 Q1570.63 57.5137 1569.9 59.5632 Q1569.16 61.6126 1567.72 65.5476 Q1566.21 69.3186 1566.21 71.532 Q1566.21 72.9667 1566.7 73.6225 Q1567.19 74.2783 1568.26 74.2783 Q1569.9 74.2783 1571.33 73.3356 Q1572.77 72.3518 1573.79 70.7532 Q1574.86 69.1137 1575.55 67.4741 Q1576.25 65.7935 1576.78 63.908 Q1577.11 62.8833 1577.27 62.6374 Q1577.48 62.3914 1578.05 62.3914 Q1579.08 62.3914 1579.08 63.2112 Z" fill="#000000" fill-rule="evenodd" fill-opacity="1" /><path clip-path="url(#clip670)" d="M1586.31 95.3878 Q1586.31 94.9779 1587.38 93.9532 Q1600.91 80.1808 1600.91 54.2346 Q1600.91 28.2064 1587.91 15.0488 Q1586.31 13.5322 1586.31 13.0813 Q1586.31 12.2615 1587.13 12.2615 Q1587.71 12.2615 1589.72 13.9421 Q1591.77 15.6227 1594.84 19.4756 Q1597.95 23.3286 1600.25 28.0424 Q1605.78 39.4784 1605.78 54.2346 Q1605.78 68.4168 1600.5 79.8529 Q1598.24 84.6486 1595.09 88.6655 Q1591.93 92.6825 1589.84 94.445 Q1587.75 96.2076 1587.13 96.2076 Q1586.31 96.2076 1586.31 95.3878 Z" fill="#000000" fill-rule="evenodd" fill-opacity="1" /><polyline clip-path="url(#clip673)" style="stroke:#009af9; stroke-linecap:round; stroke-linejoin:round; stroke-width:4; stroke-opacity:1; fill:none" points="345.82,1198.05 348.923,1196.22 352.026,1194.35 355.128,1192.44 358.231,1190.49 361.334,1188.49 364.436,1186.44 367.539,1184.36 370.642,1182.23 373.744,1180.06 376.847,1177.84 379.95,1175.59 383.052,1173.29 386.155,1170.95 389.258,1168.57 392.36,1166.15 395.463,1163.68 398.566,1161.18 401.669,1158.63 404.771,1156.05 407.874,1153.42 410.977,1150.76 414.079,1148.05 417.182,1145.31 420.285,1142.52 423.387,1139.7 426.49,1136.84 429.593,1133.95 432.695,1131.01 435.798,1128.04 438.901,1125.03 442.003,1121.98 445.106,1118.9 448.209,1115.78 451.311,1112.62 454.414,1109.43 457.517,1106.21 460.619,1102.95 463.722,1099.65 466.825,1096.32 469.927,1092.96 473.03,1089.56 476.133,1086.13 479.235,1082.67 482.338,1079.18 485.441,1075.65 488.543,1072.09 491.646,1068.5 494.749,1064.88 497.852,1061.23 500.954,1057.55 504.057,1053.84 507.16,1050.1 510.262,1046.33 513.365,1042.53 516.468,1038.7 519.57,1034.85 522.673,1030.97 525.776,1027.06 528.878,1023.12 531.981,1019.16 535.084,1015.17 538.186,1011.16 541.289,1007.12 544.392,1003.06 547.494,998.974 550.597,994.863 553.7,990.73 556.802,986.573 559.905,982.394 563.008,978.193 566.11,973.97 569.213,969.726 572.316,965.461 575.418,961.176 578.521,956.872 581.624,952.548 584.726,948.205 587.829,943.843 590.932,939.464 594.034,935.066 597.137,930.652 600.24,926.221 603.343,921.774 606.445,917.311 609.548,912.833 612.651,908.34 615.753,903.833 618.856,899.312 621.959,894.777 625.061,890.23 628.164,885.67 631.267,881.098 634.369,876.515 637.472,871.92 640.575,867.316 643.677,862.701 646.78,858.076 649.883,853.442 652.985,848.8 656.088,844.149 659.191,839.491 662.293,834.826 665.396,830.154 668.499,825.476 671.601,820.792 674.704,816.103 677.807,811.41 680.909,806.712 684.012,802.01 687.115,797.305 690.217,792.598 693.32,787.888 696.423,783.177 699.526,778.464 702.628,773.75 705.731,769.037 708.834,764.323 711.936,759.61 715.039,754.899 718.142,750.189 721.244,745.482 724.347,740.777 727.45,736.075 730.552,731.378 733.655,726.684 736.758,721.995 739.86,717.312 742.963,712.634 746.066,707.962 749.168,703.298 752.271,698.64 755.374,693.99 758.476,689.349 761.579,684.716 764.682,680.092 767.784,675.478 770.887,670.874 773.99,666.282 777.092,661.7 780.195,657.13 783.298,652.572 786.4,648.027 789.503,643.495 792.606,638.977 795.708,634.473 798.811,629.983 801.914,625.509 805.017,621.051 808.119,616.608 811.222,612.182 814.325,607.774 817.427,603.383 820.53,599.01 823.633,594.655 826.735,590.32 829.838,586.004 832.941,581.708 836.043,577.433 839.146,573.179 842.249,568.946 845.351,564.735 848.454,560.546 851.557,556.38 854.659,552.238 857.762,548.12 860.865,544.025 863.967,539.956 867.07,535.912 870.173,531.893 873.275,527.901 876.378,523.935 879.481,519.996 882.583,516.085 885.686,512.202 888.789,508.347 891.891,504.521 894.994,500.725 898.097,496.958 901.2,493.222 904.302,489.516 907.405,485.842 910.508,482.199 913.61,478.588 916.713,475.01 919.816,471.464 922.918,467.952 926.021,464.474 929.124,461.03 932.226,457.621 935.329,454.247 938.432,450.908 941.534,447.605 944.637,444.339 947.74,441.11 950.842,437.918 953.945,434.763 957.048,431.647 960.15,428.569 963.253,425.531 966.356,422.531 969.458,419.572 972.561,416.652 975.664,413.774 978.766,410.936 981.869,408.14 984.972,405.386 988.074,402.674 991.177,400.005 994.28,397.379 997.383,394.796 1000.49,392.258 1003.59,389.763 1006.69,387.314 1009.79,384.91 1012.9,382.551 1016,380.239 1019.1,377.973 1022.2,375.753 1025.31,373.581 1028.41,371.457 1031.51,369.381 1034.61,367.353 1037.72,365.374 1040.82,363.445 1043.92,361.565 1047.03,359.736 1050.13,357.957 1053.23,356.229 1056.33,354.553 1059.44,352.929 1062.54,351.357 1065.64,349.837 1068.74,348.371 1071.85,346.959 1074.95,345.601 1078.05,344.298 1081.15,343.049 1084.26,341.856 1087.36,340.72 1090.46,339.639 1093.57,338.616 1096.67,337.651 1099.77,336.743 1102.87,335.894 1105.98,335.104 1109.08,334.374 1112.18,333.704 1115.28,333.095 1118.39,332.547 1121.49,332.062 1124.59,331.639 1127.69,331.279 1130.8,330.983 1133.9,330.752 1137,330.587 1140.11,330.487 1143.21,330.454 1146.31,330.489 1149.41,330.593 1152.52,330.766 1155.62,331.009 1158.72,331.324 1161.82,331.711 1164.93,332.171 1168.03,332.705 1171.13,333.315 1174.24,334.001 1177.34,334.766 1180.44,335.61 1183.54,336.534 1186.65,337.541 1189.75,338.632 1192.85,339.809 1195.95,341.072 1199.06,342.426 1202.16,343.87 1205.26,345.409 1208.36,347.043 1211.47,348.776 1214.57,350.611 1217.67,352.55 1220.78,354.598 1223.88,356.756 1226.98,359.03 1230.08,361.424 1233.19,363.942 1236.29,366.59 1239.39,369.373 1242.49,372.298 1245.6,375.372 1248.7,378.602 1251.8,381.998 1254.9,385.57 1258.01,389.329 1261.11,393.288 1264.21,397.462 1267.32,401.869 1270.42,406.528 1273.52,411.464 1276.62,416.705 1279.73,422.284 1282.83,428.244 1285.93,434.636 1289.03,441.523 1292.14,448.99 1295.24,457.144 1298.34,466.134 1301.44,476.168 1304.55,487.555 1307.65,500.785 1310.75,516.71 1313.86,537.06 1316.96,566.461 1320.06,634.875 1323.16,513.099 1326.27,463.725 1329.37,431.965 1332.47,407.814 1335.57,388.058 1338.68,371.217 1341.78,356.473 1344.88,343.327 1347.98,331.444 1351.09,320.594 1354.19,310.607 1357.29,301.356 1360.4,292.741 1363.5,284.686 1366.6,277.128 1369.7,270.015 1372.81,263.305 1375.91,256.962 1379.01,250.957 1382.11,245.264 1385.22,239.86 1388.32,234.726 1391.42,229.846 1394.53,225.204 1397.63,220.788 1400.73,216.586 1403.83,212.587 1406.94,208.783 1410.04,205.164 1413.14,201.723 1416.24,198.454 1419.35,195.35 1422.45,192.405 1425.55,189.614 1428.65,186.973 1431.76,184.476 1434.86,182.121 1437.96,179.902 1441.07,177.817 1444.17,175.863 1447.27,174.035 1450.37,172.333 1453.48,170.752 1456.58,169.29 1459.68,167.946 1462.78,166.716 1465.89,165.599 1468.99,164.594 1472.09,163.697 1475.19,162.907 1478.3,162.223 1481.4,161.644 1484.5,161.166 1487.61,160.79 1490.71,160.514 1493.81,160.337 1496.91,160.256 1500.02,160.272 1503.12,160.383 1506.22,160.587 1509.32,160.885 1512.43,161.274 1515.53,161.754 1518.63,162.324 1521.73,162.982 1524.84,163.729 1527.94,164.563 1531.04,165.483 1534.15,166.489 1537.25,167.579 1540.35,168.753 1543.45,170.01 1546.56,171.35 1549.66,172.771 1552.76,174.273 1555.86,175.855 1558.97,177.517 1562.07,179.257 1565.17,181.076 1568.28,182.972 1571.38,184.945 1574.48,186.994 1577.58,189.119 1580.69,191.318 1583.79,193.592 1586.89,195.939 1589.99,198.359 1593.1,200.852 1596.2,203.417 1599.3,206.052 1602.4,208.759 1605.51,211.535 1608.61,214.38 1611.71,217.295 1614.82,220.277 1617.92,223.328 1621.02,226.445 1624.12,229.629 1627.23,232.878 1630.33,236.193 1633.43,239.573 1636.53,243.016 1639.64,246.523 1642.74,250.094 1645.84,253.726 1648.94,257.42 1652.05,261.176 1655.15,264.992 1658.25,268.868 1661.36,272.803 1664.46,276.798 1667.56,280.85 1670.66,284.961 1673.77,289.128 1676.87,293.352 1679.97,297.632 1683.07,301.967 1686.18,306.356 1689.28,310.8 1692.38,315.298 1695.48,319.848 1698.59,324.45 1701.69,329.105 1704.79,333.81 1707.9,338.566 1711,343.372 1714.1,348.227 1717.2,353.13 1720.31,358.082 1723.41,363.081 1726.51,368.127 1729.61,373.219 1732.72,378.356 1735.82,383.538 1738.92,388.765 1742.02,394.035 1745.13,399.349 1748.23,404.704 1751.33,410.102 1754.44,415.54 1757.54,421.019 1760.64,426.538 1763.74,432.095 1766.85,437.692 1769.95,443.326 1773.05,448.997 1776.15,454.705 1779.26,460.449 1782.36,466.228 1785.46,472.042 1788.57,477.889 1791.67,483.77 1794.77,489.683 1797.87,495.628 1800.98,501.605 1804.08,507.612 1807.18,513.648 1810.28,519.714 1813.39,525.809 1816.49,531.931 1819.59,538.081 1822.69,544.257 1825.8,550.459 1828.9,556.686 1832,562.937 1835.11,569.212 1838.21,575.51 1841.31,581.831 1844.41,588.173 1847.52,594.536 1850.62,600.92 1853.72,607.323 1856.82,613.745 1859.93,620.185 1863.03,626.642 1866.13,633.117 1869.23,639.607 1872.34,646.113 1875.44,652.633 1878.54,659.168 1881.65,665.716 1884.75,672.276 1887.85,678.848 1890.95,685.432 1894.06,692.025 1897.16,698.629 1900.26,705.242 1903.36,711.863 1906.47,718.491 1909.57,725.127 1912.67,731.769 1915.77,738.416 1918.88,745.068 1921.98,751.725 1925.08,758.384 1928.19,765.047 1931.29,771.711 1934.39,778.377 1937.49,785.043 1940.6,791.709 1943.7,798.374 1946.8,805.038 1949.9,811.699 1953.01,818.358 1956.11,825.013 1959.21,831.663 1962.32,838.309 1965.42,844.949 1968.52,851.582 1971.62,858.208 1974.73,864.827 1977.83,871.437 1980.93,878.038 1984.03,884.628 1987.14,891.209 1990.24,897.778 1993.34,904.335 1996.44,910.879 1999.55,917.41 2002.65,923.927 2005.75,930.429 2008.86,936.916 2011.96,943.387 2015.06,949.841 2018.16,956.278 2021.27,962.696 2024.37,969.096 2027.47,975.477 2030.57,981.837 2033.68,988.177 2036.78,994.496 2039.88,1000.79 2042.98,1007.07 2046.09,1013.32 2049.19,1019.54 2052.29,1025.74 2055.4,1031.92 2058.5,1038.07 2061.6,1044.19 2064.7,1050.29 2067.81,1056.36 2070.91,1062.4 2074.01,1068.41 2077.11,1074.39 2080.22,1080.34 2083.32,1086.26 2086.42,1092.15 2089.52,1098.01 2092.63,1103.83 2095.73,1109.62 2098.83,1115.38 2101.94,1121.1 2105.04,1126.79 2108.14,1132.44 2111.24,1138.05 2114.35,1143.63 2117.45,1149.17 2120.55,1154.67 2123.65,1160.14 2126.76,1165.56 2129.86,1170.94 2132.96,1176.29 2136.06,1181.59 2139.17,1186.85 2142.27,1192.07 2145.37,1197.25 2148.48,1202.38 2151.58,1207.47 2154.68,1212.52 2157.78,1217.52 2160.89,1222.48 2163.99,1227.39 2167.09,1232.25 2170.19,1237.07 2173.3,1241.84 2176.4,1246.57 2179.5,1251.24 2182.61,1255.87 2185.71,1260.45 2188.81,1264.97 2191.91,1269.45 2195.02,1273.88 2198.12,1278.26 2201.22,1282.58 2204.32,1286.85 2207.43,1291.08 2210.53,1295.24 2213.63,1299.36 2216.73,1303.42 2219.84,1307.43 2222.94,1311.38 2226.04,1315.28 2229.15,1319.12 2232.25,1322.91 2235.35,1326.64 2238.45,1330.31 2241.56,1333.93 2244.66,1337.49 2247.76,1340.99 2250.86,1344.44 2253.97,1347.83 2257.07,1351.15 2260.17,1354.42 2263.27,1357.63 2266.38,1360.78 2269.48,1363.87 2272.58,1366.9 2275.69,1369.87 2278.79,1372.78 2281.89,1375.63 2284.99,1378.41 2288.1,1381.14 2291.2,1383.8 2294.3,1386.4 "/>
<polyline clip-path="url(#clip673)" style="stroke:#e26f46; stroke-linecap:round; stroke-linejoin:round; stroke-width:4; stroke-opacity:1; fill:none" points="345.82,1198.05 348.923,1196.22 352.026,1194.35 355.128,1192.44 358.231,1190.49 361.334,1188.49 364.436,1186.44 367.539,1184.36 370.642,1182.23 373.744,1180.06 376.847,1177.84 379.95,1175.59 383.052,1173.29 386.155,1170.95 389.258,1168.57 392.36,1166.15 395.463,1163.68 398.566,1161.18 401.669,1158.63 404.771,1156.05 407.874,1153.42 410.977,1150.76 414.079,1148.05 417.182,1145.31 420.285,1142.52 423.387,1139.7 426.49,1136.84 429.593,1133.95 432.695,1131.01 435.798,1128.04 438.901,1125.03 442.003,1121.98 445.106,1118.9 448.209,1115.78 451.311,1112.62 454.414,1109.43 457.517,1106.21 460.619,1102.95 463.722,1099.65 466.825,1096.32 469.927,1092.96 473.03,1089.56 476.133,1086.13 479.235,1082.67 482.338,1079.18 485.441,1075.65 488.543,1072.09 491.646,1068.5 494.749,1064.88 497.852,1061.23 500.954,1057.55 504.057,1053.84 507.16,1050.1 510.262,1046.33 513.365,1042.53 516.468,1038.7 519.57,1034.85 522.673,1030.97 525.776,1027.06 528.878,1023.12 531.981,1019.16 535.084,1015.17 538.186,1011.16 541.289,1007.12 544.392,1003.06 547.494,998.974 550.597,994.863 553.7,990.73 556.802,986.573 559.905,982.394 563.008,978.193 566.11,973.97 569.213,969.726 572.316,965.461 575.418,961.176 578.521,956.872 581.624,952.548 584.726,948.205 587.829,943.843 590.932,939.464 594.034,935.066 597.137,930.652 600.24,926.221 603.343,921.774 606.445,917.311 609.548,912.833 612.651,908.34 615.753,903.833 618.856,899.312 621.959,894.777 625.061,890.23 628.164,885.67 631.267,881.098 634.369,876.515 637.472,871.92 640.575,867.316 643.677,862.701 646.78,858.076 649.883,853.442 652.985,848.8 656.088,844.149 659.191,839.491 662.293,834.826 665.396,830.154 668.499,825.476 671.601,820.792 674.704,816.103 677.807,811.41 680.909,806.712 684.012,802.01 687.115,797.305 690.217,792.598 693.32,787.888 696.423,783.177 699.526,778.464 702.628,773.75 705.731,769.037 708.834,764.323 711.936,759.61 715.039,754.899 718.142,750.189 721.244,745.482 724.347,740.777 727.45,736.075 730.552,731.378 733.655,726.684 736.758,721.995 739.86,717.312 742.963,712.634 746.066,707.962 749.168,703.298 752.271,698.64 755.374,693.99 758.476,689.349 761.579,684.716 764.682,680.092 767.784,675.478 770.887,670.874 773.99,666.282 777.092,661.7 780.195,657.13 783.298,652.572 786.4,648.027 789.503,643.495 792.606,638.977 795.708,634.473 798.811,629.983 801.914,625.509 805.017,621.051 808.119,616.608 811.222,612.182 814.325,607.774 817.427,603.383 820.53,599.01 823.633,594.655 826.735,590.32 829.838,586.004 832.941,581.708 836.043,577.433 839.146,573.179 842.249,568.946 845.351,564.735 848.454,560.546 851.557,556.38 854.659,552.238 857.762,548.12 860.865,544.025 863.967,539.956 867.07,535.912 870.173,531.893 873.275,527.901 876.378,523.935 879.481,519.996 882.583,516.085 885.686,512.202 888.789,508.347 891.891,504.521 894.994,500.725 898.097,496.958 901.2,493.222 904.302,489.516 907.405,485.842 910.508,482.199 913.61,478.588 916.713,475.01 919.816,471.464 922.918,467.952 926.021,464.474 929.124,461.03 932.226,457.621 935.329,454.247 938.432,450.908 941.534,447.605 944.637,444.339 947.74,441.11 950.842,437.918 953.945,434.763 957.048,431.647 960.15,428.569 963.253,425.531 966.356,422.531 969.458,419.572 972.561,416.652 975.664,413.774 978.766,410.936 981.869,408.14 984.972,405.386 988.074,402.674 991.177,400.005 994.28,397.379 997.383,394.796 1000.49,392.258 1003.59,389.763 1006.69,387.314 1009.79,384.91 1012.9,382.551 1016,380.239 1019.1,377.973 1022.2,375.753 1025.31,373.581 1028.41,371.457 1031.51,369.381 1034.61,367.353 1037.72,365.374 1040.82,363.445 1043.92,361.565 1047.03,359.736 1050.13,357.957 1053.23,356.229 1056.33,354.553 1059.44,352.929 1062.54,351.357 1065.64,349.837 1068.74,348.371 1071.85,346.959 1074.95,345.601 1078.05,344.298 1081.15,343.049 1084.26,341.856 1087.36,340.72 1090.46,339.639 1093.57,338.616 1096.67,337.651 1099.77,336.743 1102.87,335.894 1105.98,335.104 1109.08,334.374 1112.18,333.704 1115.28,333.095 1118.39,332.547 1121.49,332.062 1124.59,331.639 1127.69,331.279 1130.8,330.983 1133.9,330.752 1137,330.587 1140.11,330.487 1143.21,330.454 1146.31,330.489 1149.41,330.593 1152.52,330.766 1155.62,331.009 1158.72,331.324 1161.82,331.711 1164.93,332.171 1168.03,332.705 1171.13,333.315 1174.24,334.001 1177.34,334.766 1180.44,335.61 1183.54,336.534 1186.65,337.541 1189.75,338.632 1192.85,339.809 1195.95,341.072 1199.06,342.426 1202.16,343.87 1205.26,345.409 1208.36,347.043 1211.47,348.776 1214.57,350.611 1217.67,352.55 1220.78,354.598 1223.88,356.756 1226.98,359.03 1230.08,361.424 1233.19,363.942 1236.29,366.59 1239.39,369.373 1242.49,372.298 1245.6,375.372 1248.7,378.602 1251.8,381.998 1254.9,385.57 1258.01,389.329 1261.11,393.288 1264.21,397.462 1267.32,401.869 1270.42,406.528 1273.52,411.464 1276.62,416.705 1279.73,422.284 1282.83,428.244 1285.93,434.636 1289.03,441.523 1292.14,448.99 1295.24,457.144 1298.34,466.134 1301.44,476.168 1304.55,487.555 1307.65,500.785 1310.75,516.71 1313.86,537.06 1316.96,566.461 1320.06,634.875 1323.16,741.362 1326.27,741.362 1329.37,741.362 1332.47,741.362 1335.57,741.362 1338.68,741.362 1341.78,741.362 1344.88,741.362 1347.98,741.362 1351.09,741.362 1354.19,741.362 1357.29,741.362 1360.4,741.362 1363.5,741.362 1366.6,741.362 1369.7,741.362 1372.81,741.362 1375.91,741.362 1379.01,741.362 1382.11,741.362 1385.22,741.362 1388.32,741.362 1391.42,741.362 1394.53,741.362 1397.63,741.362 1400.73,741.362 1403.83,741.362 1406.94,741.362 1410.04,741.362 1413.14,741.362 1416.24,741.362 1419.35,741.362 1422.45,741.362 1425.55,741.362 1428.65,741.362 1431.76,741.362 1434.86,741.362 1437.96,741.362 1441.07,741.362 1444.17,741.362 1447.27,741.362 1450.37,741.362 1453.48,741.362 1456.58,741.362 1459.68,741.362 1462.78,741.362 1465.89,741.362 1468.99,741.362 1472.09,741.362 1475.19,741.362 1478.3,741.362 1481.4,741.362 1484.5,741.362 1487.61,741.362 1490.71,741.362 1493.81,741.362 1496.91,741.362 1500.02,741.362 1503.12,741.362 1506.22,741.362 1509.32,741.362 1512.43,741.362 1515.53,741.362 1518.63,741.362 1521.73,741.362 1524.84,741.362 1527.94,741.362 1531.04,741.362 1534.15,741.362 1537.25,741.362 1540.35,741.362 1543.45,741.362 1546.56,741.362 1549.66,741.362 1552.76,741.362 1555.86,741.362 1558.97,741.362 1562.07,741.362 1565.17,741.362 1568.28,741.362 1571.38,741.362 1574.48,741.362 1577.58,741.362 1580.69,741.362 1583.79,741.362 1586.89,741.362 1589.99,741.362 1593.1,741.362 1596.2,741.362 1599.3,741.362 1602.4,741.362 1605.51,741.362 1608.61,741.362 1611.71,741.362 1614.82,741.362 1617.92,741.362 1621.02,741.362 1624.12,741.362 1627.23,741.362 1630.33,741.362 1633.43,741.362 1636.53,741.362 1639.64,741.362 1642.74,741.362 1645.84,741.362 1648.94,741.362 1652.05,741.362 1655.15,741.362 1658.25,741.362 1661.36,741.362 1664.46,741.362 1667.56,741.362 1670.66,741.362 1673.77,741.362 1676.87,741.362 1679.97,741.362 1683.07,741.362 1686.18,741.362 1689.28,741.362 1692.38,741.362 1695.48,741.362 1698.59,741.362 1701.69,741.362 1704.79,741.362 1707.9,741.362 1711,741.362 1714.1,741.362 1717.2,741.362 1720.31,741.362 1723.41,741.362 1726.51,741.362 1729.61,741.362 1732.72,741.362 1735.82,741.362 1738.92,741.362 1742.02,741.362 1745.13,741.362 1748.23,741.362 1751.33,741.362 1754.44,741.362 1757.54,741.362 1760.64,741.362 1763.74,741.362 1766.85,741.362 1769.95,741.362 1773.05,741.362 1776.15,741.362 1779.26,741.362 1782.36,741.362 1785.46,741.362 1788.57,741.362 1791.67,741.362 1794.77,741.362 1797.87,741.362 1800.98,741.362 1804.08,741.362 1807.18,741.362 1810.28,741.362 1813.39,741.362 1816.49,741.362 1819.59,741.362 1822.69,741.362 1825.8,741.362 1828.9,741.362 1832,741.362 1835.11,741.362 1838.21,741.362 1841.31,741.362 1844.41,741.362 1847.52,741.362 1850.62,741.362 1853.72,741.362 1856.82,741.362 1859.93,741.362 1863.03,741.362 1866.13,741.362 1869.23,741.362 1872.34,741.362 1875.44,741.362 1878.54,741.362 1881.65,741.362 1884.75,741.362 1887.85,741.362 1890.95,741.362 1894.06,741.362 1897.16,741.362 1900.26,741.362 1903.36,741.362 1906.47,741.362 1909.57,741.362 1912.67,741.362 1915.77,741.362 1918.88,741.362 1921.98,741.362 1925.08,741.362 1928.19,741.362 1931.29,741.362 1934.39,741.362 1937.49,741.362 1940.6,741.362 1943.7,741.362 1946.8,741.362 1949.9,741.362 1953.01,741.362 1956.11,741.362 1959.21,741.362 1962.32,741.362 1965.42,741.362 1968.52,741.362 1971.62,741.362 1974.73,741.362 1977.83,741.362 1980.93,741.362 1984.03,741.362 1987.14,741.362 1990.24,741.362 1993.34,741.362 1996.44,741.362 1999.55,741.362 2002.65,741.362 2005.75,741.362 2008.86,741.362 2011.96,741.362 2015.06,741.362 2018.16,741.362 2021.27,741.362 2024.37,741.362 2027.47,741.362 2030.57,741.362 2033.68,741.362 2036.78,741.362 2039.88,741.362 2042.98,741.362 2046.09,741.362 2049.19,741.362 2052.29,741.362 2055.4,741.362 2058.5,741.362 2061.6,741.362 2064.7,741.362 2067.81,741.362 2070.91,741.362 2074.01,741.362 2077.11,741.362 2080.22,741.362 2083.32,741.362 2086.42,741.362 2089.52,741.362 2092.63,741.362 2095.73,741.362 2098.83,741.362 2101.94,741.362 2105.04,741.362 2108.14,741.362 2111.24,741.362 2114.35,741.362 2117.45,741.362 2120.55,741.362 2123.65,741.362 2126.76,741.362 2129.86,741.362 2132.96,741.362 2136.06,741.362 2139.17,741.362 2142.27,741.362 2145.37,741.362 2148.48,741.362 2151.58,741.362 2154.68,741.362 2157.78,741.362 2160.89,741.362 2163.99,741.362 2167.09,741.362 2170.19,741.362 2173.3,741.362 2176.4,741.362 2179.5,741.362 2182.61,741.362 2185.71,741.362 2188.81,741.362 2191.91,741.362 2195.02,741.362 2198.12,741.362 2201.22,741.362 2204.32,741.362 2207.43,741.362 2210.53,741.362 2213.63,741.362 2216.73,741.362 2219.84,741.362 2222.94,741.362 2226.04,741.362 2229.15,741.362 2232.25,741.362 2235.35,741.362 2238.45,741.362 2241.56,741.362 2244.66,741.362 2247.76,741.362 2250.86,741.362 2253.97,741.362 2257.07,741.362 2260.17,741.362 2263.27,741.362 2266.38,741.362 2269.48,741.362 2272.58,741.362 2275.69,741.362 2278.79,741.362 2281.89,741.362 2284.99,741.362 2288.1,741.362 2291.2,741.362 2294.3,741.362 "/>
<path clip-path="url(#clip670)" d="M1929.84 322.316 L2283.91 322.316 L2283.91 166.796 L1929.84 166.796  Z" fill="#ffffff" fill-rule="evenodd" fill-opacity="1"/>
<polyline clip-path="url(#clip670)" style="stroke:#000000; stroke-linecap:round; stroke-linejoin:round; stroke-width:4; stroke-opacity:1; fill:none" points="1929.84,322.316 2283.91,322.316 2283.91,166.796 1929.84,166.796 1929.84,322.316 "/>
<polyline clip-path="url(#clip670)" style="stroke:#009af9; stroke-linecap:round; stroke-linejoin:round; stroke-width:4; stroke-opacity:1; fill:none" points="1952.78,218.636 2090.48,218.636 "/>
<path clip-path="url(#clip670)" d="M2144.55 208.306 Q2143.5 208.236 2142.8 207.533 Q2142.56 207.299 2142.33 206.245 Q2142.09 205.191 2142.02 204.231 Q2141.95 202.966 2141.25 201.678 Q2140.62 200.389 2139.24 200.389 Q2137.2 200.389 2135.93 201.725 Q2134.3 203.294 2132.77 205.941 Q2132.82 206.151 2132.91 207.299 Q2133.01 208.423 2133.01 208.868 Q2133.01 212.171 2132.87 213.811 Q2135.7 212.288 2138.37 211.89 L2144.55 208.306 M2151.77 226.951 L2145.37 231.799 L2142.31 226.201 Q2142.33 225.686 2142.35 224.819 Q2142.4 223.952 2142.42 223.25 Q2142.45 222.524 2142.45 221.915 Q2142.45 219.736 2142.19 218.354 Q2141.95 216.973 2141.7 216.551 Q2141.46 216.129 2141.06 215.731 Q2140.31 214.982 2139.21 214.537 Q2138.11 214.068 2137.08 214.068 Q2135.75 214.068 2132.68 214.958 Q2132.47 216.457 2132.09 218.191 Q2131.16 222.125 2129.4 224.796 Q2127.95 225.967 2125.21 228.403 Q2122.49 230.839 2121.34 231.799 Q2120.38 230.839 2119.26 230.066 Q2118.13 229.269 2117.45 229.269 Q2115.49 229.269 2113.96 231.284 L2113.43 230.511 Q2113.5 230.417 2113.71 230.066 Q2113.94 229.714 2114.03 229.574 Q2114.13 229.433 2114.34 229.105 Q2114.57 228.777 2114.69 228.613 Q2114.83 228.426 2115.04 228.145 Q2115.28 227.841 2115.46 227.653 Q2115.65 227.442 2115.89 227.208 Q2116.12 226.974 2116.35 226.763 Q2117.88 225.428 2119.05 225.428 Q2120.15 225.428 2121.34 226.248 Q2122.49 227.068 2123.54 228.215 Q2126.21 226.388 2127.48 223.882 Q2128.18 222.5 2128.65 219.572 Q2129.12 215.895 2129.12 212.897 Q2129.12 211.281 2129.05 210.133 Q2128.98 208.985 2128.51 207.182 Q2128.06 205.355 2127.2 204.09 Q2126.21 202.591 2124.67 201.607 Q2123.15 200.624 2121.53 200.624 Q2120.12 200.624 2119.35 200.928 Q2118.6 201.233 2117.76 202.076 Q2116.89 202.896 2116.89 204.793 Q2116.89 205.214 2117.43 206.105 Q2117.99 206.995 2118.6 207.674 Q2120.15 209.641 2120.52 210.274 Q2121.16 211.492 2121.16 212.101 Q2121.16 213.834 2119.61 215.544 Q2118.34 216.973 2115.25 218.518 L2114.53 217.98 Q2115.81 217.277 2116.89 215.965 Q2117.6 215.099 2117.6 214.115 Q2117.6 213.623 2116.99 212.803 L2115.49 210.742 Q2114.48 209.524 2113.99 208.611 Q2113.52 207.674 2113.52 206.432 Q2113.52 205.121 2114.15 204.02 Q2114.81 202.896 2115.98 201.725 Q2120.1 197.602 2124.76 197.602 Q2126.31 197.602 2127.78 198.563 Q2129.26 199.523 2130.45 200.998 Q2131.48 202.216 2132.19 204.231 L2132.37 203.973 Q2133.64 202.404 2134.88 201.162 Q2138.44 197.602 2142.31 197.602 Q2144.06 197.602 2145.09 198.844 Q2145.84 199.757 2146.15 202.17 Q2146.17 202.38 2146.22 203.247 Q2146.26 204.09 2146.38 204.559 Q2146.47 204.98 2146.62 205.238 Q2146.76 205.472 2147.25 205.683 Q2147.76 205.894 2148.65 205.894 Q2149.29 205.894 2150.46 205.706 L2150.81 206.339 Q2149.12 206.995 2146.64 208.306 Q2142.73 210.321 2140.74 211.89 Q2142.42 211.89 2143.5 212.335 Q2144.58 212.78 2145.63 213.67 Q2146.01 221.962 2146.38 223.133 Q2146.94 224.913 2147.69 226.154 Q2147.72 226.201 2147.83 226.365 Q2147.95 226.529 2147.97 226.576 Q2148.02 226.623 2148.11 226.763 Q2148.23 226.904 2148.3 226.951 Q2148.37 226.997 2148.47 227.091 Q2148.58 227.161 2148.7 227.185 Q2148.82 227.208 2148.93 227.208 Q2149.19 227.208 2151.77 226.201 L2151.77 226.951 Z" fill="#000000" fill-rule="evenodd" fill-opacity="1" /><path clip-path="url(#clip670)" d="M2151.01 242.503 L2151.01 194.534 L2158.25 194.534 L2158.25 195.635 L2154.22 195.635 L2154.22 241.402 L2158.25 241.402 L2158.25 242.503 L2151.01 242.503 Z" fill="#000000" fill-rule="evenodd" fill-opacity="1" /><path clip-path="url(#clip670)" d="M2184.09 199.991 Q2184.09 201.28 2183.27 202.076 Q2182.47 202.872 2181.47 202.872 Q2180.74 202.872 2180.2 202.427 Q2179.69 201.982 2179.69 201.209 Q2179.69 200.413 2180.3 199.57 Q2180.9 198.726 2182.29 198.609 Q2181.37 197.743 2179.92 197.743 Q2179.19 197.743 2178.59 198.211 Q2178 198.656 2177.67 199.382 Q2177.32 200.132 2176.52 204.371 Q2176.27 205.753 2176.03 207.088 Q2175.8 208.423 2175.52 209.829 L2179.5 209.829 Q2180.01 209.829 2180.23 209.852 Q2180.44 209.876 2180.6 209.993 Q2180.79 210.11 2180.79 210.367 Q2180.79 211.023 2180.48 211.187 Q2180.2 211.328 2179.36 211.328 L2175.24 211.328 L2172.36 226.529 Q2172.29 226.974 2171.98 228.379 Q2171.7 229.761 2171.02 232.033 Q2170.34 234.329 2169.66 235.687 Q2169.29 236.46 2168.8 237.186 Q2168.33 237.936 2167.65 238.685 Q2166.97 239.435 2166.08 239.88 Q2165.19 240.348 2164.25 240.348 Q2162.66 240.348 2161.42 239.458 Q2160.18 238.568 2160.18 237.046 Q2160.18 235.757 2160.97 234.961 Q2161.79 234.165 2162.8 234.165 Q2163.53 234.165 2164.04 234.61 Q2164.58 235.055 2164.58 235.828 Q2164.58 236.156 2164.46 236.53 Q2164.34 236.905 2164.09 237.327 Q2163.83 237.772 2163.27 238.076 Q2162.71 238.381 2161.93 238.428 Q2162.85 239.294 2164.25 239.294 Q2164.7 239.294 2165.09 239.107 Q2165.49 238.943 2165.82 238.521 Q2166.17 238.1 2166.43 237.678 Q2166.69 237.28 2166.94 236.507 Q2167.2 235.757 2167.37 235.195 Q2167.53 234.633 2167.74 233.626 Q2167.98 232.619 2168.09 232.01 Q2168.21 231.424 2168.42 230.276 L2172 211.328 L2168.84 211.328 Q2168.28 211.328 2168.05 211.304 Q2167.83 211.281 2167.67 211.164 Q2167.51 211.023 2167.51 210.742 Q2167.51 210.297 2167.69 210.11 Q2167.91 209.899 2168.14 209.876 Q2168.37 209.829 2168.94 209.829 L2172.26 209.829 Q2173.39 203.903 2173.83 202.31 Q2174.35 200.624 2175.14 199.453 Q2175.94 198.258 2176.83 197.696 Q2177.72 197.134 2178.45 196.923 Q2179.19 196.689 2179.92 196.689 Q2181.56 196.689 2182.83 197.579 Q2184.09 198.445 2184.09 199.991 Z" fill="#000000" fill-rule="evenodd" fill-opacity="1" /><path clip-path="url(#clip670)" d="M2190.54 218.518 Q2190.54 210.414 2193.56 203.879 Q2194.85 201.139 2196.66 198.844 Q2198.46 196.548 2199.65 195.541 Q2200.85 194.534 2201.18 194.534 Q2201.64 194.534 2201.67 195.002 Q2201.67 195.237 2201.04 195.822 Q2193.31 203.692 2193.33 218.518 Q2193.33 233.392 2200.85 240.957 Q2201.67 241.777 2201.67 242.035 Q2201.67 242.503 2201.18 242.503 Q2200.85 242.503 2199.7 241.543 Q2198.55 240.582 2196.77 238.381 Q2194.99 236.179 2193.7 233.485 Q2190.54 226.951 2190.54 218.518 Z" fill="#000000" fill-rule="evenodd" fill-opacity="1" /><path clip-path="url(#clip670)" d="M2226.09 206.526 Q2226.09 210.461 2224.82 214.888 Q2223.58 219.291 2221.61 222.852 Q2219.64 226.388 2217.07 228.731 Q2214.49 231.049 2212.03 231.049 Q2210.46 231.049 2209.29 230.183 Q2208.14 229.293 2207.51 227.817 Q2206.88 226.318 2206.57 224.679 Q2206.27 223.016 2206.27 221.212 Q2206.27 218.518 2206.86 215.591 Q2207.44 212.639 2208.42 209.969 Q2209.41 207.276 2210.79 204.84 Q2212.17 202.38 2213.7 200.6 Q2215.24 198.797 2216.97 197.743 Q2218.71 196.689 2220.32 196.689 Q2221.49 196.689 2222.43 197.204 Q2223.39 197.696 2224 198.563 Q2224.61 199.406 2225.03 200.413 Q2225.48 201.42 2225.69 202.591 Q2225.9 203.739 2225.99 204.699 Q2226.09 205.636 2226.09 206.526 M2222.92 203.551 Q2222.92 202.357 2222.83 201.467 Q2222.74 200.553 2222.48 199.64 Q2222.22 198.726 2221.66 198.235 Q2221.12 197.743 2220.28 197.743 Q2217.82 197.743 2215.05 202.779 Q2214.16 204.348 2213.37 206.479 Q2212.57 208.611 2212.29 209.618 Q2212.01 210.625 2211.35 213.108 L2221.38 213.108 Q2222.92 206.714 2222.92 203.551 M2220.96 214.63 L2210.98 214.63 Q2209.43 220.486 2209.43 224.14 Q2209.43 227.325 2210.09 228.66 Q2210.77 229.972 2212.03 229.972 Q2213.48 229.972 2214.84 228.52 Q2216.2 227.044 2217.58 224.374 Q2219.41 220.908 2220.96 214.63 Z" fill="#000000" fill-rule="evenodd" fill-opacity="1" /><path clip-path="url(#clip670)" d="M2231.03 242.035 Q2231.03 241.8 2231.64 241.215 Q2239.37 233.345 2239.37 218.518 Q2239.37 203.645 2231.95 196.127 Q2231.03 195.26 2231.03 195.002 Q2231.03 194.534 2231.5 194.534 Q2231.83 194.534 2232.98 195.494 Q2234.15 196.454 2235.9 198.656 Q2237.68 200.858 2239 203.551 Q2242.16 210.086 2242.16 218.518 Q2242.16 226.623 2239.14 233.157 Q2237.85 235.898 2236.04 238.193 Q2234.24 240.489 2233.05 241.496 Q2231.85 242.503 2231.5 242.503 Q2231.03 242.503 2231.03 242.035 Z" fill="#000000" fill-rule="evenodd" fill-opacity="1" /><path clip-path="url(#clip670)" d="M2247.53 241.402 L2251.56 241.402 L2251.56 195.635 L2247.53 195.635 L2247.53 194.534 L2254.76 194.534 L2254.76 242.503 L2247.53 242.503 L2247.53 241.402 Z" fill="#000000" fill-rule="evenodd" fill-opacity="1" /><polyline clip-path="url(#clip670)" style="stroke:#e26f46; stroke-linecap:round; stroke-linejoin:round; stroke-width:4; stroke-opacity:1; fill:none" points="1952.78,270.476 2090.48,270.476 "/>
<path clip-path="url(#clip670)" d="M2137.67 250.941 Q2134.11 254.267 2130.22 256.305 L2124.04 254.056 Q2122.28 253.518 2121.3 253.518 Q2118.93 253.518 2117.45 255.064 Q2115.56 256.961 2114.25 260.474 L2113.43 259.959 Q2114.29 257.663 2115.74 254.572 Q2116.8 252.44 2117.81 251.363 Q2119.47 249.442 2122.35 249.442 Q2124.43 249.442 2129.75 251.995 Q2131.39 252.745 2132.28 252.745 Q2133.45 252.745 2134.53 252.136 Q2135.63 251.574 2137.13 250.168 L2137.67 250.941 M2136.75 254.619 Q2135.26 255.954 2134.2 257.687 Q2133.64 258.717 2133.64 260.099 Q2133.64 262.395 2133.78 263.215 Q2134.34 267.384 2134.34 270.593 Q2134.34 275.956 2131.51 278.791 Q2126.66 283.639 2121.3 283.639 Q2119.28 283.639 2116.71 281.344 L2114.15 283.124 L2113.92 282.351 Q2114.62 281.39 2115.93 279.915 Q2117.24 278.416 2118.23 277.385 Q2119.21 276.331 2119.38 276.214 Q2120.38 278.369 2120.71 279.001 Q2121.06 279.634 2121.53 280.102 Q2122.14 280.711 2123.05 281.109 Q2123.99 281.484 2124.86 281.484 Q2125.86 281.484 2126.59 281.109 Q2127.34 280.735 2128.11 279.962 Q2129.1 278.978 2129.7 276.682 Q2130.22 274.996 2130.22 272.42 Q2130.22 269.984 2129.75 266.33 Q2129.35 262.934 2129.35 261.762 Q2129.35 261.224 2129.45 260.146 Q2132.89 256.375 2136.17 254.291 L2136.75 254.619 Z" fill="#000000" fill-rule="evenodd" fill-opacity="1" /><path clip-path="url(#clip670)" d="M2151.25 294.343 L2151.25 246.374 L2158.48 246.374 L2158.48 247.475 L2154.46 247.475 L2154.46 293.242 L2158.48 293.242 L2158.48 294.343 L2151.25 294.343 Z" fill="#000000" fill-rule="evenodd" fill-opacity="1" /><path clip-path="url(#clip670)" d="M2184.33 251.831 Q2184.33 253.12 2183.51 253.916 Q2182.71 254.712 2181.7 254.712 Q2180.98 254.712 2180.44 254.267 Q2179.92 253.822 2179.92 253.049 Q2179.92 252.253 2180.53 251.41 Q2181.14 250.566 2182.52 250.449 Q2181.61 249.583 2180.16 249.583 Q2179.43 249.583 2178.82 250.051 Q2178.24 250.496 2177.91 251.222 Q2177.56 251.972 2176.76 256.211 Q2176.5 257.593 2176.27 258.928 Q2176.03 260.263 2175.75 261.669 L2179.74 261.669 Q2180.25 261.669 2180.46 261.692 Q2180.67 261.716 2180.84 261.833 Q2181.02 261.95 2181.02 262.207 Q2181.02 262.863 2180.72 263.027 Q2180.44 263.168 2179.6 263.168 L2175.47 263.168 L2172.59 278.369 Q2172.52 278.814 2172.22 280.219 Q2171.94 281.601 2171.26 283.873 Q2170.58 286.169 2169.9 287.527 Q2169.52 288.3 2169.03 289.026 Q2168.56 289.776 2167.88 290.525 Q2167.2 291.275 2166.31 291.72 Q2165.42 292.188 2164.49 292.188 Q2162.89 292.188 2161.65 291.298 Q2160.41 290.408 2160.41 288.886 Q2160.41 287.597 2161.21 286.801 Q2162.03 286.005 2163.04 286.005 Q2163.76 286.005 2164.28 286.45 Q2164.82 286.895 2164.82 287.668 Q2164.82 287.996 2164.7 288.37 Q2164.58 288.745 2164.32 289.167 Q2164.07 289.612 2163.5 289.916 Q2162.94 290.221 2162.17 290.268 Q2163.08 291.134 2164.49 291.134 Q2164.93 291.134 2165.33 290.947 Q2165.73 290.783 2166.06 290.361 Q2166.41 289.94 2166.67 289.518 Q2166.92 289.12 2167.18 288.347 Q2167.44 287.597 2167.6 287.035 Q2167.77 286.473 2167.98 285.466 Q2168.21 284.459 2168.33 283.85 Q2168.45 283.264 2168.66 282.116 L2172.24 263.168 L2169.08 263.168 Q2168.52 263.168 2168.28 263.144 Q2168.07 263.121 2167.91 263.004 Q2167.74 262.863 2167.74 262.582 Q2167.74 262.137 2167.93 261.95 Q2168.14 261.739 2168.38 261.716 Q2168.61 261.669 2169.17 261.669 L2172.5 261.669 Q2173.62 255.743 2174.07 254.15 Q2174.58 252.464 2175.38 251.293 Q2176.18 250.098 2177.07 249.536 Q2177.96 248.974 2178.68 248.763 Q2179.43 248.529 2180.16 248.529 Q2181.8 248.529 2183.06 249.419 Q2184.33 250.285 2184.33 251.831 Z" fill="#000000" fill-rule="evenodd" fill-opacity="1" /><path clip-path="url(#clip670)" d="M2190.78 270.358 Q2190.78 262.254 2193.8 255.719 Q2195.09 252.979 2196.89 250.684 Q2198.7 248.388 2199.89 247.381 Q2201.08 246.374 2201.41 246.374 Q2201.88 246.374 2201.9 246.842 Q2201.9 247.077 2201.27 247.662 Q2193.54 255.532 2193.57 270.358 Q2193.57 285.232 2201.08 292.797 Q2201.9 293.617 2201.9 293.875 Q2201.9 294.343 2201.41 294.343 Q2201.08 294.343 2199.94 293.383 Q2198.79 292.422 2197.01 290.221 Q2195.23 288.019 2193.94 285.325 Q2190.78 278.791 2190.78 270.358 Z" fill="#000000" fill-rule="evenodd" fill-opacity="1" /><path clip-path="url(#clip670)" d="M2226.32 258.366 Q2226.32 262.301 2225.06 266.728 Q2223.82 271.131 2221.85 274.692 Q2219.88 278.228 2217.3 280.571 Q2214.73 282.889 2212.27 282.889 Q2210.7 282.889 2209.53 282.023 Q2208.38 281.133 2207.75 279.657 Q2207.12 278.158 2206.81 276.519 Q2206.51 274.856 2206.51 273.052 Q2206.51 270.358 2207.09 267.431 Q2207.68 264.479 2208.66 261.809 Q2209.65 259.116 2211.03 256.68 Q2212.41 254.22 2213.93 252.44 Q2215.48 250.637 2217.21 249.583 Q2218.94 248.529 2220.56 248.529 Q2221.73 248.529 2222.67 249.044 Q2223.63 249.536 2224.24 250.403 Q2224.85 251.246 2225.27 252.253 Q2225.71 253.26 2225.92 254.431 Q2226.13 255.579 2226.23 256.539 Q2226.32 257.476 2226.32 258.366 M2223.16 255.391 Q2223.16 254.197 2223.07 253.307 Q2222.97 252.393 2222.71 251.48 Q2222.46 250.566 2221.9 250.075 Q2221.36 249.583 2220.51 249.583 Q2218.05 249.583 2215.29 254.619 Q2214.4 256.188 2213.6 258.319 Q2212.81 260.451 2212.53 261.458 Q2212.25 262.465 2211.59 264.948 L2221.61 264.948 Q2223.16 258.554 2223.16 255.391 M2221.19 266.47 L2211.21 266.47 Q2209.67 272.326 2209.67 275.98 Q2209.67 279.165 2210.32 280.5 Q2211 281.812 2212.27 281.812 Q2213.72 281.812 2215.08 280.36 Q2216.44 278.884 2217.82 276.214 Q2219.65 272.748 2221.19 266.47 Z" fill="#000000" fill-rule="evenodd" fill-opacity="1" /><path clip-path="url(#clip670)" d="M2231.27 293.875 Q2231.27 293.64 2231.88 293.055 Q2239.61 285.185 2239.61 270.358 Q2239.61 255.485 2232.18 247.967 Q2231.27 247.1 2231.27 246.842 Q2231.27 246.374 2231.74 246.374 Q2232.06 246.374 2233.21 247.334 Q2234.38 248.294 2236.14 250.496 Q2237.92 252.698 2239.23 255.391 Q2242.39 261.926 2242.39 270.358 Q2242.39 278.463 2239.37 284.997 Q2238.08 287.738 2236.28 290.033 Q2234.48 292.329 2233.28 293.336 Q2232.09 294.343 2231.74 294.343 Q2231.27 294.343 2231.27 293.875 Z" fill="#000000" fill-rule="evenodd" fill-opacity="1" /><path clip-path="url(#clip670)" d="M2247.76 293.242 L2251.79 293.242 L2251.79 247.475 L2247.76 247.475 L2247.76 246.374 L2255 246.374 L2255 294.343 L2247.76 294.343 L2247.76 293.242 Z" fill="#000000" fill-rule="evenodd" fill-opacity="1" /></svg>
