<?xml version="1.0" encoding="utf-8"?>
<svg xmlns="http://www.w3.org/2000/svg" xmlns:xlink="http://www.w3.org/1999/xlink" width="600" height="400" viewBox="0 0 2400 1600">
<defs>
  <clipPath id="clip510">
    <rect x="0" y="0" width="2400" height="1600"/>
  </clipPath>
</defs>
<path clip-path="url(#clip510)" d="M0 1600 L2400 1600 L2400 0 L0 0  Z" fill="#ffffff" fill-rule="evenodd" fill-opacity="1"/>
<defs>
  <clipPath id="clip511">
    <rect x="480" y="0" width="1681" height="1600"/>
  </clipPath>
</defs>
<defs>
  <clipPath id="clip512">
    <rect x="257" y="123" width="2097" height="1301"/>
  </clipPath>
</defs>
<path clip-path="url(#clip510)" d="M257.204 1423.18 L2352.76 1423.18 L2352.76 123.472 L257.204 123.472  Z" fill="#ffffff" fill-rule="evenodd" fill-opacity="1"/>
<polyline clip-path="url(#clip512)" style="stroke:#000000; stroke-linecap:round; stroke-linejoin:round; stroke-width:2; stroke-opacity:0.1; fill:none" points="361.085,1423.18 361.085,123.472 "/>
<polyline clip-path="url(#clip512)" style="stroke:#000000; stroke-linecap:round; stroke-linejoin:round; stroke-width:2; stroke-opacity:0.1; fill:none" points="675.884,1423.18 675.884,123.472 "/>
<polyline clip-path="url(#clip512)" style="stroke:#000000; stroke-linecap:round; stroke-linejoin:round; stroke-width:2; stroke-opacity:0.1; fill:none" points="990.683,1423.18 990.683,123.472 "/>
<polyline clip-path="url(#clip512)" style="stroke:#000000; stroke-linecap:round; stroke-linejoin:round; stroke-width:2; stroke-opacity:0.1; fill:none" points="1305.48,1423.18 1305.48,123.472 "/>
<polyline clip-path="url(#clip512)" style="stroke:#000000; stroke-linecap:round; stroke-linejoin:round; stroke-width:2; stroke-opacity:0.1; fill:none" points="1620.28,1423.18 1620.28,123.472 "/>
<polyline clip-path="url(#clip512)" style="stroke:#000000; stroke-linecap:round; stroke-linejoin:round; stroke-width:2; stroke-opacity:0.1; fill:none" points="1935.08,1423.18 1935.08,123.472 "/>
<polyline clip-path="url(#clip512)" style="stroke:#000000; stroke-linecap:round; stroke-linejoin:round; stroke-width:2; stroke-opacity:0.1; fill:none" points="2249.88,1423.18 2249.88,123.472 "/>
<polyline clip-path="url(#clip510)" style="stroke:#000000; stroke-linecap:round; stroke-linejoin:round; stroke-width:4; stroke-opacity:1; fill:none" points="257.204,1423.18 2352.76,1423.18 "/>
<polyline clip-path="url(#clip510)" style="stroke:#000000; stroke-linecap:round; stroke-linejoin:round; stroke-width:4; stroke-opacity:1; fill:none" points="361.085,1423.18 361.085,1404.28 "/>
<polyline clip-path="url(#clip510)" style="stroke:#000000; stroke-linecap:round; stroke-linejoin:round; stroke-width:4; stroke-opacity:1; fill:none" points="675.884,1423.18 675.884,1404.28 "/>
<polyline clip-path="url(#clip510)" style="stroke:#000000; stroke-linecap:round; stroke-linejoin:round; stroke-width:4; stroke-opacity:1; fill:none" points="990.683,1423.18 990.683,1404.28 "/>
<polyline clip-path="url(#clip510)" style="stroke:#000000; stroke-linecap:round; stroke-linejoin:round; stroke-width:4; stroke-opacity:1; fill:none" points="1305.48,1423.18 1305.48,1404.28 "/>
<polyline clip-path="url(#clip510)" style="stroke:#000000; stroke-linecap:round; stroke-linejoin:round; stroke-width:4; stroke-opacity:1; fill:none" points="1620.28,1423.18 1620.28,1404.28 "/>
<polyline clip-path="url(#clip510)" style="stroke:#000000; stroke-linecap:round; stroke-linejoin:round; stroke-width:4; stroke-opacity:1; fill:none" points="1935.08,1423.18 1935.08,1404.28 "/>
<polyline clip-path="url(#clip510)" style="stroke:#000000; stroke-linecap:round; stroke-linejoin:round; stroke-width:4; stroke-opacity:1; fill:none" points="2249.88,1423.18 2249.88,1404.28 "/>
<path clip-path="url(#clip510)" d="M330.553 1468.75 L360.229 1468.75 L360.229 1472.69 L330.553 1472.69 L330.553 1468.75 Z" fill="#000000" fill-rule="evenodd" fill-opacity="1" /><path clip-path="url(#clip510)" d="M384.488 1466.95 Q387.844 1467.66 389.719 1469.93 Q391.618 1472.2 391.618 1475.53 Q391.618 1480.65 388.099 1483.45 Q384.581 1486.25 378.099 1486.25 Q375.923 1486.25 373.608 1485.81 Q371.317 1485.39 368.863 1484.54 L368.863 1480.02 Q370.807 1481.16 373.122 1481.74 Q375.437 1482.32 377.96 1482.32 Q382.358 1482.32 384.65 1480.58 Q386.965 1478.84 386.965 1475.53 Q386.965 1472.48 384.812 1470.77 Q382.682 1469.03 378.863 1469.03 L374.835 1469.03 L374.835 1465.19 L379.048 1465.19 Q382.497 1465.19 384.326 1463.82 Q386.155 1462.43 386.155 1459.84 Q386.155 1457.18 384.256 1455.77 Q382.381 1454.33 378.863 1454.33 Q376.942 1454.33 374.743 1454.75 Q372.544 1455.16 369.905 1456.04 L369.905 1451.88 Q372.567 1451.14 374.882 1450.77 Q377.219 1450.39 379.28 1450.39 Q384.604 1450.39 387.706 1452.83 Q390.807 1455.23 390.807 1459.35 Q390.807 1462.22 389.164 1464.21 Q387.52 1466.18 384.488 1466.95 Z" fill="#000000" fill-rule="evenodd" fill-opacity="1" /><path clip-path="url(#clip510)" d="M645.826 1468.75 L675.502 1468.75 L675.502 1472.69 L645.826 1472.69 L645.826 1468.75 Z" fill="#000000" fill-rule="evenodd" fill-opacity="1" /><path clip-path="url(#clip510)" d="M689.622 1481.64 L705.942 1481.64 L705.942 1485.58 L683.997 1485.58 L683.997 1481.64 Q686.659 1478.89 691.243 1474.26 Q695.849 1469.61 697.03 1468.27 Q699.275 1465.74 700.155 1464.01 Q701.057 1462.25 701.057 1460.56 Q701.057 1457.8 699.113 1456.07 Q697.192 1454.33 694.09 1454.33 Q691.891 1454.33 689.437 1455.09 Q687.007 1455.86 684.229 1457.41 L684.229 1452.69 Q687.053 1451.55 689.507 1450.97 Q691.96 1450.39 693.997 1450.39 Q699.368 1450.39 702.562 1453.08 Q705.756 1455.77 705.756 1460.26 Q705.756 1462.39 704.946 1464.31 Q704.159 1466.2 702.053 1468.8 Q701.474 1469.47 698.372 1472.69 Q695.27 1475.88 689.622 1481.64 Z" fill="#000000" fill-rule="evenodd" fill-opacity="1" /><path clip-path="url(#clip510)" d="M960.44 1468.75 L990.116 1468.75 L990.116 1472.69 L960.44 1472.69 L960.44 1468.75 Z" fill="#000000" fill-rule="evenodd" fill-opacity="1" /><path clip-path="url(#clip510)" d="M1001.02 1481.64 L1008.66 1481.64 L1008.66 1455.28 L1000.35 1456.95 L1000.35 1452.69 L1008.61 1451.02 L1013.29 1451.02 L1013.29 1481.64 L1020.93 1481.64 L1020.93 1485.58 L1001.02 1485.58 L1001.02 1481.64 Z" fill="#000000" fill-rule="evenodd" fill-opacity="1" /><path clip-path="url(#clip510)" d="M1305.48 1454.1 Q1301.87 1454.1 1300.04 1457.66 Q1298.24 1461.2 1298.24 1468.33 Q1298.24 1475.44 1300.04 1479.01 Q1301.87 1482.55 1305.48 1482.55 Q1309.12 1482.55 1310.92 1479.01 Q1312.75 1475.44 1312.75 1468.33 Q1312.75 1461.2 1310.92 1457.66 Q1309.12 1454.1 1305.48 1454.1 M1305.48 1450.39 Q1311.29 1450.39 1314.35 1455 Q1317.43 1459.58 1317.43 1468.33 Q1317.43 1477.06 1314.35 1481.67 Q1311.29 1486.25 1305.48 1486.25 Q1299.67 1486.25 1296.59 1481.67 Q1293.54 1477.06 1293.54 1468.33 Q1293.54 1459.58 1296.59 1455 Q1299.67 1450.39 1305.48 1450.39 Z" fill="#000000" fill-rule="evenodd" fill-opacity="1" /><path clip-path="url(#clip510)" d="M1610.66 1481.64 L1618.3 1481.64 L1618.3 1455.28 L1609.99 1456.95 L1609.99 1452.69 L1618.25 1451.02 L1622.93 1451.02 L1622.93 1481.64 L1630.57 1481.64 L1630.57 1485.58 L1610.66 1485.58 L1610.66 1481.64 Z" fill="#000000" fill-rule="evenodd" fill-opacity="1" /><path clip-path="url(#clip510)" d="M1929.73 1481.64 L1946.05 1481.64 L1946.05 1485.58 L1924.11 1485.58 L1924.11 1481.64 Q1926.77 1478.89 1931.35 1474.26 Q1935.96 1469.61 1937.14 1468.27 Q1939.38 1465.74 1940.26 1464.01 Q1941.17 1462.25 1941.17 1460.56 Q1941.17 1457.8 1939.22 1456.07 Q1937.3 1454.33 1934.2 1454.33 Q1932 1454.33 1929.55 1455.09 Q1927.12 1455.86 1924.34 1457.41 L1924.34 1452.69 Q1927.16 1451.55 1929.62 1450.97 Q1932.07 1450.39 1934.11 1450.39 Q1939.48 1450.39 1942.67 1453.08 Q1945.87 1455.77 1945.87 1460.26 Q1945.87 1462.39 1945.06 1464.31 Q1944.27 1466.2 1942.16 1468.8 Q1941.58 1469.47 1938.48 1472.69 Q1935.38 1475.88 1929.73 1481.64 Z" fill="#000000" fill-rule="evenodd" fill-opacity="1" /><path clip-path="url(#clip510)" d="M2254.13 1466.95 Q2257.48 1467.66 2259.36 1469.93 Q2261.25 1472.2 2261.25 1475.53 Q2261.25 1480.65 2257.74 1483.45 Q2254.22 1486.25 2247.74 1486.25 Q2245.56 1486.25 2243.25 1485.81 Q2240.95 1485.39 2238.5 1484.54 L2238.5 1480.02 Q2240.44 1481.16 2242.76 1481.74 Q2245.07 1482.32 2247.6 1482.32 Q2252 1482.32 2254.29 1480.58 Q2256.6 1478.84 2256.6 1475.53 Q2256.6 1472.48 2254.45 1470.77 Q2252.32 1469.03 2248.5 1469.03 L2244.47 1469.03 L2244.47 1465.19 L2248.69 1465.19 Q2252.13 1465.19 2253.96 1463.82 Q2255.79 1462.43 2255.79 1459.84 Q2255.79 1457.18 2253.89 1455.77 Q2252.02 1454.33 2248.5 1454.33 Q2246.58 1454.33 2244.38 1454.75 Q2242.18 1455.16 2239.54 1456.04 L2239.54 1451.88 Q2242.2 1451.14 2244.52 1450.77 Q2246.86 1450.39 2248.92 1450.39 Q2254.24 1450.39 2257.34 1452.83 Q2260.44 1455.23 2260.44 1459.35 Q2260.44 1462.22 2258.8 1464.21 Q2257.16 1466.18 2254.13 1466.95 Z" fill="#000000" fill-rule="evenodd" fill-opacity="1" /><path clip-path="url(#clip510)" d="M1316.91 1529.22 Q1316.91 1534.63 1315.18 1540.71 Q1313.47 1546.77 1310.76 1551.66 Q1308.06 1556.53 1304.52 1559.75 Q1300.97 1562.94 1297.59 1562.94 Q1295.43 1562.94 1293.82 1561.75 Q1292.25 1560.52 1291.38 1558.49 Q1290.51 1556.43 1290.09 1554.18 Q1289.67 1551.89 1289.67 1549.41 Q1289.67 1545.71 1290.47 1541.68 Q1291.28 1537.62 1292.63 1533.95 Q1293.98 1530.25 1295.88 1526.9 Q1297.78 1523.52 1299.88 1521.07 Q1302 1518.59 1304.39 1517.14 Q1306.77 1515.69 1308.99 1515.69 Q1310.6 1515.69 1311.89 1516.4 Q1313.21 1517.08 1314.05 1518.27 Q1314.89 1519.43 1315.47 1520.81 Q1316.08 1522.2 1316.37 1523.81 Q1316.66 1525.38 1316.79 1526.71 Q1316.91 1527.99 1316.91 1529.22 M1312.57 1525.13 Q1312.57 1523.48 1312.44 1522.26 Q1312.31 1521 1311.96 1519.75 Q1311.6 1518.49 1310.83 1517.82 Q1310.09 1517.14 1308.93 1517.14 Q1305.55 1517.14 1301.75 1524.06 Q1300.52 1526.22 1299.43 1529.15 Q1298.33 1532.08 1297.95 1533.47 Q1297.56 1534.85 1296.66 1538.27 L1310.44 1538.27 Q1312.57 1529.47 1312.57 1525.13 M1309.86 1540.36 L1296.14 1540.36 Q1294.02 1548.41 1294.02 1553.44 Q1294.02 1557.82 1294.92 1559.65 Q1295.85 1561.46 1297.59 1561.46 Q1299.59 1561.46 1301.46 1559.46 Q1303.32 1557.43 1305.22 1553.76 Q1307.74 1548.99 1309.86 1540.36 Z" fill="#000000" fill-rule="evenodd" fill-opacity="1" /><polyline clip-path="url(#clip512)" style="stroke:#000000; stroke-linecap:round; stroke-linejoin:round; stroke-width:2; stroke-opacity:0.1; fill:none" points="257.204,1386.4 2352.76,1386.4 "/>
<polyline clip-path="url(#clip512)" style="stroke:#000000; stroke-linecap:round; stroke-linejoin:round; stroke-width:2; stroke-opacity:0.1; fill:none" points="257.204,1079.86 2352.76,1079.86 "/>
<polyline clip-path="url(#clip512)" style="stroke:#000000; stroke-linecap:round; stroke-linejoin:round; stroke-width:2; stroke-opacity:0.1; fill:none" points="257.204,773.325 2352.76,773.325 "/>
<polyline clip-path="url(#clip512)" style="stroke:#000000; stroke-linecap:round; stroke-linejoin:round; stroke-width:2; stroke-opacity:0.1; fill:none" points="257.204,466.79 2352.76,466.79 "/>
<polyline clip-path="url(#clip512)" style="stroke:#000000; stroke-linecap:round; stroke-linejoin:round; stroke-width:2; stroke-opacity:0.1; fill:none" points="257.204,160.255 2352.76,160.255 "/>
<polyline clip-path="url(#clip510)" style="stroke:#000000; stroke-linecap:round; stroke-linejoin:round; stroke-width:4; stroke-opacity:1; fill:none" points="257.204,1423.18 257.204,123.472 "/>
<polyline clip-path="url(#clip510)" style="stroke:#000000; stroke-linecap:round; stroke-linejoin:round; stroke-width:4; stroke-opacity:1; fill:none" points="257.204,1386.4 276.102,1386.4 "/>
<polyline clip-path="url(#clip510)" style="stroke:#000000; stroke-linecap:round; stroke-linejoin:round; stroke-width:4; stroke-opacity:1; fill:none" points="257.204,1079.86 276.102,1079.86 "/>
<polyline clip-path="url(#clip510)" style="stroke:#000000; stroke-linecap:round; stroke-linejoin:round; stroke-width:4; stroke-opacity:1; fill:none" points="257.204,773.325 276.102,773.325 "/>
<polyline clip-path="url(#clip510)" style="stroke:#000000; stroke-linecap:round; stroke-linejoin:round; stroke-width:4; stroke-opacity:1; fill:none" points="257.204,466.79 276.102,466.79 "/>
<polyline clip-path="url(#clip510)" style="stroke:#000000; stroke-linecap:round; stroke-linejoin:round; stroke-width:4; stroke-opacity:1; fill:none" points="257.204,160.255 276.102,160.255 "/>
<path clip-path="url(#clip510)" d="M114.26 1386.85 L143.936 1386.85 L143.936 1390.78 L114.26 1390.78 L114.26 1386.85 Z" fill="#000000" fill-rule="evenodd" fill-opacity="1" /><path clip-path="url(#clip510)" d="M154.839 1399.74 L162.477 1399.74 L162.477 1373.38 L154.167 1375.04 L154.167 1370.78 L162.431 1369.12 L167.107 1369.12 L167.107 1399.74 L174.746 1399.74 L174.746 1403.68 L154.839 1403.68 L154.839 1399.74 Z" fill="#000000" fill-rule="evenodd" fill-opacity="1" /><path clip-path="url(#clip510)" d="M184.19 1397.8 L189.075 1397.8 L189.075 1403.68 L184.19 1403.68 L184.19 1397.8 Z" fill="#000000" fill-rule="evenodd" fill-opacity="1" /><path clip-path="url(#clip510)" d="M209.26 1372.19 Q205.649 1372.19 203.82 1375.76 Q202.014 1379.3 202.014 1386.43 Q202.014 1393.54 203.82 1397.1 Q205.649 1400.64 209.26 1400.64 Q212.894 1400.64 214.699 1397.1 Q216.528 1393.54 216.528 1386.43 Q216.528 1379.3 214.699 1375.76 Q212.894 1372.19 209.26 1372.19 M209.26 1368.49 Q215.07 1368.49 218.125 1373.1 Q221.204 1377.68 221.204 1386.43 Q221.204 1395.16 218.125 1399.76 Q215.07 1404.35 209.26 1404.35 Q203.449 1404.35 200.371 1399.76 Q197.315 1395.16 197.315 1386.43 Q197.315 1377.68 200.371 1373.1 Q203.449 1368.49 209.26 1368.49 Z" fill="#000000" fill-rule="evenodd" fill-opacity="1" /><path clip-path="url(#clip510)" d="M115.256 1080.31 L144.931 1080.31 L144.931 1084.25 L115.256 1084.25 L115.256 1080.31 Z" fill="#000000" fill-rule="evenodd" fill-opacity="1" /><path clip-path="url(#clip510)" d="M165.024 1065.66 Q161.413 1065.66 159.584 1069.22 Q157.778 1072.77 157.778 1079.9 Q157.778 1087 159.584 1090.57 Q161.413 1094.11 165.024 1094.11 Q168.658 1094.11 170.464 1090.57 Q172.292 1087 172.292 1079.9 Q172.292 1072.77 170.464 1069.22 Q168.658 1065.66 165.024 1065.66 M165.024 1061.96 Q170.834 1061.96 173.889 1066.56 Q176.968 1071.15 176.968 1079.9 Q176.968 1088.62 173.889 1093.23 Q170.834 1097.81 165.024 1097.81 Q159.214 1097.81 156.135 1093.23 Q153.079 1088.62 153.079 1079.9 Q153.079 1071.15 156.135 1066.56 Q159.214 1061.96 165.024 1061.96 Z" fill="#000000" fill-rule="evenodd" fill-opacity="1" /><path clip-path="url(#clip510)" d="M185.186 1091.26 L190.07 1091.26 L190.07 1097.14 L185.186 1097.14 L185.186 1091.26 Z" fill="#000000" fill-rule="evenodd" fill-opacity="1" /><path clip-path="url(#clip510)" d="M200.301 1062.58 L218.658 1062.58 L218.658 1066.52 L204.584 1066.52 L204.584 1074.99 Q205.602 1074.64 206.621 1074.48 Q207.639 1074.29 208.658 1074.29 Q214.445 1074.29 217.824 1077.46 Q221.204 1080.64 221.204 1086.05 Q221.204 1091.63 217.732 1094.73 Q214.26 1097.81 207.94 1097.81 Q205.764 1097.81 203.496 1097.44 Q201.25 1097.07 198.843 1096.33 L198.843 1091.63 Q200.926 1092.77 203.149 1093.32 Q205.371 1093.88 207.848 1093.88 Q211.852 1093.88 214.19 1091.77 Q216.528 1089.66 216.528 1086.05 Q216.528 1082.44 214.19 1080.34 Q211.852 1078.23 207.848 1078.23 Q205.973 1078.23 204.098 1078.65 Q202.246 1079.06 200.301 1079.94 L200.301 1062.58 Z" fill="#000000" fill-rule="evenodd" fill-opacity="1" /><path clip-path="url(#clip510)" d="M164.028 759.124 Q160.417 759.124 158.589 762.689 Q156.783 766.23 156.783 773.36 Q156.783 780.466 158.589 784.031 Q160.417 787.573 164.028 787.573 Q167.663 787.573 169.468 784.031 Q171.297 780.466 171.297 773.36 Q171.297 766.23 169.468 762.689 Q167.663 759.124 164.028 759.124 M164.028 755.42 Q169.839 755.42 172.894 760.027 Q175.973 764.61 175.973 773.36 Q175.973 782.087 172.894 786.693 Q169.839 791.276 164.028 791.276 Q158.218 791.276 155.14 786.693 Q152.084 782.087 152.084 773.36 Q152.084 764.61 155.14 760.027 Q158.218 755.42 164.028 755.42 Z" fill="#000000" fill-rule="evenodd" fill-opacity="1" /><path clip-path="url(#clip510)" d="M184.19 784.726 L189.075 784.726 L189.075 790.605 L184.19 790.605 L184.19 784.726 Z" fill="#000000" fill-rule="evenodd" fill-opacity="1" /><path clip-path="url(#clip510)" d="M209.26 759.124 Q205.649 759.124 203.82 762.689 Q202.014 766.23 202.014 773.36 Q202.014 780.466 203.82 784.031 Q205.649 787.573 209.26 787.573 Q212.894 787.573 214.699 784.031 Q216.528 780.466 216.528 773.36 Q216.528 766.23 214.699 762.689 Q212.894 759.124 209.26 759.124 M209.26 755.42 Q215.07 755.42 218.125 760.027 Q221.204 764.61 221.204 773.36 Q221.204 782.087 218.125 786.693 Q215.07 791.276 209.26 791.276 Q203.449 791.276 200.371 786.693 Q197.315 782.087 197.315 773.36 Q197.315 764.61 200.371 760.027 Q203.449 755.42 209.26 755.42 Z" fill="#000000" fill-rule="evenodd" fill-opacity="1" /><path clip-path="url(#clip510)" d="M165.024 452.589 Q161.413 452.589 159.584 456.153 Q157.778 459.695 157.778 466.825 Q157.778 473.931 159.584 477.496 Q161.413 481.037 165.024 481.037 Q168.658 481.037 170.464 477.496 Q172.292 473.931 172.292 466.825 Q172.292 459.695 170.464 456.153 Q168.658 452.589 165.024 452.589 M165.024 448.885 Q170.834 448.885 173.889 453.491 Q176.968 458.075 176.968 466.825 Q176.968 475.551 173.889 480.158 Q170.834 484.741 165.024 484.741 Q159.214 484.741 156.135 480.158 Q153.079 475.551 153.079 466.825 Q153.079 458.075 156.135 453.491 Q159.214 448.885 165.024 448.885 Z" fill="#000000" fill-rule="evenodd" fill-opacity="1" /><path clip-path="url(#clip510)" d="M185.186 478.19 L190.07 478.19 L190.07 484.07 L185.186 484.07 L185.186 478.19 Z" fill="#000000" fill-rule="evenodd" fill-opacity="1" /><path clip-path="url(#clip510)" d="M200.301 449.51 L218.658 449.51 L218.658 453.445 L204.584 453.445 L204.584 461.917 Q205.602 461.57 206.621 461.408 Q207.639 461.223 208.658 461.223 Q214.445 461.223 217.824 464.394 Q221.204 467.565 221.204 472.982 Q221.204 478.561 217.732 481.662 Q214.26 484.741 207.94 484.741 Q205.764 484.741 203.496 484.371 Q201.25 484 198.843 483.26 L198.843 478.561 Q200.926 479.695 203.149 480.25 Q205.371 480.806 207.848 480.806 Q211.852 480.806 214.19 478.7 Q216.528 476.593 216.528 472.982 Q216.528 469.371 214.19 467.264 Q211.852 465.158 207.848 465.158 Q205.973 465.158 204.098 465.575 Q202.246 465.991 200.301 466.871 L200.301 449.51 Z" fill="#000000" fill-rule="evenodd" fill-opacity="1" /><path clip-path="url(#clip510)" d="M154.839 173.599 L162.477 173.599 L162.477 147.234 L154.167 148.9 L154.167 144.641 L162.431 142.975 L167.107 142.975 L167.107 173.599 L174.746 173.599 L174.746 177.535 L154.839 177.535 L154.839 173.599 Z" fill="#000000" fill-rule="evenodd" fill-opacity="1" /><path clip-path="url(#clip510)" d="M184.19 171.655 L189.075 171.655 L189.075 177.535 L184.19 177.535 L184.19 171.655 Z" fill="#000000" fill-rule="evenodd" fill-opacity="1" /><path clip-path="url(#clip510)" d="M209.26 146.053 Q205.649 146.053 203.82 149.618 Q202.014 153.16 202.014 160.289 Q202.014 167.396 203.82 170.961 Q205.649 174.502 209.26 174.502 Q212.894 174.502 214.699 170.961 Q216.528 167.396 216.528 160.289 Q216.528 153.16 214.699 149.618 Q212.894 146.053 209.26 146.053 M209.26 142.35 Q215.07 142.35 218.125 146.956 Q221.204 151.539 221.204 160.289 Q221.204 169.016 218.125 173.623 Q215.07 178.206 209.26 178.206 Q203.449 178.206 200.371 173.623 Q197.315 169.016 197.315 160.289 Q197.315 151.539 200.371 146.956 Q203.449 142.35 209.26 142.35 Z" fill="#000000" fill-rule="evenodd" fill-opacity="1" /><path clip-path="url(#clip510)" d="M65.2145 912.059 L56.519 912.059 Q55.7782 912.059 55.5206 912.027 Q55.2629 911.994 55.0697 911.801 Q54.8765 911.608 54.8765 911.222 Q54.8765 910.771 55.0697 910.61 Q55.2629 910.416 56.0037 910.288 Q60.5447 909.289 62.9601 907.164 Q65.3434 905.006 65.3434 901.109 Q65.3434 897.405 63.7009 895.537 Q62.0584 893.669 59.3531 893.669 Q54.5222 893.669 53.2984 900.529 Q52.4932 904.49 51.9779 906.133 Q51.4304 907.775 50.2388 909.225 Q47.92 912.059 44.635 912.059 Q41.35 912.059 38.9346 909.579 Q36.5191 907.067 36.5191 901.528 Q36.5191 897.824 38.3871 895.312 Q37.8073 894.571 37.3243 894.185 Q36.5191 893.315 36.5191 892.864 Q36.5191 892.349 36.8734 892.252 Q37.1954 892.156 38.1294 892.156 L44.7638 892.156 Q45.5045 892.156 45.7622 892.188 Q46.0198 892.22 46.2131 892.413 Q46.3741 892.607 46.3741 893.025 Q46.3741 893.766 45.7622 893.798 Q37.7751 894.313 37.7751 901.528 Q37.7751 905.424 39.2888 907.164 Q40.7703 908.903 42.7993 908.903 Q43.9265 908.903 44.796 908.387 Q45.6334 907.84 46.1487 907.164 Q46.6318 906.455 47.1148 905.167 Q47.5657 903.879 47.7268 903.106 Q47.8878 902.3 48.2098 900.787 Q49.2082 895.505 51.366 893.283 Q54.1357 890.513 57.6462 890.513 Q61.5431 890.513 64.1839 893.154 Q66.8248 895.795 66.8248 901.109 Q66.8248 905.392 63.9585 908.387 Q64.345 908.774 64.6992 909.064 Q65.0213 909.354 65.1501 909.482 Q65.2789 909.579 65.3756 909.611 Q65.44 909.643 65.5044 909.708 Q66.8248 911.028 66.8248 911.35 Q66.8248 911.866 66.4706 911.962 Q66.1485 912.059 65.2145 912.059 Z" fill="#000000" fill-rule="evenodd" fill-opacity="1" /><path clip-path="url(#clip510)" d="M62.5415 882.265 Q58.2259 886.613 51.9779 886.613 Q45.6978 886.613 41.1246 882.362 Q36.5191 878.078 36.5191 871.959 Q36.5191 865.969 41.0923 861.685 Q45.6334 857.37 51.9779 857.37 Q58.1937 857.37 62.5092 861.718 Q66.8248 866.033 66.8248 872.023 Q66.8248 877.885 62.5415 882.265 M51.4304 881.138 Q57.8394 881.138 60.7379 879.463 Q65.1501 876.887 65.1501 871.959 Q65.1501 869.511 63.8297 867.482 Q62.5092 865.421 60.287 864.294 Q57.3885 862.845 51.4304 862.845 Q45.0859 862.845 42.284 864.584 Q38.0006 867.16 38.0006 872.023 Q38.0006 874.149 39.1278 876.242 Q40.2228 878.304 42.4128 879.56 Q45.3113 881.138 51.4304 881.138 Z" fill="#000000" fill-rule="evenodd" fill-opacity="1" /><path clip-path="url(#clip510)" d="M66.0841 855.269 L64.0551 855.269 Q64.0551 851.758 63.6364 850.953 Q63.1856 850.148 61.06 850.148 L43.379 850.148 Q40.9313 850.148 40.3194 851.017 Q39.7075 851.855 39.7075 855.269 L37.6463 855.269 L36.9378 845.993 L43.8621 845.993 Q36.9378 842.902 36.9378 836.235 Q36.9378 831.275 39.3854 829.311 Q41.0279 827.861 42.8637 827.572 Q44.6994 827.25 49.4659 827.25 L62.0584 827.25 Q63.4432 827.185 63.7653 826.122 Q64.0551 825.06 64.0551 822.097 L66.0841 822.097 Q65.8909 828.828 65.8909 829.504 Q65.8909 830.019 66.0841 836.943 L64.0551 836.943 Q64.0551 833.433 63.6364 832.628 Q63.1856 831.791 61.06 831.791 L45.6978 831.791 Q42.3484 831.791 40.3838 832.821 Q38.3871 833.852 38.3871 836.686 Q38.3871 840.1 41.2534 842.837 Q44.1197 845.575 48.9506 845.575 L61.06 845.575 Q63.1856 845.575 63.6364 844.77 Q64.0551 843.932 64.0551 840.454 L66.0841 840.454 Q65.8909 847.185 65.8909 847.829 Q65.8909 848.344 66.0841 855.269 Z" fill="#000000" fill-rule="evenodd" fill-opacity="1" /><path clip-path="url(#clip510)" d="M49.5947 819.032 Q38.4515 819.032 29.466 814.877 Q25.6979 813.106 22.5418 810.626 Q19.3856 808.146 18.0007 806.504 Q16.6159 804.861 16.6159 804.41 Q16.6159 803.766 17.26 803.734 Q17.5821 803.734 18.3872 804.604 Q29.2084 815.232 49.5947 815.199 Q70.0454 815.199 80.4479 804.861 Q81.5751 803.734 81.9294 803.734 Q82.5735 803.734 82.5735 804.41 Q82.5735 804.861 81.2531 806.439 Q79.9326 808.018 76.9053 810.465 Q73.8779 812.913 70.1742 814.684 Q61.1888 819.032 49.5947 819.032 Z" fill="#000000" fill-rule="evenodd" fill-opacity="1" /><path clip-path="url(#clip510)" d="M33.1053 770.154 Q38.5159 770.154 44.6028 771.893 Q50.6575 773.6 55.5528 776.306 Q60.4159 779.011 63.6364 782.554 Q66.8248 786.096 66.8248 789.478 Q66.8248 791.636 65.6332 793.246 Q64.4094 794.824 62.3804 795.694 Q60.3192 796.563 58.0648 796.982 Q55.7782 797.401 53.2984 797.401 Q49.5947 797.401 45.569 796.595 Q41.511 795.79 37.8396 794.438 Q34.1359 793.085 30.7865 791.185 Q27.4049 789.285 24.9572 787.191 Q22.4774 785.066 21.0281 782.682 Q19.5788 780.299 19.5788 778.077 Q19.5788 776.467 20.2874 775.178 Q20.9637 773.858 22.1553 773.021 Q23.3147 772.183 24.6996 771.604 Q26.0844 770.992 27.6947 770.702 Q29.2728 770.412 30.5932 770.283 Q31.8815 770.154 33.1053 770.154 M29.0151 774.502 Q27.3726 774.502 26.1488 774.631 Q24.8928 774.76 23.6368 775.114 Q22.3807 775.468 21.7044 776.241 Q21.0281 776.982 21.0281 778.141 Q21.0281 781.523 27.9524 785.323 Q30.1101 786.547 33.0409 787.642 Q35.9716 788.737 37.3565 789.124 Q38.7413 789.51 42.1551 790.412 L42.1551 776.628 Q33.3629 774.502 29.0151 774.502 M44.2485 777.207 L44.2485 790.927 Q52.3 793.053 57.3241 793.053 Q61.7041 793.053 63.5398 792.151 Q65.3434 791.217 65.3434 789.478 Q65.3434 787.481 63.3466 785.613 Q61.3176 783.745 57.6462 781.845 Q52.8797 779.333 44.2485 777.207 Z" fill="#000000" fill-rule="evenodd" fill-opacity="1" /><path clip-path="url(#clip510)" d="M65.0213 765.844 Q63.9585 766.778 62.5737 766.778 Q61.1888 766.778 60.1582 765.876 Q59.0954 764.942 59.0954 763.268 Q59.0954 761.303 60.9956 760.176 Q62.8635 759.049 66.0197 759.049 Q69.4335 759.049 72.5897 760.433 Q75.7781 761.818 77.2917 763.171 Q78.8054 764.524 78.8054 765.071 Q78.8054 765.715 78.0969 765.715 Q77.8392 765.715 77.3561 765.264 Q72.2676 760.53 66.0197 760.498 Q65.0213 760.498 65.0213 760.627 L65.1501 760.788 Q66.0841 761.915 66.0841 763.268 Q66.0841 764.91 65.0213 765.844 Z" fill="#000000" fill-rule="evenodd" fill-opacity="1" /><path clip-path="url(#clip510)" d="M28.4354 738.233 L26.3743 738.233 Q26.3743 730.31 22.1553 726.22 Q22.1553 725.093 22.4129 724.9 Q22.6706 724.706 23.8622 724.706 L60.8667 724.706 Q62.8313 724.706 63.4432 723.74 Q64.0551 722.774 64.0551 718.555 L64.0551 716.462 L66.0841 716.462 Q65.8909 718.781 65.8909 727.154 Q65.8909 735.528 66.0841 737.814 L64.0551 737.814 L64.0551 735.721 Q64.0551 731.566 63.4754 730.568 Q62.8635 729.569 60.8667 729.569 L26.6963 729.569 Q28.4354 733.016 28.4354 738.233 Z" fill="#000000" fill-rule="evenodd" fill-opacity="1" /><path clip-path="url(#clip510)" d="M65.0213 711.32 Q63.9585 712.319 62.5737 712.319 Q61.1888 712.319 60.1904 711.32 Q59.1598 710.322 59.1598 708.808 Q59.1598 707.359 60.126 706.393 Q61.06 705.395 62.6059 705.395 Q64.1195 705.395 65.1179 706.457 Q66.0841 707.488 66.0841 708.808 Q66.0841 710.322 65.0213 711.32 Z" fill="#000000" fill-rule="evenodd" fill-opacity="1" /><path clip-path="url(#clip510)" d="M44.9893 694.169 Q35.2953 694.169 30.0135 691.721 Q22.1553 688.307 22.1553 680.256 Q22.1553 678.549 22.6384 676.777 Q23.0893 674.974 24.8606 672.719 Q26.6319 670.433 29.5304 669.048 Q35.1343 666.407 44.9893 666.407 Q54.6188 666.407 59.8684 668.855 Q67.5334 672.43 67.5334 680.32 Q67.5334 683.283 66.0197 686.31 Q64.506 689.305 60.8667 691.206 Q55.424 694.169 44.9893 694.169 M44.1841 688.694 Q54.1357 688.694 58.097 687.985 Q62.3804 687.18 64.2484 684.99 Q66.0841 682.768 66.0841 680.32 Q66.0841 677.679 64.1195 675.489 Q62.1228 673.267 57.8394 672.591 Q53.6204 671.85 44.1841 671.882 Q35.0054 671.882 31.334 672.526 Q27.0506 673.396 25.3437 675.715 Q23.6046 678.001 23.6046 680.32 Q23.6046 681.19 23.8622 682.124 Q24.1199 683.025 24.8606 684.346 Q25.6013 685.666 27.4371 686.697 Q29.2728 687.695 32.0425 688.178 Q35.6174 688.694 44.1841 688.694 Z" fill="#000000" fill-rule="evenodd" fill-opacity="1" /><path clip-path="url(#clip510)" d="M81.9294 659.921 Q81.6073 659.921 80.8022 659.083 Q69.981 648.455 49.5947 648.455 Q29.144 648.455 18.8059 658.664 Q17.6143 659.921 17.26 659.921 Q16.6159 659.921 16.6159 659.276 Q16.6159 658.826 17.9363 657.247 Q19.2568 655.637 22.2841 653.222 Q25.3115 650.774 29.0151 648.971 Q38.0006 644.623 49.5947 644.623 Q60.7379 644.623 69.7234 648.777 Q73.4914 650.549 76.6476 653.028 Q79.8038 655.508 81.1886 657.151 Q82.5735 658.793 82.5735 659.276 Q82.5735 659.921 81.9294 659.921 Z" fill="#000000" fill-rule="evenodd" fill-opacity="1" /><path clip-path="url(#clip510)" d="M1048.34 21.812 Q1048.34 24.0664 1046.91 25.4601 Q1045.52 26.8537 1043.75 26.8537 Q1042.48 26.8537 1041.54 26.0749 Q1040.64 25.2961 1040.64 23.9435 Q1040.64 22.5498 1041.7 21.0742 Q1042.77 19.5986 1045.19 19.3937 Q1043.59 17.8771 1041.05 17.8771 Q1039.78 17.8771 1038.71 18.6968 Q1037.69 19.4756 1037.11 20.7463 Q1036.5 22.058 1035.1 29.477 Q1034.65 31.8954 1034.24 34.2318 Q1033.83 36.5682 1033.34 39.0275 L1040.31 39.0275 Q1041.21 39.0275 1041.58 39.0685 Q1041.95 39.1095 1042.24 39.3145 Q1042.56 39.5194 1042.56 39.9703 Q1042.56 41.118 1042.03 41.4049 Q1041.54 41.6508 1040.06 41.6508 L1032.85 41.6508 L1027.81 68.2529 Q1027.69 69.0317 1027.15 71.491 Q1026.66 73.9094 1025.47 77.8854 Q1024.28 81.9023 1023.09 84.2797 Q1022.44 85.6323 1021.58 86.903 Q1020.76 88.2147 1019.57 89.5263 Q1018.38 90.838 1016.82 91.6168 Q1015.27 92.4366 1013.63 92.4366 Q1010.84 92.4366 1008.67 90.879 Q1006.49 89.3214 1006.49 86.6571 Q1006.49 84.4027 1007.89 83.009 Q1009.32 81.6154 1011.08 81.6154 Q1012.36 81.6154 1013.26 82.3942 Q1014.2 83.173 1014.2 84.5256 Q1014.2 85.0995 1014 85.7553 Q1013.79 86.4111 1013.34 87.1489 Q1012.89 87.9277 1011.9 88.4606 Q1010.92 88.9935 1009.57 89.0754 Q1011.17 90.592 1013.63 90.592 Q1014.41 90.592 1015.1 90.2641 Q1015.8 89.9772 1016.37 89.2394 Q1016.99 88.5016 1017.44 87.7638 Q1017.89 87.067 1018.34 85.7143 Q1018.79 84.4027 1019.08 83.4189 Q1019.36 82.4352 1019.73 80.6726 Q1020.14 78.9101 1020.35 77.8444 Q1020.55 76.8196 1020.92 74.8112 L1027.19 41.6508 L1021.66 41.6508 Q1020.68 41.6508 1020.27 41.6099 Q1019.9 41.5689 1019.61 41.3639 Q1019.32 41.118 1019.32 40.6261 Q1019.32 39.8473 1019.65 39.5194 Q1020.02 39.1505 1020.43 39.1095 Q1020.84 39.0275 1021.82 39.0275 L1027.64 39.0275 Q1029.61 28.6572 1030.39 25.87 Q1031.29 22.9187 1032.69 20.8693 Q1034.08 18.7788 1035.64 17.7951 Q1037.2 16.8113 1038.47 16.4424 Q1039.78 16.0325 1041.05 16.0325 Q1043.92 16.0325 1046.13 17.5901 Q1048.34 19.1067 1048.34 21.812 Z" fill="#000000" fill-rule="evenodd" fill-opacity="1" /><path clip-path="url(#clip510)" d="M1059.64 54.2346 Q1059.64 40.0523 1064.93 28.6163 Q1067.19 23.8205 1070.34 19.8036 Q1073.5 15.7866 1075.59 14.0241 Q1077.68 12.2615 1078.25 12.2615 Q1079.07 12.2615 1079.11 13.0813 Q1079.11 13.4912 1078.01 14.5159 Q1064.48 28.2883 1064.52 54.2346 Q1064.52 80.2627 1077.68 93.5023 Q1079.11 94.9369 1079.11 95.3878 Q1079.11 96.2076 1078.25 96.2076 Q1077.68 96.2076 1075.67 94.527 Q1073.66 92.8465 1070.55 88.9935 Q1067.43 85.1405 1065.18 80.4267 Q1059.64 68.9907 1059.64 54.2346 Z" fill="#000000" fill-rule="evenodd" fill-opacity="1" /><path clip-path="url(#clip510)" d="M1121.85 33.248 Q1121.85 40.1342 1119.64 47.8812 Q1117.46 55.5872 1114.02 61.8176 Q1110.58 68.0069 1106.07 72.1059 Q1101.56 76.1638 1097.26 76.1638 Q1094.51 76.1638 1092.46 74.6472 Q1090.45 73.0896 1089.35 70.5073 Q1088.24 67.884 1087.71 65.0147 Q1087.17 62.1045 1087.17 58.9483 Q1087.17 54.2346 1088.2 49.1109 Q1089.22 43.9462 1090.94 39.2735 Q1092.67 34.5597 1095.08 30.2968 Q1097.5 25.9929 1100.17 22.8778 Q1102.87 19.7216 1105.91 17.8771 Q1108.94 16.0325 1111.77 16.0325 Q1113.82 16.0325 1115.46 16.9343 Q1117.14 17.7951 1118.2 19.3117 Q1119.27 20.7873 1120.01 22.5498 Q1120.78 24.3124 1121.15 26.3618 Q1121.52 28.3703 1121.69 30.0509 Q1121.85 31.6904 1121.85 33.248 M1116.32 28.0424 Q1116.32 25.952 1116.15 24.3944 Q1115.99 22.7958 1115.54 21.1972 Q1115.09 19.5986 1114.1 18.7378 Q1113.16 17.8771 1111.68 17.8771 Q1107.38 17.8771 1102.54 26.6898 Q1100.99 29.436 1099.59 33.1661 Q1098.2 36.8961 1097.71 38.6586 Q1097.22 40.4212 1096.07 44.766 L1113.61 44.766 Q1116.32 33.576 1116.32 28.0424 M1112.87 47.4303 L1095.41 47.4303 Q1092.71 57.6777 1092.71 64.072 Q1092.71 69.6465 1093.85 71.9829 Q1095.04 74.2783 1097.26 74.2783 Q1099.8 74.2783 1102.18 71.737 Q1104.55 69.1546 1106.97 64.4819 Q1110.17 58.4155 1112.87 47.4303 Z" fill="#000000" fill-rule="evenodd" fill-opacity="1" /><path clip-path="url(#clip510)" d="M1130.51 95.3878 Q1130.51 94.9779 1131.58 93.9532 Q1145.11 80.1808 1145.11 54.2346 Q1145.11 28.2064 1132.11 15.0488 Q1130.51 13.5322 1130.51 13.0813 Q1130.51 12.2615 1131.33 12.2615 Q1131.91 12.2615 1133.92 13.9421 Q1135.96 15.6227 1139.04 19.4756 Q1142.15 23.3286 1144.45 28.0424 Q1149.98 39.4784 1149.98 54.2346 Q1149.98 68.4168 1144.7 79.8529 Q1142.44 84.6486 1139.29 88.6655 Q1136.13 92.6825 1134.04 94.445 Q1131.95 96.2076 1131.33 96.2076 Q1130.51 96.2076 1130.51 95.3878 Z" fill="#000000" fill-rule="evenodd" fill-opacity="1" /><path clip-path="url(#clip510)" d="M1186.04 62.4734 Q1186.12 61.4487 1187.72 61.4487 L1239.16 61.4487 Q1241.58 61.4487 1241.62 62.3914 Q1241.62 63.4162 1239.32 63.3752 L1188.29 63.3752 Q1186.04 63.4162 1186.04 62.4734 M1186.04 46.0777 Q1186.04 45.053 1187.8 45.0939 L1239.08 45.0939 Q1241.58 45.0939 1241.62 46.0777 Q1241.62 47.0204 1239.49 47.0204 L1187.72 47.0204 Q1186.04 47.0204 1186.04 46.0777 Z" fill="#000000" fill-rule="evenodd" fill-opacity="1" /><path clip-path="url(#clip510)" d="M1274 74.1144 L1274 63.0472 Q1274 62.1045 1274.04 61.7766 Q1274.08 61.4487 1274.32 61.2027 Q1274.57 60.9568 1275.06 60.9568 Q1275.64 60.9568 1275.84 61.2027 Q1276.09 61.4487 1276.25 62.3914 Q1277.52 68.1709 1280.23 71.2451 Q1282.97 74.2783 1287.93 74.2783 Q1292.65 74.2783 1295.02 72.1879 Q1297.4 70.0974 1297.4 66.6543 Q1297.4 60.5059 1288.67 58.9483 Q1283.63 57.9236 1281.54 57.2678 Q1279.45 56.5709 1277.6 55.0543 Q1274 52.1031 1274 47.9222 Q1274 43.7413 1277.15 40.6671 Q1280.35 37.5929 1287.4 37.5929 Q1292.11 37.5929 1295.31 39.9703 Q1296.25 39.2325 1296.75 38.6176 Q1297.85 37.5929 1298.43 37.5929 Q1299.08 37.5929 1299.21 38.0438 Q1299.33 38.4537 1299.33 39.6424 L1299.33 48.0862 Q1299.33 49.0289 1299.29 49.3568 Q1299.25 49.6847 1299 49.9307 Q1298.75 50.1356 1298.22 50.1356 Q1297.28 50.1356 1297.24 49.3568 Q1296.58 39.1915 1287.4 39.1915 Q1282.44 39.1915 1280.23 41.118 Q1278.01 43.0035 1278.01 45.5858 Q1278.01 47.0204 1278.67 48.1271 Q1279.37 49.1929 1280.23 49.8487 Q1281.13 50.4635 1282.77 51.0784 Q1284.41 51.6522 1285.39 51.8572 Q1286.42 52.0621 1288.34 52.472 Q1295.07 53.7427 1297.89 56.489 Q1301.42 60.014 1301.42 64.4819 Q1301.42 69.4416 1298.06 72.8027 Q1294.7 76.1638 1287.93 76.1638 Q1282.48 76.1638 1278.67 72.5158 Q1278.18 73.0076 1277.81 73.4585 Q1277.44 73.8684 1277.28 74.0324 Q1277.15 74.1963 1277.11 74.3193 Q1277.07 74.4013 1276.99 74.4833 Q1275.31 76.1638 1274.9 76.1638 Q1274.24 76.1638 1274.12 75.7129 Q1274 75.303 1274 74.1144 Z" fill="#000000" fill-rule="evenodd" fill-opacity="1" /><path clip-path="url(#clip510)" d="M1311.91 70.7122 Q1306.38 65.2197 1306.38 57.2678 Q1306.38 49.2748 1311.79 43.4544 Q1317.24 37.5929 1325.03 37.5929 Q1332.66 37.5929 1338.11 43.4134 Q1343.6 49.1929 1343.6 57.2678 Q1343.6 65.1787 1338.07 70.6713 Q1332.57 76.1638 1324.95 76.1638 Q1317.49 76.1638 1311.91 70.7122 M1313.35 56.5709 Q1313.35 64.7278 1315.48 68.4168 Q1318.76 74.0324 1325.03 74.0324 Q1328.15 74.0324 1330.73 72.3518 Q1333.35 70.6713 1334.79 67.843 Q1336.63 64.154 1336.63 56.5709 Q1336.63 48.4961 1334.42 44.93 Q1331.14 39.4784 1324.95 39.4784 Q1322.24 39.4784 1319.58 40.913 Q1316.96 42.3067 1315.36 45.0939 Q1313.35 48.783 1313.35 56.5709 Z" fill="#000000" fill-rule="evenodd" fill-opacity="1" /><path clip-path="url(#clip510)" d="M1346.27 75.2211 L1346.27 72.6387 Q1350.74 72.6387 1351.76 72.1059 Q1352.79 71.532 1352.79 68.8267 L1352.79 46.3236 Q1352.79 43.2084 1351.68 42.4296 Q1350.62 41.6508 1346.27 41.6508 L1346.27 39.0275 L1358.08 38.1258 L1358.08 46.9385 Q1362.01 38.1258 1370.5 38.1258 Q1376.81 38.1258 1379.31 41.241 Q1381.15 43.3314 1381.52 45.6678 Q1381.93 48.0042 1381.93 54.0706 L1381.93 70.0974 Q1382.01 71.8599 1383.37 72.2698 Q1384.72 72.6387 1388.49 72.6387 L1388.49 75.2211 Q1379.92 74.9751 1379.06 74.9751 Q1378.41 74.9751 1369.59 75.2211 L1369.59 72.6387 Q1374.06 72.6387 1375.09 72.1059 Q1376.15 71.532 1376.15 68.8267 L1376.15 49.2748 Q1376.15 45.012 1374.84 42.5116 Q1373.53 39.9703 1369.92 39.9703 Q1365.58 39.9703 1362.09 43.6183 Q1358.61 47.2664 1358.61 53.4148 L1358.61 68.8267 Q1358.61 71.532 1359.63 72.1059 Q1360.7 72.6387 1365.13 72.6387 L1365.13 75.2211 Q1356.56 74.9751 1355.74 74.9751 Q1355.08 74.9751 1346.27 75.2211 Z" fill="#000000" fill-rule="evenodd" fill-opacity="1" /><path clip-path="url(#clip510)" d="M1392.39 54.2346 Q1392.39 40.0523 1397.68 28.6163 Q1399.93 23.8205 1403.09 19.8036 Q1406.24 15.7866 1408.33 14.0241 Q1410.42 12.2615 1411 12.2615 Q1411.82 12.2615 1411.86 13.0813 Q1411.86 13.4912 1410.75 14.5159 Q1397.23 28.2883 1397.27 54.2346 Q1397.27 80.2627 1410.42 93.5023 Q1411.86 94.9369 1411.86 95.3878 Q1411.86 96.2076 1411 96.2076 Q1410.42 96.2076 1408.42 94.527 Q1406.41 92.8465 1403.29 88.9935 Q1400.18 85.1405 1397.92 80.4267 Q1392.39 68.9907 1392.39 54.2346 Z" fill="#000000" fill-rule="evenodd" fill-opacity="1" /><path clip-path="url(#clip510)" d="M1454.59 33.248 Q1454.59 40.1342 1452.38 47.8812 Q1450.21 55.5872 1446.77 61.8176 Q1443.32 68.0069 1438.81 72.1059 Q1434.31 76.1638 1430 76.1638 Q1427.26 76.1638 1425.21 74.6472 Q1423.2 73.0896 1422.09 70.5073 Q1420.98 67.884 1420.45 65.0147 Q1419.92 62.1045 1419.92 58.9483 Q1419.92 54.2346 1420.94 49.1109 Q1421.97 43.9462 1423.69 39.2735 Q1425.41 34.5597 1427.83 30.2968 Q1430.25 25.9929 1432.91 22.8778 Q1435.62 19.7216 1438.65 17.8771 Q1441.68 16.0325 1444.51 16.0325 Q1446.56 16.0325 1448.2 16.9343 Q1449.88 17.7951 1450.95 19.3117 Q1452.01 20.7873 1452.75 22.5498 Q1453.53 24.3124 1453.9 26.3618 Q1454.27 28.3703 1454.43 30.0509 Q1454.59 31.6904 1454.59 33.248 M1449.06 28.0424 Q1449.06 25.952 1448.9 24.3944 Q1448.73 22.7958 1448.28 21.1972 Q1447.83 19.5986 1446.85 18.7378 Q1445.91 17.8771 1444.43 17.8771 Q1440.13 17.8771 1435.29 26.6898 Q1433.73 29.436 1432.34 33.1661 Q1430.94 36.8961 1430.45 38.6586 Q1429.96 40.4212 1428.81 44.766 L1446.36 44.766 Q1449.06 33.576 1449.06 28.0424 M1445.62 47.4303 L1428.16 47.4303 Q1425.45 57.6777 1425.45 64.072 Q1425.45 69.6465 1426.6 71.9829 Q1427.79 74.2783 1430 74.2783 Q1432.54 74.2783 1434.92 71.737 Q1437.3 69.1546 1439.72 64.4819 Q1442.91 58.4155 1445.62 47.4303 Z" fill="#000000" fill-rule="evenodd" fill-opacity="1" /><path clip-path="url(#clip510)" d="M1460.08 73.8684 Q1458.89 72.5158 1458.89 70.7532 Q1458.89 68.9907 1460.04 67.679 Q1461.23 66.3264 1463.36 66.3264 Q1465.86 66.3264 1467.29 68.7448 Q1468.73 71.1221 1468.73 75.1391 Q1468.73 79.4839 1466.97 83.5009 Q1465.2 87.5588 1463.48 89.4853 Q1461.76 91.4118 1461.06 91.4118 Q1460.24 91.4118 1460.24 90.5101 Q1460.24 90.1821 1460.82 89.5673 Q1466.84 83.091 1466.88 75.1391 Q1466.88 73.8684 1466.72 73.8684 L1466.51 74.0324 Q1465.08 75.2211 1463.36 75.2211 Q1461.27 75.2211 1460.08 73.8684 Z" fill="#000000" fill-rule="evenodd" fill-opacity="1" /><path clip-path="url(#clip510)" d="M1564 63.2112 Q1564 63.5391 1563.63 64.8098 Q1563.26 66.0805 1562.36 68.0479 Q1561.5 70.0154 1560.27 71.819 Q1559.08 73.5815 1557.11 74.8931 Q1555.18 76.1638 1552.97 76.1638 Q1550.02 76.1638 1548.05 74.1963 Q1546.08 72.2288 1546.08 69.2776 Q1546.08 67.679 1547.19 64.6458 Q1552.4 50.7915 1552.4 45.8318 Q1552.4 39.9703 1547.85 39.9703 Q1545.26 39.9703 1542.93 41.036 Q1540.59 42.1017 1539.08 43.5773 Q1537.56 45.053 1536.37 46.7335 Q1535.18 48.4141 1534.65 49.5208 Q1534.16 50.6275 1534.03 51.1194 L1528.99 71.3681 Q1528.58 73.0896 1528.3 73.9094 Q1528.01 74.7292 1527.23 75.426 Q1526.45 76.1638 1525.22 76.1638 Q1524.2 76.1638 1523.46 75.549 Q1522.76 74.9341 1522.76 73.8684 Q1522.76 73.7045 1522.97 72.8437 Q1523.17 71.9829 1523.46 70.7942 Q1523.75 69.6055 1523.87 68.9087 Q1525.34 63.3342 1525.55 62.5554 L1527.89 52.7999 Q1529.16 47.9632 1529.16 45.8318 Q1529.16 39.9703 1524.61 39.9703 Q1522.35 39.9703 1520.22 40.8311 Q1518.13 41.6508 1516.7 42.7985 Q1515.26 43.9462 1513.95 45.5448 Q1512.68 47.1024 1512.02 48.1681 Q1511.41 49.1929 1510.92 50.2176 L1509.85 54.3985 Q1509.6 55.5462 1508.42 60.014 L1506.57 67.5971 Q1505.26 73.2536 1504.97 73.7864 Q1504.56 74.9341 1503.66 75.549 Q1502.76 76.1638 1501.86 76.1638 Q1500.83 76.1638 1500.14 75.549 Q1499.44 74.9341 1499.44 73.8684 Q1499.44 73.7045 1499.56 73.0896 Q1499.68 72.4748 1499.89 71.614 Q1500.09 70.7532 1500.18 70.2614 L1505.05 50.8734 Q1505.96 47.3484 1506.16 46.2416 Q1506.41 45.0939 1506.41 43.8233 Q1506.41 39.9703 1503.78 39.9703 Q1501.65 39.9703 1500.26 42.5116 Q1498.86 45.053 1497.68 49.9717 Q1497.31 51.3243 1497.06 51.6112 Q1496.86 51.8982 1496.24 51.8982 Q1495.22 51.8572 1495.22 51.0374 Q1495.22 50.8324 1495.54 49.5208 Q1495.87 48.2091 1496.49 46.2416 Q1497.14 44.2332 1497.84 42.9215 Q1498.25 42.0607 1498.62 41.4869 Q1498.99 40.913 1499.73 40.0113 Q1500.46 39.1095 1501.57 38.6176 Q1502.68 38.1258 1504.03 38.1258 Q1507.02 38.1258 1509.24 40.0523 Q1511.49 41.9788 1511.78 45.4219 Q1517.23 38.1258 1524.85 38.1258 Q1529.16 38.1258 1531.74 40.2982 Q1534.16 42.3887 1534.44 46.2416 Q1540.1 38.1258 1548.13 38.1258 Q1552.77 38.1258 1555.27 40.5441 Q1557.77 42.9215 1557.77 47.1024 Q1557.77 49.2748 1556.66 53.4148 Q1555.55 57.5137 1554.82 59.5632 Q1554.08 61.6126 1552.64 65.5476 Q1551.13 69.3186 1551.13 71.532 Q1551.13 72.9667 1551.62 73.6225 Q1552.11 74.2783 1553.18 74.2783 Q1554.82 74.2783 1556.25 73.3356 Q1557.68 72.3518 1558.71 70.7532 Q1559.78 69.1137 1560.47 67.4741 Q1561.17 65.7935 1561.7 63.908 Q1562.03 62.8833 1562.19 62.6374 Q1562.4 62.3914 1562.97 62.3914 Q1564 62.3914 1564 63.2112 Z" fill="#000000" fill-rule="evenodd" fill-opacity="1" /><path clip-path="url(#clip510)" d="M1571.23 95.3878 Q1571.23 94.9779 1572.3 93.9532 Q1585.82 80.1808 1585.82 54.2346 Q1585.82 28.2064 1572.83 15.0488 Q1571.23 13.5322 1571.23 13.0813 Q1571.23 12.2615 1572.05 12.2615 Q1572.63 12.2615 1574.63 13.9421 Q1576.68 15.6227 1579.76 19.4756 Q1582.87 23.3286 1585.17 28.0424 Q1590.7 39.4784 1590.7 54.2346 Q1590.7 68.4168 1585.41 79.8529 Q1583.16 84.6486 1580 88.6655 Q1576.85 92.6825 1574.76 94.445 Q1572.67 96.2076 1572.05 96.2076 Q1571.23 96.2076 1571.23 95.3878 Z" fill="#000000" fill-rule="evenodd" fill-opacity="1" /><polyline clip-path="url(#clip512)" style="stroke:#009af9; stroke-linecap:round; stroke-linejoin:round; stroke-width:4; stroke-opacity:1; fill:none" points="316.512,773.338 319.66,779.468 322.808,785.598 325.956,791.726 329.104,797.852 332.252,803.976 335.4,810.097 338.548,816.214 341.696,822.327 344.844,828.436 347.992,834.538 351.14,840.635 354.288,846.724 357.436,852.807 360.584,858.882 363.732,864.948 366.88,871.004 370.028,877.052 373.176,883.088 376.324,889.114 379.472,895.128 382.62,901.13 385.768,907.12 388.916,913.096 392.064,919.058 395.212,925.005 398.36,930.937 401.508,936.854 404.656,942.754 407.804,948.637 410.952,954.503 414.1,960.35 417.248,966.179 420.396,971.989 423.544,977.779 426.692,983.548 429.84,989.296 432.988,995.023 436.136,1000.73 439.284,1006.41 442.432,1012.07 445.58,1017.7 448.728,1023.31 451.876,1028.9 455.024,1034.46 458.172,1039.99 461.319,1045.5 464.467,1050.98 467.615,1056.43 470.763,1061.85 473.911,1067.25 477.059,1072.61 480.207,1077.95 483.355,1083.25 486.503,1088.53 489.651,1093.77 492.799,1098.98 495.947,1104.16 499.095,1109.3 502.243,1114.41 505.391,1119.49 508.539,1124.53 511.687,1129.54 514.835,1134.51 517.983,1139.45 521.131,1144.35 524.279,1149.21 527.427,1154.03 530.575,1158.82 533.723,1163.57 536.871,1168.28 540.019,1172.95 543.167,1177.57 546.315,1182.16 549.463,1186.71 552.611,1191.22 555.759,1195.68 558.907,1200.11 562.055,1204.49 565.203,1208.82 568.351,1213.12 571.499,1217.36 574.647,1221.57 577.795,1225.73 580.943,1229.84 584.091,1233.91 587.239,1237.94 590.387,1241.91 593.535,1245.84 596.683,1249.73 599.831,1253.56 602.979,1257.35 606.127,1261.09 609.275,1264.77 612.423,1268.42 615.571,1272.01 618.719,1275.55 621.867,1279.04 625.015,1282.48 628.163,1285.87 631.311,1289.21 634.459,1292.49 637.607,1295.73 640.755,1298.91 643.903,1302.04 647.051,1305.12 650.199,1308.14 653.347,1311.11 656.495,1314.03 659.643,1316.89 662.791,1319.7 665.939,1322.45 669.087,1325.15 672.235,1327.79 675.383,1330.38 678.531,1332.91 681.679,1335.39 684.827,1337.81 687.975,1340.17 691.123,1342.48 694.271,1344.73 697.419,1346.92 700.566,1349.06 703.714,1351.14 706.862,1353.16 710.01,1355.12 713.158,1357.02 716.306,1358.87 719.454,1360.66 722.602,1362.38 725.75,1364.05 728.898,1365.66 732.046,1367.22 735.194,1368.71 738.342,1370.14 741.49,1371.51 744.638,1372.83 747.786,1374.08 750.934,1375.27 754.082,1376.4 757.23,1377.48 760.378,1378.49 763.526,1379.44 766.674,1380.33 769.822,1381.16 772.97,1381.93 776.118,1382.64 779.266,1383.28 782.414,1383.87 785.562,1384.4 788.71,1384.86 791.858,1385.26 795.006,1385.61 798.154,1385.89 801.302,1386.11 804.45,1386.26 807.598,1386.36 810.746,1386.4 813.894,1386.37 817.042,1386.28 820.19,1386.13 823.338,1385.92 826.486,1385.65 829.634,1385.32 832.782,1384.93 835.93,1384.47 839.078,1383.96 842.226,1383.38 845.374,1382.74 848.522,1382.05 851.67,1381.29 854.818,1380.47 857.966,1379.58 861.114,1378.64 864.262,1377.64 867.41,1376.58 870.558,1375.46 873.706,1374.27 876.854,1373.03 880.002,1371.73 883.15,1370.36 886.298,1368.94 889.446,1367.46 892.594,1365.92 895.742,1364.31 898.89,1362.65 902.038,1360.94 905.186,1359.16 908.334,1357.32 911.482,1355.43 914.63,1353.47 917.778,1351.46 920.926,1349.39 924.074,1347.27 927.222,1345.08 930.37,1342.84 933.518,1340.55 936.666,1338.19 939.813,1335.78 942.961,1333.31 946.109,1330.79 949.257,1328.21 952.405,1325.58 955.553,1322.89 958.701,1320.14 961.849,1317.34 964.997,1314.49 968.145,1311.58 971.293,1308.62 974.441,1305.6 977.589,1302.53 980.737,1299.41 983.885,1296.24 987.033,1293.01 990.181,1289.73 993.329,1286.4 996.477,1283.02 999.625,1279.59 1002.77,1276.11 1005.92,1272.57 1009.07,1268.99 1012.22,1265.36 1015.37,1261.68 1018.51,1257.95 1021.66,1254.17 1024.81,1250.34 1027.96,1246.46 1031.11,1242.54 1034.25,1238.57 1037.4,1234.56 1040.55,1230.5 1043.7,1226.39 1046.85,1222.23 1049.99,1218.04 1053.14,1213.79 1056.29,1209.51 1059.44,1205.18 1062.58,1200.81 1065.73,1196.39 1068.88,1191.93 1072.03,1187.43 1075.18,1182.89 1078.32,1178.31 1081.47,1173.69 1084.62,1169.02 1087.77,1164.32 1090.92,1159.58 1094.06,1154.8 1097.21,1149.98 1100.36,1145.12 1103.51,1140.23 1106.66,1135.3 1109.8,1130.34 1112.95,1125.33 1116.1,1120.3 1119.25,1115.22 1122.4,1110.12 1125.54,1104.98 1128.69,1099.81 1131.84,1094.6 1134.99,1089.36 1138.14,1084.09 1141.28,1078.79 1144.43,1073.46 1147.58,1068.1 1150.73,1062.71 1153.88,1057.29 1157.02,1051.85 1160.17,1046.37 1163.32,1040.87 1166.47,1035.34 1169.62,1029.78 1172.76,1024.2 1175.91,1018.6 1179.06,1012.97 1182.21,1007.31 1185.36,1001.63 1188.5,995.931 1191.65,990.208 1194.8,984.463 1197.95,978.697 1201.1,972.91 1204.24,967.103 1207.39,961.277 1210.54,955.433 1213.69,949.57 1216.84,943.689 1219.98,937.791 1223.13,931.877 1226.28,925.947 1229.43,920.002 1232.58,914.042 1235.72,908.068 1238.87,902.081 1242.02,896.08 1245.17,890.068 1248.32,884.043 1251.46,878.008 1254.61,871.962 1257.76,865.907 1260.91,859.842 1264.06,853.768 1267.2,847.687 1270.35,841.597 1273.5,835.502 1276.65,829.399 1279.8,823.292 1282.94,817.179 1286.09,811.062 1289.24,804.941 1292.39,798.817 1295.54,792.691 1298.68,786.562 1301.83,780.432 1304.98,774.302 1308.13,768.171 1311.28,762.041 1314.42,755.912 1317.57,749.785 1320.72,743.66 1323.87,737.538 1327.02,731.419 1330.16,725.305 1333.31,719.196 1336.46,713.092 1339.61,706.994 1342.76,700.903 1345.9,694.819 1349.05,688.742 1352.2,682.675 1355.35,676.616 1358.5,670.567 1361.64,664.528 1364.79,658.5 1367.94,652.484 1371.09,646.48 1374.24,640.488 1377.38,634.51 1380.53,628.545 1383.68,622.595 1386.83,616.66 1389.98,610.741 1393.12,604.838 1396.27,598.952 1399.42,593.083 1402.57,587.233 1405.72,581.401 1408.86,575.588 1412.01,569.795 1415.16,564.022 1418.31,558.27 1421.46,552.54 1424.6,546.832 1427.75,541.146 1430.9,535.484 1434.05,529.845 1437.2,524.231 1440.34,518.642 1443.49,513.078 1446.64,507.54 1449.79,502.029 1452.94,496.545 1456.08,491.088 1459.23,485.66 1462.38,480.261 1465.53,474.891 1468.68,469.55 1471.82,464.24 1474.97,458.961 1478.12,453.714 1481.27,448.498 1484.42,443.315 1487.56,438.165 1490.71,433.048 1493.86,427.966 1497.01,422.918 1500.16,417.905 1503.3,412.927 1506.45,407.986 1509.6,403.081 1512.75,398.213 1515.9,393.383 1519.04,388.59 1522.19,383.836 1525.34,379.122 1528.49,374.446 1531.64,369.81 1534.78,365.215 1537.93,360.661 1541.08,356.147 1544.23,351.676 1547.37,347.247 1550.52,342.86 1553.67,338.516 1556.82,334.216 1559.97,329.96 1563.11,325.748 1566.26,321.581 1569.41,317.459 1572.56,313.382 1575.71,309.352 1578.85,305.368 1582,301.431 1585.15,297.54 1588.3,293.698 1591.45,289.904 1594.59,286.157 1597.74,282.46 1600.89,278.812 1604.04,275.213 1607.19,271.664 1610.33,268.165 1613.48,264.716 1616.63,261.319 1619.78,257.972 1622.93,254.677 1626.07,251.434 1629.22,248.244 1632.37,245.105 1635.52,242.02 1638.67,238.988 1641.81,236.009 1644.96,233.084 1648.11,230.213 1651.26,227.396 1654.41,224.633 1657.55,221.926 1660.7,219.274 1663.85,216.677 1667,214.136 1670.15,211.651 1673.29,209.222 1676.44,206.849 1679.59,204.533 1682.74,202.274 1685.89,200.072 1689.03,197.927 1692.18,195.84 1695.33,193.811 1698.48,191.839 1701.63,189.926 1704.77,188.071 1707.92,186.274 1711.07,184.537 1714.22,182.858 1717.37,181.238 1720.51,179.677 1723.66,178.176 1726.81,176.735 1729.96,175.352 1733.11,174.03 1736.25,172.768 1739.4,171.566 1742.55,170.423 1745.7,169.342 1748.85,168.32 1751.99,167.359 1755.14,166.459 1758.29,165.619 1761.44,164.84 1764.59,164.122 1767.73,163.465 1770.88,162.869 1774.03,162.334 1777.18,161.86 1780.33,161.447 1783.47,161.096 1786.62,160.805 1789.77,160.576 1792.92,160.408 1796.07,160.302 1799.21,160.256 1802.36,160.272 1805.51,160.35 1808.66,160.488 1811.81,160.688 1814.95,160.949 1818.1,161.272 1821.25,161.655 1824.4,162.1 1827.55,162.606 1830.69,163.173 1833.84,163.801 1836.99,164.49 1840.14,165.24 1843.29,166.05 1846.43,166.922 1849.58,167.854 1852.73,168.846 1855.88,169.899 1859.03,171.012 1862.17,172.186 1865.32,173.42 1868.47,174.713 1871.62,176.067 1874.77,177.48 1877.91,178.953 1881.06,180.485 1884.21,182.077 1887.36,183.727 1890.51,185.437 1893.65,187.205 1896.8,189.032 1899.95,190.918 1903.1,192.861 1906.25,194.863 1909.39,196.923 1912.54,199.04 1915.69,201.215 1918.84,203.447 1921.99,205.735 1925.13,208.081 1928.28,210.483 1931.43,212.942 1934.58,215.456 1937.73,218.026 1940.87,220.652 1944.02,223.333 1947.17,226.069 1950.32,228.86 1953.47,231.705 1956.61,234.604 1959.76,237.558 1962.91,240.564 1966.06,243.625 1969.21,246.738 1972.35,249.903 1975.5,253.121 1978.65,256.392 1981.8,259.713 1984.95,263.086 1988.09,266.511 1991.24,269.985 1994.39,273.511 1997.54,277.086 2000.69,280.711 2003.83,284.385 2006.98,288.107 2010.13,291.879 2013.28,295.699 2016.42,299.566 2019.57,303.481 2022.72,307.442 2025.87,311.451 2029.02,315.505 2032.16,319.605 2035.31,323.751 2038.46,327.942 2041.61,332.177 2044.76,336.456 2047.9,340.779 2051.05,345.145 2054.2,349.554 2057.35,354.006 2060.5,358.499 2063.64,363.034 2066.79,367.609 2069.94,372.226 2073.09,376.882 2076.24,381.579 2079.38,386.314 2082.53,391.088 2085.68,395.9 2088.83,400.75 2091.98,405.637 2095.12,410.561 2098.27,415.522 2101.42,420.518 2104.57,425.549 2107.72,430.615 2110.86,435.715 2114.01,440.85 2117.16,446.017 2120.31,451.217 2123.46,456.449 2126.6,461.713 2129.75,467.009 2132.9,472.334 2136.05,477.69 2139.2,483.076 2142.34,488.49 2145.49,493.933 2148.64,499.404 2151.79,504.902 2154.94,510.427 2158.08,515.979 2161.23,521.556 2164.38,527.158 2167.53,532.785 2170.68,538.436 2173.82,544.111 2176.97,549.808 2180.12,555.528 2183.27,561.269 2186.42,567.032 2189.56,572.815 2192.71,578.618 2195.86,584.441 2199.01,590.283 2202.16,596.143 2205.3,602.021 2208.45,607.915 2211.6,613.827 2214.75,619.754 2217.9,625.697 2221.04,631.654 2224.19,637.626 2227.34,643.611 2230.49,649.609 2233.64,655.619 2236.78,661.641 2239.93,667.675 2243.08,673.719 2246.23,679.773 2249.38,685.836 2252.52,691.908 2255.67,697.988 2258.82,704.075 2261.97,710.17 2265.12,716.27 2268.26,722.377 2271.41,728.488 2274.56,734.604 2277.71,740.724 2280.86,746.847 2284,752.973 2287.15,759.101 2290.3,765.23 2293.45,771.36 "/>
<polyline clip-path="url(#clip512)" style="stroke:#e26f46; stroke-linecap:round; stroke-linejoin:round; stroke-width:4; stroke-opacity:1; fill:none" points="316.512,773.325 319.66,773.325 322.808,773.325 325.956,773.325 329.104,773.325 332.252,773.325 335.4,773.325 338.548,773.325 341.696,773.325 344.844,773.325 347.992,773.325 351.14,773.325 354.288,773.325 357.436,773.325 360.584,773.325 363.732,773.325 366.88,773.325 370.028,773.325 373.176,773.325 376.324,773.325 379.472,773.325 382.62,773.325 385.768,773.325 388.916,773.325 392.064,773.325 395.212,773.325 398.36,773.325 401.508,773.325 404.656,773.325 407.804,773.325 410.952,773.325 414.1,773.325 417.248,773.325 420.396,773.325 423.544,773.325 426.692,773.325 429.84,773.325 432.988,773.325 436.136,773.325 439.284,773.325 442.432,773.325 445.58,773.325 448.728,773.325 451.876,773.325 455.024,773.325 458.172,773.325 461.319,773.325 464.467,773.325 467.615,773.325 470.763,773.325 473.911,773.325 477.059,773.325 480.207,773.325 483.355,773.325 486.503,773.325 489.651,773.325 492.799,773.325 495.947,773.325 499.095,773.325 502.243,773.325 505.391,773.325 508.539,773.325 511.687,773.325 514.835,773.325 517.983,773.325 521.131,773.325 524.279,773.325 527.427,773.325 530.575,773.325 533.723,773.325 536.871,773.325 540.019,773.325 543.167,773.325 546.315,773.325 549.463,773.325 552.611,773.325 555.759,773.325 558.907,773.325 562.055,773.325 565.203,773.325 568.351,773.325 571.499,773.325 574.647,773.325 577.795,773.325 580.943,773.325 584.091,773.325 587.239,773.325 590.387,773.325 593.535,773.325 596.683,773.325 599.831,773.325 602.979,773.325 606.127,773.325 609.275,773.325 612.423,773.325 615.571,773.325 618.719,773.325 621.867,773.325 625.015,773.325 628.163,773.325 631.311,773.325 634.459,773.325 637.607,773.325 640.755,773.325 643.903,773.325 647.051,773.325 650.199,773.325 653.347,773.325 656.495,773.325 659.643,773.325 662.791,773.325 665.939,773.325 669.087,773.325 672.235,773.325 675.383,773.325 678.531,773.325 681.679,773.325 684.827,773.325 687.975,773.325 691.123,773.325 694.271,773.325 697.419,773.325 700.566,773.325 703.714,773.325 706.862,773.325 710.01,773.325 713.158,773.325 716.306,773.325 719.454,773.325 722.602,773.325 725.75,773.325 728.898,773.325 732.046,773.325 735.194,773.325 738.342,773.325 741.49,773.325 744.638,773.325 747.786,773.325 750.934,773.325 754.082,773.325 757.23,773.325 760.378,773.325 763.526,773.325 766.674,773.325 769.822,773.325 772.97,773.325 776.118,773.325 779.266,773.325 782.414,773.325 785.562,773.325 788.71,773.325 791.858,773.325 795.006,773.325 798.154,773.325 801.302,773.325 804.45,773.325 807.598,773.325 810.746,773.325 813.894,773.325 817.042,773.325 820.19,773.325 823.338,773.325 826.486,773.325 829.634,773.325 832.782,773.325 835.93,773.325 839.078,773.325 842.226,773.325 845.374,773.325 848.522,773.325 851.67,773.325 854.818,773.325 857.966,773.325 861.114,773.325 864.262,773.325 867.41,773.325 870.558,773.325 873.706,773.325 876.854,773.325 880.002,773.325 883.15,773.325 886.298,773.325 889.446,773.325 892.594,773.325 895.742,773.325 898.89,773.325 902.038,773.325 905.186,773.325 908.334,773.325 911.482,773.325 914.63,773.325 917.778,773.325 920.926,773.325 924.074,773.325 927.222,773.325 930.37,773.325 933.518,773.325 936.666,773.325 939.813,773.325 942.961,773.325 946.109,773.325 949.257,773.325 952.405,773.325 955.553,773.325 958.701,773.325 961.849,773.325 964.997,773.325 968.145,773.325 971.293,773.325 974.441,773.325 977.589,773.325 980.737,773.325 983.885,773.325 987.033,773.325 990.181,773.325 993.329,773.325 996.477,773.325 999.625,773.325 1002.77,773.325 1005.92,773.325 1009.07,773.325 1012.22,773.325 1015.37,773.325 1018.51,773.325 1021.66,773.325 1024.81,773.325 1027.96,773.325 1031.11,773.325 1034.25,773.325 1037.4,773.325 1040.55,773.325 1043.7,773.325 1046.85,773.325 1049.99,773.325 1053.14,773.325 1056.29,773.325 1059.44,773.325 1062.58,773.325 1065.73,773.325 1068.88,773.325 1072.03,773.325 1075.18,773.325 1078.32,773.325 1081.47,773.325 1084.62,773.325 1087.77,773.325 1090.92,773.325 1094.06,773.325 1097.21,773.325 1100.36,773.325 1103.51,773.325 1106.66,773.325 1109.8,773.325 1112.95,773.325 1116.1,773.325 1119.25,773.325 1122.4,773.325 1125.54,773.325 1128.69,773.325 1131.84,773.325 1134.99,773.325 1138.14,773.325 1141.28,773.325 1144.43,773.325 1147.58,773.325 1150.73,773.325 1153.88,773.325 1157.02,773.325 1160.17,773.325 1163.32,773.325 1166.47,773.325 1169.62,773.325 1172.76,773.325 1175.91,773.325 1179.06,773.325 1182.21,773.325 1185.36,773.325 1188.5,773.325 1191.65,773.325 1194.8,773.325 1197.95,773.325 1201.1,773.325 1204.24,773.325 1207.39,773.325 1210.54,773.325 1213.69,773.325 1216.84,773.325 1219.98,773.325 1223.13,773.325 1226.28,773.325 1229.43,773.325 1232.58,773.325 1235.72,773.325 1238.87,773.325 1242.02,773.325 1245.17,773.325 1248.32,773.325 1251.46,773.325 1254.61,773.325 1257.76,773.325 1260.91,773.325 1264.06,773.325 1267.2,773.325 1270.35,773.325 1273.5,773.325 1276.65,773.325 1279.8,773.325 1282.94,773.325 1286.09,773.325 1289.24,773.325 1292.39,773.325 1295.54,773.325 1298.68,773.325 1301.83,773.325 1304.98,773.325 1308.13,773.325 1311.28,773.325 1314.42,773.325 1317.57,773.325 1320.72,773.325 1323.87,773.325 1327.02,773.325 1330.16,773.325 1333.31,773.325 1336.46,773.325 1339.61,773.325 1342.76,773.325 1345.9,773.325 1349.05,773.325 1352.2,773.325 1355.35,773.325 1358.5,773.325 1361.64,773.325 1364.79,773.325 1367.94,773.325 1371.09,773.325 1374.24,773.325 1377.38,773.325 1380.53,773.325 1383.68,773.325 1386.83,773.325 1389.98,773.325 1393.12,773.325 1396.27,773.325 1399.42,773.325 1402.57,773.325 1405.72,773.325 1408.86,773.325 1412.01,773.325 1415.16,773.325 1418.31,773.325 1421.46,773.325 1424.6,773.325 1427.75,773.325 1430.9,773.325 1434.05,773.325 1437.2,773.325 1440.34,773.325 1443.49,773.325 1446.64,773.325 1449.79,773.325 1452.94,773.325 1456.08,773.325 1459.23,773.325 1462.38,773.325 1465.53,773.325 1468.68,773.325 1471.82,773.325 1474.97,773.325 1478.12,773.325 1481.27,773.325 1484.42,773.325 1487.56,773.325 1490.71,773.325 1493.86,773.325 1497.01,773.325 1500.16,773.325 1503.3,773.325 1506.45,773.325 1509.6,773.325 1512.75,773.325 1515.9,773.325 1519.04,773.325 1522.19,773.325 1525.34,773.325 1528.49,773.325 1531.64,773.325 1534.78,773.325 1537.93,773.325 1541.08,773.325 1544.23,773.325 1547.37,773.325 1550.52,773.325 1553.67,773.325 1556.82,773.325 1559.97,773.325 1563.11,773.325 1566.26,773.325 1569.41,773.325 1572.56,773.325 1575.71,773.325 1578.85,773.325 1582,773.325 1585.15,773.325 1588.3,773.325 1591.45,773.325 1594.59,773.325 1597.74,773.325 1600.89,773.325 1604.04,773.325 1607.19,773.325 1610.33,773.325 1613.48,773.325 1616.63,773.325 1619.78,773.325 1622.93,773.325 1626.07,773.325 1629.22,773.325 1632.37,773.325 1635.52,773.325 1638.67,773.325 1641.81,773.325 1644.96,773.325 1648.11,773.325 1651.26,773.325 1654.41,773.325 1657.55,773.325 1660.7,773.325 1663.85,773.325 1667,773.325 1670.15,773.325 1673.29,773.325 1676.44,773.325 1679.59,773.325 1682.74,773.325 1685.89,773.325 1689.03,773.325 1692.18,773.325 1695.33,773.325 1698.48,773.325 1701.63,773.325 1704.77,773.325 1707.92,773.325 1711.07,773.325 1714.22,773.325 1717.37,773.325 1720.51,773.325 1723.66,773.325 1726.81,773.325 1729.96,773.325 1733.11,773.325 1736.25,773.325 1739.4,773.325 1742.55,773.325 1745.7,773.325 1748.85,773.325 1751.99,773.325 1755.14,773.325 1758.29,773.325 1761.44,773.325 1764.59,773.325 1767.73,773.325 1770.88,773.325 1774.03,773.325 1777.18,773.325 1780.33,773.325 1783.47,773.325 1786.62,773.325 1789.77,773.325 1792.92,773.325 1796.07,773.325 1799.21,773.325 1802.36,773.325 1805.51,773.325 1808.66,773.325 1811.81,773.325 1814.95,773.325 1818.1,773.325 1821.25,773.325 1824.4,773.325 1827.55,773.325 1830.69,773.325 1833.84,773.325 1836.99,773.325 1840.14,773.325 1843.29,773.325 1846.43,773.325 1849.58,773.325 1852.73,773.325 1855.88,773.325 1859.03,773.325 1862.17,773.325 1865.32,773.325 1868.47,773.325 1871.62,773.325 1874.77,773.325 1877.91,773.325 1881.06,773.325 1884.21,773.325 1887.36,773.325 1890.51,773.325 1893.65,773.325 1896.8,773.325 1899.95,773.325 1903.1,773.325 1906.25,773.325 1909.39,773.325 1912.54,773.325 1915.69,773.325 1918.84,773.325 1921.99,773.325 1925.13,773.325 1928.28,773.325 1931.43,773.325 1934.58,773.325 1937.73,773.325 1940.87,773.325 1944.02,773.325 1947.17,773.325 1950.32,773.325 1953.47,773.325 1956.61,773.325 1959.76,773.325 1962.91,773.325 1966.06,773.325 1969.21,773.325 1972.35,773.325 1975.5,773.325 1978.65,773.325 1981.8,773.325 1984.95,773.325 1988.09,773.325 1991.24,773.325 1994.39,773.325 1997.54,773.325 2000.69,773.325 2003.83,773.325 2006.98,773.325 2010.13,773.325 2013.28,773.325 2016.42,773.325 2019.57,773.325 2022.72,773.325 2025.87,773.325 2029.02,773.325 2032.16,773.325 2035.31,773.325 2038.46,773.325 2041.61,773.325 2044.76,773.325 2047.9,773.325 2051.05,773.325 2054.2,773.325 2057.35,773.325 2060.5,773.325 2063.64,773.325 2066.79,773.325 2069.94,773.325 2073.09,773.325 2076.24,773.325 2079.38,773.325 2082.53,773.325 2085.68,773.325 2088.83,773.325 2091.98,773.325 2095.12,773.325 2098.27,773.325 2101.42,773.325 2104.57,773.325 2107.72,773.325 2110.86,773.325 2114.01,773.325 2117.16,773.325 2120.31,773.325 2123.46,773.325 2126.6,773.325 2129.75,773.325 2132.9,773.325 2136.05,773.325 2139.2,773.325 2142.34,773.325 2145.49,773.325 2148.64,773.325 2151.79,773.325 2154.94,773.325 2158.08,773.325 2161.23,773.325 2164.38,773.325 2167.53,773.325 2170.68,773.325 2173.82,773.325 2176.97,773.325 2180.12,773.325 2183.27,773.325 2186.42,773.325 2189.56,773.325 2192.71,773.325 2195.86,773.325 2199.01,773.325 2202.16,773.325 2205.3,773.325 2208.45,773.325 2211.6,773.325 2214.75,773.325 2217.9,773.325 2221.04,773.325 2224.19,773.325 2227.34,773.325 2230.49,773.325 2233.64,773.325 2236.78,773.325 2239.93,773.325 2243.08,773.325 2246.23,773.325 2249.38,773.325 2252.52,773.325 2255.67,773.325 2258.82,773.325 2261.97,773.325 2265.12,773.325 2268.26,773.325 2271.41,773.325 2274.56,773.325 2277.71,773.325 2280.86,773.325 2284,773.325 2287.15,773.325 2290.3,773.325 2293.45,773.325 "/>
<path clip-path="url(#clip510)" d="M327.056 322.316 L684.146 322.316 L684.146 166.796 L327.056 166.796  Z" fill="#ffffff" fill-rule="evenodd" fill-opacity="1"/>
<polyline clip-path="url(#clip510)" style="stroke:#000000; stroke-linecap:round; stroke-linejoin:round; stroke-width:4; stroke-opacity:1; fill:none" points="327.056,322.316 684.146,322.316 684.146,166.796 327.056,166.796 327.056,322.316 "/>
<polyline clip-path="url(#clip510)" style="stroke:#009af9; stroke-linecap:round; stroke-linejoin:round; stroke-width:4; stroke-opacity:1; fill:none" points="350.34,218.636 490.043,218.636 "/>
<path clip-path="url(#clip510)" d="M544.455 208.306 Q543.401 208.236 542.699 207.533 Q542.465 207.299 542.23 206.245 Q541.996 205.191 541.926 204.231 Q541.856 202.966 541.153 201.678 Q540.52 200.389 539.139 200.389 Q537.101 200.389 535.836 201.725 Q534.196 203.294 532.674 205.941 Q532.721 206.151 532.815 207.299 Q532.908 208.423 532.908 208.868 Q532.908 212.171 532.768 213.811 Q535.602 212.288 538.272 211.89 L544.455 208.306 M551.67 226.951 L545.275 231.799 L542.207 226.201 Q542.23 225.686 542.254 224.819 Q542.301 223.952 542.324 223.25 Q542.347 222.524 542.347 221.915 Q542.347 219.736 542.09 218.354 Q541.856 216.973 541.598 216.551 Q541.364 216.129 540.966 215.731 Q540.216 214.982 539.115 214.537 Q538.014 214.068 536.984 214.068 Q535.649 214.068 532.58 214.958 Q532.369 216.457 531.995 218.191 Q531.058 222.125 529.301 224.796 Q527.849 225.967 525.109 228.403 Q522.392 230.839 521.244 231.799 Q520.284 230.839 519.159 230.066 Q518.035 229.269 517.356 229.269 Q515.388 229.269 513.866 231.284 L513.327 230.511 Q513.397 230.417 513.608 230.066 Q513.842 229.714 513.936 229.574 Q514.03 229.433 514.241 229.105 Q514.475 228.777 514.592 228.613 Q514.732 228.426 514.943 228.145 Q515.177 227.841 515.365 227.653 Q515.552 227.442 515.786 227.208 Q516.021 226.974 516.255 226.763 Q517.777 225.428 518.948 225.428 Q520.049 225.428 521.244 226.248 Q522.392 227.068 523.446 228.215 Q526.116 226.388 527.381 223.882 Q528.083 222.5 528.552 219.572 Q529.02 215.895 529.02 212.897 Q529.02 211.281 528.95 210.133 Q528.88 208.985 528.411 207.182 Q527.966 205.355 527.099 204.09 Q526.116 202.591 524.57 201.607 Q523.047 200.624 521.431 200.624 Q520.026 200.624 519.253 200.928 Q518.503 201.233 517.66 202.076 Q516.794 202.896 516.794 204.793 Q516.794 205.214 517.332 206.105 Q517.894 206.995 518.503 207.674 Q520.049 209.641 520.424 210.274 Q521.056 211.492 521.056 212.101 Q521.056 213.834 519.511 215.544 Q518.246 216.973 515.154 218.518 L514.428 217.98 Q515.716 217.277 516.794 215.965 Q517.496 215.099 517.496 214.115 Q517.496 213.623 516.887 212.803 L515.388 210.742 Q514.381 209.524 513.889 208.611 Q513.421 207.674 513.421 206.432 Q513.421 205.121 514.053 204.02 Q514.709 202.896 515.88 201.725 Q520.002 197.602 524.663 197.602 Q526.209 197.602 527.685 198.563 Q529.161 199.523 530.355 200.998 Q531.386 202.216 532.088 204.231 L532.276 203.973 Q533.541 202.404 534.782 201.162 Q538.342 197.602 542.207 197.602 Q543.964 197.602 544.994 198.844 Q545.744 199.757 546.048 202.17 Q546.072 202.38 546.118 203.247 Q546.165 204.09 546.282 204.559 Q546.376 204.98 546.517 205.238 Q546.657 205.472 547.149 205.683 Q547.664 205.894 548.554 205.894 Q549.187 205.894 550.358 205.706 L550.709 206.339 Q549.023 206.995 546.54 208.306 Q542.629 210.321 540.638 211.89 Q542.324 211.89 543.401 212.335 Q544.479 212.78 545.533 213.67 Q545.908 221.962 546.282 223.133 Q546.845 224.913 547.594 226.154 Q547.617 226.201 547.735 226.365 Q547.852 226.529 547.875 226.576 Q547.922 226.623 548.016 226.763 Q548.133 226.904 548.203 226.951 Q548.273 226.997 548.367 227.091 Q548.484 227.161 548.601 227.185 Q548.718 227.208 548.835 227.208 Q549.093 227.208 551.67 226.201 L551.67 226.951 Z" fill="#000000" fill-rule="evenodd" fill-opacity="1" /><path clip-path="url(#clip510)" d="M550.912 242.503 L550.912 194.534 L558.149 194.534 L558.149 195.635 L554.121 195.635 L554.121 241.402 L558.149 241.402 L558.149 242.503 L550.912 242.503 Z" fill="#000000" fill-rule="evenodd" fill-opacity="1" /><path clip-path="url(#clip510)" d="M583.991 199.991 Q583.991 201.28 583.171 202.076 Q582.375 202.872 581.368 202.872 Q580.642 202.872 580.103 202.427 Q579.588 201.982 579.588 201.209 Q579.588 200.413 580.197 199.57 Q580.806 198.726 582.188 198.609 Q581.274 197.743 579.822 197.743 Q579.096 197.743 578.487 198.211 Q577.901 198.656 577.573 199.382 Q577.222 200.132 576.426 204.371 Q576.168 205.753 575.934 207.088 Q575.7 208.423 575.419 209.829 L579.4 209.829 Q579.916 209.829 580.126 209.852 Q580.337 209.876 580.501 209.993 Q580.689 210.11 580.689 210.367 Q580.689 211.023 580.384 211.187 Q580.103 211.328 579.26 211.328 L575.137 211.328 L572.256 226.529 Q572.186 226.974 571.882 228.379 Q571.601 229.761 570.921 232.033 Q570.242 234.329 569.563 235.687 Q569.188 236.46 568.696 237.186 Q568.228 237.936 567.549 238.685 Q566.869 239.435 565.979 239.88 Q565.089 240.348 564.152 240.348 Q562.56 240.348 561.318 239.458 Q560.077 238.568 560.077 237.046 Q560.077 235.757 560.873 234.961 Q561.693 234.165 562.7 234.165 Q563.426 234.165 563.942 234.61 Q564.48 235.055 564.48 235.828 Q564.48 236.156 564.363 236.53 Q564.246 236.905 563.988 237.327 Q563.731 237.772 563.169 238.076 Q562.606 238.381 561.833 238.428 Q562.747 239.294 564.152 239.294 Q564.597 239.294 564.996 239.107 Q565.394 238.943 565.722 238.521 Q566.073 238.1 566.331 237.678 Q566.588 237.28 566.846 236.507 Q567.104 235.757 567.267 235.195 Q567.431 234.633 567.642 233.626 Q567.876 232.619 567.994 232.01 Q568.111 231.424 568.322 230.276 L571.905 211.328 L568.743 211.328 Q568.181 211.328 567.947 211.304 Q567.736 211.281 567.572 211.164 Q567.408 211.023 567.408 210.742 Q567.408 210.297 567.595 210.11 Q567.806 209.899 568.04 209.876 Q568.275 209.829 568.837 209.829 L572.163 209.829 Q573.287 203.903 573.732 202.31 Q574.247 200.624 575.044 199.453 Q575.84 198.258 576.73 197.696 Q577.62 197.134 578.346 196.923 Q579.096 196.689 579.822 196.689 Q581.461 196.689 582.726 197.579 Q583.991 198.445 583.991 199.991 Z" fill="#000000" fill-rule="evenodd" fill-opacity="1" /><path clip-path="url(#clip510)" d="M590.444 218.518 Q590.444 210.414 593.465 203.879 Q594.753 201.139 596.557 198.844 Q598.361 196.548 599.555 195.541 Q600.75 194.534 601.078 194.534 Q601.546 194.534 601.569 195.002 Q601.569 195.237 600.937 195.822 Q593.208 203.692 593.231 218.518 Q593.231 233.392 600.75 240.957 Q601.569 241.777 601.569 242.035 Q601.569 242.503 601.078 242.503 Q600.75 242.503 599.602 241.543 Q598.454 240.582 596.674 238.381 Q594.894 236.179 593.606 233.485 Q590.444 226.951 590.444 218.518 Z" fill="#000000" fill-rule="evenodd" fill-opacity="1" /><path clip-path="url(#clip510)" d="M625.987 206.526 Q625.987 210.461 624.722 214.888 Q623.48 219.291 621.513 222.852 Q619.545 226.388 616.969 228.731 Q614.393 231.049 611.933 231.049 Q610.364 231.049 609.193 230.183 Q608.045 229.293 607.413 227.817 Q606.78 226.318 606.476 224.679 Q606.171 223.016 606.171 221.212 Q606.171 218.518 606.757 215.591 Q607.342 212.639 608.326 209.969 Q609.31 207.276 610.692 204.84 Q612.074 202.38 613.596 200.6 Q615.142 198.797 616.875 197.743 Q618.609 196.689 620.225 196.689 Q621.396 196.689 622.333 197.204 Q623.293 197.696 623.902 198.563 Q624.511 199.406 624.933 200.413 Q625.378 201.42 625.588 202.591 Q625.799 203.739 625.893 204.699 Q625.987 205.636 625.987 206.526 M622.825 203.551 Q622.825 202.357 622.731 201.467 Q622.637 200.553 622.38 199.64 Q622.122 198.726 621.56 198.235 Q621.021 197.743 620.178 197.743 Q617.719 197.743 614.955 202.779 Q614.065 204.348 613.268 206.479 Q612.472 208.611 612.191 209.618 Q611.91 210.625 611.254 213.108 L621.279 213.108 Q622.825 206.714 622.825 203.551 M620.857 214.63 L610.879 214.63 Q609.333 220.486 609.333 224.14 Q609.333 227.325 609.989 228.66 Q610.668 229.972 611.933 229.972 Q613.385 229.972 614.744 228.52 Q616.102 227.044 617.484 224.374 Q619.311 220.908 620.857 214.63 Z" fill="#000000" fill-rule="evenodd" fill-opacity="1" /><path clip-path="url(#clip510)" d="M630.933 242.035 Q630.933 241.8 631.542 241.215 Q639.271 233.345 639.271 218.518 Q639.271 203.645 631.846 196.127 Q630.933 195.26 630.933 195.002 Q630.933 194.534 631.401 194.534 Q631.729 194.534 632.877 195.494 Q634.048 196.454 635.805 198.656 Q637.585 200.858 638.897 203.551 Q642.059 210.086 642.059 218.518 Q642.059 226.623 639.037 233.157 Q637.749 235.898 635.945 238.193 Q634.142 240.489 632.947 241.496 Q631.753 242.503 631.401 242.503 Q630.933 242.503 630.933 242.035 Z" fill="#000000" fill-rule="evenodd" fill-opacity="1" /><path clip-path="url(#clip510)" d="M647.428 241.402 L651.457 241.402 L651.457 195.635 L647.428 195.635 L647.428 194.534 L654.666 194.534 L654.666 242.503 L647.428 242.503 L647.428 241.402 Z" fill="#000000" fill-rule="evenodd" fill-opacity="1" /><polyline clip-path="url(#clip510)" style="stroke:#e26f46; stroke-linecap:round; stroke-linejoin:round; stroke-width:4; stroke-opacity:1; fill:none" points="350.34,270.476 490.043,270.476 "/>
<path clip-path="url(#clip510)" d="M537.569 250.941 Q534.009 254.267 530.121 256.305 L523.937 254.056 Q522.181 253.518 521.197 253.518 Q518.831 253.518 517.356 255.064 Q515.458 256.961 514.147 260.474 L513.327 259.959 Q514.194 257.663 515.646 254.572 Q516.7 252.44 517.707 251.363 Q519.37 249.442 522.251 249.442 Q524.336 249.442 529.652 251.995 Q531.292 252.745 532.182 252.745 Q533.353 252.745 534.431 252.136 Q535.532 251.574 537.031 250.168 L537.569 250.941 M536.656 254.619 Q535.157 255.954 534.103 257.687 Q533.541 258.717 533.541 260.099 Q533.541 262.395 533.681 263.215 Q534.243 267.384 534.243 270.593 Q534.243 275.956 531.409 278.791 Q526.561 283.639 521.197 283.639 Q519.183 283.639 516.606 281.344 L514.053 283.124 L513.819 282.351 Q514.522 281.39 515.833 279.915 Q517.145 278.416 518.129 277.385 Q519.112 276.331 519.276 276.214 Q520.284 278.369 520.611 279.001 Q520.963 279.634 521.431 280.102 Q522.04 280.711 522.954 281.109 Q523.891 281.484 524.757 281.484 Q525.764 281.484 526.49 281.109 Q527.24 280.735 528.013 279.962 Q528.997 278.978 529.606 276.682 Q530.121 274.996 530.121 272.42 Q530.121 269.984 529.652 266.33 Q529.254 262.934 529.254 261.762 Q529.254 261.224 529.348 260.146 Q532.791 256.375 536.07 254.291 L536.656 254.619 Z" fill="#000000" fill-rule="evenodd" fill-opacity="1" /><path clip-path="url(#clip510)" d="M551.148 294.343 L551.148 246.374 L558.386 246.374 L558.386 247.475 L554.357 247.475 L554.357 293.242 L558.386 293.242 L558.386 294.343 L551.148 294.343 Z" fill="#000000" fill-rule="evenodd" fill-opacity="1" /><path clip-path="url(#clip510)" d="M584.228 251.831 Q584.228 253.12 583.408 253.916 Q582.611 254.712 581.604 254.712 Q580.878 254.712 580.34 254.267 Q579.824 253.822 579.824 253.049 Q579.824 252.253 580.433 251.41 Q581.042 250.566 582.424 250.449 Q581.511 249.583 580.058 249.583 Q579.332 249.583 578.723 250.051 Q578.138 250.496 577.81 251.222 Q577.459 251.972 576.662 256.211 Q576.405 257.593 576.17 258.928 Q575.936 260.263 575.655 261.669 L579.637 261.669 Q580.152 261.669 580.363 261.692 Q580.574 261.716 580.738 261.833 Q580.925 261.95 580.925 262.207 Q580.925 262.863 580.621 263.027 Q580.34 263.168 579.496 263.168 L575.374 263.168 L572.493 278.369 Q572.423 278.814 572.118 280.219 Q571.837 281.601 571.158 283.873 Q570.479 286.169 569.799 287.527 Q569.425 288.3 568.933 289.026 Q568.464 289.776 567.785 290.525 Q567.106 291.275 566.216 291.72 Q565.326 292.188 564.389 292.188 Q562.796 292.188 561.555 291.298 Q560.313 290.408 560.313 288.886 Q560.313 287.597 561.11 286.801 Q561.929 286.005 562.937 286.005 Q563.663 286.005 564.178 286.45 Q564.717 286.895 564.717 287.668 Q564.717 287.996 564.6 288.37 Q564.483 288.745 564.225 289.167 Q563.967 289.612 563.405 289.916 Q562.843 290.221 562.07 290.268 Q562.983 291.134 564.389 291.134 Q564.834 291.134 565.232 290.947 Q565.63 290.783 565.958 290.361 Q566.309 289.94 566.567 289.518 Q566.825 289.12 567.082 288.347 Q567.34 287.597 567.504 287.035 Q567.668 286.473 567.879 285.466 Q568.113 284.459 568.23 283.85 Q568.347 283.264 568.558 282.116 L572.142 263.168 L568.98 263.168 Q568.417 263.168 568.183 263.144 Q567.972 263.121 567.809 263.004 Q567.645 262.863 567.645 262.582 Q567.645 262.137 567.832 261.95 Q568.043 261.739 568.277 261.716 Q568.511 261.669 569.073 261.669 L572.399 261.669 Q573.524 255.743 573.969 254.15 Q574.484 252.464 575.28 251.293 Q576.077 250.098 576.967 249.536 Q577.857 248.974 578.583 248.763 Q579.332 248.529 580.058 248.529 Q581.698 248.529 582.963 249.419 Q584.228 250.285 584.228 251.831 Z" fill="#000000" fill-rule="evenodd" fill-opacity="1" /><path clip-path="url(#clip510)" d="M590.68 270.358 Q590.68 262.254 593.702 255.719 Q594.99 252.979 596.794 250.684 Q598.597 248.388 599.792 247.381 Q600.986 246.374 601.314 246.374 Q601.783 246.374 601.806 246.842 Q601.806 247.077 601.174 247.662 Q593.444 255.532 593.468 270.358 Q593.468 285.232 600.986 292.797 Q601.806 293.617 601.806 293.875 Q601.806 294.343 601.314 294.343 Q600.986 294.343 599.838 293.383 Q598.691 292.422 596.911 290.221 Q595.131 288.019 593.842 285.325 Q590.68 278.791 590.68 270.358 Z" fill="#000000" fill-rule="evenodd" fill-opacity="1" /><path clip-path="url(#clip510)" d="M626.223 258.366 Q626.223 262.301 624.958 266.728 Q623.717 271.131 621.749 274.692 Q619.782 278.228 617.206 280.571 Q614.629 282.889 612.17 282.889 Q610.6 282.889 609.429 282.023 Q608.282 281.133 607.649 279.657 Q607.017 278.158 606.712 276.519 Q606.408 274.856 606.408 273.052 Q606.408 270.358 606.993 267.431 Q607.579 264.479 608.563 261.809 Q609.546 259.116 610.928 256.68 Q612.31 254.22 613.833 252.44 Q615.379 250.637 617.112 249.583 Q618.845 248.529 620.461 248.529 Q621.632 248.529 622.569 249.044 Q623.53 249.536 624.139 250.403 Q624.748 251.246 625.169 252.253 Q625.614 253.26 625.825 254.431 Q626.036 255.579 626.129 256.539 Q626.223 257.476 626.223 258.366 M623.061 255.391 Q623.061 254.197 622.967 253.307 Q622.874 252.393 622.616 251.48 Q622.358 250.566 621.796 250.075 Q621.258 249.583 620.414 249.583 Q617.955 249.583 615.191 254.619 Q614.301 256.188 613.505 258.319 Q612.708 260.451 612.427 261.458 Q612.146 262.465 611.49 264.948 L621.515 264.948 Q623.061 258.554 623.061 255.391 M621.094 266.47 L611.116 266.47 Q609.57 272.326 609.57 275.98 Q609.57 279.165 610.226 280.5 Q610.905 281.812 612.17 281.812 Q613.622 281.812 614.98 280.36 Q616.339 278.884 617.721 276.214 Q619.548 272.748 621.094 266.47 Z" fill="#000000" fill-rule="evenodd" fill-opacity="1" /><path clip-path="url(#clip510)" d="M631.169 293.875 Q631.169 293.64 631.778 293.055 Q639.508 285.185 639.508 270.358 Q639.508 255.485 632.083 247.967 Q631.169 247.1 631.169 246.842 Q631.169 246.374 631.638 246.374 Q631.966 246.374 633.113 247.334 Q634.285 248.294 636.041 250.496 Q637.821 252.698 639.133 255.391 Q642.295 261.926 642.295 270.358 Q642.295 278.463 639.274 284.997 Q637.985 287.738 636.182 290.033 Q634.378 292.329 633.184 293.336 Q631.989 294.343 631.638 294.343 Q631.169 294.343 631.169 293.875 Z" fill="#000000" fill-rule="evenodd" fill-opacity="1" /><path clip-path="url(#clip510)" d="M647.665 293.242 L651.694 293.242 L651.694 247.475 L647.665 247.475 L647.665 246.374 L654.902 246.374 L654.902 294.343 L647.665 294.343 L647.665 293.242 Z" fill="#000000" fill-rule="evenodd" fill-opacity="1" /></svg>
